<?xml version="1.0" encoding="utf-8"?>
<!-- Generator: Adobe Illustrator 19.1.0, SVG Export Plug-In . SVG Version: 6.00 Build 0)  -->
<svg version="1.1" xmlns="http://www.w3.org/2000/svg" xmlns:xlink="http://www.w3.org/1999/xlink" x="0px" y="0px"
	 viewBox="0 0 324 62.6" style="enable-background:new 0 0 324 62.6;" xml:space="preserve">
<style type="text/css">
	.st0{fill:#3F4A74;}
	.st1{fill:#EC5F69;}
	.st2{fill:#F29A7F;}
	.st3{fill:#EFEF9F;}
	.st4{fill:#62B0C1;stroke:#62B0C1;stroke-width:0.5;stroke-miterlimit:10;}
	.st5{fill:#3F4A74;stroke:#3F4A74;stroke-width:0.9805;stroke-miterlimit:10;}
	.st6{fill:#62B0C1;}
	.st7{fill:#62B0C1;stroke:#62B0C1;stroke-width:0.9;stroke-miterlimit:10;}
</style>
<g id="Layer_1">
</g>
<g id="original_font">
	<g>
		<path class="st0" d="M289.5,33.1c0.4-0.3,0.9-0.8,1.5-1.3c0.2-0.2,0.4-0.3,0.5-0.5c0.1-0.1,0.2-0.3,0.3-0.5
			c0.1-0.2,0.2-0.4,0.3-0.7c0.1-0.3,0.2-0.7,0.4-1.1h0c-0.2,0.4-0.4,0.8-0.7,1c-0.3,0.2-0.6,0.5-0.9,0.7c-0.3,0.2-0.7,0.5-1,0.8
			c-0.3,0.3-0.6,0.7-0.9,1.3v0c0.2-0.7,0.4-1.3,0.5-1.8c0.1-0.5,0.2-0.9,0.3-1.3c0.1-0.4,0.2-0.7,0.4-0.9c0.1-0.3,0.4-0.5,0.7-0.8v0
			c-0.7,0.2-1.3,0.6-1.8,1.3c-0.5,0.7-0.7,1.4-0.7,2.2v2.8C288.7,33.8,289.1,33.4,289.5,33.1z M291.4,29.7c0.4-0.4,0.7-0.8,1-1.2
			c0.3-0.4,0.6-0.8,0.9-1.1c0.3-0.4,0.6-0.7,0.9-1l0,0c-0.2,0.2-0.5,0.4-0.9,0.5c-0.4,0.1-0.7,0.3-1.1,0.5c-0.4,0.2-0.8,0.6-1.2,1.1
			c-0.4,0.5-0.7,1.3-1,2.3C290.5,30.4,291,30,291.4,29.7z M286.9,40.1c0.3,0.4,0.6,0.8,0.9,1.2c0.3,0.4,0.7,0.9,1,1.4h0
			c0-0.2-0.1-0.4-0.1-0.6v-0.6c0-0.2,0.1-0.6,0.2-1.1c0.2-0.5,0.3-1,0.5-1.6c0.2-0.6,0.3-1.2,0.4-1.8c0.1-0.6,0.2-1.2,0.1-1.6h0
			c-0.1,0.3-0.2,0.7-0.4,1c-0.2,0.3-0.4,0.7-0.6,1c-0.2,0.4-0.4,0.7-0.6,1.2c-0.2,0.4-0.2,0.9-0.2,1.3c0,0.2,0,0.4,0.1,0.7
			c0.1,0.3,0.1,0.4,0.1,0.5h0c-0.1-0.6-0.3-1.1-0.4-1.7c-0.2-0.5-0.4-1-0.6-1.5c-0.2-0.5-0.4-0.9-0.5-1.2c-0.1-0.4-0.2-0.7-0.2-0.9
			c0-0.3,0-0.5,0-0.6c0-0.2,0-0.4,0-0.6h0c-0.1,0.2-0.2,0.6-0.3,1c-0.1,0.5-0.2,0.9-0.2,1.3c0,0.8,0.1,1.4,0.2,1.9
			C286.4,39.3,286.6,39.7,286.9,40.1z M294.2,51c0.1,0,0.3,0,0.4,0c0.2,0,0.4,0,0.6,0c0.2,0,0.4-0.1,0.7-0.1
			c0.3-0.1,0.7-0.1,1.1-0.3c0.5-0.1,1.1-0.3,1.9-0.5c-0.5-0.1-0.9-0.3-1.3-0.4c-0.4-0.1-0.7-0.4-1.1-0.7c-0.5-0.4-0.9-0.8-1.4-1.2
			c-0.4-0.3-0.7-0.6-1.1-1c-0.1-0.1-0.6-0.6-0.8-0.7l0,0c0.1,0.1,0.6,1.1,0.6,1.1s0.1,0.1,0.1,0.2c0.1,0.2,0.3,0.5,0.4,0.7
			c0.1,0.1,0.1,0.2,0.1,0.3c0.2,0.3,0.4,0.6,0.7,0.8c0.3,0.3,0.9,0.6,1.7,0.8v0c-0.3-0.1-0.6-0.1-0.9-0.1c-0.2,0-0.5-0.1-0.6-0.1
			c-0.2,0-0.4,0-0.6-0.1c-0.2,0-0.5,0-0.7-0.1c-0.2,0-0.4-0.1-0.6-0.1c-0.2,0-0.4,0-0.6-0.1c-0.1,0-0.2,0-0.3,0
			c-0.4,0-0.7-0.1-1-0.2c-0.3-0.1-0.6-0.2-0.9-0.4c-0.3-0.2-0.6-0.4-1-0.7l0,0c0.1,0.2,0.3,0.5,0.5,0.8c0.2,0.3,0.5,0.5,0.8,0.8
			c0.3,0.3,0.7,0.5,1.2,0.7c0.5,0.2,1,0.3,1.6,0.4C293.8,50.9,294,51,294.2,51z M287.9,38.4L287.9,38.4c0.1-0.2,0.1-0.5,0.2-0.6
			c0.1-0.2,0.2-0.4,0.3-0.7c0.1-0.3,0.4-0.6,0.6-1c0.3-0.4,0.6-0.9,1.1-1.5c0.3-0.4,0.5-0.9,0.6-1.4c0.2-0.5,0.3-0.9,0.3-1.2h0
			c-0.1,0.1-0.1,0.2-0.2,0.3c-0.1,0.1-0.2,0.2-0.3,0.3c-0.1,0.1-0.2,0.3-0.4,0.4c-0.2,0.2-0.4,0.4-0.7,0.6c-0.5,0.5-0.9,0.9-1,1.3
			c-0.2,0.4-0.3,0.8-0.4,1.3h0c0-0.2,0-0.4,0-0.6c0-0.2,0-0.5,0-0.8c0-0.4,0-0.9-0.1-1.4c-0.1-0.5-0.1-1.2-0.1-2.1
			c0-0.3,0.1-0.5,0.2-0.8c0.1-0.2,0.2-0.5,0.3-0.7h0c-0.6,0.7-0.9,1.4-1.2,2c-0.2,0.6-0.3,1.2-0.3,1.9c0,0.7,0.1,1.4,0.4,2.1
			C287.5,36.8,287.7,37.6,287.9,38.4z M292.1,48.8l1.7,0.4l0.9,0.2c-0.3-0.3-0.9-1.1-0.9-1.1c-0.2-0.3-0.4-0.7-0.5-1.1
			c-0.2-0.4-0.4-1-0.7-1.7c-0.1-0.2-0.2-0.5-0.3-0.6c-0.1-0.2-0.2-0.4-0.3-0.6c-0.1-0.2-0.3-0.4-0.4-0.7c-0.2-0.3-0.4-0.6-0.7-0.9
			l0,0c0.1,0.3,0.2,0.7,0.3,1.4c0.1,0.7,0.3,1.3,0.4,2c0.1,0.5,0.3,0.9,0.5,1.3c0.3,0.4,0.6,0.8,1.1,1.2l0,0c-0.2-0.1-0.5-0.3-1-0.6
			c-0.5-0.4-0.9-0.7-1.4-0.9c-1-0.5-1.8-1-2.4-1.3c-0.6-0.4-1-0.9-1.3-1.6l0,0c0.2,0.7,0.4,1.3,0.7,1.8c0.3,0.5,0.7,1,1.2,1.4
			c0.5,0.4,1,0.7,1.5,1C291,48.5,291.6,48.7,292.1,48.8z M288.4,44.7l3,2c-0.1-0.3-0.2-0.5-0.3-0.8c-0.1-0.2-0.2-0.5-0.2-0.8
			c-0.1-0.3-0.1-0.6-0.1-1c0-0.4-0.1-0.8-0.1-1.3c-0.1-0.9-0.2-1.6-0.3-2c-0.1-0.5-0.2-1-0.4-1.6h0c0,0.5,0,0.8-0.1,1.2
			c0,0.3-0.1,0.6-0.2,0.9c-0.1,0.3-0.1,0.5-0.2,0.7c0,0.2-0.1,0.5-0.1,0.8c0,0.3,0.1,0.7,0.3,1.1c0.2,0.5,0.3,0.8,0.5,1.1l0,0
			c-0.5-0.7-0.9-1.3-1.3-1.8c-0.4-0.5-0.8-0.9-1.2-1.3c-0.4-0.4-0.7-0.8-0.9-1.1c-0.3-0.4-0.4-0.8-0.5-1.4c0,0.1-0.1,0.3-0.1,0.4
			c0,0.1,0,0.2,0,0.4c0,0.5,0.1,0.9,0.2,1.4c0.2,0.5,0.4,0.9,0.6,1.3c0.2,0.4,0.5,0.8,0.8,1.1C287.9,44.3,288.1,44.5,288.4,44.7z
			 M312.7,27.3c0.3,0.4,0.6,0.7,0.9,1.1c0.3,0.4,0.6,0.8,1,1.2c0.4,0.4,0.8,0.8,1.4,1.1c-0.3-1-0.6-1.8-1-2.3
			c-0.4-0.5-0.8-0.9-1.2-1.1c-0.4-0.2-0.8-0.4-1.1-0.5c-0.4-0.1-0.7-0.3-0.9-0.5l0,0C312.1,26.7,312.4,27,312.7,27.3z M315.3,49
			c-0.3,0.2-0.6,0.3-0.9,0.4c-0.3,0.1-0.6,0.1-1,0.2c-0.1,0-0.2,0-0.3,0c-0.2,0-0.4,0-0.6,0.1c-0.2,0-0.4,0.1-0.6,0.1
			c-0.2,0-0.5,0-0.7,0.1c-0.2,0-0.4,0-0.6,0.1c-0.2,0-0.4,0.1-0.6,0.1c-0.2,0-0.5,0.1-0.9,0.1v0c0.8-0.2,1.3-0.5,1.7-0.8
			c0.3-0.2,0.5-0.5,0.7-0.8c0-0.1,0.1-0.2,0.1-0.3c0.1-0.2,0.3-0.5,0.4-0.7c0-0.1,0.1-0.2,0.1-0.2s0.5-1,0.6-1.1l0,0
			c-0.2,0.2-0.7,0.6-0.8,0.7c-0.4,0.3-0.7,0.6-1.1,1c-0.5,0.4-0.9,0.8-1.4,1.2c-0.4,0.3-0.7,0.6-1.1,0.7c-0.4,0.1-0.8,0.2-1.3,0.4
			c0.8,0.2,1.4,0.3,1.9,0.5c0.5,0.1,0.8,0.2,1.1,0.3c0.3,0.1,0.5,0.1,0.7,0.1c0.2,0,0.4,0,0.6,0c0.2,0,0.3,0,0.4,0
			c0.1,0,0.4,0,0.4,0c0.6-0.1,1.1-0.2,1.6-0.4c0.5-0.2,0.9-0.4,1.2-0.7c0.3-0.3,0.6-0.5,0.8-0.8c0.2-0.3,0.4-0.5,0.5-0.8l0,0
			C315.9,48.6,315.6,48.8,315.3,49z M317.6,45.6c-0.6,0.4-1.4,0.8-2.4,1.3c-0.5,0.2-1,0.5-1.4,0.9c-0.5,0.4-0.8,0.6-1,0.6l0,0
			c0.5-0.4,0.8-0.8,1.1-1.2c0.3-0.4,0.5-0.8,0.5-1.3c0.1-0.6,0.3-1.3,0.4-2c0.1-0.7,0.3-1.2,0.3-1.4l0,0c-0.3,0.4-0.5,0.7-0.7,0.9
			c-0.2,0.3-0.3,0.5-0.4,0.7c-0.1,0.2-0.2,0.4-0.3,0.6c-0.1,0.2-0.2,0.4-0.3,0.6c-0.3,0.7-0.5,1.3-0.7,1.7c-0.2,0.4-0.3,0.8-0.5,1.1
			c0,0-0.5,0.9-0.9,1.1l0.9-0.2l1.7-0.4c0.5-0.1,1.1-0.3,1.6-0.6c0.5-0.3,1-0.6,1.5-1c0.5-0.4,0.9-0.9,1.2-1.4
			c0.3-0.5,0.6-1.1,0.7-1.8l0,0C318.6,44.7,318.1,45.2,317.6,45.6z M318.8,37.9c-0.2,0.5-0.4,0.9-0.6,1.5c-0.2,0.5-0.3,1.1-0.4,1.7
			h0c0-0.1,0-0.2,0.1-0.5c0.1-0.3,0.1-0.5,0.1-0.7c0-0.5-0.1-0.9-0.2-1.3c-0.2-0.4-0.4-0.8-0.6-1.2c-0.2-0.4-0.4-0.7-0.6-1
			c-0.2-0.3-0.3-0.7-0.4-1h0c-0.1,0.5,0,1,0.1,1.6c0.1,0.6,0.3,1.2,0.4,1.8c0.2,0.6,0.3,1.1,0.5,1.6c0.2,0.5,0.2,0.8,0.2,1.1v0.6
			c0,0.2,0,0.4-0.1,0.6h0c0.3-0.6,0.6-1,1-1.4c0.3-0.4,0.6-0.8,0.9-1.2c0.3-0.4,0.5-0.8,0.6-1.3c0.2-0.5,0.2-1.1,0.2-1.9
			c0-0.4-0.1-0.8-0.2-1.3c-0.1-0.5-0.2-0.8-0.3-1h0c0,0.2,0,0.4,0,0.6c0,0.2,0,0.4,0,0.6c0,0.2-0.1,0.5-0.2,0.9
			C319.1,37.1,319,37.5,318.8,37.9z M317.5,35.1c-0.2-0.4-0.5-0.8-1-1.3c-0.3-0.3-0.5-0.5-0.7-0.6c-0.2-0.2-0.3-0.3-0.4-0.4
			c-0.1-0.1-0.2-0.2-0.3-0.3c-0.1-0.1-0.1-0.2-0.2-0.3h0c0.1,0.2,0.2,0.6,0.3,1.2c0.2,0.5,0.4,1,0.6,1.4c0.4,0.6,0.8,1.1,1.1,1.5
			c0.3,0.4,0.5,0.7,0.6,1c0.1,0.3,0.2,0.5,0.3,0.7c0.1,0.2,0.1,0.4,0.1,0.6h0.1c0.2-0.9,0.4-1.6,0.7-2.3c0.3-0.7,0.4-1.4,0.4-2.1
			c0-0.6-0.1-1.2-0.3-1.9c-0.2-0.6-0.6-1.3-1.2-2h0c0.1,0.2,0.2,0.4,0.3,0.7c0.1,0.2,0.2,0.5,0.2,0.8c0,0.9,0,1.5-0.1,2.1
			c-0.1,0.5-0.1,1-0.1,1.4c0,0.3,0,0.6,0,0.8c0,0.2,0,0.4,0,0.6h0C317.8,36,317.7,35.5,317.5,35.1z M315.8,28.8
			c0.1,0.3,0.3,0.6,0.4,0.9c0.1,0.4,0.2,0.8,0.3,1.3c0.1,0.5,0.3,1.1,0.5,1.8v0c-0.3-0.5-0.6-1-0.9-1.3c-0.3-0.3-0.7-0.6-1-0.8
			c-0.3-0.2-0.6-0.5-0.9-0.7c-0.3-0.2-0.5-0.6-0.7-1h0c0.2,0.5,0.3,0.9,0.4,1.1c0.1,0.3,0.2,0.5,0.3,0.7c0.1,0.2,0.2,0.3,0.3,0.5
			c0.1,0.1,0.3,0.3,0.5,0.5c0.6,0.5,1.1,0.9,1.5,1.3c0.4,0.3,0.8,0.7,1,1.2v-2.8c0-0.8-0.2-1.6-0.7-2.2c-0.5-0.7-1-1.1-1.8-1.3v0
			C315.4,28.2,315.6,28.5,315.8,28.8z M311.1,51.8c-0.2,0-0.5,0-0.7-0.1c-0.2,0-0.4-0.1-0.7-0.1v0c-0.2-0.1-0.5-0.2-0.8-0.3
			c-0.3-0.1-0.7-0.2-1.1-0.4c-0.8-0.3-1.3-0.5-1.7-0.6c-0.4-0.1-0.8-0.2-1.1-0.2c-0.3,0-0.7,0-1.2,0.1c-0.4,0.1-0.7,0.2-0.9,0.2
			c-0.2-0.1-0.4-0.1-0.8-0.2c-0.4-0.1-0.8-0.1-1.2-0.1c-0.4,0-0.8,0.1-1.1,0.2c-0.4,0.1-1,0.3-1.7,0.6c-0.9,0.3-1.5,0.5-2,0.7
			c-0.4,0.1-0.9,0.2-1.3,0.2c-0.2,0-0.4,0-0.6,0c-0.2,0-0.3-0.1-0.5-0.1c0,0-0.4-0.1-0.6-0.2c-0.2-0.1-0.5-0.2-0.8-0.3l0,0
			c0.4,0.5,1.4,1.1,1.4,1.1c0.7,0.4,1.5,0.6,2.2,0.6c0.3,0,0.6,0,0.9-0.1c0.3,0,0.5-0.1,0.8-0.2c0.3-0.1,0.5-0.2,0.8-0.4
			c0.3-0.2,0.7-0.4,1.1-0.6c0.5-0.3,0.8-0.5,1.1-0.7c0.3-0.2,0.7-0.3,1.1-0.3c0.2,0,0.3,0,0.5,0.1c-0.5,0.3-1.1,0.6-1.8,1.1
			c-0.7,0.4-1.3,1-2,1.6l0.7,0.6c0.6-0.7,1.2-1.3,2-1.9c0.7-0.6,1.3-0.9,1.8-1.1c0.5,0.2,1.1,0.6,1.9,1.1c0.7,0.6,1.4,1.2,2,1.9
			l0.7-0.6c-0.6-0.7-1.3-1.2-2-1.6c-0.7-0.4-1.3-0.8-1.8-1.1c0.2-0.1,0.4-0.1,0.5-0.1c0.4,0,0.8,0.1,1.1,0.3
			c0.3,0.2,0.7,0.4,1.1,0.7c0.4,0.2,0.8,0.4,1,0.6c0.3,0.2,0.6,0.3,0.8,0.4c0.3,0.1,0.5,0.2,0.7,0.2c0.2,0.1,0.5,0.1,0.8,0.1v0h0.2
			c0.6,0,1.2-0.1,1.8-0.4c0.7-0.3,1.2-0.7,1.8-1.3v0c-0.6,0.3-1,0.4-1.3,0.5C311.9,51.7,311.5,51.8,311.1,51.8z M320,40.2
			c0,0,0-0.1,0-0.1c0-0.1,0-0.1,0-0.2c0-0.1,0-0.2-0.1-0.4c-0.1,0.6-0.2,1-0.5,1.4c-0.3,0.4-0.6,0.8-0.9,1.1c0,0,0,0-0.1,0.1
			c-0.3,0.4-0.7,0.8-1.1,1.2c-0.4,0.5-0.9,1-1.3,1.7l0,0c0.2-0.3,0.3-0.7,0.5-1.1c0.2-0.5,0.2-0.8,0.2-1.1c0-0.3,0-0.6-0.1-0.8
			c0-0.2-0.1-0.5-0.1-0.7c-0.1-0.3-0.1-0.6-0.1-0.9c0-0.3-0.1-0.7-0.1-1.2h0c0,0,0,0,0,0c0,0,0,0,0,0h0c-0.2,0.6-0.4,1.1-0.4,1.6
			c-0.1,0.5-0.2,1.2-0.3,2c-0.1,0.5-0.1,0.9-0.1,1.3c0,0.4-0.1,0.7-0.1,1c-0.1,0.3-0.1,0.6-0.2,0.8c-0.1,0.2-0.2,0.4-0.3,0.6
			c0,0,0,0.1-0.1,0.1l0,0c0,0,0,0,0,0l1-0.7l2-1.3c0.2-0.2,0.5-0.4,0.8-0.7c0.3-0.3,0.5-0.7,0.8-1.1c0.1-0.2,0.3-0.5,0.4-0.8
			c0.1-0.2,0.1-0.3,0.2-0.5C319.9,41.2,320,40.7,320,40.2C320,40.2,320,40.2,320,40.2C320,40.2,320,40.2,320,40.2
			C320,40.2,320,40.2,320,40.2z M308.4,28.4c0.1,0,0.1,0.1,0.2,0.1c0.1,0.1,0.1,0.1,0.1,0.2c0,0.1,0.1,0.1,0.1,0.1
			c0.1,0,0.1,0,0.1-0.1c0-0.1,0-0.1,0-0.1c0,0,0,0,0-0.1c0-0.1,0-0.2-0.1-0.2c-0.1-0.1-0.2-0.1-0.3-0.1c0,0-0.1,0-0.1,0h0
			c-0.1,0-0.1,0-0.1,0.1C308.3,28.3,308.3,28.4,308.4,28.4z M304.1,27.4L304.1,27.4c0.3-0.1,0.5-0.1,0.6-0.1h0.6
			c0.1,0,0.2,0,0.2-0.1c0.1-0.1,0.1-0.1,0.1-0.2c-0.1-0.2-0.3-0.3-0.5-0.3c-0.2,0-0.3,0-0.4,0c-0.1,0-0.2,0-0.5,0.1
			c-0.3,0.1-0.4,0.2-0.5,0.2c-0.1,0-0.2,0-0.2,0.1c0.1,0.1,0.1,0.1,0.2,0.2C303.8,27.4,304,27.4,304.1,27.4z M302.9,49.4
			c6.7,0,12.1-5.4,12.1-12.1c0-6.7-5.4-12.1-12.1-12.1c-6.7,0-12.1,5.4-12.1,12.1C290.8,43.9,296.2,49.4,302.9,49.4z M291.4,37.6
			h1.8c0,0.8,0.2,1.6,0.4,2.4c-0.1,0-0.1,0-0.1-0.1l-0.1-0.1l-0.2-0.3l-0.3,0.1c0,0.2-0.1,0.3-0.2,0.2c-0.1-0.1-0.1-0.1-0.2-0.1
			c-0.2,0-0.3,0.1-0.4,0.3c0,0.2-0.1,0.4-0.1,0.5l0.3,0.7c0.1,0.1,0.1,0.1,0.2,0c0.1,0.1,0.2,0.2,0.2,0.3c0.1,0.1,0.1,0.1,0.2,0.1
			c0.1,0,0.1,0,0.1-0.1h0c0.1,0.1,0.1,0.1,0.2,0.2c0.1,0.1,0.1,0.1,0.2,0.2v0c0.1,0.1,0.2,0.1,0.3,0.1c0.1,0.2,0.1,0.3,0.2,0.4
			c0.1,0.1,0.2,0.2,0.3,0.2c0.1,0,0.1,0,0.2-0.1c0.1,0.2,0.1,0.4,0.2,0.4c0.1,0,0.1,0.1,0.2,0.1c0.1,0.1,0.1,0.1,0.2,0.1h0.1
			c0,0,0,0,0,0c0,0.1,0.1,0.2,0.2,0.3c0.1,0.1,0.2,0.1,0.2,0.2c0,0,0,0,0,0c0,0,0,0,0,0c0,0,0,0,0,0c0,0,0.1,0.1,0.1,0.1l-1.3,1.3
			C292.7,43.2,291.5,40.5,291.4,37.6z M300.3,34.2c0,0-0.1,0-0.1-0.1l-0.1-0.1c0.7-0.6,1.6-1,2.5-1v1.3c0,0,0,0-0.1,0c0,0,0,0,0,0
			c0,0,0,0,0,0c0,0,0,0-0.1,0c0,0,0,0,0,0c0,0,0,0,0,0c0,0-0.1,0-0.1,0c0,0-0.1,0-0.1,0c0,0,0,0,0,0c0,0-0.1-0.1-0.1-0.2
			c0,0,0,0,0,0c0,0,0,0,0,0c-0.1,0.1-0.2,0.1-0.2,0.2c0,0.1,0,0.1-0.1,0.3c0,0.1-0.1,0.2-0.2,0.2c-0.1,0-0.2,0.1-0.2,0.1l-0.1-0.1
			H301c-0.1-0.1-0.1-0.1-0.1-0.1c0,0-0.1,0-0.1-0.1c0,0,0,0,0,0c-0.1,0-0.1,0-0.1,0.1l-0.1-0.1l0,0v-0.1
			C300.5,34.4,300.4,34.3,300.3,34.2z M299.6,33.6l-1.2-1.2c1.1-1,2.6-1.7,4.2-1.7v1.7C301.5,32.4,300.4,32.9,299.6,33.6z
			 M300.3,39.4c0.1-0.1,0-0.2,0.1-0.3l-0.1,0.1c0.1-0.1,0.2-0.2,0.2-0.3c0-0.1,0.1-0.1,0.1-0.2c0,0,0,0,0,0c0,0.1,0.1,0.2,0.1,0.3
			l-1.1,1.1c-0.4-0.5-0.8-1.1-0.9-1.8c0.1,0,0.2,0,0.3,0.1c0,0,0.3,0.2,0.3,0.2c0.1,0,0.1,0,0.2,0l0.2,0.1c0,0.1,0,0.2,0,0.2
			c0,0,0,0.1,0.1,0.1c0.1,0,0.1,0.1,0.2,0.1l0.1,0c0,0,0-0.1,0-0.2c0-0.1,0-0.1,0-0.1l0.1,0.3l0.1,0.3l0,0
			C300.2,39.4,300.3,39.4,300.3,39.4z M302.7,40.7c0.1,0.1,0.1,0.1,0.1,0.1c0,0.1-0.1,0.1-0.3,0.1c-0.1,0-0.1,0.1-0.2,0.2
			c0,0.2-0.1,0.3-0.1,0.4c0,0,0,0-0.1,0c0,0,0,0,0,0c-0.8-0.1-1.5-0.5-2.1-1l1.1-1.1c0.4,0.4,0.9,0.6,1.5,0.7c0,0.1,0,0.1,0,0.2
			c-0.1,0.1-0.1,0.1-0.1,0.2C302.6,40.6,302.7,40.6,302.7,40.7z M297.4,40.7c0-0.3-0.1-0.6-0.1-0.7c0-0.1-0.1-0.2-0.1-0.4
			c0-0.2-0.1-0.4-0.1-0.5c-0.1-0.1-0.2-0.3-0.4-0.5v-0.2c0,0,0-0.1-0.1-0.2v0c0-0.1,0-0.1,0.1-0.1c0,0,0.2-0.1,0.4-0.1
			c0-0.2,0-0.3,0-0.4l0.3,0.1c0.1,0,0.1-0.1,0.1-0.2c0,0,0-0.1-0.1-0.2c-0.1-0.1-0.1-0.2-0.1-0.3c0-0.1,0-0.1,0.1-0.1
			c0.1,0,0.2-0.1,0.2-0.1c0.1,0,0.2,0,0.3,0.1c0.1,0.1,0.1,0.2,0.1,0.3c0,0.1,0,0.2,0,0.2c0,0.1,0,0.1,0,0.2l0.1,0
			c-0.1,0.3-0.2,0.4-0.3,0.4c-0.1,0-0.1,0-0.2-0.1c0-0.1-0.1-0.1-0.1-0.1c0,0,0,0,0,0c0,0.1,0,0.1,0,0.2c0,0.1,0,0.1,0,0.2
			c0,0.2-0.1,0.3-0.3,0.2c-0.1,0.1,0,0.2,0.2,0.2c0.1,0.2,0.1,0.2,0.2,0.2c0,0,0.1-0.1,0.1-0.3c0-0.2,0.1-0.3,0.1-0.3l0,0l0.2,0
			c0,0,0,0,0,0.1c0,0,0,0,0,0c0.2,0.9,0.6,1.7,1.2,2.4l-1.7,1.7c-0.1-0.1-0.1-0.2-0.1-0.3c0-0.2,0.2-0.3,0.2-0.4c0,0,0-0.3,0-0.3
			C297.5,41,297.4,40.8,297.4,40.7z M296.4,38.2c0,0.1,0,0.1,0,0.2c0,0.1,0,0.1-0.1,0.1c0,0,0,0,0,0c-0.1-0.3-0.1-0.6-0.1-0.9h0.3
			c0,0.1,0,0.1,0,0.2c0,0.1-0.1,0.1-0.1,0.2c0,0.1-0.1,0.1-0.1,0.2C296.4,38.1,296.4,38.2,296.4,38.2z M296.2,37
			c0.1-1.6,0.7-3.1,1.7-4.2l1.2,1.2c0,0,0,0,0,0c-0.1,0-0.1,0-0.2,0.1c-0.1,0.1-0.1,0.1-0.2,0.2c-0.2,0.1-0.3,0.1-0.4,0.2
			c-0.1,0.1-0.2,0.2-0.3,0.3c-0.2,0.1-0.3,0.1-0.3,0.1c0,0-0.1,0-0.1,0.1c0.1,0.1,0.1,0.2,0,0.2c-0.1,0-0.2,0-0.4,0.1
			c0,0-0.1,0-0.1,0l-0.1,0.1c0,0.1,0,0.1,0,0.1c0,0,0,0.1,0,0.1c-0.1,0.1-0.1,0.1-0.2,0.2c0,0.1,0,0.2,0,0.4l0.1,0.4c0,0,0,0,0,0
			c0,0,0,0.1,0,0.1H296.2z M299.6,41c0.6,0.5,1.3,0.9,2.1,1.1c-0.1,0-0.1,0-0.2,0.1c-0.1,0-0.2,0.1-0.2,0.3c0,0.2-0.1,0.3-0.2,0.3
			c-0.1,0-0.1,0.1-0.1,0.2c0.1,0.1,0.2,0.3,0.3,0.5c0.1,0.2,0.2,0.3,0.4,0.4l0.2,0.1c0.1,0,0.1,0,0.2,0.1c0.1,0,0.1,0,0.2,0
			c-1.6-0.1-3-0.7-4-1.7L299.6,41z M298,31.9l-1.2-1.2c1.5-1.4,3.6-2.4,5.8-2.4V30C300.8,30.1,299.2,30.8,298,31.9z M297.5,32.3
			c-1.1,1.2-1.8,2.8-1.9,4.6h-1.7c0.1-2.3,1-4.3,2.4-5.9L297.5,32.3z M295.6,37.6c0,0.3,0,0.6,0.1,0.9c0,0,0-0.1-0.1-0.1
			c-0.1-0.1-0.2-0.2-0.2-0.2c-0.1,0-0.1,0-0.2,0.1c0,0.1-0.1,0.1-0.1,0.2c-0.2,0.1-0.4,0.2-0.4,0.2c-0.1,0.1-0.2,0.3-0.2,0.5
			c0,0.1,0,0.1,0,0.2c0,0.1,0,0.1-0.1,0.2c0.1,0.1,0.1,0.2,0,0.2c0,0.1,0,0.1,0,0.1c0,0-0.1,0-0.1,0c0,0,0,0.1-0.1,0.1
			c-0.2-0.7-0.3-1.5-0.4-2.2H295.6z M302.6,48.7c-2.9-0.1-5.6-1.3-7.6-3.1l1.3-1.3c1.7,1.6,3.9,2.5,6.3,2.6V48.7z M302.6,46.3
			c-2.2-0.1-4.3-1-5.8-2.4c0.1,0.1,0.2,0.1,0.3,0.1c0.1,0,0.2,0,0.3-0.1c0.1-0.1,0.3-0.1,0.4-0.2c0.2,0,0.3,0,0.4-0.1
			c0.1,0,0.2,0,0.3,0c0.1,0,0.1-0.1,0.1-0.2c0-0.1,0-0.2-0.1-0.2c-0.1-0.1-0.1-0.1-0.1-0.2c0,0,0-0.1-0.1-0.1c0,0-0.1-0.1-0.3-0.3
			l0,0c1.2,1.1,2.8,1.8,4.6,1.9V46.3z M302.9,41.8L302.9,41.8c-0.2,0-0.3,0-0.4-0.1c0,0,0-0.1,0-0.1c0,0,0.1-0.1,0.2-0.1
			c0.1-0.1,0.2-0.1,0.3-0.1l0-0.1l0.3-0.2c0.1,0,0.1,0,0.1,0c0,0,0.1,0,0.2-0.1c0,0,0.1,0,0.3,0.1c0.2,0.1,0.3,0.1,0.3,0.1l0-0.2
			c0.1,0,0.1,0.1,0.2,0.2c0.1,0,0.1,0,0.2-0.1c0-0.1,0-0.1,0-0.2c0,0,0.1,0,0.1,0c0,0,0,0,0.1,0c0,0,0,0,0.1,0h0
			c0.1,0,0.1,0,0.2-0.1c0.1-0.1,0.2-0.1,0.2-0.1c0,0,0.1,0,0.1,0c0,0,0,0.1,0,0.2c0,0.2-0.1,0.4-0.3,0.5c-0.2,0.1-0.4,0.2-0.6,0.2
			c0,0-0.1,0.1-0.1,0.2c0,0.1-0.1,0.1-0.1,0.1c-0.1,0-0.3,0-0.5-0.1c0,0-0.1-0.1-0.1-0.2c-0.1,0-0.2,0-0.3,0l-0.3,0.1
			C303,41.8,303,41.8,302.9,41.8z M304.7,40.5c0-0.1,0.1-0.2,0.2-0.3c0.1,0,0.2-0.1,0.3-0.1c0,0.1-0.1,0.2-0.2,0.2
			C304.8,40.5,304.7,40.5,304.7,40.5L304.7,40.5z M305.9,39.5c0.1,0.1,0.2,0.2,0.2,0.3c0,0.1-0.1,0.2-0.2,0.2
			c-0.1,0-0.1-0.1-0.2-0.3c-0.2-0.1-0.3-0.1-0.3-0.3c0-0.1,0-0.2,0-0.2c0.1,0,0.1,0,0.2-0.1c0.1,0,0.1,0,0,0.2
			C305.7,39.4,305.8,39.4,305.9,39.5z M309.8,32.8C309.8,32.8,309.8,32.8,309.8,32.8c0.2,0,0.3,0.1,0.4,0.1c0.1,0.1,0.2,0.3,0.5,0.6
			c0,0,0.1,0,0.1,0.1c0,0.1,0.1,0.1,0.1,0.1c0,0,0.1,0,0.2-0.1c0,0,0-0.1,0-0.1c0.5,1.1,0.8,2.2,0.8,3.4h-1.7c0,0,0,0,0,0
			c0-0.2,0-0.3-0.1-0.4c-0.1-0.2-0.1-0.4-0.1-0.6c0-0.2,0-0.3,0-0.3c-0.1,0-0.1,0-0.2,0c0,0-0.1,0.1-0.1,0.2c0,0.1-0.1,0.2-0.1,0.2
			v0c0,0,0,0.1,0,0.1c0,0,0,0,0,0.1c0,0.1-0.1,0.2-0.1,0.3c0,0.1,0,0.2,0,0.3c0,0,0,0,0,0c0,0,0,0.1,0,0.1h-0.9
			c0.1-0.1,0.1-0.1,0.2-0.1h0l0.2-0.1c-0.1,0-0.1-0.1-0.1-0.1c0-0.1,0-0.1,0-0.1c0,0,0.1,0,0.2-0.1c0.1-0.1,0.1-0.2,0.2-0.4
			c0.1-0.2,0.3-0.5,0.3-0.8c0-0.1-0.1-0.1-0.1-0.2c0-0.1,0-0.1,0-0.2c0-0.3,0.1-0.8-0.2-0.9c0,0,0,0,0-0.1c0.1-0.1,0.1-0.2,0.1-0.3
			h-0.2c0,0,0-0.1,0.1-0.1c0-0.1,0.1-0.1,0.1-0.2c0-0.1,0-0.1-0.1-0.1c-0.1,0-0.2,0-0.2,0c-0.1,0-0.1,0-0.1,0c0,0,0,0-0.1,0
			c0,0,0-0.1-0.1-0.1c0-0.1-0.1-0.3-0.2-0.4c-0.1-0.1-0.2-0.2-0.3-0.2c0,0,0,0,0,0c0-0.1,0-0.1,0-0.2l0.3-0.3l0.5,0.2
			c0,0.1,0,0.2,0.1,0.3c0,0,0.1,0.1,0.2,0.1c0.1,0,0.1,0.1,0.2,0.1v0C309.7,32.7,309.8,32.8,309.8,32.8z M308.1,44.4
			c0,0-0.1,0-0.1,0c0,0-0.1,0-0.1-0.1c0-0.1,0-0.1,0.1-0.2c0.1-0.1,0.1-0.1,0.2-0.3c0.1-0.1,0.1-0.2,0.1-0.2c0-0.1,0-0.1-0.1-0.1
			c0,0-0.1,0-0.1-0.1c-0.1,0-0.1-0.1-0.2-0.1c-0.1,0-0.1-0.1-0.2-0.1c-0.1-0.1-0.1-0.1-0.1-0.2c0,0,0-0.1,0.1-0.2c0,0,0-0.1,0-0.1
			c0,0,0.1-0.1,0.1-0.1l0.9,0.9c0,0.1,0.1,0.2,0.2,0.2l0.1,0.1c-0.3,0.3-0.7,0.6-1,0.8c0,0,0-0.1,0.1-0.1c0,0,0,0,0,0
			C308.1,44.5,308.1,44.5,308.1,44.4z M307.6,40c-0.1,0-0.2,0-0.2,0c-0.1,0-0.2,0.1-0.2,0.2c0,0,0,0,0,0c-0.1,0-0.1,0-0.2,0
			c-0.1,0-0.1,0.1-0.2,0.1c-0.1,0-0.1,0-0.1-0.1c0-0.1,0.1-0.1,0.4-0.2c0.1-0.1,0.2-0.2,0.2-0.2c0,0,0.1-0.1,0.2-0.1
			c0.1-0.1,0.2-0.2,0.3-0.3c0.1-0.1,0.2-0.2,0.2-0.3h0c0,0.1,0.1,0.2,0.2,0.2c0.1,0,0.2-0.1,0.2-0.3c0.2,0.1,0.3,0.1,0.3,0.1
			c0.1,0,0.2-0.1,0.3-0.2h0.5c0,0,0,0,0,0c0,0,0,0,0,0h0c-0.3,0.9-0.7,1.7-1.3,2.4c0,0,0-0.1,0-0.1c0,0-0.1-0.4-0.1-0.4
			c-0.1,0-0.1,0.1-0.2,0.3c-0.1,0.2-0.1,0.3-0.2,0.4l-0.4,0.1c-0.1,0-0.2,0-0.4,0c-0.1,0-0.2,0-0.3-0.1c-0.2-0.1-0.3-0.1-0.3-0.1
			c-0.1,0-0.2-0.1-0.3-0.1c-0.1,0-0.2-0.1-0.2-0.1c0-0.1,0.1-0.1,0.2-0.1c0.1,0,0.2,0,0.3,0.1c0.2,0,0.3,0.1,0.5,0.1
			c0.2,0,0.3,0.1,0.4,0.1c0.1,0,0.2,0.1,0.2,0.1l0.2-0.1c0-0.1,0-0.1,0.1-0.2c0.1-0.1,0.1-0.2,0.1-0.2c0.1-0.1,0.1-0.3,0.1-0.4
			c0-0.2,0.1-0.3,0.1-0.5C307.7,40.1,307.6,40,307.6,40z M308.6,37.6h0.9c0,0.4-0.1,0.8-0.2,1.2c-0.1-0.2-0.1-0.3-0.2-0.4
			c-0.1-0.1-0.2-0.2-0.3-0.3c0-0.1,0-0.2-0.1-0.3c0,0,0-0.1-0.1-0.1C308.7,37.7,308.7,37.6,308.6,37.6z M309,42.5
			c-0.1,0-0.1,0-0.1,0.1c0,0,0,0.1,0,0.2l-0.6-0.6c0.8-0.9,1.4-1.9,1.7-3.1c0,0,0,0,0,0c0.1,0.1,0.2,0.1,0.3,0
			c0-0.1,0.1-0.1,0.1-0.1c0-0.1-0.1-0.2-0.2-0.3h-0.1c0.1-0.3,0.1-0.7,0.1-1h1.7c-0.1,2.3-1,4.3-2.4,5.9l-0.1-0.1c0,0,0,0,0,0
			c0-0.2-0.1-0.4-0.1-0.5C309.3,42.6,309.2,42.5,309,42.5z M308.6,33.8C308.6,33.8,308.6,33.8,308.6,33.8c0,0.1,0,0.1,0,0.2
			c0,0.1-0.1,0.1-0.1,0.2c0,0.1,0.1,0.1,0.3,0.3c0.2,0.1,0.3,0.2,0.4,0.3c0.1,0.1,0.1,0.2,0.2,0.5c0.1,0.2,0.1,0.4,0.1,0.4
			c0,0.1-0.1,0.2-0.1,0.3c-0.1,0.2-0.2,0.2-0.4,0.2l0,0c0-0.1,0-0.1,0.1-0.2c0.1-0.1,0.1-0.2,0.1-0.2c0.1-0.1,0.2-0.2,0.2-0.2
			c-0.1,0-0.1,0-0.1-0.1c0,0-0.1-0.1-0.2-0.2c0-0.1-0.1-0.1-0.2-0.1c-0.1,0-0.1,0-0.2,0.1c-0.1,0-0.1,0.1-0.2,0.1l-0.1-0.2
			c0-0.1,0-0.1,0-0.2l-0.3-0.5c-0.1-0.1-0.2-0.1-0.4-0.1c-0.1,0-0.2,0-0.3,0c-0.1,0-0.2,0-0.3,0c-0.1,0-0.2,0-0.3,0.1
			c-0.1,0.1-0.2,0.2-0.3,0.3c0,0,0,0.1-0.1,0.1c0,0-0.1-0.1-0.1-0.1l1.8-1.8c0,0,0,0,0,0.1c0,0,0.1,0.1,0.2,0.2
			c0.1,0.1,0.1,0.1,0.2,0.2C308.4,33.4,308.5,33.6,308.6,33.8z M304.2,45.8c0.2,0.1,0.3,0.2,0.5,0.3c-0.5,0.1-1,0.2-1.5,0.2v-1.7h0
			c0.1,0.1,0.2,0.2,0.3,0.3c0.1,0,0.2,0,0.4,0.1c0.2,0,0.3,0,0.3,0.1c0,0.1,0,0.1-0.1,0.2c0,0.1-0.1,0.1-0.1,0.2
			C304,45.6,304.1,45.7,304.2,45.8z M303.2,48.7v-1.8c0.7,0,1.4-0.1,2-0.3c0,0,0,0,0,0c0,0,0,0,0,0.1c0.2,0.2,0.4,0.3,0.4,0.4
			c0.1,0.1,0.2,0.2,0.4,0.2c0.1,0,0.2,0,0.3-0.1c0-0.1,0.1-0.1,0.1-0.2c0.1-0.1,0.1-0.1,0.2-0.1c0.1,0,0.1-0.1,0.2-0.1
			c0.1-0.1,0.2-0.1,0.3-0.2c0.1-0.1,0.2-0.2,0.2-0.3c0.1,0,0.1,0,0.2-0.1c0.1-0.1,0.1-0.2,0.2-0.4c0,0,0,0,0.1,0c0,0,0,0,0-0.1
			c0.6-0.4,1.2-0.8,1.7-1.3l1.3,1.3C308.8,47.5,306.1,48.7,303.2,48.7z M311.2,45.2l-1.3-1.3c1.6-1.7,2.5-3.9,2.6-6.3h1.8
			C314.3,40.5,313.1,43.2,311.2,45.2z M314.4,37h-1.8c-0.1-2-0.7-3.9-1.9-5.4c0-0.1,0-0.1-0.1-0.2c0,0-0.1-0.1-0.1-0.1
			c-0.1-0.2-0.3-0.4-0.5-0.6c0,0,0-0.1,0-0.1l1.3-1.3C313.1,31.4,314.3,34,314.4,37z M303.2,25.8c2.9,0.1,5.6,1.3,7.6,3.1l-1.1,1.1
			c0-0.1,0-0.1-0.1-0.2c-0.1-0.1-0.1-0.1-0.2-0.1c-0.1-0.1-0.2-0.1-0.2-0.3c0-0.1,0-0.2-0.1-0.3c-0.2-0.1-0.3-0.2-0.4-0.4
			c-0.1-0.2-0.2-0.3-0.3-0.3c-0.1,0-0.1,0-0.3,0c-0.1,0-0.2-0.1-0.3-0.1c-0.1,0-0.2,0-0.3,0c-0.1,0-0.2,0.1-0.3,0.1c0,0,0,0,0,0
			c-1.2-0.6-2.5-1-3.9-1c0.1-0.2,0.1-0.3,0-0.3c0,0-0.1,0-0.2,0.1V25.8z M303.2,28.3c1.3,0,2.6,0.4,3.7,1c0,0,0,0,0,0
			c0,0,0.1,0.1,0.2,0.2c0.1,0.1,0.1,0.1,0.1,0.2c0.1,0.2,0.1,0.3,0.1,0.4c0,0.1,0.1,0.1,0.1,0.2c0,0.1,0,0.2,0.1,0.3
			c0.1,0.1,0.1,0.2,0.2,0.3c0,0,0.1,0,0.2,0c0.1,0,0.1,0,0.2,0c0.1,0,0.1,0,0.2,0.1c0.1,0.1,0.1,0.2,0.1,0.2c0,0,0,0.1,0,0.1
			l-0.5,0.5l0,0c-0.1-0.4-0.2-0.6-0.2-0.7c-0.1-0.1-0.2-0.1-0.3-0.1c0,0-0.1-0.1-0.3-0.3c-0.2-0.2-0.3-0.3-0.3-0.3
			c-0.1,0-0.1,0-0.1,0c0,0.1,0.1,0.1,0.1,0.1c0,0,0.1,0.1,0.2,0.3c0,0.1,0,0.1-0.1,0.1c0,0.1,0.1,0.2,0.2,0.2l0,0.1l0.1,0.2
			c-1.1-0.8-2.5-1.3-4-1.4V28.3z M303.2,30.6c1.6,0.1,3.1,0.7,4.2,1.7l-1.2,1.2c-0.8-0.7-1.8-1.2-3-1.2V30.6z M303.2,33
			c0.9,0.1,1.7,0.4,2.4,0.9c0,0-0.1,0-0.1,0c0,0-0.1,0-0.1,0.1c0,0,0,0,0,0.1c0,0.1,0.1,0.1,0.2,0.1l-0.5,0.5v0
			c-0.1,0-0.1,0.1-0.2,0.1c-0.1,0.1-0.2,0.1-0.2,0.1c0,0,0,0.1,0,0.1l-0.2,0.2c0,0,0,0-0.1,0c-0.1,0-0.1-0.1-0.2-0.2
			c-0.1-0.1-0.2-0.2-0.2-0.2c-0.1,0-0.1,0-0.2,0.1c0,0-0.1,0-0.1,0c-0.1-0.1,0-0.1,0.2-0.2c0.2-0.1,0.3-0.1,0.3-0.1
			c0.2-0.2,0.3-0.4,0.3-0.6c0-0.1-0.1-0.2-0.2-0.2l-0.1,0.1c-0.1,0.1-0.2,0.1-0.3,0.2c-0.1,0.1-0.2,0.1-0.2,0.2c-0.1,0-0.1,0-0.2,0
			h-0.2c0,0,0,0,0,0V33z M302.9,35.7C302.9,35.8,302.9,35.8,302.9,35.7c0.2,0.1,0.2,0.1,0.3,0.1c0,0,0.1,0,0.2,0c0,0,0,0.1,0,0.1
			c0,0.1,0.1,0.1,0.2,0.1c0,0,0,0,0,0.1c0,0,0,0,0,0c0,0,0,0.1,0.1,0.1c0,0,0,0,0,0c0,0,0,0,0,0c0.1,0,0.1,0,0.1,0c0,0,0.1,0,0.1,0
			c0,0,0,0.1,0,0.1h0c0,0,0,0.1,0,0.1c0,0.1,0,0.1,0,0.2v0.1c0,0,0,0,0,0c-0.1,0.1-0.1,0.2-0.1,0.2c0,0.1,0,0.1,0.1,0.1
			c0.1,0,0.1,0,0.2,0.1c0.1,0.1,0.1,0.1,0.1,0.2v0.4c0,0.1,0,0.1,0.1,0.1c0,0,0.1,0.1,0.1,0.1c0,0.1,0,0.2,0,0.3
			c0,0.1-0.1,0.2-0.1,0.3c0,0-0.1,0-0.2,0c-0.1,0-0.2,0-0.3,0c-0.1,0-0.1,0.1-0.2,0.2c-0.1,0.1-0.1,0.3-0.1,0.4
			c0,0.1-0.1,0.2-0.2,0.2c-0.1,0-0.1,0-0.2,0c0,0,0,0,0,0l-0.1,0.2l0,0.1c-0.5,0-0.9-0.2-1.2-0.5l0.2-0.2c0.1,0,0.3-0.1,0.4-0.1
			c0,0,0,0,0.1,0c0.2-0.1,0.2-0.3,0.3-0.5c0.1-0.1,0.3-0.3,0.1-0.4c0.2-0.3-0.7-0.3-0.8-0.2c-0.2,0.1-0.1,0.3-0.2,0.4
			c0,0.1-0.1,0.1-0.2,0.1c-0.1,0.1-0.3,0.3-0.3,0.4l0,0c-0.1-0.1-0.1-0.2-0.1-0.3c0,0,0,0,0,0c0,0,0-0.1,0-0.1h0v0
			c0.1,0,0.2,0,0.2,0c0-0.1,0-0.2,0.1-0.2c0-0.1,0.1-0.2,0.2-0.5c-0.1,0-0.1-0.1-0.1-0.1c0-0.1,0-0.1-0.1,0c-0.1,0-0.1,0.1-0.1,0.1
			c0,0.1,0,0.1-0.1,0.2c-0.1,0.1-0.1,0.1-0.2,0.1c0-0.1,0-0.1-0.1-0.1c-0.1,0-0.1,0-0.2,0.1c-0.1,0-0.2,0-0.4,0c-0.2,0-0.3,0-0.4,0
			c-0.1-0.1,0-0.1,0.2-0.2c0-0.2,0-0.3,0.2-0.5c0.1,0.1,0.2,0.1,0.2,0.1l0.1-0.1h0c0.1,0,0.1,0.1,0.1,0.2c0,0.1,0,0.2,0.1,0.2
			c0.1,0,0.1,0,0.2-0.1v-0.2c0.1-0.2,0.1-0.4,0.1-0.4v-0.1c0-0.1,0.1-0.1,0.1-0.2h0c0.1,0,0.1-0.1,0.2-0.1c0.1-0.1,0.1-0.2,0.1-0.2
			c0.1,0,0.2-0.1,0.4-0.2c0.2-0.1,0.3-0.2,0.3-0.2c0,0,0,0,0,0C302.6,35.7,302.7,35.6,302.9,35.7C302.8,35.7,302.8,35.7,302.9,35.7z
			 M302.6,25.8v1.8c-2.4,0.1-4.6,1.1-6.3,2.6L295,29C297,27.1,299.7,25.9,302.6,25.8z M294.6,29.4l1.3,1.3c-1.6,1.7-2.5,3.9-2.6,6.3
			h-1.8C291.5,34,292.7,31.4,294.6,29.4z"/>
		<g>
			<g>
				<path class="st0" d="M146.3,48.4c0-1-0.3-1.7-0.8-2.1c-0.5-0.5-1.2-0.7-2-0.7h-2.3c-0.1,0-0.2,0.1-0.2,0.2v0.9
					c0,0.1,0.1,0.2,0.2,0.2h1.8c1.2,0,1.8,0.5,1.8,1.6v1.3c0,0.3,0,0.5,0,0.7s-0.1,0.3-0.2,0.4s-0.2,0.2-0.4,0.2
					c-0.2,0-0.4,0.1-0.7,0.1h-3c-0.1,0-0.2,0.1-0.2,0.2v0.9c0,0.1,0.1,0.2,0.2,0.2h3.5c0.4,0,0.7,0,1-0.1c0.3-0.1,0.5-0.2,0.7-0.4
					c0.2-0.2,0.3-0.5,0.4-0.8c0.1-0.3,0.1-0.8,0.1-1.3V48.4z M138.4,41.8c0-0.1-0.1-0.2-0.2-0.2h-1c-0.1,0-0.2,0.1-0.2,0.2v10.4
					c0,0.1,0.1,0.2,0.2,0.2h1c0.1,0,0.2-0.1,0.2-0.2V41.8z M132.6,44.3c0.1,0,0.2-0.1,0.2-0.2V43c0-0.1-0.1-0.2-0.2-0.2h-1.1
					c-0.1,0-0.2,0.1-0.2,0.2v1.1c0,0.1,0.1,0.2,0.2,0.2H132.6z M131.7,51.1c-0.1,0-0.2-0.1-0.4-0.2c-0.2-0.1-0.3-0.2-0.5-0.4
					c-0.2-0.2-0.3-0.4-0.4-0.7c-0.1-0.3-0.2-0.6-0.2-1c0-0.6,0.2-1.1,0.5-1.4c0.3-0.4,0.8-0.6,1.4-0.6c0.7,0,1.3,0.3,1.8,0.8
					c0.1,0.1,0.1,0.1,0.2,0l0.7-0.6c0.1-0.1,0.1-0.1,0-0.2c-0.3-0.4-0.6-0.7-1.1-0.9c-0.5-0.2-1-0.3-1.6-0.3c-0.7,0-1.2,0.1-1.7,0.3
					c-0.4,0.2-0.8,0.5-1,0.8c-0.3,0.3-0.4,0.7-0.5,1.1c-0.1,0.4-0.1,0.7-0.1,1.1c0,0.5,0.1,1,0.3,1.4c0.2,0.4,0.4,0.7,0.6,0.9
					c-0.2,0-0.4,0.1-0.6,0.2c-0.2,0.1-0.4,0.2-0.6,0.4c-0.2,0.2-0.3,0.4-0.4,0.6c-0.1,0.3-0.2,0.6-0.2,0.9c0,0.8,0.2,1.3,0.7,1.7
					s1.1,0.5,1.9,0.5h1.6c0.1,0,0.2-0.1,0.2-0.2v-0.9c0-0.1-0.1-0.2-0.2-0.2h-1.5c-0.5,0-0.9-0.1-1.1-0.2c-0.2-0.2-0.3-0.4-0.3-0.7
					c0-0.3,0.1-0.5,0.2-0.7s0.4-0.3,0.7-0.3h4.9c0.1,0,0.2-0.1,0.2-0.2v-0.9c0-0.1-0.1-0.2-0.2-0.2H131.7z M118.6,49.2
					c0.2,0.2,0.2,0.5,0.2,0.8c0,0.4-0.1,0.6-0.2,0.8c-0.1,0.2-0.3,0.3-0.6,0.3h-0.2c-0.3,0-0.5-0.1-0.6-0.3
					c-0.1-0.2-0.2-0.4-0.2-0.8c0-0.4,0.1-0.6,0.2-0.8c0.2-0.2,0.4-0.3,0.7-0.3C118.2,48.9,118.4,49,118.6,49.2 M119.9,46.8
					c0.3,0.2,0.6,0.4,0.8,0.6s0.4,0.6,0.4,0.9c0.1,0.3,0.1,0.7,0.1,1c0,0.3,0,0.6,0,0.8s-0.1,0.4-0.2,0.5s-0.2,0.2-0.4,0.3
					c-0.2,0.1-0.4,0.1-0.7,0.1h-0.2c0.1-0.3,0.2-0.7,0.2-1.1c0-0.4-0.1-0.7-0.2-1c-0.1-0.3-0.3-0.5-0.4-0.7
					c-0.2-0.2-0.4-0.3-0.7-0.4s-0.5-0.1-0.8-0.1c-0.6,0-1.1,0.2-1.5,0.6c-0.4,0.4-0.6,0.9-0.6,1.7c0,0.4,0.1,0.8,0.2,1.1h-2
					c-0.2,0-0.4,0-0.5,0.1c-0.1,0.1-0.1,0.2-0.1,0.5c0,0.4,0.2,0.6,0.6,0.6h6.4c0.4,0,0.7,0,1-0.1c0.3-0.1,0.5-0.2,0.7-0.5
					c0.2-0.2,0.3-0.5,0.4-0.9c0.1-0.4,0.1-0.9,0.1-1.4c0-0.5-0.1-0.9-0.2-1.4c-0.1-0.5-0.3-0.9-0.6-1.3c-0.3-0.4-0.7-0.7-1.2-0.9
					c-0.5-0.2-1.1-0.4-1.9-0.4c-0.5,0-1,0.1-1.6,0.2c-0.6,0.1-1.1,0.4-1.6,0.7c-0.1,0-0.1,0.1,0,0.2l0.4,0.7c0,0,0.1,0.1,0.1,0
					c0,0,0.1,0,0.1-0.1c0.4-0.2,0.8-0.4,1.2-0.5c0.4-0.1,0.8-0.1,1.1-0.1C119.1,46.6,119.6,46.7,119.9,46.8 M111,47.4
					c0.3,0.4,0.4,0.9,0.4,1.6c0,0.8-0.1,1.3-0.4,1.7c-0.3,0.3-0.7,0.5-1.3,0.5s-1-0.2-1.3-0.5c-0.3-0.3-0.4-0.9-0.4-1.7
					c0-0.7,0.1-1.2,0.4-1.6c0.3-0.4,0.7-0.6,1.3-0.6S110.7,47,111,47.4 M111,52.2c0.4-0.1,0.7-0.4,1-0.7c0.1,0.2,0.2,0.3,0.4,0.4
					c0.1,0.1,0.3,0.2,0.5,0.2s0.3,0.1,0.5,0.1c0.2,0,0.3,0,0.5,0h0.3c0.2,0,0.4,0,0.5-0.1c0.1-0.1,0.1-0.3,0.1-0.5
					c0-0.2-0.1-0.4-0.2-0.4c-0.1-0.1-0.3-0.1-0.5-0.1h-0.5c-0.2,0-0.4-0.1-0.7-0.3c-0.2-0.2-0.3-0.6-0.3-1.1c0-0.1,0-0.2,0-0.3
					c0-0.1,0-0.2,0-0.3c0-1.2-0.3-2.1-0.8-2.6c-0.5-0.5-1.3-0.8-2.2-0.8c-0.9,0-1.7,0.3-2.2,0.8s-0.8,1.4-0.8,2.6v0.3
					c0,0.1,0,0.2,0,0.3c0,0.3,0,0.5-0.1,0.7c-0.1,0.2-0.1,0.3-0.2,0.4c-0.1,0.1-0.2,0.2-0.3,0.2c-0.1,0-0.2,0.1-0.3,0.1H105
					c-0.2,0-0.4,0-0.5,0.1c-0.1,0.1-0.1,0.2-0.1,0.5c0,0.4,0.2,0.6,0.6,0.6h0.7c0.3,0,0.6,0,1-0.1c0.3-0.1,0.6-0.3,0.8-0.6
					c0.3,0.3,0.6,0.5,1,0.7c0.4,0.1,0.8,0.2,1.3,0.2C110.2,52.4,110.6,52.4,111,52.2 M100.9,55.5c0.8,0,1.5-0.2,1.9-0.7
					c0.4-0.4,0.6-1.1,0.6-1.9v-1c0.3,0.3,0.7,0.5,1.3,0.5h0.3c0.2,0,0.4,0,0.5-0.1c0.1-0.1,0.1-0.3,0.1-0.5c0-0.2-0.1-0.4-0.2-0.4
					c-0.1-0.1-0.3-0.1-0.5-0.1h-0.2c-0.4,0-0.8-0.1-1-0.3c-0.3-0.2-0.4-0.4-0.4-0.8v-4c0-0.1-0.1-0.2-0.2-0.2h-1
					c-0.1,0-0.2,0.1-0.2,0.2v6.8c0,0.9-0.4,1.3-1.3,1.3h-0.4c-0.1,0-0.2,0.1-0.2,0.2v0.9c0,0.1,0.1,0.2,0.2,0.2H100.9z M95.3,42.5
					c0.1,0,0.2-0.1,0.2-0.2v-1.1c0-0.1-0.1-0.2-0.2-0.2h-1.1c-0.1,0-0.2,0.1-0.2,0.2v1.1c0,0.1,0.1,0.2,0.2,0.2H95.3z M94.3,44.3
					c0.1,0,0.2-0.1,0.2-0.2V43c0-0.1-0.1-0.2-0.2-0.2h-1.1c-0.1,0-0.2,0.1-0.2,0.2v1.1c0,0.1,0.1,0.2,0.2,0.2H94.3z M96.2,44.3
					c0.1,0,0.2-0.1,0.2-0.2V43c0-0.1-0.1-0.2-0.2-0.2h-1.1C95,42.9,95,42.9,95,43v1.1c0,0.1,0.1,0.2,0.2,0.2H96.2z M93.6,52.3
					c0.8,0,1.4-0.3,1.6-0.8c0.1,0.3,0.3,0.5,0.6,0.6c0.3,0.1,0.5,0.2,0.9,0.2h0.8c0.7,0,1.1-0.2,1.4-0.5c0.3-0.3,0.4-0.8,0.4-1.5V46
					c0-0.1-0.1-0.2-0.2-0.2h-1c-0.1,0-0.2,0.1-0.2,0.2v4.2c0,0.3-0.1,0.5-0.2,0.7c-0.1,0.1-0.3,0.2-0.6,0.2h-0.4
					c-0.4,0-0.8-0.1-1-0.3c-0.3-0.2-0.4-0.4-0.4-0.8v-2.6c0-0.1-0.1-0.2-0.2-0.2h-1c-0.1,0-0.2,0.1-0.2,0.2v2.9
					c0,0.3-0.1,0.5-0.2,0.7s-0.3,0.2-0.6,0.2h-0.4c-0.4,0-0.8-0.1-1-0.3c-0.3-0.2-0.4-0.4-0.4-0.8v-2.6c0-0.1-0.1-0.2-0.2-0.2h-1
					c-0.1,0-0.2,0.1-0.2,0.2v2.9c0,0.3-0.1,0.5-0.2,0.7s-0.3,0.2-0.6,0.2H88c-0.2,0-0.4,0-0.5,0.1c-0.1,0.1-0.1,0.3-0.1,0.5
					c0,0.2,0.1,0.4,0.2,0.4c0.1,0.1,0.3,0.1,0.5,0.1h1.7c0.8,0,1.4-0.3,1.6-0.8c0.1,0.3,0.3,0.5,0.6,0.6c0.3,0.1,0.5,0.2,0.9,0.2
					H93.6z M85.2,47.4c0.3,0.4,0.4,0.9,0.4,1.6v2.1H84c-0.6,0-1-0.1-1.3-0.4c-0.3-0.3-0.4-0.8-0.4-1.5c0-0.7,0.2-1.2,0.5-1.7
					c0.3-0.4,0.7-0.6,1.3-0.6C84.5,46.8,84.9,47,85.2,47.4 M84.2,55.5c0.4,0,0.8-0.1,1.1-0.2s0.6-0.3,0.9-0.5
					c0.2-0.2,0.4-0.5,0.6-0.8c0.1-0.3,0.2-0.8,0.2-1.3v-0.4H88c0.2,0,0.4,0,0.5-0.1c0.1-0.1,0.1-0.3,0.1-0.5c0-0.2-0.1-0.4-0.2-0.4
					c-0.1-0.1-0.3-0.1-0.5-0.1h-1.1V49c0-1.2-0.3-2.1-0.8-2.6s-1.3-0.8-2.2-0.8c-0.4,0-0.8,0.1-1.2,0.2c-0.4,0.1-0.7,0.4-1,0.6
					c-0.3,0.3-0.5,0.7-0.7,1.1c-0.2,0.4-0.2,1-0.2,1.6c0,0.6,0.1,1.1,0.2,1.5c0.1,0.4,0.3,0.7,0.6,1s0.6,0.4,1,0.5s0.8,0.2,1.3,0.2
					h1.7v0.4c0,0.3,0,0.5-0.1,0.7c-0.1,0.2-0.2,0.3-0.3,0.5s-0.3,0.2-0.5,0.2c-0.2,0-0.4,0.1-0.6,0.1h-1.9c-0.1,0-0.2,0.1-0.2,0.2
					v0.9c0,0.1,0.1,0.2,0.2,0.2H84.2z M77.1,52.3c0.7,0,1.1-0.2,1.4-0.5c0.3-0.3,0.4-0.8,0.4-1.5v-8.6c0-0.1-0.1-0.2-0.2-0.2h-1
					c-0.1,0-0.2,0.1-0.2,0.2v8.5c0,0.3-0.1,0.5-0.2,0.7s-0.3,0.2-0.6,0.2h-1c-0.2,0-0.4,0-0.5,0.1c-0.1,0.1-0.1,0.3-0.1,0.5
					c0,0.2,0.1,0.4,0.2,0.4c0.1,0.1,0.3,0.1,0.5,0.1H77.1z M74.3,48.4c0-1-0.3-1.7-0.8-2.1c-0.5-0.5-1.2-0.7-2-0.7h-2.3
					c-0.1,0-0.2,0.1-0.2,0.2v0.9c0,0.1,0.1,0.2,0.2,0.2h1.8c1.2,0,1.8,0.5,1.8,1.6v1.3c0,0.3,0,0.5,0,0.7s-0.1,0.3-0.2,0.4
					c-0.1,0.1-0.2,0.2-0.4,0.2c-0.2,0-0.4,0.1-0.7,0.1h-3c-0.1,0-0.2,0.1-0.2,0.2v0.9c0,0.1,0.1,0.2,0.2,0.2H72
					c0.5,0,0.9-0.1,1.2-0.2c0.3-0.1,0.6-0.4,0.7-0.7c0.1,0.3,0.3,0.5,0.6,0.7c0.3,0.2,0.6,0.2,1,0.2h0.3c0.2,0,0.4,0,0.5-0.1
					c0.1-0.1,0.1-0.3,0.1-0.5c0-0.2-0.1-0.4-0.2-0.4c-0.1-0.1-0.3-0.1-0.5-0.1h-0.2c-0.4,0-0.8-0.1-1-0.3c-0.3-0.2-0.4-0.4-0.4-0.8
					V48.4z"/>
			</g>
			<path class="st1" d="M280.2,36.9c-0.6-1.4-1.4-2.6-2.4-3.4c-1-0.9-2.2-1.5-3.5-1.8c-1.3-0.4-2.7-0.5-4.1-0.5
				c-1.4,0-2.8,0.2-4.1,0.5c-1.3,0.3-2.4,0.9-3.5,1.7c-1,0.8-1.8,1.8-2.4,3.2c-0.6,1.3-0.9,2.9-0.9,4.9v1c-0.1,1.7-0.4,2.9-1,3.5
				c-0.6,0.6-1.3,0.9-2,0.9h-1.4c-0.7,0-1.2,0.2-1.5,0.7s-0.5,1.2-0.5,2.4c0,1.1,0.2,1.8,0.5,2.3c0.3,0.4,0.8,0.6,1.5,0.6
				c0.5,0,1,0,1.6,0c0.6,0,1.2-0.1,1.8-0.3c0.6-0.2,1.2-0.4,1.8-0.8c0.6-0.3,1.1-0.8,1.6-1.5c1,1.1,2.2,1.9,3.7,2.3
				c1.5,0.4,3.1,0.7,4.8,0.7c1.5,0,3-0.2,4.3-0.5c1.3-0.4,2.5-1,3.5-1.8c1-0.8,1.7-1.9,2.3-3.3c0.6-1.4,0.8-3.1,0.8-5.1
				C281.1,40.1,280.8,38.3,280.2,36.9z M273.3,46c-0.7,0.7-1.7,1.1-3.1,1.1c-1.3,0-2.4-0.4-3.1-1.1c-0.7-0.7-1-2-1-3.9
				c0-3.3,1.4-5,4.1-5c2.7,0,4,1.7,4,5C274.2,43.9,273.9,45.2,273.3,46z"/>
			<path class="st1" d="M247,23c0.1-0.3,0.1-0.5-0.2-0.7l-4.1-3.4c-0.2-0.1-0.4-0.1-0.6,0.1l-10.5,12.5c-0.2,0.2-0.4,0.4-0.6,0.7
				c-0.2,0.3-0.4,0.5-0.4,0.7v4c0,0.3,0.2,0.5,0.5,0.5h7.4c1.5,0,2.7,0.3,3.4,0.9c0.7,0.6,1.1,1.5,1.1,2.9v2.3c0,0.7,0,1.2-0.1,1.6
				c-0.1,0.4-0.3,0.8-0.5,1c-0.3,0.2-0.6,0.4-1.1,0.5c-0.5,0.1-1.1,0.1-1.9,0.1h-16.4c-0.7,0-1.2,0.2-1.5,0.6
				c-0.3,0.4-0.5,1.1-0.5,2.2c0,1.2,0.2,2,0.5,2.5s0.8,0.7,1.5,0.7h19.9c1.5,0,2.8-0.2,3.8-0.6s1.9-1.1,2.5-2.2
				c0.6,1.1,1.4,1.9,2.4,2.3c1,0.4,2.2,0.5,3.5,0.5c1.3,0,2-1,2-3c0-1.1-0.2-1.8-0.5-2.3c-0.3-0.5-0.8-0.7-1.5-0.7h-1.1
				c-1.1,0-2.1-0.2-2.7-0.7c-0.7-0.4-1-1.1-1-1.8v-3.6c0-1.8-0.2-3.3-0.7-4.4c-0.5-1.1-1.2-2.1-2.1-2.7c-0.9-0.7-2-1.1-3.3-1.4
				c-1.3-0.3-2.7-0.4-4.3-0.5L247,23z"/>
			<path class="st1" d="M211,42.7c0,1.5-0.1,2.5-0.4,3.1c-0.3,0.6-0.9,0.9-2,0.9h-3.1c-0.7,0-5.5,0.2-5.8,0.7
				c-0.3,0.5-0.5,1.2-0.5,2.4c0,1.1,0.2,1.9,0.5,2.3c0.3,0.4,5.1,0.6,5.8,0.6h5.1c1.8,0,3.2-0.1,4.2-0.4c1-0.3,1.8-1,2.3-2
				c0.6,1.1,1.4,1.7,2.3,2c0.9,0.3,2,0.4,3.2,0.4c1.3,0,7.4-1,7.4-3c0-1.1-0.2-1.8-0.5-2.3s-6.2-0.7-6.9-0.7h-1.1
				c-1.1,0-2-0.2-2.7-0.7c-0.6-0.5-1-1.1-1.1-1.9V32.4c0-0.3-0.2-0.5-0.5-0.5h-5.9c-0.3,0-0.5,0.2-0.5,0.5V42.7z"/>
			<path class="st1" d="M220.7,27c0.3,0,0.5-0.2,0.5-0.5v-4.8c0-0.3-0.2-0.5-0.5-0.5h-5c-0.3,0-0.5,0.2-0.5,0.5v4.8
				c0,0.3,0.2,0.5,0.5,0.5H220.7z"/>
			<path class="st1" d="M213,27c0.3,0,0.5-0.2,0.5-0.5v-4.8c0-0.3-0.2-0.5-0.5-0.5h-4.9c-0.3,0-0.5,0.2-0.5,0.5v4.8
				c0,0.3,0.2,0.5,0.5,0.5H213z"/>
			<path class="st1" d="M198,52.2c0.9,0.3,6.3,0.4,7.6,0.4c1.3,0,2-1,2-3c0-1.1-0.2-1.8-0.5-2.3s-0.8-0.7-1.5-0.7h-5.4
				c-1.1,0-2-0.2-2.7-0.7c-0.6-0.5-1-1.1-1.1-1.9V32.4c0-0.3-0.2-0.5-0.5-0.5h-4.5c-0.4,0-0.8,0-1.3,0c-0.5,0-0.7,0.2-0.7,0.4v10.3
				c0,1.5-0.1,2.5-0.4,3.1c-0.3,0.6-0.9,0.9-1.9,0.9h-1.6c-0.4,0-0.7,0.1-1,0.4c-0.3,0.3-0.5,0.6-0.6,1.1c-0.2,0.4-0.3,0.9-0.3,1.4
				c-0.1,0.5-0.1,1-0.1,1.4c0,0.7,0.2,1.2,0.5,1.4c0.3,0.2,0.8,0.3,1.5,0.3h3.9c1.8,0,3.2-0.2,4.1-0.5c1-0.3,1.8-1,2.3-2
				C196.3,51.3,197.1,51.9,198,52.2"/>
			<path class="st1" d="M184.8,46.7h-1.5c-0.8,0-6.8-0.2-7.2-0.6c-0.4-0.4-0.6-1.1-0.6-2V29c0-0.3-0.2-0.5-0.5-0.5h-6
				c-0.3,0-0.5,0.2-0.5,0.5v2.1h-4.9c-1.2,0-2.5,0.2-3.7,0.5c-1.2,0.3-2.3,0.9-3.2,1.6c-0.9,0.8-1.7,1.8-2.3,3.1
				c-0.6,1.3-0.9,2.9-0.9,4.9c0,1.7,0.3,3.2,0.8,4.4c0.5,1.2,1.2,2.2,2.1,3c0.9,0.8,1.9,1.3,3.1,1.7c1.2,0.4,2.4,0.5,3.7,0.5
				c1.1,0,2.1-0.1,3-0.4c1-0.3,1.8-0.7,2.5-1.3c0.3,1.4,0.9,2.4,1.8,2.9c0.9,0.5,2.2,0.8,3.8,0.8h10.5c0.7,0,1.2-0.2,1.5-0.6
				c0.3-0.4,0.5-1.2,0.5-2.3C186.8,47.7,186.1,46.7,184.8,46.7z M168.5,40.5c0,1.5-0.4,2.6-1.1,3.3c-0.7,0.7-1.7,1.1-3,1.1
				c-1.1,0-2.1-0.3-2.8-0.8c-0.8-0.5-1.1-1.5-1.1-2.8c0-1.6,0.4-2.7,1.1-3.2c0.8-0.6,1.7-0.9,3-0.9h3.9V40.5z"/>
			<path class="st1" d="M171.1,25c0.3,0,0.5-0.2,0.5-0.5v-4.8c0-0.3-0.2-0.5-0.5-0.5h-5c-0.3,0-0.5,0.2-0.5,0.5v4.8
				c0,0.3,0.2,0.5,0.5,0.5H171.1z"/>
			<path class="st1" d="M163.4,25c0.3,0,0.5-0.2,0.5-0.5v-4.8c0-0.3-0.2-0.5-0.5-0.5h-4.9c-0.3,0-0.5,0.2-0.5,0.5v4.8
				c0,0.3,0.2,0.5,0.5,0.5H163.4z"/>
			<path class="st2" d="M163.6,25c0.2,0,0.4-0.1,0.4-0.4v-3.5c0-0.2-0.1-0.4-0.4-0.4H160c-0.2,0-0.4,0.1-0.4,0.4v3.5
				c0,0.2,0.1,0.4,0.4,0.4H163.6z"/>
			<path class="st2" d="M171.2,25c0.2,0,0.4-0.1,0.4-0.4v-3.5c0-0.2-0.1-0.4-0.4-0.4h-3.6c-0.2,0-0.4,0.1-0.4,0.4v3.5
				c0,0.2,0.1,0.4,0.4,0.4H171.2z"/>
			<path class="st2" d="M213.2,27c0.2,0,0.4-0.1,0.4-0.4v-3.5c0-0.2-0.1-0.4-0.4-0.4h-3.6c-0.2,0-0.4,0.1-0.4,0.4v3.5
				c0,0.2,0.1,0.4,0.4,0.4H213.2z"/>
			<path class="st2" d="M220.8,27c0.2,0,0.4-0.1,0.4-0.4v-3.5c0-0.2-0.1-0.4-0.4-0.4h-3.6c-0.2,0-0.4,0.1-0.4,0.4v3.5
				c0,0.2,0.1,0.4,0.4,0.4H220.8z"/>
			<g>
				<path class="st2" d="M275.8,37.5c0.8,1.2,1.3,2.9,1.3,5.1c0,2.4-0.4,4.1-1.3,5.2c-0.8,1.1-2.2,1.6-4,1.6c-1.9,0-3.2-0.5-4-1.6
					c-0.8-1.1-1.3-2.8-1.3-5.2c0-2.2,0.4-3.9,1.3-5.1c0.8-1.2,2.2-1.8,4-1.8C273.6,35.7,274.9,36.3,275.8,37.5 M275.7,52.7
					c1.2-0.4,2.2-1.1,3-1.9c0.8-0.9,1.4-2,1.9-3.3s0.7-3,0.7-4.9c0-3.8-0.8-6.6-2.5-8.3c-1.7-1.7-4-2.6-6.9-2.6
					c-2.9,0-5.3,0.9-6.9,2.6c-1.7,1.7-2.5,4.5-2.5,8.3v1c0,0.3,0,0.6,0,1c0,0.9-0.1,1.6-0.3,2.2c-0.2,0.6-0.4,1-0.7,1.4
					c-0.3,0.3-0.6,0.6-1,0.7c-0.4,0.1-0.7,0.2-1.1,0.2h-2.5c-0.7,0-1.2,0.1-1.5,0.3c-0.3,0.2-0.5,0.7-0.5,1.6c0,1.3,0.7,2,2,2h2.1
					c0.9,0,1.9-0.1,3-0.4c1.1-0.3,2-1,2.7-2c0.8,1,1.8,1.7,3,2.1s2.6,0.7,4.1,0.7C273.2,53.3,274.5,53.1,275.7,52.7 M247.8,22.2
					c0.1-0.3,0.1-0.5-0.2-0.7l-2.4-2c-0.2-0.1-0.4-0.1-0.6,0.1l-10.9,12.8c-0.1,0.1-0.2,0.2-0.3,0.3c-0.1,0.1-0.2,0.3-0.2,0.5V36
					c0,0.3,0.2,0.5,0.5,0.5h8c3.8,0,5.7,1.7,5.7,5v3.1c0,0.9,0,1.6-0.1,2.1c-0.1,0.6-0.3,1-0.6,1.4s-0.7,0.6-1.3,0.7
					c-0.6,0.1-1.3,0.2-2.2,0.2h-19.9c-0.7,0-1.2,0.1-1.5,0.3c-0.3,0.2-0.5,0.7-0.5,1.6c0,1.3,0.7,2,2,2h21.4c1.6,0,2.8-0.2,3.8-0.6
					c1-0.4,1.8-1.1,2.4-2.2c0.4,0.9,1,1.6,1.9,2.1c0.9,0.5,1.9,0.7,3,0.7h1c0.7,0,1.2-0.1,1.5-0.4s0.5-0.8,0.5-1.7
					c0-0.7-0.2-1.1-0.5-1.4s-0.8-0.4-1.5-0.4h-0.5c-1.3,0-2.3-0.2-3.2-0.7s-1.2-1.3-1.3-2.3c0-0.3,0-0.5,0-0.8c0-0.3,0-0.5,0-0.8v-3
					c0-3-0.8-5.3-2.4-6.7c-1.6-1.4-3.7-2.1-6.2-2.1h-4.4L247.8,22.2z M212.4,53c2.6,0,4.3-0.9,5.2-2.6c0.4,0.9,1,1.5,1.8,1.9
					c0.8,0.4,1.7,0.6,2.8,0.6h1.1c0.7,0,8-0.1,8.3-0.4s0.5-0.8,0.5-1.7c0-0.7-0.2-1.1-0.5-1.4s-7.6-0.4-8.3-0.4h-0.6
					c-1.4,0-2.4-0.3-3.2-0.8c-0.8-0.6-1.2-1.4-1.2-2.5V32H214v14.5c0,1-0.2,1.7-0.6,2.1c-0.4,0.4-1,0.6-1.8,0.6h-3.4
					c-0.7,0-1.2,0.1-1.5,0.4c-0.3,0.3-7.3,0.9-7.3,1.7c0,0.7,7,1.2,7.3,1.4c0.3,0.2,0.8,0.3,1.5,0.3H212.4z M190.6,53
					c2.6,0,4.3-0.9,5.2-2.6c0.4,0.9,1,1.5,1.8,1.9c0.8,0.4,8.5,0.6,9.6,0.6h1.1c0.7,0,1.2-0.1,1.5-0.4s0.5-0.8,0.5-1.7
					c0-0.7-0.2-1.1-0.5-1.4s-0.8-0.4-1.5-0.4h-0.6c-1.4,0-9.3-0.3-10.1-0.8c-0.8-0.6-1.2-1.4-1.2-2.5V32h-4.2v14.5
					c0,1-0.2,1.7-0.6,2.1c-0.4,0.4-1,0.6-1.8,0.6h-3.1c-0.7,0-7.4,0.1-7.7,0.4c-0.3,0.3-0.5,0.9-0.5,1.7c0,0.7,0.2,1.2,0.5,1.4
					c0.3,0.2,7.1,0.3,7.7,0.3H190.6z M162.6,45.6c-0.9-0.9-1.3-2.2-1.3-3.9c0-2.3,0.5-3.9,1.5-4.7c1-0.9,2.2-1.3,3.8-1.3h4.9v5
					c0,2-0.4,3.5-1.2,4.6c-0.8,1.1-2.1,1.7-4,1.7C164.7,46.9,163.5,46.5,162.6,45.6 M166.6,31.8c-1.2,0-2.4,0.2-3.5,0.5
					c-1.1,0.3-2.1,0.9-3,1.7c-0.9,0.8-1.6,1.8-2.1,3.1c-0.5,1.3-0.8,2.8-0.8,4.7c0,1.6,0.2,2.9,0.7,4c0.5,1.1,1.1,2.1,1.9,2.8
					c0.8,0.7,1.8,1.3,2.9,1.7c1.1,0.4,2.3,0.5,3.6,0.5c1.1,0,2.1-0.1,3-0.4c0.9-0.3,1.7-0.7,2.4-1.3c0.3,1.4,0.9,2.4,1.8,3.1
					c0.9,0.6,2.2,0.9,3.8,0.9h9.2c0.7,0,1.2-0.1,1.5-0.3c0.3-0.2,0.5-0.8,0.5-1.6c0-1.1-0.9-1.9-2-1.9l-8.4,0
					c-0.8,0-1.4-0.2-1.8-0.6c-0.4-0.4-0.6-1.1-0.6-2.1v-18h-4.2v3.3H166.6z"/>
			</g>
			<path class="st1" d="M194.7,61.6c0.3,0,0.5-0.2,0.5-0.5v-4.8c0-0.3-0.2-0.5-0.5-0.5h-4.9c-0.3,0-0.5,0.2-0.5,0.5v4.8
				c0,0.3,0.2,0.5,0.5,0.5H194.7z"/>
			<path class="st2" d="M194.8,61.6c0.2,0,0.4-0.1,0.4-0.4v-3.5c0-0.2-0.1-0.4-0.4-0.4h-3.6c-0.2,0-0.4,0.1-0.4,0.4v3.5
				c0,0.2,0.1,0.4,0.4,0.4H194.8z"/>
		</g>
	</g>
</g>
</svg>
