<?xml version="1.0" encoding="utf-8"?>
<!-- Generator: Adobe Illustrator 19.1.0, SVG Export Plug-In . SVG Version: 6.00 Build 0)  -->
<svg version="1.1" xmlns="http://www.w3.org/2000/svg" xmlns:xlink="http://www.w3.org/1999/xlink" x="0px" y="0px"
	 viewBox="0 0 324 62.6" style="enable-background:new 0 0 324 62.6;" xml:space="preserve">
<style type="text/css">
	.st0{fill:#3F4A74;}
	.st1{fill:#EC5F69;}
	.st2{fill:#F29A7F;}
	.st3{fill:#EFEF9F;}
	.st4{fill:#62B0C1;stroke:#62B0C1;stroke-width:0.5;stroke-miterlimit:10;}
	.st5{fill:#3F4A74;stroke:#3F4A74;stroke-width:0.9805;stroke-miterlimit:10;}
	.st6{fill:#62B0C1;}
	.st7{fill:#62B0C1;stroke:#62B0C1;stroke-width:0.9;stroke-miterlimit:10;}
</style>
<g id="Layer_1">
	<g>
		<g>
			<path class="st0" d="M51.3,15h1.1c2,0,3.5,1.3,3.5,3.4c0,2.4-1.7,3.4-4,3.4h-0.6V15z M52.4,16v4.6c1.4,0,2.4-0.9,2.4-2.3
				C54.8,17,53.8,16,52.4,16z"/>
			<path class="st0" d="M63.5,21.7h-1.2l-0.8-2.3h-2l-0.8,2.3h-1.2l2.4-6.7h1.1L63.5,21.7z M59.8,18.3h1.3l-0.7-1.9L59.8,18.3z"/>
			<path class="st0" d="M70.9,18.8h-1.8v-1H72v0.3c0,2.4-1.6,3.7-3.5,3.7c-2,0-3.5-1.5-3.5-3.5c0-2,1.5-3.5,3.5-3.5
				c1,0,1.8,0.3,2.4,0.9l-0.8,0.8c-0.4-0.4-1-0.7-1.7-0.7c-1.4,0-2.4,1.1-2.4,2.4c0,1.4,1,2.4,2.4,2.4C69.8,20.8,70.7,20,70.9,18.8z
				"/>
			<path class="st0" d="M81.5,18.8h-2.1v2.9h-1.1V15h1.1v2.8h2.1V15h1.1v6.7h-1.1V18.8z"/>
			<path class="st0" d="M90.7,21.7h-1.2l-0.8-2.3h-2l-0.8,2.3h-1.2l2.4-6.7h1.1L90.7,21.7z M87.1,18.3h1.3l-0.7-1.9L87.1,18.3z"/>
			<path class="st0" d="M92.9,15H94l2,2.6l1.9-2.6h1.1v6.7h-1.1v-4.8L96,19.4l-2-2.5v4.8h-1.1V15z"/>
			<path class="st0" d="M101.8,15h1.1l2,2.6l1.9-2.6h1.1v6.7h-1.1v-4.8l-1.9,2.5l-2-2.5v4.8h-1.1V15z"/>
			<path class="st0" d="M115.9,21.7h-1.2l-0.8-2.3h-2l-0.8,2.3H110l2.4-6.7h1.1L115.9,21.7z M112.3,18.3h1.3l-0.7-1.9L112.3,18.3z"
				/>
			<path class="st0" d="M118.1,15h2.1c1.2,0,2.1,0.8,2.1,2c0,1.1-0.7,1.7-1.8,1.8l1.9,3h-1.3l-1.9-3.1v3.1h-1.1V15z M119.2,16v1.8
				h0.9c0.6,0,1-0.3,1-0.9s-0.4-0.9-1-0.9H119.2z"/>
			<path class="st0" d="M127.3,16.7c0-0.5-0.3-0.9-0.8-0.9c-0.5,0-0.9,0.4-0.9,0.8c0,0.5,0.2,0.7,0.9,0.9l0.3,0.1
				c1.1,0.3,2,0.8,2,2.1c0,1.2-1,2.1-2.3,2.1c-1.3,0-2.2-0.9-2.2-2.2h1c0,0.7,0.5,1.2,1.2,1.2c0.7,0,1.2-0.5,1.2-1.1
				c0-0.6-0.4-0.9-1.2-1.1l-0.3-0.1c-1.1-0.3-1.6-0.9-1.6-1.9c0-1.1,0.8-1.8,1.9-1.8c1.2,0,1.9,0.7,1.9,1.9H127.3z"/>
			<path class="st0" d="M131.2,15h1.1v3.2l1.4-3.2h1.2l-1.6,3.4l1.6,3.4h-1.2l-1.4-3.2v3.2h-1.1V15z"/>
			<path class="st0" d="M140.9,15v4.7c0,1.4-0.9,2.2-2.1,2.2c-1.2,0-2.1-0.8-2.1-2.2h1.1c0,0.8,0.5,1.1,1,1.1s1-0.4,1-1.1V15H140.9z
				"/>
			<path class="st0" d="M146.8,14.8c2,0,3.5,1.5,3.5,3.5c0,2-1.5,3.5-3.5,3.5c-2,0-3.5-1.5-3.5-3.5
				C143.3,16.3,144.8,14.8,146.8,14.8z M146.8,20.8c1.4,0,2.4-1.1,2.4-2.4c0-1.4-1-2.4-2.4-2.4c-1.4,0-2.4,1.1-2.4,2.4
				C144.5,19.7,145.5,20.8,146.8,20.8z M145.2,13.7l0.7-0.7l0.7,0.7l-0.7,0.7L145.2,13.7z M147.1,13.7l0.7-0.7l0.7,0.7l-0.7,0.7
				L147.1,13.7z"/>
			<path class="st0" d="M152.8,15h1.1v5.7h2.3v1h-3.4V15z"/>
			<path class="st0" d="M158.4,15h1.1c2,0,3.5,1.3,3.5,3.4c0,2.4-1.7,3.4-4,3.4h-0.6V15z M159.5,16v4.6c1.4,0,2.4-0.9,2.4-2.3
				C161.9,17,160.9,16,159.5,16z"/>
		</g>
		<g>
			<path class="st1" d="M53,25.5h7v28.3h11.4v6.4H53V25.5z"/>
			<path class="st1" d="M95.9,25.5h10.3c6.1,0,10,3.9,10,9.5c0,2.8-1.2,4.9-2.7,6c4,1,7.1,3.9,7.1,8.7c0,6.3-4.7,10.4-11,10.4H95.9
				V25.5z M103,32v7.3h2.6c2.3,0,3.4-1.3,3.4-3.7c0-2.3-1.1-3.6-3.4-3.6H103z M103,46.1v7.4h6.2c2.4,0,3.9-1.2,3.9-3.7
				c0-2.4-1.5-3.8-3.9-3.8H103z"/>
			<path class="st1" d="M156.3,36.1c0,5.9-4.1,10-9.9,10.5l7.4,13.7h-7.9l-10.3-19.8v19.8h-7V25.5h16.7
				C151.5,25.5,156.3,29.7,156.3,36.1z M138.6,32.3l4.1,7.5h2c2.3,0,4.1-1.4,4.1-3.8c0-2.4-1.7-3.8-4.1-3.8H138.6z"/>
			<path class="st1" d="M192,60.2h-7.5l-3.8-11.4h-9.5l-3.9,11.4h-7.5l12.7-34.7h7.3L192,60.2z M176.1,34.9l-2.6,7.5h5.1L176.1,34.9
				z"/>
			<path class="st1" d="M226.7,36.1c0,5.9-4.1,10-9.9,10.5l7.4,13.7h-7.9L206,40.5v19.8h-7V25.5h16.7
				C222,25.5,226.7,29.7,226.7,36.1z M209.1,32.3l4.1,7.5h2c2.3,0,4.1-1.4,4.1-3.8c0-2.4-1.7-3.8-4.1-3.8H209.1z"/>
			<path class="st1" d="M240.2,48.8l-8.5-23.2h8l3.4,11.9l4-11.9h7.7l-11.9,34.7h-7.4L240.2,48.8z"/>
			<path class="st2" d="M51.3,25.5h2.8v32.1h12.3v2.6H51.3V25.5z"/>
			<g>
				<path class="st1" d="M78.8,25.5h7v34.7h-7V25.5z"/>
				<path class="st3" d="M77.6,25.5h2.8v34.7h-2.8V25.5z"/>
			</g>
			<path class="st2" d="M94.7,25.5h7.6c5.9,0,9.5,3.7,9.5,9.1c0,3.4-1.4,5.8-3.7,7.1c4.8,0.7,7.9,4,7.9,9c0,5.8-4,9.5-9.9,9.5H94.7
				V25.5z M97.5,28.2v13.1h4.7c4.3,0,6.8-2.7,6.8-6.6c0-4-2.5-6.5-6.8-6.5H97.5z M97.5,44v13.5h8.5c4.3,0,7.1-2.6,7.1-6.8
				c0-4.2-2.8-6.7-7.1-6.7H97.5z"/>
			<path class="st2" d="M156.4,34.9c0,5.7-4.2,9.3-9.7,9.3h-0.6l9.1,16.1h-3.3l-16.1-29v29H133V25.5h13.7
				C152.6,25.5,156.4,29.3,156.4,34.9z M137.1,28.3l7.4,13.2h2c4.3,0,6.9-2.6,6.9-6.6c0-4-2.7-6.6-6.9-6.6H137.1z"/>
			<path class="st2" d="M187.5,60.3h-3.1l-4.8-13.6h-12.2l-4.8,13.6h-3l12.5-34.7h3L187.5,60.3z M168.4,43.9h10.3l-5.1-14.6
				L168.4,43.9z"/>
			<path class="st2" d="M220.8,34.9c0,5.7-4.2,9.3-9.7,9.3h-0.6l9.1,16.1h-3.3l-16.1-29v29h-2.8V25.6h13.7
				C217,25.6,220.8,29.3,220.8,34.9z M201.5,28.3l7.4,13.2h2c4.3,0,6.9-2.6,6.9-6.6c0-4-2.7-6.6-6.9-6.6H201.5z"/>
			<path class="st2" d="M241.6,45.7l-8.8-20.2h3.1l7.1,17.1l7.5-17.1h3.1l-15.5,34.7h-2.9L241.6,45.7z"/>
		</g>
		<path class="st0" d="M8.1,35.5c0.5-0.4,1.1-0.9,1.7-1.4c0.2-0.2,0.4-0.4,0.6-0.5c0.2-0.2,0.3-0.3,0.4-0.5c0.1-0.2,0.2-0.5,0.3-0.8
			c0.1-0.3,0.3-0.7,0.4-1.3h0c-0.2,0.5-0.5,0.9-0.8,1.1c-0.3,0.3-0.7,0.5-1,0.8c-0.4,0.3-0.8,0.6-1.1,0.9c-0.4,0.3-0.7,0.8-1,1.4v0
			c0.3-0.8,0.5-1.4,0.6-2c0.1-0.5,0.3-1,0.4-1.4c0.1-0.4,0.2-0.8,0.4-1.1c0.2-0.3,0.4-0.6,0.8-0.9v0c-0.8,0.2-1.5,0.7-2,1.4
			c-0.5,0.8-0.8,1.6-0.8,2.5v3.2C7.2,36.4,7.6,35.9,8.1,35.5z M10.3,31.7c0.4-0.4,0.8-0.9,1.2-1.3c0.3-0.5,0.7-0.9,1-1.3
			c0.3-0.4,0.7-0.8,1.1-1.1l0,0c-0.3,0.2-0.6,0.4-1,0.5c-0.4,0.1-0.8,0.3-1.3,0.6c-0.5,0.3-0.9,0.7-1.3,1.3
			c-0.4,0.6-0.8,1.5-1.1,2.6C9.3,32.5,9.8,32.1,10.3,31.7z M5.2,43.5c0.3,0.5,0.6,0.9,1,1.3c0.4,0.4,0.7,1,1.1,1.6h0
			c0-0.2-0.1-0.5-0.1-0.7V45c0-0.2,0.1-0.6,0.3-1.2c0.2-0.6,0.3-1.2,0.5-1.9c0.2-0.7,0.3-1.4,0.5-2.1c0.1-0.7,0.2-1.3,0.1-1.9h0
			c-0.1,0.4-0.3,0.8-0.5,1.2c-0.2,0.4-0.5,0.8-0.7,1.2c-0.2,0.4-0.5,0.8-0.6,1.3c-0.2,0.5-0.3,1-0.3,1.5c0,0.2,0,0.4,0.1,0.7
			c0.1,0.3,0.1,0.5,0.1,0.6h0c-0.1-0.7-0.3-1.3-0.5-1.9C6,42,5.8,41.5,5.6,41c-0.2-0.5-0.4-1-0.6-1.4c-0.1-0.4-0.2-0.8-0.2-1
			c0-0.3,0-0.5,0-0.7c0-0.2,0-0.4,0-0.7h0c-0.1,0.2-0.2,0.6-0.4,1.2c-0.1,0.5-0.2,1-0.2,1.4c0,0.9,0.1,1.6,0.3,2.2
			C4.7,42.5,4.9,43,5.2,43.5z M13.4,55.7c0.2,0,0.3,0,0.5,0c0.2,0,0.5,0,0.7,0c0.2,0,0.5-0.1,0.8-0.1c0.3-0.1,0.8-0.2,1.3-0.3
			c0.5-0.1,1.2-0.3,2.1-0.5c-0.6-0.1-1.1-0.3-1.5-0.4c-0.4-0.1-0.8-0.4-1.3-0.8c-0.5-0.4-1-0.9-1.5-1.4c-0.4-0.4-0.8-0.7-1.2-1.1
			c-0.1-0.1-0.7-0.6-0.9-0.8l0,0c0.1,0.1,0.6,1.2,0.6,1.2s0.1,0.1,0.1,0.2c0.2,0.3,0.3,0.5,0.4,0.8c0.1,0.1,0.1,0.2,0.2,0.3
			c0.2,0.3,0.4,0.6,0.8,0.9c0.4,0.4,1,0.7,1.9,0.9v0c-0.4-0.1-0.7-0.1-1-0.2c-0.3,0-0.5-0.1-0.7-0.1c-0.2,0-0.4-0.1-0.7-0.1
			c-0.3,0-0.5,0-0.8-0.1c-0.2,0-0.4-0.1-0.6-0.1c-0.2,0-0.4,0-0.6-0.1c-0.1,0-0.2,0-0.3,0c-0.4,0-0.8-0.1-1.1-0.2
			c-0.3-0.1-0.7-0.2-1-0.4c-0.3-0.2-0.7-0.5-1.1-0.8l0,0c0.2,0.3,0.4,0.6,0.6,0.9c0.3,0.3,0.6,0.6,1,0.9c0.4,0.3,0.8,0.6,1.3,0.8
			c0.5,0.2,1.1,0.4,1.8,0.5C13,55.7,13.3,55.7,13.4,55.7z M6.4,41.6L6.4,41.6c0.1-0.3,0.1-0.5,0.2-0.7c0.1-0.2,0.2-0.5,0.3-0.8
			c0.2-0.3,0.4-0.7,0.7-1.1c0.3-0.4,0.7-1,1.2-1.7c0.3-0.5,0.5-1,0.7-1.6c0.2-0.6,0.3-1,0.4-1.3h0c-0.1,0.2-0.1,0.3-0.2,0.4
			c-0.1,0.1-0.2,0.2-0.3,0.4c-0.1,0.1-0.3,0.3-0.5,0.5c-0.2,0.2-0.5,0.4-0.8,0.7c-0.6,0.5-1,1-1.2,1.5c-0.2,0.5-0.3,0.9-0.4,1.5h0
			c0-0.2,0-0.5,0-0.7c0-0.2,0-0.5,0-0.9c0-0.4,0-1-0.1-1.6c-0.1-0.6-0.1-1.4-0.1-2.3c0-0.3,0.1-0.6,0.2-0.9c0.1-0.3,0.2-0.5,0.3-0.8
			h0c-0.6,0.8-1.1,1.6-1.3,2.3c-0.2,0.7-0.3,1.4-0.3,2.1c0,0.8,0.2,1.6,0.5,2.4C5.9,39.7,6.2,40.6,6.4,41.6z M11.1,53.3l1.9,0.4
			l1,0.2c-0.3-0.3-1-1.3-1-1.3c-0.2-0.3-0.4-0.7-0.6-1.2c-0.2-0.5-0.4-1.2-0.8-2c-0.1-0.3-0.2-0.5-0.3-0.7c-0.1-0.2-0.2-0.4-0.4-0.7
			c-0.1-0.2-0.3-0.5-0.5-0.8c-0.2-0.3-0.4-0.6-0.7-1.1l0,0c0.1,0.3,0.2,0.8,0.4,1.6c0.2,0.8,0.3,1.5,0.5,2.2c0.1,0.5,0.3,1,0.6,1.4
			c0.3,0.4,0.7,0.9,1.2,1.3l0,0c-0.2-0.1-0.6-0.3-1.1-0.7c-0.5-0.4-1.1-0.8-1.6-1c-1.1-0.6-2-1.1-2.7-1.5c-0.6-0.4-1.1-1-1.5-1.8
			l0,0c0.2,0.8,0.5,1.4,0.8,2c0.4,0.6,0.8,1.1,1.3,1.6c0.5,0.5,1.1,0.8,1.7,1.1C9.9,52.9,10.5,53.1,11.1,53.3z M6.9,48.6l3.3,2.2
			C10,50.5,9.9,50.2,9.8,50c-0.1-0.3-0.2-0.6-0.2-0.9c-0.1-0.3-0.1-0.7-0.2-1.1c0-0.4-0.1-0.9-0.2-1.5c-0.1-1-0.2-1.8-0.3-2.3
			c-0.1-0.5-0.3-1.1-0.5-1.8h0c0,0.5,0,0.9-0.1,1.3c0,0.4-0.1,0.7-0.2,1C8.1,45,8,45.3,8,45.6c0,0.3-0.1,0.5-0.1,0.9
			c0,0.3,0.1,0.8,0.3,1.3c0.2,0.5,0.4,1,0.6,1.3l0,0c-0.5-0.8-1-1.5-1.5-2c-0.5-0.5-0.9-1-1.4-1.4c-0.4-0.4-0.8-0.9-1-1.3
			c-0.3-0.4-0.5-0.9-0.6-1.6c0,0.2-0.1,0.3-0.1,0.4c0,0.1,0,0.3,0,0.4c0,0.5,0.1,1,0.3,1.6c0.2,0.5,0.4,1,0.7,1.5
			c0.3,0.5,0.6,0.9,0.9,1.2C6.3,48.2,6.6,48.4,6.9,48.6z M34.3,29c0.3,0.4,0.6,0.8,1,1.3c0.3,0.5,0.7,0.9,1.2,1.3
			c0.4,0.4,0.9,0.9,1.5,1.2c-0.3-1.1-0.7-2-1.1-2.6c-0.4-0.6-0.9-1-1.3-1.3c-0.5-0.3-0.9-0.5-1.3-0.6c-0.4-0.1-0.7-0.3-1-0.5l0,0
			C33.6,28.3,34,28.6,34.3,29z M37.3,53.4c-0.3,0.2-0.7,0.3-1,0.4c-0.3,0.1-0.7,0.2-1.1,0.2c-0.1,0-0.2,0-0.3,0
			c-0.2,0-0.4,0-0.6,0.1c-0.2,0-0.4,0.1-0.6,0.1c-0.3,0-0.5,0.1-0.8,0.1c-0.2,0-0.4,0-0.7,0.1c-0.2,0-0.5,0.1-0.7,0.1
			c-0.3,0-0.6,0.1-1,0.2v0c0.9-0.3,1.5-0.6,1.9-0.9c0.3-0.2,0.6-0.5,0.7-0.9c0.1-0.1,0.1-0.2,0.2-0.3c0.1-0.3,0.3-0.5,0.4-0.8
			c0-0.1,0.1-0.2,0.1-0.2s0.6-1.1,0.6-1.2l0,0c-0.2,0.2-0.8,0.7-0.9,0.8c-0.4,0.4-0.8,0.7-1.2,1.1c-0.5,0.5-1,0.9-1.5,1.4
			c-0.4,0.4-0.8,0.7-1.3,0.8c-0.4,0.1-0.9,0.3-1.5,0.4c0.9,0.2,1.6,0.4,2.1,0.5c0.5,0.1,1,0.2,1.3,0.3c0.3,0.1,0.6,0.1,0.8,0.1
			c0.2,0,0.4,0,0.7,0c0.2,0,0.3,0,0.5,0c0.1,0,0.4,0,0.4,0c0.7-0.1,1.3-0.2,1.8-0.5c0.5-0.2,1-0.5,1.3-0.8c0.4-0.3,0.7-0.6,1-0.9
			c0.3-0.3,0.5-0.6,0.6-0.9l0,0C38,53,37.6,53.2,37.3,53.4z M39.8,49.6c-0.7,0.4-1.5,0.9-2.7,1.5c-0.6,0.3-1.1,0.6-1.6,1
			c-0.5,0.4-0.9,0.7-1.1,0.7l0,0c0.5-0.5,0.9-0.9,1.2-1.3c0.3-0.4,0.5-0.9,0.6-1.4c0.2-0.7,0.3-1.4,0.5-2.2c0.2-0.8,0.3-1.3,0.4-1.6
			l0,0c-0.3,0.4-0.6,0.8-0.7,1.1c-0.2,0.3-0.4,0.5-0.5,0.8c-0.1,0.2-0.3,0.4-0.4,0.7c-0.1,0.2-0.2,0.5-0.3,0.7
			c-0.3,0.8-0.6,1.5-0.8,2c-0.2,0.5-0.4,0.9-0.6,1.2c0,0-0.6,1-1,1.3l1-0.2l1.9-0.4c0.6-0.1,1.2-0.3,1.8-0.6
			c0.6-0.3,1.2-0.7,1.7-1.1c0.5-0.5,1-1,1.3-1.6c0.4-0.6,0.7-1.3,0.8-2l0,0C40.9,48.6,40.4,49.2,39.8,49.6z M41.2,41
			c-0.2,0.5-0.4,1.1-0.7,1.7c-0.2,0.6-0.4,1.2-0.5,1.9h0c0-0.1,0-0.2,0.1-0.6c0.1-0.3,0.1-0.6,0.1-0.7c0-0.5-0.1-1-0.3-1.5
			c-0.2-0.5-0.4-0.9-0.6-1.3c-0.2-0.4-0.5-0.8-0.7-1.2c-0.2-0.4-0.4-0.8-0.5-1.2h0c-0.1,0.5,0,1.2,0.1,1.9c0.1,0.7,0.3,1.4,0.5,2.1
			c0.2,0.7,0.4,1.3,0.5,1.9c0.2,0.6,0.3,1,0.3,1.2v0.6c0,0.2,0,0.5-0.1,0.7h0c0.4-0.6,0.7-1.2,1.1-1.6c0.4-0.4,0.7-0.9,1-1.3
			c0.3-0.5,0.5-1,0.7-1.5c0.2-0.6,0.3-1.3,0.3-2.2c0-0.4-0.1-0.9-0.2-1.4c-0.1-0.5-0.3-0.9-0.4-1.2h0c0,0.3,0,0.5,0,0.7
			c0,0.2,0,0.4,0,0.7c0,0.3-0.1,0.6-0.2,1C41.6,40,41.4,40.5,41.2,41z M39.8,37.8c-0.2-0.5-0.6-0.9-1.2-1.5
			c-0.3-0.3-0.6-0.5-0.8-0.7c-0.2-0.2-0.3-0.3-0.5-0.5c-0.1-0.1-0.2-0.3-0.3-0.4c-0.1-0.1-0.1-0.2-0.2-0.4h0
			c0.1,0.3,0.2,0.7,0.4,1.3c0.2,0.6,0.4,1.1,0.7,1.6c0.5,0.7,0.9,1.3,1.2,1.7c0.3,0.4,0.5,0.8,0.7,1.1c0.2,0.3,0.3,0.6,0.3,0.8
			c0.1,0.2,0.1,0.5,0.1,0.7h0.1c0.2-1,0.5-1.8,0.8-2.6c0.3-0.8,0.5-1.6,0.5-2.4c0-0.7-0.1-1.4-0.3-2.1c-0.2-0.7-0.7-1.5-1.3-2.3h0
			c0.1,0.2,0.2,0.5,0.3,0.8c0.1,0.3,0.2,0.6,0.2,0.9c0,1,0,1.7-0.1,2.3c-0.1,0.6-0.1,1.1-0.1,1.6c0,0.4,0,0.7,0,0.9
			c0,0.2,0,0.5,0,0.7h0C40.1,38.8,40,38.3,39.8,37.8z M37.8,30.6c0.2,0.3,0.3,0.7,0.4,1.1c0.1,0.4,0.2,0.9,0.4,1.4
			c0.1,0.5,0.3,1.2,0.6,2v0c-0.3-0.6-0.6-1.1-1-1.4c-0.4-0.3-0.8-0.6-1.1-0.9c-0.4-0.3-0.7-0.5-1-0.8c-0.3-0.3-0.6-0.6-0.8-1.1h0
			c0.2,0.5,0.3,1,0.4,1.3c0.1,0.3,0.2,0.6,0.3,0.8c0.1,0.2,0.2,0.4,0.4,0.5c0.2,0.2,0.3,0.3,0.6,0.5c0.7,0.6,1.2,1.1,1.7,1.4
			c0.5,0.4,0.9,0.8,1.2,1.4v-3.2c0-0.9-0.3-1.8-0.8-2.5c-0.5-0.8-1.2-1.2-2-1.4v0C37.4,30.1,37.6,30.3,37.8,30.6z M32.6,56.6
			c-0.3,0-0.5,0-0.7-0.1c-0.2,0-0.5-0.1-0.8-0.2v0c-0.3-0.1-0.6-0.2-0.9-0.3c-0.3-0.1-0.8-0.3-1.2-0.5c-0.8-0.3-1.5-0.5-1.9-0.7
			c-0.4-0.2-0.9-0.2-1.3-0.2c-0.4,0-0.8,0.1-1.3,0.2c-0.5,0.1-0.8,0.2-1,0.2c-0.2-0.1-0.5-0.1-0.9-0.2c-0.5-0.1-0.9-0.2-1.3-0.2
			c-0.4,0-0.8,0.1-1.3,0.2c-0.4,0.2-1.1,0.4-1.9,0.7c-1,0.4-1.7,0.6-2.2,0.8c-0.5,0.1-1,0.2-1.5,0.2c-0.2,0-0.4,0-0.6,0
			c-0.2,0-0.4-0.1-0.5-0.1c0,0-0.4-0.1-0.7-0.2c-0.2-0.1-0.5-0.2-0.9-0.4l0,0c0.5,0.5,1.6,1.2,1.6,1.2c0.8,0.5,1.7,0.7,2.5,0.7
			c0.4,0,0.7,0,1-0.1c0.3,0,0.6-0.1,0.9-0.2c0.3-0.1,0.6-0.3,0.9-0.4c0.3-0.2,0.8-0.4,1.2-0.7c0.5-0.3,0.9-0.6,1.3-0.8
			c0.3-0.2,0.7-0.3,1.2-0.3c0.2,0,0.4,0,0.5,0.1c-0.6,0.3-1.3,0.7-2.1,1.2c-0.8,0.5-1.5,1.1-2.2,1.9l0.8,0.7
			c0.7-0.8,1.4-1.5,2.2-2.2c0.8-0.6,1.5-1.1,2.1-1.3c0.6,0.2,1.3,0.6,2.1,1.3c0.8,0.7,1.6,1.4,2.2,2.2l0.8-0.7
			c-0.7-0.8-1.5-1.4-2.3-1.9c-0.8-0.5-1.5-0.9-2.1-1.2c0.2-0.1,0.4-0.1,0.6-0.1c0.5,0,0.9,0.1,1.2,0.3c0.3,0.2,0.8,0.5,1.3,0.8
			c0.5,0.3,0.8,0.5,1.2,0.7c0.3,0.2,0.6,0.3,0.9,0.5c0.3,0.1,0.6,0.2,0.8,0.2c0.3,0.1,0.6,0.1,0.9,0.1v0h0.2c0.6,0,1.3-0.1,2.1-0.5
			c0.7-0.3,1.4-0.8,2-1.5v0c-0.6,0.3-1.1,0.5-1.5,0.6C33.4,56.6,33,56.6,32.6,56.6z M42.5,43.5c0,0,0-0.1,0-0.1c0-0.1,0-0.1,0-0.2
			c0-0.1,0-0.3-0.1-0.4c-0.1,0.6-0.3,1.2-0.6,1.6c-0.3,0.4-0.6,0.8-1,1.3c0,0,0,0.1-0.1,0.1c-0.4,0.4-0.8,0.9-1.3,1.4
			c-0.5,0.5-1,1.2-1.5,2l0,0c0.2-0.3,0.3-0.8,0.5-1.3c0.2-0.5,0.3-1,0.3-1.3c0-0.3,0-0.6-0.1-0.9c0-0.3-0.1-0.5-0.2-0.8
			c-0.1-0.3-0.1-0.6-0.2-1c0-0.4-0.1-0.8-0.1-1.3h0c0,0,0,0,0,0c0,0,0,0,0,0h0c-0.2,0.6-0.4,1.2-0.5,1.8c-0.1,0.5-0.2,1.3-0.3,2.3
			c-0.1,0.6-0.1,1.1-0.2,1.5c0,0.4-0.1,0.8-0.2,1.1c-0.1,0.3-0.1,0.6-0.2,0.9c-0.1,0.2-0.2,0.5-0.3,0.7c0,0,0,0.1-0.1,0.1l0,0
			c0,0,0,0,0,0l1.1-0.7l2.3-1.5c0.3-0.2,0.6-0.4,0.9-0.8c0.3-0.3,0.6-0.7,0.9-1.2c0.2-0.3,0.3-0.6,0.4-0.9c0.1-0.2,0.2-0.4,0.2-0.6
			C42.5,44.6,42.6,44.1,42.5,43.5C42.6,43.6,42.6,43.6,42.5,43.5L42.5,43.5C42.6,43.6,42.5,43.5,42.5,43.5z M29.4,30.2
			c0.1,0,0.2,0.1,0.2,0.1c0.1,0.1,0.1,0.1,0.2,0.2c0,0.1,0.1,0.1,0.2,0.1c0.1,0,0.1,0,0.1-0.1c0-0.1,0-0.1,0-0.1c0,0,0,0,0-0.1
			c0-0.1,0-0.2-0.1-0.3C29.8,30,29.7,30,29.6,30c0,0-0.1,0-0.1,0h0c-0.1,0-0.1,0-0.1,0.1C29.3,30.2,29.3,30.2,29.4,30.2z M24.6,29.1
			L24.6,29.1c0.3-0.1,0.5-0.1,0.6-0.1h0.6c0.1,0,0.2,0,0.3-0.1c0.1-0.1,0.1-0.1,0.1-0.2c-0.2-0.2-0.3-0.3-0.5-0.3
			c-0.2,0-0.4,0-0.5,0c-0.1,0-0.2,0.1-0.5,0.2c-0.3,0.1-0.5,0.2-0.5,0.2c-0.2,0-0.2,0-0.3,0.1c0.1,0.1,0.1,0.1,0.2,0.2
			C24.3,29.1,24.4,29.1,24.6,29.1z M23.3,53.9c7.5,0,13.6-6.1,13.6-13.6c0-7.5-6.1-13.6-13.6-13.6c-7.5,0-13.6,6.1-13.6,13.6
			C9.6,47.8,15.8,53.9,23.3,53.9z M10.3,40.6h2.1c0,0.9,0.2,1.8,0.4,2.7c-0.1,0-0.1,0-0.2-0.1l-0.1-0.1l-0.2-0.3L12,42.9
			c0,0.2-0.1,0.3-0.2,0.2c-0.1-0.1-0.1-0.1-0.2-0.1c-0.2,0-0.4,0.1-0.4,0.4c0,0.3-0.1,0.4-0.1,0.5l0.3,0.8c0.1,0.1,0.2,0.1,0.3,0
			c0.1,0.2,0.2,0.3,0.3,0.3c0.1,0.1,0.1,0.1,0.2,0.1c0.1,0,0.1,0,0.1-0.1h0c0.1,0.1,0.1,0.1,0.2,0.2c0.1,0.1,0.1,0.1,0.2,0.2v0
			c0.1,0.1,0.2,0.2,0.4,0.2c0.1,0.2,0.1,0.4,0.3,0.5c0.1,0.1,0.2,0.2,0.4,0.2c0.1,0,0.1,0,0.2-0.1c0.1,0.2,0.2,0.4,0.2,0.5
			c0.1,0,0.1,0.1,0.2,0.1c0.1,0.1,0.2,0.1,0.2,0.1h0.1c0,0,0,0,0,0c0,0.1,0.1,0.2,0.2,0.4c0.1,0.1,0.2,0.2,0.3,0.2c0,0,0,0,0,0
			c0,0,0,0,0,0c0,0,0,0,0,0c0,0,0.1,0.1,0.1,0.1l-1.5,1.5C11.8,46.9,10.4,43.9,10.3,40.6z M20.3,36.8c0,0-0.1-0.1-0.1-0.1l-0.1-0.1
			c0.8-0.7,1.8-1.1,2.9-1.2v1.4c0,0,0,0-0.1,0c0,0,0,0,0,0c0,0,0,0,0,0c0,0-0.1,0-0.1,0c0,0,0,0-0.1,0c0,0,0,0,0,0c0,0-0.1,0-0.1,0
			c0,0-0.1,0-0.1,0c0,0,0,0-0.1,0c0,0-0.1-0.1-0.1-0.2c0,0,0,0,0,0c0,0,0,0,0,0c-0.1,0.1-0.2,0.1-0.2,0.2c0,0.1,0,0.2-0.1,0.3
			c0,0.1-0.1,0.2-0.2,0.2c-0.1,0-0.2,0.1-0.3,0.2l-0.1-0.1h-0.2c-0.1-0.1-0.1-0.1-0.1-0.1c0,0-0.1,0-0.1-0.1c0,0,0,0,0,0
			c-0.1,0-0.1,0-0.1,0.1l-0.1-0.1l0,0V37C20.6,37,20.5,36.9,20.3,36.8z M19.6,36.1l-1.4-1.4c1.3-1.2,2.9-1.9,4.7-2v2
			C21.6,34.8,20.5,35.3,19.6,36.1z M20.4,42.6c0.1-0.1,0-0.2,0.1-0.3l-0.2,0.1c0.1-0.1,0.2-0.3,0.3-0.3c0-0.1,0.1-0.2,0.1-0.3
			c0,0,0,0,0,0c0,0.1,0.1,0.2,0.2,0.3l-1.3,1.3c-0.5-0.6-0.9-1.3-1.1-2c0.1,0,0.2,0,0.3,0.1c0,0,0.3,0.3,0.3,0.3c0.1,0,0.1,0,0.2,0
			l0.2,0.1c0,0.1,0,0.2,0,0.2c0,0,0,0.1,0.1,0.1c0.1,0,0.2,0.1,0.2,0.2l0.1,0c0,0,0-0.1,0-0.2c0-0.1,0-0.1,0-0.1l0.1,0.3l0.1,0.4
			l0,0C20.2,42.7,20.3,42.7,20.4,42.6z M23.1,44.1c0.1,0.1,0.1,0.1,0.1,0.2c0,0.1-0.1,0.1-0.4,0.1c-0.1,0-0.2,0.1-0.2,0.3
			c0,0.2-0.1,0.3-0.1,0.4c0,0,0,0-0.1,0c0,0,0,0,0,0c-0.9-0.1-1.7-0.5-2.4-1.1l1.2-1.2c0.5,0.4,1,0.7,1.7,0.8c0,0.1,0,0.2,0,0.2
			C23,43.8,23,43.8,23,43.9C23,44,23,44,23.1,44.1z M17,44.2c0-0.4-0.1-0.6-0.1-0.8c0-0.1-0.1-0.3-0.1-0.4c0-0.3-0.1-0.5-0.1-0.6
			c-0.1-0.1-0.2-0.3-0.4-0.6v-0.3c0,0,0-0.1-0.1-0.3v0c0-0.1,0-0.1,0.1-0.1c0,0,0.2-0.1,0.5-0.2c0-0.2,0-0.4,0-0.4l0.3,0.1
			c0.1,0,0.1-0.1,0.1-0.2c0,0,0-0.1-0.1-0.3C17.1,40,17,39.9,17,39.8c0-0.1,0-0.1,0.1-0.2c0.1,0,0.2-0.1,0.3-0.1
			c0.2,0,0.3,0.1,0.3,0.2c0.1,0.1,0.1,0.2,0.1,0.3c0,0.1,0,0.2,0,0.2c0,0.1,0,0.1,0,0.2l0.1,0c-0.1,0.3-0.2,0.4-0.4,0.4
			c-0.1,0-0.2,0-0.2-0.1c0-0.1-0.1-0.1-0.2-0.1c0,0,0,0,0,0c0,0.1,0,0.1,0,0.2c0,0.1,0,0.1,0,0.2c0,0.2-0.1,0.3-0.3,0.2
			c-0.1,0.1,0,0.2,0.2,0.2c0.1,0.2,0.1,0.3,0.2,0.2c0,0,0.1-0.1,0.1-0.3c0-0.2,0.1-0.3,0.1-0.4l0,0l0.2,0c0,0,0,0,0,0.1
			c0,0,0,0,0.1,0c0.2,1,0.6,1.9,1.3,2.7l-1.9,1.9c-0.1-0.1-0.1-0.2-0.1-0.3c0-0.2,0.2-0.3,0.3-0.5c0,0,0-0.4,0-0.4
			C17.1,44.4,17,44.2,17,44.2z M15.9,41.3c0,0.1,0,0.1,0,0.2c0,0.1,0,0.1-0.1,0.1c0,0,0,0,0,0c-0.1-0.3-0.1-0.7-0.1-1h0.4
			c0,0.1,0,0.1,0,0.2c0,0.1-0.1,0.1-0.1,0.2c0,0.1-0.1,0.1-0.1,0.2C15.9,41.2,15.9,41.3,15.9,41.3z M15.7,39.9
			c0.1-1.8,0.8-3.5,2-4.7l1.4,1.4c0,0,0,0,0,0c-0.1,0-0.2,0-0.2,0.1c-0.1,0.1-0.1,0.2-0.2,0.3c-0.2,0.1-0.4,0.2-0.4,0.2
			c-0.1,0.1-0.2,0.2-0.3,0.4c-0.2,0.1-0.3,0.1-0.3,0.2c0,0-0.1,0.1-0.2,0.1c0.1,0.2,0.1,0.2,0,0.2c-0.1,0-0.2,0.1-0.5,0.1
			c0,0-0.1,0-0.1,0l-0.1,0.1c0,0.1,0,0.1,0,0.2c0,0,0,0.1,0,0.2c-0.1,0.1-0.2,0.1-0.2,0.2c-0.1,0.1-0.1,0.3,0,0.4l0.1,0.5
			c0,0,0,0,0,0c0,0,0,0.1,0,0.1H15.7z M19.6,44.4c0.7,0.6,1.5,1,2.4,1.2c-0.1,0-0.1,0-0.2,0.1c-0.2,0-0.2,0.1-0.3,0.3
			c0,0.2-0.1,0.3-0.2,0.3c-0.1,0-0.1,0.1-0.1,0.2c0.2,0.2,0.3,0.3,0.3,0.5c0.1,0.2,0.2,0.4,0.5,0.4l0.3,0.1c0.1,0,0.2,0,0.3,0.1
			c0.1,0,0.2,0,0.2,0c-1.8-0.1-3.3-0.8-4.6-2L19.6,44.4z M17.7,34.2l-1.4-1.4c1.7-1.6,4.1-2.7,6.6-2.7V32
			C20.9,32.1,19.1,32.9,17.7,34.2z M17.2,34.7c-1.3,1.4-2.1,3.2-2.2,5.2h-1.9c0.1-2.5,1.1-4.9,2.7-6.6L17.2,34.7z M15,40.6
			c0,0.3,0.1,0.7,0.1,1c0,0,0-0.1-0.1-0.1c-0.1-0.1-0.2-0.2-0.3-0.2c-0.1,0-0.2,0-0.2,0.1c0,0.1-0.1,0.1-0.1,0.2
			c-0.2,0.2-0.4,0.2-0.5,0.2c-0.1,0.1-0.2,0.3-0.3,0.5c0,0.1,0,0.1,0,0.2c0,0.1,0,0.1-0.1,0.2c0.1,0.1,0.1,0.2,0,0.2
			c0,0.1,0,0.1,0,0.1c0,0-0.1,0-0.1,0c0,0,0,0.1-0.1,0.1c-0.2-0.8-0.4-1.6-0.4-2.5H15z M22.9,53.2c-3.3-0.1-6.3-1.4-8.5-3.5l1.5-1.5
			c1.9,1.8,4.3,2.9,7.1,2.9V53.2z M22.9,50.4c-2.5-0.1-4.8-1.1-6.6-2.7c0.1,0.1,0.3,0.1,0.4,0.1c0.1,0,0.2,0,0.4-0.1
			c0.2-0.1,0.3-0.1,0.4-0.2c0.2,0,0.3,0,0.4-0.1c0.1,0,0.2,0,0.3,0c0.1,0,0.2-0.1,0.2-0.2c0-0.1-0.1-0.2-0.2-0.3
			c-0.1-0.1-0.2-0.1-0.2-0.2c0,0,0-0.1-0.1-0.1c0,0-0.1-0.1-0.3-0.3l0,0c1.4,1.3,3.2,2.1,5.2,2.2V50.4z M23.3,45.4L23.3,45.4
			c-0.2,0-0.4,0-0.5-0.1c0,0,0-0.1,0-0.1c0,0,0.1-0.1,0.2-0.1c0.1-0.1,0.2-0.1,0.3-0.1l0-0.1l0.3-0.3c0.1,0,0.1,0,0.1,0
			c0,0,0.1,0,0.3-0.1c0,0,0.1,0.1,0.4,0.2c0.2,0.1,0.3,0.2,0.4,0.2l0-0.2c0.1,0,0.2,0.1,0.3,0.2c0.1,0,0.1,0,0.2-0.1
			c0-0.1,0-0.2,0-0.2c0,0,0.1,0,0.1,0c0,0,0.1,0,0.1,0c0,0,0,0,0.1,0h0c0.1,0,0.1,0,0.2-0.1c0.1-0.1,0.2-0.1,0.2-0.2
			c0,0,0.1,0,0.1,0c0,0,0,0.1,0,0.2c0,0.2-0.1,0.4-0.4,0.5c-0.3,0.1-0.5,0.2-0.7,0.3c0,0-0.1,0.1-0.1,0.2c0,0.1-0.1,0.2-0.2,0.2
			c-0.1,0-0.3,0-0.6-0.1c0,0-0.1-0.1-0.1-0.3c-0.1,0-0.2,0-0.3,0l-0.4,0.1C23.4,45.4,23.4,45.4,23.3,45.4z M25.3,43.9
			c0-0.1,0.1-0.2,0.2-0.3c0.1,0,0.2-0.1,0.4-0.1c0,0.1-0.1,0.2-0.2,0.3C25.4,43.9,25.3,43.9,25.3,43.9L25.3,43.9z M26.7,42.8
			c0.1,0.1,0.2,0.2,0.2,0.3c0,0.1-0.1,0.2-0.2,0.2c-0.1,0-0.2-0.1-0.2-0.3c-0.2-0.1-0.3-0.2-0.4-0.3c0-0.1,0-0.2,0-0.2
			c0.1,0,0.1-0.1,0.2-0.1c0.1,0,0.1,0.1,0,0.2C26.4,42.6,26.5,42.7,26.7,42.8z M31,35.2C31.1,35.2,31.1,35.2,31,35.2
			c0.2,0,0.3,0.1,0.4,0.1c0.1,0.1,0.3,0.3,0.5,0.7c0,0,0.1,0,0.1,0.1c0,0.1,0.1,0.1,0.2,0.1c0.1,0,0.1,0,0.2-0.1c0,0,0-0.1,0-0.1
			c0.5,1.2,0.9,2.5,0.9,3.9h-1.9c0,0,0,0,0,0c0-0.2,0-0.3-0.1-0.5c-0.1-0.2-0.1-0.4-0.1-0.7c0-0.2,0.1-0.3,0-0.4c-0.1,0-0.2,0-0.2,0
			c0,0-0.1,0.1-0.1,0.2c0,0.1-0.1,0.2-0.1,0.2v0c0,0,0,0.1,0,0.1c0,0,0,0.1,0,0.1c0,0.1-0.1,0.2-0.1,0.4c0,0.1,0,0.2,0,0.4
			c0,0,0,0,0,0c0,0,0,0.1,0,0.1h-1c0.1-0.1,0.1-0.1,0.2-0.1h0l0.3-0.1c-0.1,0-0.1-0.1-0.1-0.1c0-0.1,0-0.1,0-0.2
			c0,0,0.1-0.1,0.3-0.1c0.1-0.1,0.1-0.2,0.2-0.4c0.1-0.3,0.4-0.6,0.4-0.9c0-0.1-0.1-0.2-0.1-0.2c0-0.1,0-0.1,0-0.2
			c0-0.3,0.1-0.9-0.3-1c0,0,0,0,0-0.1c0.1-0.1,0.1-0.2,0.1-0.3h-0.3c0,0,0-0.1,0.1-0.2c0-0.1,0.1-0.1,0.1-0.2c0-0.1,0-0.1-0.1-0.1
			c-0.1,0-0.2,0-0.2,0c-0.1,0-0.1,0-0.1,0c0,0-0.1,0-0.1,0c0,0,0-0.1-0.1-0.1c0-0.1-0.1-0.3-0.2-0.4c-0.1-0.1-0.2-0.2-0.4-0.3
			c0,0,0,0,0,0c0-0.1,0-0.1,0-0.2l0.4-0.4l0.5,0.2c0,0.2,0,0.3,0.1,0.3c0,0,0.1,0.1,0.2,0.1c0.1,0.1,0.2,0.1,0.2,0.2v0
			C31,35.1,31,35.2,31,35.2z M29.2,48.3c0,0-0.1,0-0.1,0c0,0-0.1,0-0.1-0.1c0-0.1,0-0.1,0.1-0.2c0.1-0.1,0.2-0.2,0.2-0.3
			c0.1-0.1,0.1-0.2,0.1-0.3c0-0.1,0-0.1-0.1-0.1c0,0-0.1-0.1-0.2-0.1c-0.1,0-0.1-0.1-0.2-0.1c-0.1,0-0.2-0.1-0.2-0.1
			c-0.1-0.1-0.1-0.1-0.1-0.2c0,0,0-0.1,0.1-0.2c0,0,0-0.1,0-0.1c0,0,0.1-0.1,0.1-0.1l1,1c0,0.1,0.1,0.2,0.2,0.2l0.1,0.1
			c-0.4,0.3-0.8,0.7-1.2,0.9c0,0,0-0.1,0.1-0.1c0,0,0,0,0.1,0C29.2,48.4,29.2,48.4,29.2,48.3z M28.5,43.4c-0.1,0-0.2,0-0.3,0
			c-0.1,0-0.2,0.1-0.3,0.3c0,0,0,0,0,0c-0.1,0-0.1,0-0.2,0c-0.1,0-0.2,0.1-0.2,0.1c-0.1,0-0.1,0-0.1-0.1c0-0.1,0.1-0.2,0.4-0.2
			c0.1-0.1,0.2-0.2,0.2-0.3c0,0,0.1-0.1,0.2-0.1c0.1-0.1,0.2-0.2,0.3-0.3c0.1-0.2,0.2-0.3,0.2-0.3h0c0,0.1,0.1,0.2,0.2,0.2
			c0.1,0,0.2-0.1,0.2-0.3c0.2,0.1,0.3,0.1,0.4,0.1c0.2,0,0.3-0.1,0.3-0.2h0.6c0,0,0,0,0,0c0,0,0,0,0,0h0c-0.3,1-0.8,1.9-1.5,2.7
			c0,0,0-0.1,0-0.1c0,0-0.1-0.4-0.2-0.4c-0.1,0-0.1,0.1-0.2,0.3c-0.1,0.2-0.1,0.3-0.2,0.4l-0.5,0.1c-0.1,0-0.3,0-0.4,0
			c-0.1,0-0.2-0.1-0.4-0.2c-0.2-0.1-0.3-0.2-0.4-0.2c-0.1,0-0.2-0.1-0.4-0.1c-0.2,0-0.2-0.1-0.2-0.1c0-0.1,0.1-0.1,0.2-0.1
			c0.1,0,0.2,0,0.4,0.1c0.2,0,0.4,0.1,0.5,0.1c0.2,0,0.3,0.1,0.5,0.1c0.2,0,0.2,0.1,0.3,0.1l0.3-0.1c0-0.1,0-0.1,0.1-0.2
			c0.1-0.1,0.1-0.2,0.1-0.2c0.1-0.1,0.1-0.3,0.2-0.5c0-0.2,0.1-0.4,0.1-0.5C28.7,43.5,28.6,43.4,28.5,43.4z M29.7,40.6h1.1
			c0,0.5-0.1,0.9-0.2,1.3c-0.1-0.2-0.2-0.3-0.2-0.4c-0.1-0.1-0.2-0.2-0.4-0.4c0-0.2-0.1-0.3-0.1-0.3c0,0,0-0.1-0.1-0.1
			C29.8,40.7,29.8,40.7,29.7,40.6z M30.2,46.2c-0.1,0-0.1,0-0.1,0.1c0,0,0,0.1,0,0.3l-0.7-0.7c0.9-1,1.6-2.2,1.9-3.5c0,0,0,0,0,0
			c0.2,0.1,0.3,0.1,0.3,0c0-0.1,0.1-0.1,0.1-0.1c0-0.1-0.1-0.2-0.2-0.4h-0.1c0.1-0.4,0.1-0.8,0.1-1.2h1.9c-0.1,2.5-1.1,4.9-2.7,6.6
			l-0.1-0.1c0,0,0,0,0,0c0-0.2-0.1-0.4-0.1-0.6C30.5,46.3,30.4,46.2,30.2,46.2z M29.7,36.3C29.7,36.3,29.7,36.3,29.7,36.3
			c0,0.1,0,0.1,0,0.2c0,0.1-0.1,0.2-0.1,0.2c0,0.1,0.1,0.2,0.4,0.3c0.2,0.2,0.3,0.3,0.4,0.3c0.1,0.1,0.1,0.3,0.2,0.5
			c0.1,0.3,0.1,0.4,0.1,0.5c0,0.1-0.1,0.2-0.1,0.3c-0.1,0.2-0.3,0.3-0.5,0.3l0,0c0-0.1,0-0.1,0.1-0.3c0.1-0.1,0.1-0.2,0.1-0.3
			c0.1-0.1,0.2-0.2,0.2-0.3c-0.1,0-0.1-0.1-0.1-0.1c0,0-0.1-0.1-0.2-0.2c0-0.1-0.1-0.1-0.3-0.1c-0.1,0-0.2,0-0.2,0.1
			c-0.1,0-0.1,0.1-0.2,0.2l-0.1-0.2c0-0.1,0-0.1,0-0.2L28.9,37c-0.1-0.1-0.3-0.1-0.5-0.2c-0.1,0-0.2,0-0.4,0c-0.1,0-0.2,0-0.4,0
			c-0.1,0-0.2,0-0.4,0.1c-0.1,0.1-0.2,0.2-0.3,0.3c0,0.1,0,0.1-0.1,0.1c0,0-0.1-0.1-0.1-0.1l2.1-2.1c0,0,0,0.1,0,0.1
			c0,0,0.1,0.1,0.2,0.2c0.1,0.1,0.1,0.2,0.2,0.2C29.4,35.9,29.6,36.1,29.7,36.3z M24.8,49.9c0.2,0.1,0.4,0.2,0.6,0.3
			c-0.6,0.1-1.1,0.2-1.7,0.2v-1.9h0c0.1,0.1,0.2,0.3,0.3,0.3c0.1,0,0.2,0.1,0.4,0.1c0.2,0,0.3,0.1,0.3,0.1c0,0.1,0,0.1-0.1,0.2
			c0,0.1-0.1,0.1-0.1,0.2C24.5,49.6,24.6,49.8,24.8,49.9z M23.6,53.2v-2.1c0.8,0,1.5-0.1,2.2-0.3c0,0,0,0,0,0c0,0,0,0,0,0.1
			c0.2,0.2,0.4,0.3,0.5,0.4c0.1,0.1,0.2,0.2,0.5,0.2c0.2,0,0.2,0,0.3-0.1c0-0.1,0.1-0.1,0.2-0.2c0.1-0.1,0.1-0.1,0.2-0.1
			c0.1,0,0.2-0.1,0.2-0.1c0.2-0.1,0.3-0.2,0.3-0.3c0.1-0.1,0.2-0.2,0.3-0.4c0.1,0,0.1,0,0.2-0.1c0.1-0.1,0.1-0.2,0.2-0.5
			c0,0,0.1,0,0.1,0c0,0,0,0,0-0.1c0.7-0.4,1.4-0.9,2-1.5l1.5,1.5C29.9,51.8,26.9,53.1,23.6,53.2z M32.6,49.2l-1.5-1.5
			c1.8-1.9,2.9-4.3,2.9-7.1h2.1C36.1,43.9,34.8,46.9,32.6,49.2z M36.2,39.9h-2.1c-0.1-2.3-0.8-4.4-2.1-6.1c0-0.1-0.1-0.1-0.1-0.2
			c0,0-0.1-0.1-0.1-0.1c-0.2-0.2-0.3-0.4-0.5-0.6c0,0,0-0.1-0.1-0.1l1.4-1.4C34.8,33.6,36.1,36.6,36.2,39.9z M23.6,27.3
			c3.3,0.1,6.3,1.4,8.5,3.5l-1.3,1.3c0-0.1-0.1-0.1-0.1-0.2c-0.1-0.1-0.2-0.1-0.2-0.1c-0.1-0.1-0.2-0.2-0.2-0.3
			c0-0.1-0.1-0.2-0.1-0.3c-0.2-0.1-0.3-0.2-0.5-0.4c-0.1-0.2-0.2-0.3-0.4-0.3c-0.1,0-0.2,0-0.3,0c-0.1-0.1-0.2-0.1-0.3-0.1
			c-0.1,0-0.2,0-0.3,0c-0.1,0-0.2,0.1-0.4,0.1c0,0,0,0,0,0c-1.3-0.7-2.8-1.1-4.4-1.2c0.1-0.2,0.1-0.3,0-0.4c0,0-0.1,0-0.2,0.1V27.3z
			 M23.6,30.1c1.5,0.1,2.9,0.4,4.2,1.1c0,0,0,0,0,0c0.1,0.1,0.1,0.1,0.2,0.2c0.1,0.1,0.1,0.1,0.2,0.2c0.1,0.2,0.1,0.3,0.1,0.4
			c0,0.1,0.1,0.1,0.1,0.2c0,0.1,0,0.2,0.1,0.4c0.1,0.1,0.2,0.3,0.2,0.4c0,0,0.1,0,0.2,0c0.1,0,0.2,0,0.2,0c0.1,0,0.1,0,0.2,0.1
			c0.1,0.1,0.1,0.2,0.2,0.3c0,0,0,0.1,0,0.1L29,34l0,0c-0.1-0.4-0.2-0.7-0.3-0.8c-0.1-0.1-0.2-0.1-0.4-0.1c0,0-0.1-0.2-0.3-0.4
			c-0.2-0.2-0.3-0.3-0.3-0.3c-0.1,0-0.1,0-0.1,0c0,0.1,0.1,0.1,0.1,0.2s0.1,0.1,0.2,0.3c0,0.1,0,0.1-0.1,0.1c0,0.1,0.1,0.2,0.2,0.2
			l0,0.1l0.1,0.3c-1.3-0.9-2.8-1.5-4.5-1.6V30.1z M23.6,32.7c1.8,0.1,3.5,0.8,4.7,2L27,36.1c-0.9-0.8-2.1-1.3-3.3-1.4V32.7z
			 M23.6,35.4c1,0.1,1.9,0.5,2.7,1.1c0,0-0.1,0-0.1,0c0,0-0.1,0-0.1,0.1c0,0,0,0.1,0,0.1c0,0.1,0.1,0.1,0.2,0.1l-0.5,0.5v0
			c-0.1,0.1-0.2,0.1-0.2,0.1c-0.1,0.1-0.2,0.1-0.2,0.2c0,0,0,0.1,0,0.2L25.1,38c0,0,0,0-0.1,0c-0.1,0-0.2-0.1-0.3-0.2
			c-0.1-0.1-0.2-0.2-0.3-0.2c-0.1,0-0.2,0-0.2,0.1c0,0-0.1,0.1-0.2,0c-0.1-0.1,0-0.1,0.2-0.2c0.2-0.1,0.3-0.1,0.4-0.2
			c0.2-0.2,0.4-0.4,0.4-0.7c0-0.2-0.1-0.2-0.2-0.2l-0.1,0.1c-0.1,0.1-0.2,0.1-0.3,0.2c-0.1,0.1-0.2,0.2-0.2,0.2c-0.1,0-0.2,0-0.3,0
			h-0.3c0,0,0,0,0,0V35.4z M23.2,38.5C23.2,38.6,23.3,38.6,23.2,38.5c0.2,0.1,0.2,0.1,0.3,0.1c0.1,0,0.1,0.1,0.2,0
			c0,0,0,0.1,0.1,0.1c0,0.1,0.1,0.1,0.2,0.1c0,0,0,0,0.1,0.1c0,0,0,0,0,0c0,0,0,0.1,0.1,0.2c0,0,0,0,0,0c0,0,0,0,0,0
			c0.1,0,0.1,0,0.1,0c0,0,0.1,0,0.1,0c0,0,0,0.1,0,0.1h0c0,0,0,0.1,0,0.1c0,0.1,0,0.1,0,0.2v0.1c0,0,0,0,0,0
			c-0.1,0.1-0.1,0.2-0.1,0.3c0,0.1,0,0.1,0.1,0.1c0.1,0,0.1,0,0.2,0.1c0.1,0.1,0.1,0.1,0.1,0.3v0.4c0,0.1,0,0.1,0.1,0.1
			c0,0,0.1,0.1,0.1,0.1c0,0.1,0,0.2,0,0.3c0,0.1-0.1,0.2-0.1,0.3c0,0-0.1,0-0.2,0c-0.1,0-0.2,0-0.3,0c-0.1,0-0.1,0.1-0.2,0.3
			c-0.1,0.2-0.1,0.3-0.1,0.4c0,0.1-0.1,0.2-0.2,0.2c-0.1,0-0.1,0-0.2,0c0,0,0,0,0,0l-0.2,0.2l0,0.1c-0.5,0-1-0.3-1.4-0.6L22,42
			c0.2,0,0.3-0.1,0.4-0.1c0,0,0.1,0,0.1,0c0.2-0.1,0.2-0.3,0.3-0.5c0.1-0.1,0.3-0.3,0.1-0.5c0.2-0.4-0.7-0.4-0.9-0.3
			c-0.2,0.1-0.1,0.3-0.2,0.5c-0.1,0.1-0.1,0.1-0.2,0.1c-0.1,0.1-0.3,0.3-0.3,0.5l0,0c-0.1-0.1-0.1-0.2-0.2-0.3c0,0,0,0,0,0
			c0,0,0-0.1,0-0.1h0v0c0.1,0,0.2,0,0.2,0c0-0.1,0.1-0.2,0.1-0.2c0-0.1,0.1-0.3,0.2-0.5c-0.1,0-0.1-0.1-0.1-0.1c0-0.1,0-0.1-0.1,0
			c-0.1,0-0.1,0.1-0.1,0.1c0,0.1,0,0.1-0.1,0.2c-0.1,0.1-0.1,0.1-0.2,0.1c0-0.1,0-0.1-0.1-0.1c-0.1,0-0.1,0-0.2,0.1
			c-0.1,0-0.2,0-0.4,0c-0.2,0-0.4,0-0.4,0c-0.1-0.1,0-0.1,0.2-0.2c0-0.2,0-0.4,0.2-0.5c0.1,0.1,0.2,0.1,0.3,0.1l0.1-0.1h0
			c0.1,0,0.1,0.1,0.2,0.2c0,0.2,0.1,0.2,0.1,0.2c0.1,0,0.1,0,0.2-0.1v-0.2c0.1-0.2,0.1-0.4,0.1-0.5v-0.1c0-0.1,0.1-0.2,0.1-0.2h0.1
			c0.1,0,0.1-0.1,0.2-0.1C22,39.1,22,39,22,38.9c0.1,0,0.3-0.1,0.5-0.2c0.2-0.1,0.3-0.2,0.3-0.3c0,0,0,0,0,0c0.1,0,0.2,0,0.3,0
			C23.2,38.5,23.2,38.5,23.2,38.5z M22.9,27.3v2.1c-2.7,0.1-5.2,1.2-7.1,2.9l-1.5-1.5C16.6,28.8,19.6,27.4,22.9,27.3z M13.9,31.4
			l1.5,1.5c-1.8,1.9-2.9,4.3-2.9,7.1h-2.1C10.4,36.6,11.8,33.6,13.9,31.4z"/>
	</g>
</g>
<g id="original_font">
</g>
</svg>
