<?xml version="1.0" encoding="utf-8"?>
<!-- Generator: Adobe Illustrator 19.1.0, SVG Export Plug-In . SVG Version: 6.00 Build 0)  -->
<svg version="1.1" xmlns="http://www.w3.org/2000/svg" xmlns:xlink="http://www.w3.org/1999/xlink" x="0px" y="0px"
	 viewBox="0 0 324 62.6" style="enable-background:new 0 0 324 62.6;" xml:space="preserve">
<style type="text/css">
	.st0{fill:#3F4A74;}
	.st1{fill:#EC5F69;}
	.st2{fill:#F29A7F;}
	.st3{fill:#EFEF9F;}
	.st4{fill:#62B0C1;stroke:#62B0C1;stroke-width:0.5;stroke-miterlimit:10;}
	.st5{fill:#3F4A74;stroke:#3F4A74;stroke-width:0.9805;stroke-miterlimit:10;}
	.st6{fill:#62B0C1;}
	.st7{fill:#62B0C1;stroke:#62B0C1;stroke-width:0.9;stroke-miterlimit:10;}
</style>
<g id="Layer_1">
	<g>
		<path class="st0" d="M5.1,39.2c0.4-0.3,0.9-0.7,1.4-1.2c0.2-0.2,0.4-0.3,0.5-0.4c0.1-0.1,0.2-0.3,0.3-0.4c0.1-0.2,0.2-0.4,0.3-0.6
			c0.1-0.3,0.2-0.6,0.4-1.1h0c-0.2,0.4-0.4,0.7-0.7,0.9C7,36.6,6.7,36.8,6.4,37c-0.3,0.2-0.6,0.5-0.9,0.7c-0.3,0.3-0.6,0.7-0.8,1.2
			v0c0.2-0.6,0.4-1.2,0.5-1.6c0.1-0.4,0.2-0.8,0.3-1.2c0.1-0.3,0.2-0.6,0.3-0.9c0.1-0.2,0.4-0.5,0.6-0.7v0c-0.7,0.2-1.2,0.6-1.6,1.2
			c-0.4,0.6-0.6,1.3-0.6,2.1v2.6C4.4,39.9,4.7,39.5,5.1,39.2z M6.8,36c0.3-0.4,0.7-0.7,0.9-1.1c0.3-0.4,0.6-0.7,0.8-1.1
			c0.3-0.3,0.5-0.6,0.9-0.9l0,0c-0.2,0.2-0.5,0.3-0.8,0.4c-0.3,0.1-0.7,0.3-1.1,0.5c-0.4,0.2-0.7,0.6-1.1,1.1
			c-0.3,0.5-0.6,1.2-0.9,2.1C6.1,36.7,6.5,36.4,6.8,36z M2.7,45.7c0.2,0.4,0.5,0.7,0.8,1.1c0.3,0.4,0.6,0.8,0.9,1.3h0
			c0-0.2,0-0.4,0-0.6V47c0-0.2,0.1-0.5,0.2-1c0.1-0.5,0.3-1,0.4-1.5c0.2-0.6,0.3-1.1,0.4-1.7c0.1-0.6,0.1-1.1,0.1-1.5h0
			c-0.1,0.3-0.2,0.6-0.4,0.9c-0.2,0.3-0.4,0.6-0.6,1c-0.2,0.3-0.4,0.7-0.5,1.1c-0.1,0.4-0.2,0.8-0.2,1.2c0,0.1,0,0.4,0.1,0.6
			C3.9,46.4,4,46.5,4,46.6h0C3.8,46,3.7,45.5,3.5,45c-0.2-0.5-0.4-0.9-0.5-1.4c-0.2-0.4-0.3-0.8-0.5-1.1c-0.1-0.3-0.2-0.6-0.2-0.9
			c0-0.2,0-0.4,0-0.6c0-0.1,0-0.3,0-0.6h0c-0.1,0.2-0.2,0.5-0.3,1c-0.1,0.4-0.2,0.8-0.2,1.2c0,0.7,0.1,1.3,0.2,1.8
			C2.2,44.9,2.4,45.3,2.7,45.7z M9.4,55.7c0.1,0,0.3,0,0.4,0c0.2,0,0.4,0,0.6,0c0.2,0,0.4-0.1,0.7-0.1c0.3,0,0.6-0.1,1.1-0.2
			c0.4-0.1,1-0.3,1.7-0.4c-0.5-0.1-0.9-0.2-1.2-0.3c-0.3-0.1-0.7-0.3-1-0.6c-0.4-0.4-0.8-0.7-1.3-1.1c-0.3-0.3-0.7-0.6-1-0.9
			c-0.1-0.1-0.6-0.5-0.7-0.7l0,0c0.1,0.1,0.5,1,0.5,1s0.1,0.1,0.1,0.2c0.1,0.2,0.2,0.4,0.4,0.7c0,0.1,0.1,0.2,0.1,0.3
			c0.1,0.3,0.3,0.5,0.6,0.7c0.3,0.3,0.8,0.6,1.6,0.8v0c-0.3,0-0.6-0.1-0.8-0.1c-0.2,0-0.4-0.1-0.6-0.1c-0.2,0-0.4,0-0.5-0.1
			c-0.2,0-0.4,0-0.7-0.1c-0.2,0-0.3-0.1-0.5-0.1c-0.2,0-0.3,0-0.5-0.1c-0.1,0-0.2,0-0.3,0c-0.3,0-0.6-0.1-0.9-0.2
			c-0.3-0.1-0.6-0.2-0.8-0.4c-0.3-0.2-0.6-0.4-0.9-0.7l0,0c0.1,0.2,0.3,0.5,0.5,0.7c0.2,0.2,0.5,0.5,0.8,0.7
			c0.3,0.2,0.7,0.5,1.1,0.6c0.4,0.2,0.9,0.3,1.4,0.4C9.1,55.7,9.3,55.7,9.4,55.7z M3.6,44.1L3.6,44.1c0.1-0.2,0.1-0.4,0.2-0.6
			c0-0.2,0.1-0.4,0.3-0.6c0.1-0.2,0.3-0.5,0.6-0.9c0.2-0.3,0.6-0.8,1-1.4c0.2-0.4,0.4-0.8,0.6-1.3c0.1-0.5,0.2-0.8,0.3-1.1h0
			c0,0.1-0.1,0.2-0.2,0.3c-0.1,0.1-0.1,0.2-0.2,0.3C6,39,5.8,39.1,5.7,39.3c-0.2,0.1-0.4,0.3-0.6,0.6c-0.5,0.4-0.8,0.8-0.9,1.2
			c-0.1,0.4-0.3,0.8-0.4,1.2h0c0-0.2,0-0.4,0-0.6c0-0.2,0-0.4,0-0.7c0-0.4,0-0.8-0.1-1.3c0-0.5-0.1-1.1-0.1-1.9c0-0.2,0-0.5,0.1-0.7
			c0.1-0.2,0.2-0.4,0.3-0.6h0c-0.5,0.7-0.9,1.3-1.1,1.9c-0.2,0.6-0.3,1.2-0.3,1.7c0,0.6,0.1,1.3,0.4,1.9C3.3,42.6,3.5,43.3,3.6,44.1
			z M7.5,53.7L9,54l0.8,0.2c-0.3-0.2-0.8-1-0.8-1c-0.2-0.3-0.3-0.6-0.5-1c-0.1-0.4-0.4-0.9-0.6-1.6c-0.1-0.2-0.2-0.4-0.2-0.6
			c-0.1-0.2-0.2-0.3-0.3-0.5C7.3,49.2,7.2,49,7,48.8c-0.2-0.2-0.4-0.5-0.6-0.9l0,0c0.1,0.2,0.2,0.7,0.3,1.3c0.1,0.6,0.3,1.2,0.4,1.8
			c0.1,0.4,0.2,0.8,0.5,1.2c0.3,0.4,0.6,0.7,1,1.1l0,0c-0.2,0-0.5-0.2-0.9-0.6c-0.4-0.3-0.9-0.6-1.3-0.8c-0.9-0.5-1.7-0.9-2.2-1.2
			c-0.5-0.4-0.9-0.8-1.2-1.5l0,0C3,49.9,3.2,50.5,3.5,51c0.3,0.5,0.7,0.9,1.1,1.3c0.4,0.4,0.9,0.7,1.4,0.9C6.5,53.4,7,53.6,7.5,53.7
			z M4,49.9l2.7,1.8c-0.1-0.2-0.2-0.5-0.3-0.7c-0.1-0.2-0.1-0.5-0.2-0.7c0-0.3-0.1-0.6-0.1-0.9c0-0.3-0.1-0.7-0.1-1.2
			c-0.1-0.8-0.2-1.4-0.3-1.9c-0.1-0.4-0.2-0.9-0.4-1.4h0c0,0.4,0,0.8-0.1,1.1c0,0.3-0.1,0.6-0.1,0.8C5.1,47,5,47.2,5,47.4
			c0,0.2-0.1,0.4-0.1,0.7c0,0.3,0.1,0.6,0.2,1.1c0.2,0.4,0.3,0.8,0.5,1.1l0,0c-0.4-0.7-0.8-1.2-1.2-1.6c-0.4-0.4-0.8-0.8-1.1-1.2
			c-0.3-0.4-0.6-0.7-0.8-1.1C2.2,46,2,45.6,1.9,45.1c0,0.1-0.1,0.2-0.1,0.4c0,0.1,0,0.2,0,0.4c0,0.4,0.1,0.8,0.2,1.3
			c0.1,0.4,0.3,0.8,0.6,1.2c0.2,0.4,0.5,0.7,0.7,1C3.6,49.5,3.8,49.7,4,49.9z M26.5,33.9c0.3,0.3,0.5,0.7,0.8,1.1
			c0.3,0.4,0.6,0.7,0.9,1.1c0.3,0.4,0.8,0.7,1.3,1c-0.2-0.9-0.5-1.6-0.9-2.1c-0.3-0.5-0.7-0.8-1.1-1.1c-0.4-0.2-0.7-0.4-1.1-0.5
			c-0.3-0.1-0.6-0.2-0.8-0.4l0,0C25.9,33.3,26.2,33.6,26.5,33.9z M28.9,53.8c-0.3,0.2-0.6,0.3-0.8,0.4c-0.3,0.1-0.6,0.1-0.9,0.2
			c-0.1,0-0.2,0-0.3,0c-0.2,0-0.3,0-0.5,0.1c-0.2,0-0.3,0.1-0.5,0.1c-0.2,0-0.4,0-0.7,0.1c-0.2,0-0.4,0-0.5,0.1
			c-0.2,0-0.4,0.1-0.6,0.1c-0.2,0-0.5,0.1-0.8,0.1v0c0.7-0.2,1.2-0.5,1.6-0.8c0.3-0.2,0.5-0.4,0.6-0.7c0-0.1,0.1-0.2,0.1-0.3
			c0.1-0.2,0.2-0.4,0.4-0.7c0-0.1,0.1-0.2,0.1-0.2s0.5-0.9,0.5-1l0,0c-0.1,0.1-0.6,0.6-0.7,0.7c-0.3,0.3-0.7,0.6-1,0.9
			c-0.4,0.4-0.8,0.8-1.3,1.1c-0.3,0.3-0.7,0.5-1,0.6c-0.3,0.1-0.7,0.2-1.2,0.3c0.7,0.2,1.3,0.3,1.7,0.4c0.4,0.1,0.8,0.2,1.1,0.2
			c0.3,0,0.5,0.1,0.7,0.1c0.2,0,0.4,0,0.6,0c0.1,0,0.3,0,0.4,0c0.1,0,0.4,0,0.4,0c0.5-0.1,1-0.2,1.4-0.4c0.4-0.2,0.8-0.4,1.1-0.6
			c0.3-0.2,0.6-0.5,0.8-0.7c0.2-0.2,0.4-0.5,0.5-0.7l0,0C29.5,53.5,29.2,53.7,28.9,53.8z M31,50.7c-0.5,0.4-1.3,0.8-2.2,1.2
			c-0.5,0.2-0.9,0.5-1.3,0.8c-0.4,0.3-0.7,0.5-0.9,0.6l0,0c0.4-0.4,0.8-0.7,1-1.1c0.3-0.4,0.4-0.7,0.5-1.2c0.1-0.6,0.3-1.2,0.4-1.8
			c0.1-0.6,0.2-1.1,0.3-1.3l0,0c-0.2,0.3-0.5,0.6-0.6,0.9c-0.2,0.2-0.3,0.4-0.4,0.6c-0.1,0.2-0.2,0.4-0.3,0.5
			c-0.1,0.2-0.2,0.4-0.2,0.6c-0.3,0.7-0.5,1.2-0.6,1.6c-0.1,0.4-0.3,0.7-0.5,1c0,0-0.5,0.8-0.8,1L26,54l1.5-0.3
			c0.5-0.1,1-0.3,1.5-0.5c0.5-0.2,1-0.6,1.4-0.9c0.4-0.4,0.8-0.8,1.1-1.3c0.3-0.5,0.5-1,0.7-1.7l0,0C31.9,49.9,31.5,50.4,31,50.7z
			 M32.1,43.7c-0.2,0.4-0.4,0.9-0.5,1.4c-0.2,0.5-0.3,1-0.4,1.6h0c0,0,0-0.2,0.1-0.5c0.1-0.3,0.1-0.5,0.1-0.6c0-0.4-0.1-0.9-0.2-1.2
			c-0.1-0.4-0.3-0.7-0.5-1.1c-0.2-0.3-0.4-0.7-0.6-1c-0.2-0.3-0.3-0.6-0.4-0.9h0c0,0.4,0,0.9,0.1,1.5c0.1,0.6,0.2,1.1,0.4,1.7
			c0.2,0.6,0.3,1.1,0.4,1.5c0.1,0.5,0.2,0.8,0.2,1v0.5c0,0.2,0,0.4,0,0.6h0c0.3-0.5,0.6-1,0.9-1.3c0.3-0.4,0.6-0.7,0.8-1.1
			c0.2-0.4,0.4-0.8,0.6-1.2c0.1-0.5,0.2-1.1,0.2-1.8c0-0.3-0.1-0.7-0.2-1.2c-0.1-0.4-0.2-0.8-0.3-1h0c0,0.2,0,0.4,0,0.6
			c0,0.1,0,0.3,0,0.6c0,0.2-0.1,0.5-0.2,0.8C32.4,42.9,32.3,43.2,32.1,43.7z M31,41.1c-0.1-0.4-0.5-0.8-0.9-1.2
			c-0.3-0.2-0.5-0.4-0.6-0.6c-0.2-0.1-0.3-0.3-0.4-0.4c-0.1-0.1-0.2-0.2-0.2-0.3c-0.1-0.1-0.1-0.2-0.2-0.3h0c0,0.2,0.1,0.6,0.3,1.1
			c0.1,0.5,0.3,0.9,0.6,1.3c0.4,0.6,0.7,1.1,1,1.4c0.2,0.3,0.4,0.6,0.6,0.9c0.1,0.2,0.2,0.5,0.3,0.6c0,0.2,0.1,0.4,0.1,0.6h0
			c0.2-0.8,0.4-1.5,0.6-2.2c0.3-0.7,0.4-1.3,0.4-1.9c0-0.6-0.1-1.1-0.3-1.7c-0.2-0.6-0.5-1.2-1.1-1.9h0c0.1,0.2,0.2,0.4,0.3,0.6
			c0.1,0.2,0.1,0.5,0.1,0.7c0,0.8,0,1.4-0.1,1.9c0,0.5-0.1,0.9-0.1,1.3c0,0.3,0,0.5,0,0.7c0,0.2,0,0.4,0,0.6h0
			C31.2,41.9,31.1,41.4,31,41.1z M29.3,35.2c0.1,0.2,0.2,0.5,0.3,0.9c0.1,0.3,0.2,0.7,0.3,1.2c0.1,0.4,0.3,1,0.5,1.6v0
			c-0.2-0.5-0.5-0.9-0.8-1.2c-0.3-0.3-0.6-0.5-0.9-0.7c-0.3-0.2-0.6-0.4-0.9-0.6c-0.3-0.2-0.5-0.5-0.6-0.9h0
			c0.1,0.4,0.3,0.8,0.4,1.1c0.1,0.3,0.2,0.5,0.3,0.6c0.1,0.2,0.2,0.3,0.3,0.4c0.1,0.1,0.3,0.3,0.5,0.4c0.5,0.5,1,0.9,1.4,1.2
			c0.4,0.3,0.7,0.7,1,1.1v-2.6c0-0.8-0.2-1.5-0.6-2.1c-0.4-0.6-1-1-1.6-1.2v0C29,34.7,29.2,35,29.3,35.2z M25.1,56.4
			c-0.2,0-0.4,0-0.6-0.1c-0.2,0-0.4-0.1-0.7-0.1v0c-0.2-0.1-0.5-0.2-0.7-0.3c-0.3-0.1-0.6-0.2-1-0.4c-0.7-0.2-1.2-0.4-1.6-0.6
			c-0.4-0.1-0.7-0.2-1.1-0.2c-0.3,0-0.7,0-1.1,0.1c-0.4,0.1-0.6,0.1-0.8,0.2c-0.2,0-0.4-0.1-0.8-0.2c-0.4-0.1-0.8-0.1-1.1-0.1
			c-0.3,0-0.7,0.1-1.1,0.2c-0.4,0.1-0.9,0.3-1.6,0.5c-0.8,0.3-1.4,0.5-1.8,0.6c-0.4,0.1-0.8,0.2-1.2,0.2c-0.2,0-0.3,0-0.5,0
			c-0.2,0-0.3-0.1-0.4-0.1c0,0-0.3-0.1-0.5-0.2c-0.2-0.1-0.4-0.2-0.7-0.3l0,0c0.4,0.4,1.3,1,1.3,1c0.7,0.4,1.4,0.6,2,0.6
			c0.3,0,0.6,0,0.8-0.1c0.2,0,0.5-0.1,0.7-0.2c0.2-0.1,0.5-0.2,0.8-0.4c0.3-0.1,0.6-0.3,1-0.6c0.4-0.3,0.8-0.5,1.1-0.6
			c0.3-0.2,0.6-0.2,1-0.2c0.1,0,0.3,0,0.4,0.1c-0.5,0.3-1.1,0.6-1.7,1c-0.6,0.4-1.2,0.9-1.8,1.5l0.6,0.6c0.5-0.6,1.1-1.2,1.8-1.8
			c0.6-0.5,1.2-0.9,1.7-1.1c0.5,0.2,1.1,0.5,1.7,1.1c0.7,0.5,1.3,1.1,1.8,1.8l0.6-0.6c-0.6-0.6-1.2-1.1-1.8-1.5
			c-0.6-0.4-1.2-0.7-1.7-1c0.2,0,0.4-0.1,0.5-0.1c0.4,0,0.7,0.1,1,0.2c0.3,0.2,0.6,0.4,1.1,0.6c0.4,0.2,0.7,0.4,1,0.6
			c0.3,0.2,0.5,0.3,0.8,0.4c0.2,0.1,0.5,0.2,0.7,0.2c0.2,0,0.5,0.1,0.7,0.1v0h0.1c0.5,0,1.1-0.1,1.7-0.4c0.6-0.2,1.2-0.7,1.6-1.2v0
			c-0.5,0.2-0.9,0.4-1.2,0.5C25.7,56.4,25.4,56.4,25.1,56.4z M33.2,45.7c0,0,0-0.1,0-0.1c0-0.1,0-0.1,0-0.2c0-0.1,0-0.2-0.1-0.4
			c-0.1,0.5-0.2,0.9-0.5,1.3c-0.2,0.3-0.5,0.7-0.8,1.1c0,0,0,0-0.1,0.1c-0.3,0.3-0.7,0.7-1.1,1.1c-0.4,0.4-0.8,1-1.2,1.6l0,0
			c0.1-0.3,0.3-0.6,0.4-1.1c0.1-0.4,0.2-0.8,0.2-1.1c0-0.3,0-0.5-0.1-0.7c0-0.2-0.1-0.4-0.1-0.7c0-0.2-0.1-0.5-0.1-0.8
			c0-0.3-0.1-0.7-0.1-1.1h0c0,0,0,0,0,0c0,0,0,0,0,0h0c-0.2,0.5-0.3,1-0.4,1.4c-0.1,0.4-0.2,1.1-0.3,1.9c0,0.5-0.1,0.9-0.1,1.2
			c0,0.3-0.1,0.6-0.1,0.9c0,0.3-0.1,0.5-0.2,0.7c-0.1,0.2-0.2,0.4-0.3,0.6c0,0,0,0.1-0.1,0.1l0,0c0,0,0,0,0,0l0.9-0.6l1.8-1.2
			c0.2-0.1,0.5-0.4,0.7-0.6c0.3-0.3,0.5-0.6,0.7-1c0.1-0.2,0.2-0.5,0.4-0.7c0.1-0.2,0.1-0.3,0.2-0.5C33.1,46.6,33.2,46.2,33.2,45.7
			C33.2,45.8,33.2,45.8,33.2,45.7L33.2,45.7C33.2,45.8,33.2,45.8,33.2,45.7z M22.5,34.9c0.1,0,0.1,0.1,0.2,0.1c0,0,0.1,0.1,0.1,0.1
			c0,0,0.1,0.1,0.1,0.1c0.1,0,0.1,0,0.1-0.1c0,0,0-0.1,0-0.1c0,0,0,0,0-0.1c0-0.1,0-0.2-0.1-0.2c-0.1-0.1-0.2-0.1-0.3-0.1
			c0,0,0,0-0.1,0h0c-0.1,0-0.1,0-0.1,0.1C22.4,34.8,22.4,34.8,22.5,34.9z M18.6,34L18.6,34c0.3-0.1,0.4-0.1,0.5-0.1h0.5
			c0.1,0,0.2,0,0.2-0.1c0-0.1,0.1-0.1,0.1-0.2c-0.1-0.1-0.3-0.2-0.4-0.3c-0.2,0-0.3,0-0.4,0c0,0-0.2,0-0.4,0.1
			c-0.2,0.1-0.4,0.1-0.4,0.2c-0.1,0-0.2,0-0.2,0.1c0,0.1,0.1,0.1,0.2,0.2C18.3,33.9,18.4,34,18.6,34z M17.5,54.2
			c6.1,0,11.1-5,11.1-11.1c0-6.1-5-11.1-11.1-11.1c-6.1,0-11.1,5-11.1,11.1C6.3,49.2,11.3,54.2,17.5,54.2z M6.9,43.3h1.7
			c0,0.8,0.1,1.5,0.3,2.2c0,0-0.1,0-0.1-0.1l-0.1-0.1l-0.2-0.3l-0.3,0.1c0,0.2-0.1,0.2-0.2,0.2c-0.1,0-0.1-0.1-0.1-0.1
			c-0.2,0-0.3,0.1-0.4,0.3c0,0.2-0.1,0.4-0.1,0.4l0.3,0.7c0,0.1,0.1,0.1,0.2,0c0.1,0.1,0.2,0.2,0.2,0.3c0,0.1,0.1,0.1,0.2,0.1
			c0.1,0,0.1,0,0.1-0.1h0c0.1,0,0.1,0.1,0.2,0.2c0.1,0.1,0.1,0.1,0.2,0.2v0c0.1,0.1,0.2,0.1,0.3,0.1c0,0.2,0.1,0.3,0.2,0.4
			C9.5,48,9.6,48,9.7,48c0,0,0.1,0,0.1-0.1c0.1,0.2,0.1,0.3,0.2,0.4c0,0,0.1,0.1,0.2,0.1c0.1,0,0.1,0.1,0.1,0.1h0.1c0,0,0,0,0,0
			c0,0.1,0.1,0.2,0.2,0.3c0.1,0.1,0.1,0.1,0.2,0.2c0,0,0,0,0,0c0,0,0,0,0,0c0,0,0,0,0,0c0,0,0,0.1,0.1,0.1l-1.2,1.2
			C8.1,48.5,7,46,6.9,43.3z M15.1,40.2C15,40.2,15,40.2,15.1,40.2l-0.2-0.2c0.6-0.6,1.4-0.9,2.3-1v1.2c0,0,0,0-0.1,0c0,0,0,0,0,0
			c0,0,0,0,0,0c0,0,0,0-0.1,0c0,0,0,0,0,0c0,0,0,0,0,0c0,0-0.1,0-0.1,0c0,0-0.1,0-0.1,0c0,0,0,0,0,0c0,0-0.1-0.1-0.1-0.2
			c0,0,0,0,0,0c0,0,0,0,0,0c-0.1,0.1-0.2,0.1-0.2,0.1c0,0,0,0.1-0.1,0.3c0,0.1-0.1,0.2-0.2,0.2c-0.1,0-0.2,0.1-0.2,0.1l-0.1-0.1
			h-0.2c0,0-0.1-0.1-0.1-0.1c0,0,0,0-0.1-0.1c0,0,0,0,0,0c-0.1,0-0.1,0-0.1,0.1l-0.1-0.1l0,0v-0.1C15.3,40.4,15.2,40.3,15.1,40.2z
			 M14.4,39.7l-1.1-1.1c1-0.9,2.4-1.5,3.9-1.6v1.6C16.1,38.6,15.2,39,14.4,39.7z M15.1,45c0.1-0.1,0-0.2,0.1-0.2L15,44.9
			c0.1-0.1,0.2-0.2,0.2-0.3c0-0.1,0.1-0.1,0.1-0.2c0,0,0,0,0,0c0,0.1,0.1,0.2,0.1,0.2l-1,1c-0.4-0.5-0.7-1-0.9-1.7
			c0.1,0,0.2,0,0.3,0.1c0,0,0.2,0.2,0.2,0.2c0,0,0.1,0,0.1,0l0.1,0.1c0,0.1,0,0.2,0,0.2c0,0,0,0.1,0.1,0.1c0.1,0,0.1,0.1,0.2,0.1
			l0.1,0c0,0,0-0.1,0-0.1c0-0.1,0-0.1,0-0.1l0.1,0.3l0.1,0.3l0,0C15,45.1,15,45.1,15.1,45z M17.3,46.2c0.1,0.1,0.1,0.1,0.1,0.1
			c0,0.1-0.1,0.1-0.3,0.1c-0.1,0-0.1,0.1-0.1,0.2c0,0.1,0,0.3-0.1,0.4c0,0,0,0-0.1,0c0,0,0,0,0,0c-0.7-0.1-1.4-0.4-2-0.9l1-1
			c0.4,0.4,0.9,0.6,1.4,0.6c0,0.1,0,0.1,0,0.2c0,0.1-0.1,0.1-0.1,0.2C17.2,46.1,17.2,46.1,17.3,46.2z M12.4,46.3
			c0-0.3-0.1-0.5-0.1-0.6c0-0.1-0.1-0.2-0.1-0.3c0-0.2-0.1-0.4-0.1-0.5c-0.1-0.1-0.2-0.3-0.4-0.5v-0.2c0,0,0-0.1-0.1-0.2v0
			c0-0.1,0-0.1,0.1-0.1c0,0,0.2-0.1,0.4-0.1c0-0.2,0-0.3,0-0.3l0.3,0c0.1,0,0.1-0.1,0.1-0.2c0,0,0-0.1-0.1-0.2
			c0-0.1-0.1-0.2-0.1-0.3c0-0.1,0-0.1,0.1-0.1c0.1,0,0.1-0.1,0.2-0.1c0.1,0,0.2,0,0.3,0.1c0,0.1,0.1,0.2,0.1,0.3c0,0.1,0,0.1,0,0.2
			c0,0.1,0,0.1,0,0.2l0.1,0c0,0.2-0.1,0.4-0.3,0.4c-0.1,0-0.1,0-0.2-0.1c0-0.1-0.1-0.1-0.1-0.1c0,0,0,0,0,0c0,0.1,0,0.1,0,0.2
			c0,0,0,0.1,0,0.2c0,0.2-0.1,0.2-0.2,0.2c-0.1,0.1,0,0.1,0.2,0.1c0.1,0.1,0.1,0.2,0.2,0.2c0,0,0.1-0.1,0.1-0.3
			c0-0.1,0.1-0.2,0.1-0.3l0,0l0.2,0c0,0,0,0,0,0.1c0,0,0,0,0,0c0.2,0.8,0.5,1.6,1.1,2.2l-1.6,1.6c-0.1-0.1-0.1-0.2-0.1-0.2
			c0-0.1,0.2-0.2,0.2-0.4c0,0,0-0.3,0-0.3C12.5,46.5,12.4,46.3,12.4,46.3z M11.5,43.9c0,0,0,0.1,0,0.1c0,0.1,0,0.1-0.1,0.1
			c0,0,0,0,0,0c-0.1-0.3-0.1-0.6-0.1-0.8h0.3c0,0.1,0,0.1,0,0.2c0,0.1-0.1,0.1-0.1,0.1c0,0-0.1,0.1-0.1,0.1
			C11.4,43.8,11.4,43.9,11.5,43.9z M11.3,42.8c0.1-1.5,0.7-2.8,1.6-3.9l1.1,1.1c0,0,0,0,0,0c-0.1,0-0.1,0-0.2,0.1
			c0,0.1-0.1,0.1-0.2,0.2c-0.2,0.1-0.3,0.1-0.4,0.2c-0.1,0-0.2,0.1-0.3,0.3c-0.1,0.1-0.2,0.1-0.3,0.1c0,0-0.1,0-0.1,0.1
			c0,0.1,0,0.2,0,0.2c-0.1,0-0.2,0-0.4,0.1c0,0,0,0-0.1,0l-0.1,0.1c0,0.1,0,0.1,0,0.1c0,0,0,0.1,0,0.1c-0.1,0-0.1,0.1-0.2,0.2
			c0,0.1,0,0.2,0,0.3l0,0.4c0,0,0,0,0,0c0,0,0,0.1,0,0.1H11.3z M14.4,46.5c0.6,0.5,1.2,0.8,2,1c-0.1,0-0.1,0-0.2,0.1
			c-0.1,0-0.2,0.1-0.2,0.2c0,0.1-0.1,0.2-0.2,0.3c-0.1,0-0.1,0.1-0.1,0.2c0.1,0.1,0.2,0.3,0.3,0.4c0,0.2,0.2,0.3,0.4,0.3l0.2,0.1
			c0.1,0,0.1,0,0.2,0.1c0.1,0,0.1,0,0.2,0c-1.4-0.1-2.7-0.7-3.7-1.6L14.4,46.5z M12.9,38.1L11.8,37c1.4-1.3,3.3-2.2,5.4-2.2v1.6
			C15.5,36.4,14,37.1,12.9,38.1z M12.5,38.5c-1,1.1-1.7,2.6-1.8,4.3H9.1c0.1-2.1,0.9-4,2.2-5.4L12.5,38.5z M10.7,43.3
			c0,0.3,0,0.6,0.1,0.8c0,0,0-0.1-0.1-0.1c-0.1-0.1-0.2-0.2-0.2-0.2c-0.1,0-0.1,0-0.2,0.1c0,0.1-0.1,0.1-0.1,0.2
			c-0.2,0.1-0.3,0.2-0.4,0.2c-0.1,0.1-0.2,0.2-0.2,0.4c0,0,0,0.1,0,0.1c0,0.1,0,0.1-0.1,0.1c0.1,0.1,0.1,0.2,0,0.2c0,0,0,0.1,0,0.1
			c0,0-0.1,0-0.1,0c0,0,0,0.1-0.1,0.1c-0.2-0.7-0.3-1.3-0.3-2.1H10.7z M17.2,53.6c-2.7-0.1-5.2-1.2-7-2.9l1.2-1.2
			c1.5,1.4,3.6,2.3,5.8,2.4V53.6z M17.2,51.4c-2.1-0.1-4-0.9-5.4-2.2c0.1,0.1,0.2,0.1,0.3,0.1c0.1,0,0.2,0,0.3-0.1
			c0.1-0.1,0.2-0.1,0.3-0.2c0.1,0,0.3,0,0.3-0.1c0.1,0,0.2,0,0.3,0c0.1,0,0.1-0.1,0.1-0.2c0-0.1,0-0.1-0.1-0.2
			c-0.1-0.1-0.1-0.1-0.1-0.2c0,0,0-0.1-0.1-0.1c0,0-0.1-0.1-0.2-0.3l0,0c1.1,1,2.6,1.7,4.3,1.8V51.4z M17.5,47.2L17.5,47.2
			c-0.2,0-0.3,0-0.4-0.1c0,0,0-0.1,0-0.1c0,0,0.1-0.1,0.2-0.1c0.1-0.1,0.2-0.1,0.2-0.1l0-0.1l0.3-0.2c0.1,0,0.1,0,0.1,0
			c0,0,0.1,0,0.2-0.1c0,0,0.1,0,0.3,0.1c0.2,0.1,0.3,0.1,0.3,0.1l0-0.1c0,0,0.1,0.1,0.2,0.1c0,0,0.1,0,0.2-0.1c0-0.1,0-0.1,0-0.2
			c0,0,0.1,0,0.1,0c0,0,0,0,0.1,0c0,0,0,0,0.1,0h0c0,0,0.1,0,0.2-0.1c0.1-0.1,0.2-0.1,0.2-0.1c0,0,0,0,0.1,0c0,0,0,0.1,0,0.1
			c0,0.2-0.1,0.3-0.3,0.4c-0.2,0.1-0.4,0.2-0.5,0.2c0,0-0.1,0.1-0.1,0.2c0,0.1-0.1,0.1-0.1,0.1c-0.1,0-0.3,0-0.5-0.1
			c0,0-0.1-0.1-0.1-0.2c-0.1,0-0.2,0-0.3,0l-0.3,0.1C17.6,47.2,17.5,47.3,17.5,47.2z M19.1,46c0-0.1,0.1-0.2,0.2-0.2
			c0.1,0,0.2-0.1,0.3-0.1c0,0.1-0.1,0.1-0.2,0.2C19.2,46,19.1,46.1,19.1,46L19.1,46z M20.2,45.1c0.1,0.1,0.1,0.2,0.1,0.3
			c0,0.1,0,0.1-0.1,0.1c-0.1,0-0.1-0.1-0.2-0.3c-0.2,0-0.3-0.1-0.3-0.2c0-0.1,0-0.2,0-0.2c0,0,0.1,0,0.1-0.1c0,0,0.1,0,0,0.2
			C20,45,20.1,45.1,20.2,45.1z M23.8,38.9C23.8,38.9,23.9,38.9,23.8,38.9c0.2,0,0.3,0.1,0.3,0.1c0.1,0,0.2,0.2,0.4,0.6
			c0,0,0.1,0,0.1,0.1c0,0.1,0.1,0.1,0.1,0.1c0,0,0.1,0,0.2-0.1c0,0,0-0.1,0-0.1c0.4,1,0.7,2,0.7,3.2h-1.6c0,0,0,0,0,0
			c0-0.1,0-0.3-0.1-0.4C24,42.1,24,42,24.1,41.8c0-0.2,0-0.3,0-0.3c-0.1,0-0.1,0-0.1,0c0,0-0.1,0.1-0.1,0.2c0,0.1-0.1,0.2-0.1,0.2v0
			c0,0,0,0.1,0,0.1c0,0,0,0,0,0.1c0,0.1-0.1,0.2-0.1,0.3c0,0.1,0,0.2,0,0.3c0,0,0,0,0,0c0,0,0,0.1,0,0.1h-0.8c0,0,0.1-0.1,0.2-0.1h0
			l0.2-0.1c0,0-0.1-0.1-0.1-0.1c0-0.1,0-0.1,0-0.1c0,0,0.1,0,0.2-0.1c0,0,0.1-0.2,0.2-0.3c0.1-0.2,0.3-0.5,0.3-0.7
			c0-0.1-0.1-0.1-0.1-0.2c0,0,0-0.1,0-0.2c0-0.3,0.1-0.7-0.2-0.8c0,0,0,0,0-0.1c0.1-0.1,0.1-0.1,0.1-0.3h-0.2c0,0,0-0.1,0.1-0.1
			c0-0.1,0.1-0.1,0.1-0.2c0-0.1,0-0.1-0.1-0.1c-0.1,0-0.1,0-0.2,0c-0.1,0-0.1,0-0.1,0c0,0,0,0-0.1,0c0,0,0-0.1-0.1-0.1
			c0-0.1-0.1-0.2-0.2-0.4c-0.1-0.1-0.2-0.2-0.3-0.2c0,0,0,0,0,0c0-0.1,0-0.1,0-0.2l0.3-0.3l0.4,0.2c0,0.1,0,0.2,0.1,0.3
			c0,0,0.1,0.1,0.2,0.1c0.1,0,0.1,0.1,0.2,0.1v0C23.7,38.9,23.8,38.9,23.8,38.9z M22.3,49.7C22.2,49.6,22.2,49.6,22.3,49.7
			c-0.1,0-0.1-0.1-0.1-0.1c0,0,0-0.1,0.1-0.1c0.1,0,0.1-0.1,0.2-0.3c0-0.1,0.1-0.2,0.1-0.2c0,0,0-0.1-0.1-0.1c0,0-0.1,0-0.1-0.1
			c0,0-0.1,0-0.2-0.1c-0.1,0-0.1-0.1-0.2-0.1c-0.1,0-0.1-0.1-0.1-0.2c0,0,0-0.1,0.1-0.2c0,0,0-0.1,0-0.1c0,0,0.1,0,0.1-0.1l0.9,0.9
			c0,0.1,0.1,0.2,0.2,0.2l0.1,0.1c-0.3,0.3-0.6,0.5-1,0.8c0,0,0-0.1,0.1-0.1c0,0,0,0,0,0C22.3,49.7,22.3,49.7,22.3,49.7z M21.8,45.6
			c-0.1,0-0.1,0-0.2,0c-0.1,0-0.2,0.1-0.2,0.2c0,0,0,0,0,0c0,0-0.1,0-0.1,0C21,45.9,21,46,20.9,46c-0.1,0-0.1,0-0.1-0.1
			c0-0.1,0.1-0.1,0.3-0.1c0.1-0.1,0.2-0.2,0.2-0.2c0,0,0.1,0,0.2-0.1c0.1,0,0.2-0.1,0.3-0.3c0.1-0.1,0.1-0.2,0.1-0.2h0
			c0,0.1,0.1,0.2,0.2,0.2c0.1,0,0.1-0.1,0.2-0.3c0.2,0.1,0.3,0.1,0.3,0.1c0.1,0,0.2,0,0.3-0.1h0.5c0,0,0,0,0,0c0,0,0,0,0,0h0
			c-0.3,0.8-0.7,1.6-1.2,2.2c0,0,0-0.1,0-0.1c0,0-0.1-0.3-0.1-0.3c0,0-0.1,0.1-0.2,0.3c-0.1,0.2-0.1,0.3-0.1,0.3l-0.4,0.1
			c-0.1,0-0.2,0-0.3,0c0,0-0.2,0-0.3-0.1c-0.2-0.1-0.3-0.1-0.3-0.1c-0.1,0-0.2,0-0.3-0.1c-0.1,0-0.2-0.1-0.2-0.1
			c0-0.1,0-0.1,0.1-0.1c0,0,0.1,0,0.3,0.1c0.1,0,0.3,0.1,0.4,0.1c0.1,0,0.3,0.1,0.4,0.1c0.1,0,0.2,0.1,0.2,0.1l0.2-0.1
			c0,0,0-0.1,0.1-0.2c0-0.1,0.1-0.2,0.1-0.2c0.1-0.1,0.1-0.2,0.1-0.4c0-0.2,0.1-0.3,0.1-0.4C21.9,45.7,21.8,45.6,21.8,45.6z
			 M22.7,43.3h0.9c0,0.4-0.1,0.7-0.1,1.1c-0.1-0.2-0.1-0.3-0.2-0.3c0,0-0.2-0.1-0.3-0.3c0-0.1,0-0.2-0.1-0.3c0,0,0-0.1-0.1-0.1
			C22.8,43.4,22.8,43.4,22.7,43.3z M23.1,47.9c-0.1,0-0.1,0-0.1,0.1c0,0,0,0.1,0,0.2l-0.6-0.6c0.7-0.8,1.3-1.8,1.6-2.9c0,0,0,0,0,0
			c0.1,0,0.2,0,0.2,0c0,0,0.1-0.1,0.1-0.1c0-0.1-0.1-0.2-0.2-0.3h0c0.1-0.3,0.1-0.6,0.1-1h1.6c-0.1,2.1-0.9,4-2.2,5.4l-0.1-0.1
			c0,0,0,0,0,0c0-0.2,0-0.3-0.1-0.5C23.3,48,23.2,47.9,23.1,47.9z M22.7,39.8C22.7,39.9,22.7,39.9,22.7,39.8c0,0.1,0,0.1,0,0.2
			c0,0.1,0,0.1-0.1,0.2c0,0,0.1,0.1,0.3,0.3c0.2,0.1,0.3,0.2,0.3,0.3c0,0.1,0.1,0.2,0.2,0.4c0.1,0.2,0.1,0.3,0.1,0.4
			c0,0.1-0.1,0.2-0.1,0.3c-0.1,0.1-0.2,0.2-0.4,0.2l0,0c0,0,0-0.1,0.1-0.2c0-0.1,0.1-0.2,0.1-0.2c0.1-0.1,0.1-0.1,0.1-0.2
			c-0.1,0-0.1,0-0.1-0.1c0,0-0.1-0.1-0.2-0.2c0-0.1-0.1-0.1-0.2-0.1c-0.1,0-0.1,0-0.2,0.1s-0.1,0.1-0.2,0.1l-0.1-0.1
			c0-0.1,0-0.1,0-0.2L22,40.4c-0.1,0-0.2-0.1-0.4-0.1c-0.1,0-0.2,0-0.3,0c-0.1,0-0.2,0-0.3,0c-0.1,0-0.2,0-0.3,0.1
			c-0.1,0.1-0.2,0.1-0.2,0.2c0,0,0,0.1-0.1,0.1c0,0-0.1-0.1-0.1-0.1l1.7-1.7c0,0,0,0,0,0.1c0,0,0.1,0.1,0.1,0.2
			c0.1,0.1,0.1,0.1,0.2,0.2C22.5,39.5,22.6,39.7,22.7,39.8z M18.7,51c0.1,0.1,0.3,0.2,0.5,0.2c-0.5,0.1-0.9,0.2-1.4,0.2v-1.6h0
			c0.1,0.1,0.2,0.2,0.2,0.3c0.1,0,0.2,0,0.3,0.1c0.2,0,0.2,0,0.2,0.1c0,0.1,0,0.1-0.1,0.2c0,0.1-0.1,0.1-0.1,0.2
			C18.4,50.7,18.5,50.8,18.7,51z M17.7,53.6v-1.7c0.6,0,1.2-0.1,1.8-0.3c0,0,0,0,0,0c0,0,0,0,0,0c0.2,0.1,0.3,0.3,0.4,0.4
			c0,0.1,0.2,0.1,0.4,0.1c0.1,0,0.2,0,0.2-0.1c0,0,0.1-0.1,0.1-0.1c0,0,0.1-0.1,0.2-0.1c0.1,0,0.1-0.1,0.1-0.1
			c0.1,0,0.2-0.1,0.3-0.2c0.1-0.1,0.2-0.2,0.2-0.3c0,0,0.1,0,0.1-0.1c0-0.1,0.1-0.2,0.1-0.4c0,0,0,0,0.1,0c0,0,0,0,0-0.1
			c0.6-0.3,1.1-0.7,1.6-1.2l1.2,1.2C22.9,52.5,20.4,53.6,17.7,53.6z M25.1,50.3l-1.2-1.2c1.4-1.5,2.3-3.6,2.4-5.8H28
			C28,46,26.9,48.5,25.1,50.3z M28,42.8h-1.7c-0.1-1.8-0.7-3.6-1.7-5c0-0.1,0-0.1-0.1-0.2c0,0-0.1-0.1-0.1-0.1
			c-0.1-0.2-0.3-0.3-0.4-0.5c0,0,0-0.1,0-0.1l1.2-1.2C26.9,37.6,28,40.1,28,42.8z M17.7,32.5c2.7,0.1,5.2,1.2,7,2.9l-1,1
			c0-0.1,0-0.1-0.1-0.2c-0.1-0.1-0.1-0.1-0.2-0.1c-0.1,0-0.2-0.1-0.2-0.2c0-0.1,0-0.2-0.1-0.2c-0.1,0-0.3-0.2-0.4-0.3
			c-0.1-0.2-0.2-0.3-0.3-0.3c0,0-0.1,0-0.2,0c-0.1,0-0.2-0.1-0.2-0.1c-0.1,0-0.2,0-0.3,0c-0.1,0-0.2,0-0.3,0.1c0,0,0,0,0,0
			c-1.1-0.6-2.3-0.9-3.6-1c0.1-0.2,0.1-0.3,0-0.3c0,0-0.1,0-0.2,0.1V32.5z M17.7,34.8c1.2,0,2.4,0.4,3.4,0.9c0,0,0,0,0,0
			c0,0,0.1,0.1,0.1,0.2c0.1,0.1,0.1,0.1,0.1,0.1c0,0.2,0.1,0.3,0.1,0.3c0,0,0.1,0.1,0.1,0.2c0,0.1,0,0.2,0.1,0.3
			c0.1,0.1,0.1,0.2,0.2,0.3c0,0,0.1,0,0.1,0c0.1,0,0.1,0,0.2,0c0.1,0,0.1,0,0.2,0.1c0.1,0.1,0.1,0.1,0.1,0.2c0,0,0,0.1,0,0.1
			L22.1,38l0,0c-0.1-0.3-0.2-0.6-0.2-0.6c0-0.1-0.1-0.1-0.3-0.1c0,0-0.1-0.1-0.3-0.3c-0.1-0.2-0.2-0.3-0.3-0.3c0,0-0.1,0-0.1,0
			c0,0.1,0,0.1,0.1,0.1c0,0,0.1,0.1,0.1,0.2c0,0,0,0.1-0.1,0.1c0,0.1,0.1,0.2,0.2,0.2l0,0.1l0.1,0.2c-1-0.8-2.3-1.2-3.7-1.3V34.8z
			 M17.7,36.9c1.5,0.1,2.8,0.7,3.9,1.6l-1.1,1.1c-0.7-0.7-1.7-1.1-2.7-1.1V36.9z M17.7,39.1c0.8,0.1,1.6,0.4,2.2,0.9
			c0,0-0.1,0-0.1,0c0,0,0,0-0.1,0.1c0,0,0,0,0,0.1c0,0.1,0.1,0.1,0.1,0.1l-0.4,0.4v0c-0.1,0-0.1,0.1-0.2,0.1
			c-0.1,0.1-0.2,0.1-0.2,0.1c0,0,0,0.1,0,0.1l-0.1,0.1c0,0,0,0-0.1,0c-0.1,0-0.1-0.1-0.2-0.2c-0.1-0.1-0.2-0.2-0.2-0.2
			c-0.1,0-0.1,0-0.2,0.1c0,0-0.1,0-0.1,0c-0.1-0.1,0-0.1,0.2-0.2c0.2-0.1,0.3-0.1,0.3-0.1c0.2-0.2,0.3-0.3,0.3-0.6
			c0-0.1-0.1-0.2-0.2-0.2L18.7,40c-0.1,0-0.2,0.1-0.3,0.2c-0.1,0.1-0.1,0.1-0.2,0.2c-0.1,0-0.1,0-0.2,0h-0.2c0,0,0,0,0,0V39.1z
			 M17.4,41.6C17.4,41.7,17.5,41.7,17.4,41.6c0.1,0.1,0.2,0.1,0.2,0.1c0,0,0.1,0,0.2,0c0,0,0,0.1,0,0.1c0,0.1,0.1,0.1,0.1,0.1
			c0,0,0,0,0,0c0,0,0,0,0,0c0,0,0,0.1,0.1,0.1c0,0,0,0,0,0c0,0,0,0,0,0c0.1,0,0.1,0,0.1,0c0,0,0.1,0,0.1,0c0,0,0,0.1,0,0.1h0
			c0,0,0,0.1,0,0.1c0,0.1,0,0.1,0,0.2v0.1c0,0,0,0,0,0c-0.1,0.1-0.1,0.1-0.1,0.2c0,0,0,0.1,0.1,0.1c0.1,0,0.1,0,0.1,0.1
			c0.1,0,0.1,0.1,0.1,0.2v0.3c0,0,0,0.1,0.1,0.1c0,0,0.1,0,0.1,0.1c0,0.1,0,0.2,0,0.3c0,0.1-0.1,0.2-0.1,0.2c0,0-0.1,0-0.2,0
			c-0.1,0-0.2,0-0.3,0c-0.1,0-0.1,0.1-0.2,0.2c-0.1,0.1-0.1,0.2-0.1,0.3c0,0.1-0.1,0.1-0.2,0.1c-0.1,0-0.1,0-0.2,0c0,0,0,0,0,0
			l-0.1,0.2l0,0.1c-0.4,0-0.8-0.2-1.1-0.5l0.2-0.2c0.1,0,0.3,0,0.4-0.1c0,0,0,0,0.1,0c0.2-0.1,0.2-0.2,0.3-0.4
			c0.1-0.1,0.2-0.2,0.1-0.4c0.2-0.3-0.6-0.3-0.7-0.2c-0.2,0.1-0.1,0.2-0.1,0.4c0,0.1-0.1,0.1-0.2,0.1c-0.1,0.1-0.2,0.2-0.3,0.4l0,0
			c0-0.1-0.1-0.2-0.1-0.3c0,0,0,0,0,0c0,0,0-0.1,0-0.1h0v0c0.1,0,0.2,0,0.2,0c0-0.1,0-0.1,0.1-0.2c0-0.1,0.1-0.2,0.2-0.4
			c0,0-0.1-0.1-0.1-0.1c0,0,0-0.1-0.1,0c0,0-0.1,0.1-0.1,0.1c0,0.1,0,0.1-0.1,0.1c0,0.1-0.1,0.1-0.1,0.1c0-0.1,0-0.1-0.1-0.1
			c0,0-0.1,0-0.1,0.1c-0.1,0-0.2,0-0.4,0c-0.2,0-0.3,0-0.4,0c-0.1,0,0-0.1,0.2-0.1c0-0.1,0-0.3,0.2-0.4c0.1,0,0.2,0.1,0.2,0.1
			l0.1-0.1h0c0.1,0,0.1,0.1,0.1,0.2c0,0.1,0,0.2,0.1,0.2c0,0,0.1,0,0.1-0.1V43c0-0.2,0.1-0.3,0.1-0.4v-0.1c0-0.1,0.1-0.1,0.1-0.2h0
			c0.1,0,0.1-0.1,0.2-0.1c0-0.1,0.1-0.2,0.1-0.2c0.1,0,0.2-0.1,0.4-0.2c0.2-0.1,0.3-0.2,0.3-0.2c0,0,0,0,0,0
			C17.2,41.6,17.3,41.6,17.4,41.6C17.4,41.6,17.4,41.6,17.4,41.6z M17.2,32.5v1.7c-2.2,0.1-4.3,1-5.8,2.4l-1.2-1.2
			C12,33.7,14.5,32.6,17.2,32.5z M9.8,35.8L11,37c-1.4,1.5-2.3,3.6-2.4,5.8H6.9C7,40.1,8.1,37.6,9.8,35.8z"/>
		<g>
			<path class="st0" d="M40.7,22.4h0.9c1.7,0,2.9,1.1,2.9,2.7c0,1.9-1.4,2.7-3.3,2.7h-0.5V22.4z M41.6,23.3v3.8c1.1,0,2-0.8,2-1.9
				C43.5,24.1,42.7,23.3,41.6,23.3z"/>
			<path class="st0" d="M50.6,27.9h-1L49,26h-1.6l-0.7,1.9h-1l2-5.5h0.9L50.6,27.9z M47.6,25.2h1.1l-0.5-1.6L47.6,25.2z"/>
			<path class="st0" d="M56.6,25.6h-1.5v-0.8h2.4V25c0,2-1.3,3-2.8,3c-1.7,0-2.9-1.2-2.9-2.9c0-1.7,1.2-2.9,2.9-2.9
				c0.8,0,1.5,0.3,2,0.8l-0.6,0.6c-0.3-0.3-0.8-0.5-1.4-0.5c-1.1,0-2,0.9-2,2c0,1.1,0.8,2,2,2C55.7,27.2,56.5,26.5,56.6,25.6z"/>
			<path class="st0" d="M65.3,25.6h-1.7v2.4h-0.9v-5.5h0.9v2.3h1.7v-2.3h0.9v5.5h-0.9V25.6z"/>
			<path class="st0" d="M72.8,27.9h-1L71.2,26h-1.6l-0.7,1.9h-1l2-5.5h0.9L72.8,27.9z M69.9,25.2H71l-0.5-1.6L69.9,25.2z"/>
			<path class="st0" d="M74.6,22.4h0.9l1.6,2.1l1.5-2.1h0.9v5.5h-0.9v-4L77.1,26L75.5,24v4h-0.9V22.4z"/>
			<path class="st0" d="M81.9,22.4h0.9l1.6,2.1l1.5-2.1h0.9v5.5h-0.9v-4L84.4,26L82.8,24v4h-0.9V22.4z"/>
			<path class="st0" d="M93.5,27.9h-1L91.9,26h-1.6l-0.7,1.9h-1l2-5.5h0.9L93.5,27.9z M90.5,25.2h1.1l-0.5-1.6L90.5,25.2z"/>
			<path class="st0" d="M95.3,22.4h1.7c1,0,1.7,0.6,1.7,1.6c0,0.9-0.6,1.4-1.4,1.5l1.5,2.4h-1l-1.5-2.5v2.5h-0.9V22.4z M96.2,23.3
				v1.5h0.7c0.5,0,0.8-0.3,0.8-0.7s-0.3-0.7-0.8-0.7H96.2z"/>
			<path class="st0" d="M102.8,23.9c0-0.4-0.3-0.7-0.7-0.7c-0.4,0-0.7,0.3-0.7,0.7c0,0.4,0.2,0.6,0.7,0.7l0.3,0.1
				c0.9,0.3,1.6,0.6,1.6,1.7c0,1-0.8,1.7-1.8,1.7c-1.1,0-1.8-0.7-1.8-1.8h0.9c0,0.6,0.4,1,1,1c0.6,0,1-0.4,1-0.9
				c0-0.5-0.3-0.7-1-0.9l-0.2-0.1c-0.9-0.3-1.3-0.8-1.3-1.6c0-0.9,0.7-1.5,1.6-1.5c1,0,1.5,0.5,1.5,1.6H102.8z"/>
			<path class="st0" d="M106,22.4h0.9V25l1.2-2.6h1l-1.3,2.7l1.3,2.7h-1l-1.2-2.6v2.6H106V22.4z"/>
			<path class="st0" d="M113.9,22.4v3.8c0,1.1-0.8,1.8-1.7,1.8c-1,0-1.7-0.7-1.7-1.8h0.9c0,0.6,0.4,0.9,0.9,0.9
				c0.5,0,0.8-0.3,0.8-0.9v-3.8H113.9z"/>
			<path class="st0" d="M118.7,22.3c1.7,0,2.9,1.2,2.9,2.9c0,1.7-1.2,2.9-2.9,2.9c-1.7,0-2.9-1.2-2.9-2.9
				C115.9,23.5,117.1,22.3,118.7,22.3z M118.7,27.2c1.1,0,1.9-0.9,1.9-2c0-1.1-0.8-2-1.9-2c-1.1,0-2,0.9-2,2
				C116.8,26.3,117.6,27.2,118.7,27.2z M117.4,21.4l0.6-0.6l0.6,0.6L118,22L117.4,21.4z M119,21.4l0.6-0.6l0.6,0.6l-0.6,0.6
				L119,21.4z"/>
			<path class="st0" d="M123.6,22.4h0.9v4.7h1.9v0.8h-2.7V22.4z"/>
			<path class="st0" d="M128.2,22.4h0.9c1.7,0,2.9,1.1,2.9,2.7c0,1.9-1.4,2.7-3.3,2.7h-0.5V22.4z M129.1,23.3v3.8c1.1,0,2-0.8,2-1.9
				C131.1,24.1,130.2,23.3,129.1,23.3z"/>
		</g>
		<g>
			<path class="st1" d="M154,31.9c8.1,0,14,5.9,14,14s-5.9,14-14,14c-8.1,0-14-5.9-14-14S145.9,31.9,154,31.9z M154,54.7
				c4.9,0,8.5-3.9,8.5-8.8c0-4.9-3.6-8.8-8.5-8.8s-8.5,3.9-8.5,8.8C145.5,50.8,149.1,54.7,154,54.7z"/>
			<path class="st1" d="M181.7,37.1v22.5h-5.6V37.1h-7.6v-5.1h20.8v5.1H181.7z"/>
			<path class="st1" d="M212.7,48.1h-12.4v11.5h-5.6V32h5.6v11h12.4V32h5.6v27.7h-5.6V48.1z"/>
			<path class="st1" d="M226,59.6V32h14.7v5.1h-9.1v3.6h9.1v5.1h-9.1v8.6h9.1v5.1H226z M236.1,29.3h-4.7l-3.1-5.6h4.7L236.1,29.3z"
				/>
			<path class="st1" d="M261.6,31.8c8.1,0,14,5.9,14,14c0,3-0.8,5.7-2.2,7.9l2.3,2.3l-3.5,3.5l-2.2-2.3c-2.3,1.6-5.2,2.5-8.4,2.5
				c-8.1,0-14-5.9-14-14h5.6c0,4.9,3.6,8.7,8.4,8.7c1.6,0,3.1-0.4,4.4-1.2l-15.7-15.9C252.3,34.4,256.2,31.8,261.6,31.8z
				 M257.5,37.8l11.8,11.8c0.5-1.2,0.7-2.5,0.7-3.8c0-4.9-3.6-8.7-8.4-8.7C260,37,258.6,37.3,257.5,37.8z"/>
			<path class="st1" d="M301.5,32v17.7c0,6-4,10.2-10,10.2s-9.9-4.2-9.9-10.2V32h5.5v17.7c0,2.8,1.6,4.9,4.4,4.9
				c2.8,0,4.4-2.1,4.4-4.9V32H301.5z"/>
			<path class="st1" d="M307.1,59.7V32h14.7v5.1h-9.1v3.6h9.1v5.1h-9.1v8.6h9.1v5.1H307.1z"/>
			<path class="st1" d="M41.4,31.9h8.2c4.9,0,8,3.1,8,7.6c0,2.3-1,3.9-2.2,4.8c3.2,0.8,5.7,3.1,5.7,7c0,5-3.7,8.3-8.8,8.3H41.4V31.9
				z M47,37.1v5.8h2.1c1.8,0,2.7-1.1,2.7-2.9c0-1.9-0.9-2.9-2.7-2.9H47z M47,48.3v5.9h5c1.9,0,3.1-1,3.1-2.9c0-1.9-1.2-3-3.1-3H47z"
				/>
			<path class="st1" d="M107.2,32.3h5.6v22.3h9v5.1h-14.6V32.3z"/>
			<path class="st1" d="M81.6,31.9h8.2c4.9,0,8,3.1,8,7.6c0,2.3-1,3.9-2.2,4.9c3.2,0.8,5.7,3.1,5.7,7c0,5.1-3.7,8.4-8.8,8.4h-11
				V31.9z M87.2,37.1v5.9h2.1c1.8,0,2.7-1.1,2.7-2.9c0-1.9-0.9-2.9-2.7-2.9H87.2z M87.2,48.4v6h5c2,0,3.1-1,3.1-2.9
				c0-1.9-1.2-3-3.1-3H87.2z"/>
			<g>
				<path class="st1" d="M67.3,31.9h5.7v27.9h-5.7V31.9z"/>
				<path class="st3" d="M66.3,31.9h2.2v27.9h-2.2V31.9z"/>
			</g>
			<path class="st2" d="M105.9,32.3h2.2v25.4h9.8v2.1h-12V32.3z"/>
			<path class="st2" d="M40.4,31.9h6.1c4.7,0,7.6,3,7.6,7.3c0,2.7-1.1,4.6-3,5.7c3.8,0.6,6.3,3.2,6.3,7.2c0,4.6-3.2,7.6-7.9,7.6
				h-9.1V31.9z M42.6,34v10.5h3.7c3.4,0,5.4-2.1,5.4-5.3c0-3.2-2-5.2-5.4-5.2H42.6z M42.6,46.7v10.8h6.8c3.4,0,5.7-2.1,5.7-5.4
				c0-3.3-2.3-5.4-5.7-5.4H42.6z"/>
			<path class="st2" d="M80.6,31.9h6.1c4.7,0,7.6,3,7.6,7.3c0,2.7-1.1,4.6-3,5.7c3.9,0.6,6.4,3.2,6.4,7.3c0,4.6-3.2,7.6-7.9,7.6
				h-9.2V31.9z M82.9,34v10.6h3.7c3.5,0,5.5-2.2,5.5-5.3c0-3.2-2-5.3-5.5-5.3H82.9z M82.9,46.7v10.9h6.8c3.4,0,5.7-2.1,5.7-5.5
				c0-3.3-2.3-5.4-5.7-5.4H82.9z"/>
			<g>
				<path class="st1" d="M127.8,31.9h5.6v27.8h-5.6V31.9z"/>
				<path class="st2" d="M126.9,31.9h2.2v27.8h-2.2V31.9z"/>
			</g>
			<path class="st2" d="M152.6,31.6c8.2,0,14.1,5.9,14.1,14.1s-5.9,14.1-14.1,14.1s-14.1-5.9-14.1-14.1S144.5,31.6,152.6,31.6z
				 M152.6,56.6c6.2,0,10.7-4.7,10.7-10.9s-4.5-10.9-10.7-10.9c-6.2,0-10.7,4.7-10.7,10.9S146.4,56.6,152.6,56.6z"/>
			<path class="st2" d="M179.1,35.1v24.6h-3.4V35.1h-7.2V32h17.8v3.1H179.1z"/>
			<path class="st2" d="M211.7,47.2h-14.9v12.4h-3.4V32h3.4v12.1h14.9V32h3.4v27.7h-3.4V47.2z"/>
			<path class="st2" d="M225.5,59.6V32h13v3.1h-9.6v6.6h9.6v3.1h-9.6v11.7h9.6v3.1H225.5z M233.8,29.3h-3l-3.1-5.6h3L233.8,29.3z"/>
			<path class="st2" d="M258.8,31.8c8.1,0,13.9,5.9,13.9,13.9c0,3.3-1,6.3-2.8,8.6l2.9,2.9l-2.1,2.2l-2.9-2.9c-2.4,2-5.5,3.1-9,3.1
				c-8.1,0-13.9-5.9-13.9-13.9h3.3c0,6.1,4.5,10.8,10.6,10.8c2.6,0,4.9-0.8,6.7-2.3L248,36.8C250.2,33.9,254,31.8,258.8,31.8z
				 M252.5,36.9l15,15c1.2-1.7,1.9-3.8,1.9-6.2c0-6.1-4.5-10.8-10.6-10.8C256.2,35,254.1,35.6,252.5,36.9z"/>
			<path class="st2" d="M298.3,32v18.8c0,5.1-3.5,8.9-8.9,8.9c-5.3,0-8.8-3.8-8.8-8.9V32h3.3v18.8c0,3.2,2.2,5.7,5.5,5.7
				c3.4,0,5.6-2.5,5.6-5.7V32H298.3z"/>
			<path class="st2" d="M306.6,59.7V32h13v3.1h-9.6v6.6h9.6v3.1h-9.6v11.7h9.6v3.1H306.6z"/>
		</g>
	</g>
</g>
<g id="original_font">
</g>
</svg>
