<?xml version="1.0" encoding="utf-8"?>
<!-- Generator: Adobe Illustrator 19.1.0, SVG Export Plug-In . SVG Version: 6.00 Build 0)  -->
<svg version="1.1" xmlns="http://www.w3.org/2000/svg" xmlns:xlink="http://www.w3.org/1999/xlink" x="0px" y="0px"
	 viewBox="0 0 324 62.6" style="enable-background:new 0 0 324 62.6;" xml:space="preserve">
<style type="text/css">
	.st0{fill:#3F4A74;}
	.st1{fill:#EC5F69;}
	.st2{fill:#F29A7F;}
	.st3{fill:#EFEF9F;}
	.st4{fill:#62B0C1;stroke:#62B0C1;stroke-width:0.5;stroke-miterlimit:10;}
	.st5{fill:#3F4A74;stroke:#3F4A74;stroke-width:0.9805;stroke-miterlimit:10;}
	.st6{fill:#62B0C1;}
	.st7{fill:#62B0C1;stroke:#62B0C1;stroke-width:0.9;stroke-miterlimit:10;}
</style>
<g id="Layer_1">
</g>
<g id="original_font">
	<g>
		<path class="st0" d="M5.4,35.5c0.5-0.4,1-0.9,1.7-1.4c0.2-0.2,0.4-0.4,0.6-0.5C7.8,33.4,7.9,33.2,8,33c0.1-0.2,0.2-0.5,0.3-0.8
			c0.1-0.3,0.2-0.7,0.4-1.3h0c-0.2,0.5-0.5,0.8-0.8,1.1c-0.3,0.3-0.7,0.5-1,0.8c-0.4,0.3-0.7,0.5-1.1,0.9c-0.4,0.3-0.7,0.8-1,1.4v0
			c0.3-0.8,0.5-1.4,0.6-1.9c0.1-0.5,0.2-1,0.4-1.4c0.1-0.4,0.2-0.7,0.4-1c0.2-0.3,0.4-0.6,0.8-0.8v0c-0.8,0.2-1.4,0.7-1.9,1.4
			c-0.5,0.7-0.8,1.6-0.8,2.5v3.1C4.5,36.3,4.9,35.9,5.4,35.5z M7.5,31.7c0.4-0.4,0.8-0.9,1.1-1.3c0.3-0.4,0.7-0.9,1-1.3
			c0.3-0.4,0.7-0.8,1-1.1l0,0c-0.3,0.2-0.6,0.4-1,0.5c-0.4,0.1-0.8,0.3-1.3,0.6c-0.4,0.3-0.9,0.7-1.3,1.3C6.6,31,6.3,31.8,6,32.9
			C6.6,32.6,7.1,32.2,7.5,31.7z M2.5,43.2c0.3,0.4,0.6,0.9,1,1.3c0.4,0.4,0.7,0.9,1.1,1.6h0c0-0.2-0.1-0.5-0.1-0.7v-0.6
			c0-0.2,0.1-0.6,0.2-1.2c0.2-0.5,0.3-1.1,0.5-1.8c0.2-0.7,0.3-1.3,0.5-2C6,39.1,6,38.5,5.9,38h0c-0.1,0.4-0.2,0.8-0.5,1.1
			c-0.2,0.4-0.5,0.7-0.7,1.1c-0.2,0.4-0.4,0.8-0.6,1.3C4,42,3.9,42.5,3.9,43c0,0.2,0,0.4,0.1,0.7c0.1,0.3,0.1,0.5,0.1,0.6h0
			c-0.1-0.6-0.3-1.3-0.5-1.9c-0.2-0.6-0.4-1.1-0.6-1.6c-0.2-0.5-0.4-1-0.5-1.4c-0.1-0.4-0.2-0.7-0.2-1c0-0.3,0-0.5,0-0.7
			c0-0.2,0-0.4,0-0.7h0c-0.1,0.2-0.2,0.6-0.4,1.1c-0.1,0.5-0.2,1-0.2,1.4c0,0.9,0.1,1.6,0.3,2.1C2,42.3,2.3,42.8,2.5,43.2z
			 M10.6,55.2c0.1,0,0.3,0,0.5,0c0.2,0,0.5,0,0.7,0c0.2,0,0.5-0.1,0.8-0.1c0.3-0.1,0.7-0.2,1.3-0.3c0.5-0.1,1.2-0.3,2-0.5
			c-0.6-0.1-1-0.3-1.5-0.4c-0.4-0.1-0.8-0.4-1.2-0.8c-0.5-0.4-1-0.9-1.5-1.4c-0.4-0.4-0.8-0.7-1.2-1.1c-0.1-0.1-0.7-0.6-0.9-0.8l0,0
			c0.1,0.1,0.6,1.2,0.6,1.2s0.1,0.1,0.1,0.2c0.1,0.3,0.3,0.5,0.4,0.8c0.1,0.1,0.1,0.2,0.2,0.3c0.2,0.3,0.4,0.6,0.7,0.9
			c0.4,0.4,1,0.7,1.9,0.9v0c-0.4-0.1-0.7-0.1-0.9-0.2c-0.3,0-0.5-0.1-0.7-0.1c-0.2,0-0.4-0.1-0.6-0.1c-0.3,0-0.5,0-0.8-0.1
			c-0.2,0-0.4-0.1-0.6-0.1c-0.2,0-0.4,0-0.6-0.1c-0.1,0-0.2,0-0.3,0c-0.4,0-0.8-0.1-1.1-0.2c-0.3-0.1-0.7-0.2-1-0.4
			c-0.3-0.2-0.7-0.5-1.1-0.8l0,0c0.1,0.3,0.3,0.5,0.6,0.8c0.3,0.3,0.6,0.6,0.9,0.9c0.4,0.3,0.8,0.6,1.3,0.8c0.5,0.2,1.1,0.4,1.7,0.4
			C10.1,55.1,10.4,55.2,10.6,55.2z M3.7,41.4L3.7,41.4c0.1-0.3,0.1-0.5,0.2-0.7c0.1-0.2,0.2-0.5,0.3-0.7c0.2-0.3,0.4-0.6,0.7-1.1
			c0.3-0.4,0.7-1,1.2-1.7c0.3-0.4,0.5-1,0.7-1.5c0.2-0.6,0.3-1,0.3-1.3h0c-0.1,0.1-0.1,0.3-0.2,0.4c-0.1,0.1-0.2,0.2-0.3,0.4
			c-0.1,0.1-0.3,0.3-0.5,0.5c-0.2,0.2-0.4,0.4-0.8,0.7c-0.6,0.5-1,1-1.1,1.5c-0.2,0.4-0.3,0.9-0.4,1.5h0c0-0.2,0-0.5,0-0.7
			c0-0.2,0-0.5,0-0.9c0-0.4,0-1-0.1-1.5c-0.1-0.6-0.1-1.4-0.1-2.3c0-0.3,0.1-0.6,0.2-0.8c0.1-0.3,0.2-0.5,0.3-0.7h0
			c-0.6,0.8-1,1.5-1.3,2.2c-0.2,0.7-0.3,1.4-0.3,2c0,0.8,0.2,1.5,0.5,2.3C3.2,39.6,3.5,40.5,3.7,41.4z M8.3,52.8l1.8,0.4l1,0.2
			c-0.3-0.3-0.9-1.2-0.9-1.2c-0.2-0.3-0.4-0.7-0.6-1.2c-0.2-0.5-0.4-1.1-0.8-1.9c-0.1-0.3-0.2-0.5-0.3-0.7c-0.1-0.2-0.2-0.4-0.4-0.6
			C8,47.5,7.9,47.2,7.7,47c-0.2-0.3-0.4-0.6-0.7-1l0,0c0.1,0.3,0.2,0.8,0.4,1.6c0.2,0.8,0.3,1.5,0.5,2.2c0.1,0.5,0.3,1,0.6,1.4
			c0.3,0.4,0.7,0.9,1.2,1.3l0,0c-0.2-0.1-0.6-0.3-1.1-0.7c-0.5-0.4-1-0.7-1.6-1c-1.1-0.6-2-1-2.6-1.5c-0.6-0.4-1.1-1-1.4-1.7l0,0
			c0.2,0.7,0.5,1.4,0.8,2c0.4,0.6,0.8,1.1,1.3,1.5c0.5,0.4,1.1,0.8,1.6,1.1C7.1,52.5,7.7,52.7,8.3,52.8z M4.2,48.3l3.3,2.2
			c-0.1-0.3-0.3-0.6-0.4-0.8C7,49.3,6.9,49,6.8,48.7c-0.1-0.3-0.1-0.7-0.1-1.1c0-0.4-0.1-0.9-0.2-1.4c-0.1-1-0.2-1.7-0.3-2.2
			c-0.1-0.5-0.2-1.1-0.5-1.7h0c0,0.5,0,0.9-0.1,1.3c0,0.4-0.1,0.7-0.2,1c-0.1,0.3-0.1,0.6-0.2,0.8c0,0.3-0.1,0.5-0.1,0.9
			c0,0.3,0.1,0.7,0.3,1.3c0.2,0.5,0.4,0.9,0.5,1.3l0,0c-0.5-0.8-1-1.4-1.5-2c-0.5-0.5-0.9-1-1.3-1.4c-0.4-0.4-0.7-0.8-1-1.3
			c-0.3-0.4-0.5-0.9-0.5-1.5c0,0.1-0.1,0.3-0.1,0.4c0,0.1,0,0.3,0,0.4c0,0.5,0.1,1,0.3,1.5c0.2,0.5,0.4,1,0.7,1.4
			c0.3,0.4,0.5,0.8,0.9,1.2C3.6,47.8,3.9,48.1,4.2,48.3z M30.9,29.2c0.3,0.4,0.6,0.8,1,1.3c0.3,0.4,0.7,0.9,1.1,1.3
			c0.4,0.4,0.9,0.8,1.5,1.2c-0.3-1.1-0.6-2-1.1-2.5c-0.4-0.6-0.8-1-1.3-1.3c-0.4-0.3-0.9-0.5-1.3-0.6c-0.4-0.1-0.7-0.3-1-0.5l0,0
			C30.3,28.4,30.6,28.8,30.9,29.2z M33.8,53c-0.3,0.2-0.7,0.3-1,0.4c-0.3,0.1-0.7,0.2-1.1,0.2c-0.1,0-0.2,0-0.3,0
			c-0.2,0-0.4,0-0.6,0.1c-0.2,0-0.4,0.1-0.6,0.1c-0.3,0-0.5,0.1-0.8,0.1c-0.2,0-0.4,0-0.6,0.1C28.5,54,28.3,54,28,54
			c-0.3,0-0.6,0.1-0.9,0.2v0c0.9-0.3,1.5-0.6,1.9-0.9c0.3-0.2,0.6-0.5,0.7-0.9c0.1-0.1,0.1-0.2,0.2-0.3c0.1-0.3,0.3-0.5,0.4-0.8
			c0-0.1,0.1-0.2,0.1-0.2s0.5-1.1,0.6-1.2l0,0c-0.2,0.2-0.7,0.7-0.9,0.8c-0.4,0.4-0.8,0.7-1.2,1.1c-0.5,0.5-1,0.9-1.5,1.4
			c-0.4,0.4-0.8,0.6-1.2,0.8c-0.4,0.1-0.9,0.3-1.5,0.4c0.9,0.2,1.5,0.4,2,0.5c0.5,0.1,0.9,0.2,1.3,0.3c0.3,0.1,0.6,0.1,0.8,0.1
			c0.2,0,0.4,0,0.7,0c0.2,0,0.3,0,0.5,0c0.1,0,0.4,0,0.4,0c0.7-0.1,1.2-0.2,1.7-0.4c0.5-0.2,0.9-0.5,1.3-0.8
			c0.4-0.3,0.7-0.6,0.9-0.9c0.3-0.3,0.5-0.6,0.6-0.8l0,0C34.5,52.5,34.2,52.8,33.8,53z M36.3,49.3c-0.6,0.4-1.5,0.9-2.6,1.5
			c-0.6,0.3-1.1,0.6-1.6,1c-0.5,0.4-0.9,0.6-1.1,0.7l0,0c0.5-0.4,0.9-0.9,1.2-1.3c0.3-0.4,0.5-0.9,0.6-1.4c0.1-0.7,0.3-1.4,0.5-2.2
			c0.2-0.8,0.3-1.3,0.4-1.6l0,0c-0.3,0.4-0.5,0.8-0.7,1c-0.2,0.3-0.4,0.5-0.5,0.7c-0.1,0.2-0.2,0.4-0.4,0.6
			c-0.1,0.2-0.2,0.4-0.3,0.7c-0.3,0.8-0.6,1.4-0.8,1.9c-0.2,0.5-0.4,0.9-0.6,1.2c0,0-0.6,1-0.9,1.2l1-0.2l1.8-0.4
			c0.6-0.1,1.2-0.3,1.8-0.6c0.6-0.3,1.1-0.7,1.6-1.1c0.5-0.4,0.9-1,1.3-1.5c0.4-0.6,0.6-1.2,0.8-2l0,0
			C37.4,48.3,36.9,48.8,36.3,49.3z M37.6,40.8c-0.2,0.5-0.4,1-0.6,1.6c-0.2,0.6-0.4,1.2-0.5,1.9h0c0-0.1,0-0.2,0.1-0.6
			c0.1-0.3,0.1-0.6,0.1-0.7c0-0.5-0.1-1-0.3-1.5c-0.2-0.5-0.4-0.9-0.6-1.3c-0.2-0.4-0.5-0.8-0.7-1.1c-0.2-0.4-0.4-0.7-0.5-1.1h0
			c-0.1,0.5,0,1.1,0.1,1.8c0.1,0.7,0.3,1.3,0.5,2c0.2,0.7,0.4,1.3,0.5,1.8c0.2,0.5,0.2,0.9,0.2,1.2v0.6c0,0.2,0,0.5-0.1,0.7h0
			c0.4-0.6,0.7-1.1,1.1-1.6c0.4-0.4,0.7-0.9,1-1.3c0.3-0.4,0.5-0.9,0.7-1.5c0.2-0.5,0.3-1.3,0.3-2.1c0-0.4-0.1-0.9-0.2-1.4
			c-0.1-0.5-0.3-0.9-0.4-1.1h0c0,0.3,0,0.5,0,0.7c0,0.2,0,0.4,0,0.7c0,0.3-0.1,0.6-0.2,1C38,39.9,37.8,40.3,37.6,40.8z M36.3,37.7
			c-0.2-0.4-0.6-0.9-1.1-1.5c-0.3-0.3-0.6-0.5-0.8-0.7c-0.2-0.2-0.3-0.3-0.5-0.5c-0.1-0.1-0.2-0.2-0.3-0.4c-0.1-0.1-0.1-0.2-0.2-0.4
			h0c0.1,0.3,0.2,0.7,0.3,1.3c0.2,0.6,0.4,1.1,0.7,1.5c0.5,0.7,0.9,1.3,1.2,1.7c0.3,0.4,0.5,0.8,0.7,1.1c0.2,0.3,0.3,0.5,0.3,0.7
			c0.1,0.2,0.1,0.4,0.1,0.7h0.1c0.2-0.9,0.5-1.8,0.8-2.6c0.3-0.8,0.5-1.5,0.5-2.3c0-0.7-0.1-1.4-0.3-2c-0.2-0.7-0.6-1.4-1.3-2.2h0
			c0.1,0.2,0.2,0.5,0.3,0.7c0.1,0.3,0.2,0.5,0.2,0.8c0,0.9,0,1.7-0.1,2.3c-0.1,0.6-0.1,1.1-0.1,1.5c0,0.4,0,0.6,0,0.9
			c0,0.2,0,0.4,0,0.7h0C36.6,38.7,36.5,38.2,36.3,37.7z M34.3,30.7c0.2,0.3,0.3,0.6,0.4,1c0.1,0.4,0.2,0.9,0.4,1.4
			c0.1,0.5,0.3,1.2,0.6,1.9v0c-0.3-0.6-0.6-1-1-1.4c-0.4-0.3-0.7-0.6-1.1-0.9c-0.4-0.2-0.7-0.5-1-0.8c-0.3-0.3-0.6-0.6-0.8-1.1h0
			c0.2,0.5,0.3,0.9,0.4,1.3c0.1,0.3,0.2,0.6,0.3,0.8c0.1,0.2,0.2,0.4,0.4,0.5c0.1,0.1,0.3,0.3,0.6,0.5c0.7,0.6,1.2,1,1.7,1.4
			c0.5,0.4,0.9,0.8,1.2,1.3v-3.1c0-0.9-0.3-1.7-0.8-2.5c-0.5-0.7-1.1-1.2-1.9-1.4v0C33.9,30.2,34.2,30.4,34.3,30.7z M29.2,56.1
			c-0.3,0-0.5,0-0.7-0.1c-0.2,0-0.5-0.1-0.8-0.2v0c-0.3-0.1-0.6-0.2-0.9-0.3c-0.3-0.1-0.7-0.3-1.2-0.4c-0.8-0.3-1.5-0.5-1.9-0.7
			c-0.4-0.1-0.8-0.2-1.3-0.2c-0.4,0-0.8,0.1-1.3,0.2c-0.4,0.1-0.8,0.2-1,0.2c-0.2-0.1-0.5-0.1-0.9-0.2c-0.5-0.1-0.9-0.2-1.3-0.2
			c-0.4,0-0.8,0.1-1.3,0.2c-0.4,0.1-1,0.4-1.9,0.7c-1,0.3-1.7,0.6-2.2,0.7c-0.5,0.1-1,0.2-1.5,0.2c-0.2,0-0.4,0-0.6,0
			c-0.2,0-0.4-0.1-0.5-0.1c0,0-0.4-0.1-0.6-0.2c-0.2-0.1-0.5-0.2-0.8-0.4l0,0c0.5,0.5,1.5,1.2,1.5,1.2c0.8,0.5,1.6,0.7,2.4,0.7
			c0.4,0,0.7,0,0.9-0.1c0.3,0,0.6-0.1,0.8-0.2c0.3-0.1,0.6-0.3,0.9-0.4c0.3-0.2,0.7-0.4,1.2-0.7c0.5-0.3,0.9-0.6,1.3-0.8
			c0.3-0.2,0.7-0.3,1.2-0.3c0.2,0,0.4,0,0.5,0.1c-0.6,0.3-1.3,0.7-2,1.2c-0.7,0.5-1.5,1.1-2.2,1.8l0.7,0.7c0.6-0.8,1.4-1.5,2.2-2.1
			c0.8-0.6,1.4-1,2-1.3c0.6,0.2,1.3,0.6,2,1.3c0.8,0.6,1.5,1.3,2.2,2.1l0.7-0.7c-0.7-0.8-1.4-1.4-2.2-1.8c-0.8-0.5-1.4-0.8-2-1.2
			c0.2-0.1,0.4-0.1,0.6-0.1c0.4,0,0.8,0.1,1.2,0.3c0.3,0.2,0.8,0.4,1.3,0.8c0.4,0.3,0.8,0.5,1.1,0.7c0.3,0.2,0.6,0.3,0.9,0.4
			c0.3,0.1,0.6,0.2,0.8,0.2c0.3,0.1,0.5,0.1,0.9,0.1v0h0.2c0.6,0,1.3-0.1,2-0.4c0.7-0.3,1.4-0.8,2-1.5v0c-0.6,0.3-1.1,0.5-1.5,0.6
			C30,56,29.7,56.1,29.2,56.1z M39,43.3c0,0,0-0.1,0-0.1c0-0.1,0-0.1,0-0.2c0-0.1,0-0.3-0.1-0.4c-0.1,0.6-0.3,1.1-0.5,1.5
			c-0.3,0.4-0.6,0.8-1,1.3c0,0,0,0.1-0.1,0.1c-0.4,0.4-0.8,0.9-1.3,1.3c-0.5,0.5-1,1.1-1.5,1.9l0,0c0.2-0.3,0.3-0.7,0.5-1.3
			c0.2-0.5,0.3-0.9,0.3-1.3c0-0.3,0-0.6-0.1-0.9c0-0.2-0.1-0.5-0.2-0.8c-0.1-0.3-0.1-0.6-0.2-1c0-0.4-0.1-0.8-0.1-1.3h0c0,0,0,0,0,0
			c0,0,0,0,0,0h0c-0.2,0.6-0.4,1.2-0.5,1.7c-0.1,0.5-0.2,1.3-0.3,2.2c-0.1,0.6-0.1,1-0.2,1.4c0,0.4-0.1,0.8-0.1,1.1
			c-0.1,0.3-0.1,0.6-0.2,0.9c-0.1,0.2-0.2,0.5-0.3,0.7c0,0,0,0.1-0.1,0.1l0,0c0,0,0,0,0,0l1.1-0.7l2.2-1.4c0.3-0.2,0.6-0.4,0.9-0.8
			c0.3-0.3,0.6-0.7,0.8-1.2c0.2-0.3,0.3-0.6,0.4-0.9c0.1-0.2,0.2-0.4,0.2-0.6C38.9,44.4,39,43.9,39,43.3C39,43.4,39,43.4,39,43.3
			C39,43.4,39,43.4,39,43.3C39,43.4,39,43.3,39,43.3z M26.2,30.3c0.1,0,0.2,0.1,0.2,0.1c0.1,0.1,0.1,0.1,0.1,0.2
			c0,0.1,0.1,0.1,0.2,0.1c0.1,0,0.1,0,0.1-0.1c0-0.1,0-0.1,0-0.1c0,0,0,0,0-0.1c0-0.1,0-0.2-0.1-0.3c-0.1-0.1-0.2-0.1-0.4-0.1
			c0,0-0.1,0-0.1,0h0c-0.1,0-0.1,0-0.1,0.1C26.1,30.3,26.1,30.3,26.2,30.3z M21.5,29.3L21.5,29.3c0.3-0.1,0.5-0.1,0.6-0.1h0.6
			c0.1,0,0.2,0,0.3-0.1c0.1-0.1,0.1-0.1,0.1-0.2c-0.1-0.2-0.3-0.3-0.5-0.3c-0.2,0-0.4,0-0.4,0c-0.1,0-0.2,0.1-0.5,0.2
			c-0.3,0.1-0.5,0.2-0.5,0.2c-0.1,0-0.2,0-0.3,0.1c0.1,0.1,0.1,0.1,0.2,0.2C21.2,29.2,21.3,29.3,21.5,29.3z M20.2,53.4
			c7.3,0,13.3-6,13.3-13.3c0-7.3-6-13.3-13.3-13.3c-7.3,0-13.3,6-13.3,13.3C6.9,47.4,12.9,53.4,20.2,53.4z M7.6,40.5h2
			c0,0.9,0.2,1.8,0.4,2.6c-0.1,0-0.1,0-0.2-0.1l-0.1-0.1l-0.2-0.3l-0.4,0.1c0,0.2-0.1,0.3-0.2,0.2c-0.1-0.1-0.1-0.1-0.2-0.1
			c-0.2,0-0.4,0.1-0.4,0.4c0,0.3-0.1,0.4-0.1,0.5l0.3,0.8c0.1,0.1,0.1,0.1,0.3,0c0.1,0.1,0.2,0.3,0.3,0.3C9.2,45,9.3,45,9.4,45
			c0.1,0,0.1,0,0.1-0.1h0c0.1,0.1,0.1,0.1,0.2,0.2c0.1,0.1,0.1,0.1,0.2,0.2v0c0.1,0.1,0.2,0.2,0.4,0.2c0.1,0.2,0.1,0.4,0.3,0.5
			C10.7,46,10.8,46,11,46c0.1,0,0.1,0,0.2-0.1c0.1,0.2,0.2,0.4,0.2,0.4c0.1,0,0.1,0.1,0.2,0.1c0.1,0.1,0.1,0.1,0.2,0.1h0.1
			c0,0,0,0,0,0c0,0.1,0.1,0.2,0.2,0.4c0.1,0.1,0.2,0.2,0.3,0.2c0,0,0,0,0,0c0,0,0,0,0,0c0,0,0,0,0,0c0,0,0.1,0.1,0.1,0.1L11,48.8
			C9,46.6,7.7,43.7,7.6,40.5z M17.3,36.7c0,0-0.1-0.1-0.1-0.1l-0.1-0.1c0.8-0.7,1.7-1.1,2.8-1.2v1.4c0,0,0,0-0.1,0c0,0,0,0,0,0
			c0,0,0,0,0,0c0,0,0,0-0.1,0c0,0,0,0-0.1,0c0,0,0,0,0,0c0,0-0.1,0-0.1,0c0,0-0.1,0-0.1,0c0,0,0,0-0.1,0c0,0-0.1-0.1-0.1-0.2
			c0,0,0,0,0,0c0,0,0,0,0,0c-0.1,0.1-0.2,0.1-0.2,0.2c0,0.1,0,0.2-0.1,0.3c0,0.1-0.1,0.2-0.2,0.2c-0.1,0-0.2,0.1-0.3,0.2l-0.1-0.1
			h-0.2c-0.1-0.1-0.1-0.1-0.1-0.1c0,0-0.1,0-0.1-0.1c0,0,0,0,0,0c-0.1,0-0.1,0-0.1,0.1l-0.1-0.1l0,0V37
			C17.6,36.9,17.5,36.8,17.3,36.7z M16.6,36l-1.4-1.4c1.2-1.1,2.8-1.8,4.6-1.9v1.9C18.6,34.8,17.5,35.3,16.6,36z M17.3,42.4
			c0.1-0.1,0-0.2,0.1-0.3l-0.2,0.1c0.1-0.1,0.2-0.3,0.3-0.3c0-0.1,0.1-0.2,0.1-0.2c0,0,0,0,0,0c0,0.1,0.1,0.2,0.2,0.3l-1.2,1.2
			c-0.5-0.6-0.8-1.2-1-2c0.1,0,0.2,0,0.3,0.1c0,0,0.3,0.3,0.3,0.3c0.1,0,0.1,0,0.2,0l0.2,0.1c0,0.1,0,0.2,0,0.2c0,0,0,0.1,0.1,0.1
			c0.1,0,0.1,0.1,0.2,0.2l0.1,0c0,0,0-0.1,0-0.2c0-0.1,0-0.1,0-0.1l0.1,0.3l0.1,0.4l0,0C17.2,42.5,17.3,42.5,17.3,42.4z M20,43.9
			c0.1,0.1,0.1,0.1,0.1,0.2c0,0.1-0.1,0.1-0.4,0.1c-0.1,0-0.1,0.1-0.2,0.3c0,0.2-0.1,0.3-0.1,0.4c0,0,0,0-0.1,0c0,0,0,0,0,0
			c-0.9-0.1-1.7-0.5-2.4-1.1l1.2-1.2c0.4,0.4,1,0.7,1.7,0.8c0,0.1,0,0.2,0,0.2c-0.1,0.1-0.1,0.1-0.1,0.2
			C19.9,43.7,19.9,43.8,20,43.9z M14.1,43.9c0-0.4-0.1-0.6-0.1-0.8c0-0.1-0.1-0.2-0.1-0.4c0-0.3-0.1-0.5-0.1-0.6
			c-0.1-0.1-0.2-0.3-0.4-0.6v-0.3c0,0,0-0.1-0.1-0.3v0c0-0.1,0-0.1,0.1-0.1c0,0,0.2-0.1,0.5-0.2c0-0.2,0-0.3,0-0.4l0.3,0.1
			c0.1,0,0.1-0.1,0.1-0.2c0,0,0-0.1-0.1-0.3c-0.1-0.2-0.1-0.3-0.1-0.3c0-0.1,0-0.1,0.1-0.2c0.1,0,0.2-0.1,0.3-0.1
			c0.1,0,0.2,0.1,0.3,0.2c0.1,0.1,0.1,0.2,0.1,0.3c0,0.1,0,0.2,0,0.2c0,0.1,0,0.1,0,0.2l0.1,0c-0.1,0.3-0.2,0.4-0.4,0.4
			c-0.1,0-0.2,0-0.2-0.1c0-0.1-0.1-0.1-0.2-0.1c0,0,0,0,0,0c0,0.1,0,0.1,0,0.2c0,0.1,0,0.1,0,0.2c0,0.2-0.1,0.3-0.3,0.2
			c-0.1,0.1,0,0.2,0.2,0.2c0.1,0.2,0.1,0.3,0.2,0.2c0,0,0.1-0.1,0.1-0.3c0-0.2,0.1-0.3,0.1-0.3l0,0l0.2,0c0,0,0,0,0,0.1
			c0,0,0,0,0.1,0c0.2,1,0.6,1.9,1.3,2.6l-1.9,1.9c-0.1-0.1-0.1-0.2-0.1-0.3c0-0.2,0.2-0.3,0.2-0.5c0,0,0-0.4,0-0.4
			C14.2,44.2,14.1,44,14.1,43.9z M13,41.2c0,0.1,0,0.1,0,0.2c0,0.1,0,0.1-0.1,0.1c0,0,0,0,0,0c-0.1-0.3-0.1-0.7-0.1-1h0.4
			c0,0.1,0,0.1,0,0.2c0,0.1-0.1,0.1-0.1,0.2c0,0.1-0.1,0.1-0.1,0.2C13,41.1,13,41.1,13,41.2z M12.8,39.8c0.1-1.8,0.8-3.4,1.9-4.6
			l1.4,1.4c0,0,0,0,0,0c-0.1,0-0.2,0-0.2,0.1c-0.1,0.1-0.1,0.2-0.2,0.3c-0.2,0.1-0.3,0.2-0.4,0.2c-0.1,0.1-0.2,0.2-0.3,0.4
			c-0.2,0.1-0.3,0.1-0.3,0.2c0,0-0.1,0.1-0.2,0.1c0.1,0.1,0.1,0.2,0,0.2c-0.1,0-0.2,0.1-0.4,0.1c0,0-0.1,0-0.1,0l-0.1,0.1
			c0,0.1,0,0.1,0,0.2c0,0,0,0.1,0,0.2c-0.1,0.1-0.2,0.1-0.2,0.2c0,0.1,0,0.3,0,0.4l0.1,0.4c0,0,0,0,0,0c0,0,0,0.1,0,0.1H12.8z
			 M16.6,44.2c0.7,0.6,1.5,1,2.4,1.2c-0.1,0-0.1,0-0.2,0.1c-0.1,0-0.2,0.1-0.3,0.3c0,0.2-0.1,0.3-0.2,0.3c-0.1,0-0.1,0.1-0.1,0.2
			c0.1,0.1,0.3,0.3,0.3,0.5c0.1,0.2,0.2,0.3,0.4,0.4l0.3,0.1c0.1,0,0.2,0,0.3,0.1c0.1,0,0.2,0,0.2,0c-1.7-0.1-3.3-0.8-4.5-1.9
			L16.6,44.2z M14.7,34.2l-1.3-1.3c1.7-1.6,4-2.6,6.4-2.7v1.9C17.9,32.2,16.1,33,14.7,34.2z M14.3,34.7c-1.2,1.4-2,3.1-2.1,5.1h-1.9
			c0.1-2.5,1.1-4.7,2.7-6.4L14.3,34.7z M12.2,40.5c0,0.3,0.1,0.7,0.1,1c0,0,0-0.1-0.1-0.1c-0.1-0.1-0.2-0.2-0.3-0.2
			c-0.1,0-0.1,0-0.2,0.1c0,0.1-0.1,0.1-0.1,0.2c-0.2,0.1-0.4,0.2-0.5,0.2c-0.1,0.1-0.2,0.3-0.3,0.5c0,0.1,0,0.1,0,0.2
			c0,0.1,0,0.1-0.1,0.2c0.1,0.1,0.1,0.2,0,0.2c0,0.1,0,0.1,0,0.1c0,0-0.1,0-0.1,0c0,0,0,0.1-0.1,0.1c-0.2-0.8-0.4-1.6-0.4-2.5H12.2z
			 M19.8,52.7c-3.2-0.1-6.2-1.4-8.3-3.5l1.4-1.4c1.8,1.7,4.2,2.8,6.9,2.9V52.7z M19.8,50c-2.5-0.1-4.7-1.1-6.4-2.6
			c0.1,0.1,0.3,0.1,0.4,0.1c0.1,0,0.2,0,0.4-0.1c0.1-0.1,0.3-0.1,0.4-0.2c0.2,0,0.3,0,0.4-0.1c0.1,0,0.2,0,0.3,0
			c0.1,0,0.2-0.1,0.2-0.2c0-0.1-0.1-0.2-0.2-0.2c-0.1-0.1-0.2-0.1-0.2-0.2c0,0,0-0.1-0.1-0.1c0,0-0.1-0.1-0.3-0.3l0,0
			c1.4,1.2,3.1,2,5.1,2.1V50z M20.2,45.1L20.2,45.1c-0.2,0-0.4,0-0.4-0.1c0,0,0-0.1,0-0.1c0,0,0.1-0.1,0.2-0.1
			c0.1-0.1,0.2-0.1,0.3-0.1l0-0.1l0.3-0.2c0.1,0,0.1,0,0.1,0c0,0,0.1,0,0.3-0.1c0,0,0.1,0.1,0.3,0.2c0.2,0.1,0.3,0.2,0.3,0.2l0-0.2
			c0.1,0,0.1,0.1,0.3,0.2c0.1,0,0.1,0,0.2-0.1c0-0.1,0-0.2,0-0.2c0,0,0.1,0,0.1,0c0,0,0,0,0.1,0c0,0,0,0,0.1,0h0
			c0.1,0,0.1,0,0.2-0.1c0.1-0.1,0.2-0.1,0.2-0.2c0,0,0.1,0,0.1,0c0,0,0,0.1,0,0.2c0,0.2-0.1,0.4-0.4,0.5c-0.3,0.1-0.5,0.2-0.6,0.3
			c0,0-0.1,0.1-0.1,0.2c0,0.1-0.1,0.2-0.2,0.2c-0.1,0-0.3,0-0.5-0.1c0,0-0.1-0.1-0.1-0.3c-0.1,0-0.2,0-0.3,0l-0.4,0.1
			C20.3,45.1,20.3,45.1,20.2,45.1z M22.1,43.6c0-0.1,0.1-0.2,0.2-0.3c0.1,0,0.2-0.1,0.4-0.1c0,0.1-0.1,0.2-0.2,0.3
			C22.3,43.6,22.2,43.7,22.1,43.6L22.1,43.6z M23.5,42.6c0.1,0.1,0.2,0.2,0.2,0.3c0,0.1-0.1,0.2-0.2,0.2c-0.1,0-0.2-0.1-0.2-0.3
			c-0.2-0.1-0.3-0.2-0.4-0.3c0-0.1,0-0.2,0-0.2c0.1,0,0.1-0.1,0.2-0.1c0.1,0,0.1,0.1,0,0.2C23.3,42.4,23.4,42.5,23.5,42.6z
			 M27.8,35.1C27.8,35.1,27.8,35.2,27.8,35.1c0.2,0,0.3,0.1,0.4,0.1c0.1,0.1,0.3,0.3,0.5,0.7c0,0,0.1,0,0.1,0.1
			c0,0.1,0.1,0.1,0.2,0.1c0.1,0,0.1,0,0.2-0.1c0,0,0-0.1,0-0.1c0.5,1.2,0.8,2.4,0.9,3.8h-1.9c0,0,0,0,0,0c0-0.2,0-0.3-0.1-0.5
			C28,39,28,38.9,28.1,38.6c0-0.2,0.1-0.3,0-0.4c-0.1,0-0.1,0-0.2,0c0,0-0.1,0.1-0.1,0.2c0,0.1-0.1,0.2-0.1,0.2v0c0,0,0,0.1,0,0.1
			c0,0,0,0.1,0,0.1c0,0.1-0.1,0.2-0.1,0.4c0,0.1,0,0.2,0,0.4c0,0,0,0,0,0c0,0,0,0.1,0,0.1h-1c0.1-0.1,0.1-0.1,0.2-0.1h0l0.3-0.1
			c-0.1,0-0.1-0.1-0.1-0.1c0-0.1,0-0.1,0-0.2c0,0,0.1-0.1,0.3-0.1c0.1-0.1,0.1-0.2,0.2-0.4c0.1-0.2,0.3-0.6,0.3-0.9
			c0-0.1-0.1-0.2-0.1-0.2c0-0.1,0-0.1,0-0.2c0-0.3,0.1-0.8-0.3-0.9c0,0,0,0,0-0.1c0.1-0.1,0.1-0.2,0.1-0.3h-0.3c0,0,0-0.1,0.1-0.2
			c0-0.1,0.1-0.1,0.1-0.2c0-0.1,0-0.1-0.1-0.1c-0.1,0-0.2,0-0.2,0c-0.1,0-0.1,0-0.1,0c0,0-0.1,0-0.1,0c0,0,0-0.1-0.1-0.1
			c0-0.1-0.1-0.3-0.2-0.4c-0.1-0.1-0.2-0.2-0.4-0.3c0,0,0,0,0,0c0-0.1,0-0.1,0-0.2l0.4-0.4l0.5,0.2c0,0.1,0,0.3,0.1,0.3
			c0,0,0.1,0.1,0.2,0.1c0.1,0.1,0.2,0.1,0.2,0.2v0C27.7,35.1,27.7,35.1,27.8,35.1z M25.9,48c0,0-0.1,0-0.1,0c0,0-0.1,0-0.1-0.1
			c0-0.1,0-0.1,0.1-0.2c0.1-0.1,0.2-0.2,0.2-0.3c0.1-0.1,0.1-0.2,0.1-0.3c0-0.1,0-0.1-0.1-0.1c0,0-0.1-0.1-0.2-0.1
			c-0.1,0-0.1-0.1-0.2-0.1c-0.1,0-0.2-0.1-0.2-0.1c-0.1-0.1-0.1-0.1-0.1-0.2c0,0,0-0.1,0.1-0.2c0,0,0-0.1,0-0.1c0,0,0.1-0.1,0.1-0.1
			l1,1c0,0.1,0.1,0.2,0.2,0.2l0.1,0.1c-0.4,0.3-0.7,0.6-1.1,0.9c0,0,0-0.1,0.1-0.1c0,0,0,0,0.1,0C25.9,48.1,25.9,48,25.9,48z
			 M25.3,43.1c-0.1,0-0.2,0-0.3,0c-0.1,0-0.2,0.1-0.3,0.3c0,0,0,0,0,0c-0.1,0-0.1,0-0.2,0c-0.1,0-0.2,0.1-0.2,0.1
			c-0.1,0-0.1,0-0.1-0.1c0-0.1,0.1-0.1,0.4-0.2c0.1-0.1,0.2-0.2,0.2-0.3c0,0,0.1-0.1,0.2-0.1c0.1-0.1,0.2-0.2,0.3-0.3
			c0.1-0.2,0.2-0.3,0.2-0.3h0c0,0.1,0.1,0.2,0.2,0.2c0.1,0,0.2-0.1,0.2-0.3c0.2,0.1,0.3,0.1,0.4,0.1c0.2,0,0.3-0.1,0.3-0.2h0.6
			c0,0,0,0,0,0c0,0,0,0,0,0h0c-0.3,1-0.8,1.9-1.5,2.6c0,0,0-0.1,0-0.1c0,0-0.1-0.4-0.2-0.4c-0.1,0-0.1,0.1-0.2,0.3
			c-0.1,0.2-0.1,0.3-0.2,0.4l-0.4,0.1c-0.1,0-0.2,0-0.4,0c-0.1,0-0.2-0.1-0.4-0.2c-0.2-0.1-0.3-0.2-0.4-0.2c-0.1,0-0.2-0.1-0.4-0.1
			c-0.2,0-0.2-0.1-0.2-0.1c0-0.1,0.1-0.1,0.2-0.1c0.1,0,0.2,0,0.4,0.1c0.2,0,0.4,0.1,0.5,0.1c0.2,0,0.3,0.1,0.5,0.1
			c0.1,0,0.2,0.1,0.3,0.1l0.3-0.1c0-0.1,0-0.1,0.1-0.2c0.1-0.1,0.1-0.2,0.1-0.2c0.1-0.1,0.1-0.3,0.2-0.5c0-0.2,0.1-0.4,0.1-0.5
			C25.4,43.3,25.4,43.2,25.3,43.1z M26.5,40.5h1c0,0.4-0.1,0.9-0.2,1.3c-0.1-0.2-0.2-0.3-0.2-0.4c-0.1-0.1-0.2-0.2-0.4-0.4
			c0-0.1-0.1-0.3-0.1-0.3c0,0,0-0.1-0.1-0.1C26.6,40.5,26.5,40.5,26.5,40.5z M26.9,45.9c-0.1,0-0.1,0-0.1,0.1c0,0,0,0.1,0,0.3
			l-0.7-0.7c0.9-1,1.5-2.1,1.9-3.4c0,0,0,0,0,0c0.2,0.1,0.2,0.1,0.3,0c0-0.1,0.1-0.1,0.1-0.1c0-0.1-0.1-0.2-0.2-0.4h-0.1
			c0.1-0.4,0.1-0.8,0.1-1.2h1.9c-0.1,2.5-1.1,4.7-2.7,6.4l-0.1-0.1c0,0,0,0,0,0c0-0.2-0.1-0.4-0.1-0.6C27.2,46,27.1,45.9,26.9,45.9z
			 M26.4,36.3C26.4,36.3,26.4,36.3,26.4,36.3c0,0.1,0,0.1,0,0.2c0,0.1-0.1,0.2-0.1,0.2c0,0.1,0.1,0.2,0.4,0.3
			c0.2,0.1,0.3,0.3,0.4,0.3c0.1,0.1,0.1,0.3,0.2,0.5c0.1,0.3,0.1,0.4,0.1,0.5c0,0.1-0.1,0.2-0.1,0.3c-0.1,0.2-0.3,0.3-0.4,0.3l0,0
			c0-0.1,0-0.1,0.1-0.3c0.1-0.1,0.1-0.2,0.1-0.3c0.1-0.1,0.2-0.2,0.2-0.3C27.1,38.1,27,38,27,38c0,0-0.1-0.1-0.2-0.2
			c0-0.1-0.1-0.1-0.3-0.1c-0.1,0-0.2,0-0.2,0.1s-0.1,0.1-0.2,0.2L26,37.7c0-0.1,0-0.1,0-0.2L25.7,37c-0.1-0.1-0.3-0.1-0.5-0.2
			c-0.1,0-0.2,0-0.4,0c-0.1,0-0.2,0-0.3,0c-0.1,0-0.2,0-0.4,0.1c-0.1,0.1-0.2,0.2-0.3,0.3c0,0.1,0,0.1-0.1,0.1c0,0-0.1-0.1-0.1-0.1
			l2-2c0,0,0,0.1,0,0.1c0,0,0.1,0.1,0.2,0.2c0.1,0.1,0.1,0.2,0.2,0.2C26.2,35.9,26.3,36.1,26.4,36.3z M21.6,49.5
			c0.2,0.1,0.4,0.2,0.6,0.3C21.6,50,21.1,50,20.5,50v-1.9h0c0.1,0.1,0.2,0.2,0.3,0.3c0.1,0,0.2,0.1,0.4,0.1c0.2,0,0.3,0.1,0.3,0.1
			c0,0.1,0,0.1-0.1,0.2c0,0.1-0.1,0.1-0.1,0.2C21.3,49.2,21.4,49.4,21.6,49.5z M20.5,52.7v-2c0.8,0,1.5-0.1,2.2-0.3c0,0,0,0,0,0
			c0,0,0,0,0,0.1c0.2,0.2,0.4,0.3,0.4,0.4c0.1,0.1,0.2,0.2,0.5,0.2c0.1,0,0.2,0,0.3-0.1c0-0.1,0.1-0.1,0.2-0.2
			c0.1-0.1,0.1-0.1,0.2-0.1c0.1,0,0.1-0.1,0.2-0.1c0.1-0.1,0.3-0.1,0.3-0.3c0.1-0.1,0.2-0.2,0.3-0.4c0.1,0,0.1,0,0.2-0.1
			c0.1-0.1,0.1-0.2,0.2-0.5c0,0,0.1,0,0.1,0c0,0,0,0,0-0.1c0.7-0.4,1.3-0.9,1.9-1.4l1.4,1.4C26.7,51.3,23.7,52.6,20.5,52.7z
			 M29.3,48.8l-1.4-1.4c1.7-1.8,2.8-4.2,2.9-6.9h2C32.7,43.7,31.4,46.6,29.3,48.8z M32.8,39.8h-2c-0.1-2.2-0.8-4.2-2-5.9
			c0-0.1-0.1-0.1-0.1-0.2c0,0-0.1-0.1-0.1-0.1c-0.2-0.2-0.3-0.4-0.5-0.6c0,0,0-0.1-0.1-0.1l1.4-1.4C31.4,33.6,32.7,36.6,32.8,39.8z
			 M20.5,27.5c3.2,0.1,6.2,1.4,8.3,3.5l-1.2,1.2c0-0.1-0.1-0.1-0.1-0.2c-0.1-0.1-0.2-0.1-0.2-0.1c-0.1-0.1-0.2-0.2-0.2-0.3
			c0-0.1-0.1-0.2-0.1-0.3c-0.2-0.1-0.3-0.2-0.4-0.4c-0.1-0.2-0.2-0.3-0.4-0.3c-0.1,0-0.2,0-0.3,0c-0.1-0.1-0.2-0.1-0.3-0.1
			c-0.1,0-0.2,0-0.3,0c-0.1,0-0.2,0.1-0.3,0.1c0,0,0,0,0,0c-1.3-0.7-2.8-1.1-4.3-1.1c0.1-0.2,0.1-0.3,0-0.4c0,0-0.1,0-0.2,0.1V27.5z
			 M20.5,30.2c1.5,0,2.9,0.4,4.1,1.1c0,0,0,0,0,0c0.1,0.1,0.1,0.1,0.2,0.2c0.1,0.1,0.1,0.1,0.2,0.2c0.1,0.2,0.1,0.3,0.1,0.4
			c0,0.1,0.1,0.1,0.1,0.2c0,0.1,0,0.2,0.1,0.4c0.1,0.1,0.2,0.3,0.2,0.4c0,0,0.1,0,0.2,0c0.1,0,0.2,0,0.2,0c0.1,0,0.1,0,0.2,0.1
			c0.1,0.1,0.1,0.2,0.2,0.3c0,0,0,0.1,0,0.1L25.8,34l0,0c-0.1-0.4-0.2-0.7-0.3-0.7c-0.1-0.1-0.2-0.1-0.3-0.1c0,0-0.1-0.2-0.3-0.4
			c-0.2-0.2-0.3-0.3-0.3-0.3c-0.1,0-0.1,0-0.1,0c0,0.1,0.1,0.1,0.1,0.2c0,0,0.1,0.1,0.2,0.3c0,0.1,0,0.1-0.1,0.1
			c0,0.1,0.1,0.2,0.2,0.2l0,0.1l0.1,0.3c-1.2-0.9-2.8-1.5-4.4-1.5V30.2z M20.5,32.8c1.8,0.1,3.4,0.8,4.6,1.9L23.8,36
			c-0.9-0.8-2-1.3-3.3-1.4V32.8z M20.5,35.4c1,0.1,1.9,0.4,2.6,1c0,0-0.1,0-0.1,0c0,0-0.1,0-0.1,0.1c0,0,0,0,0,0.1
			c0,0.1,0.1,0.1,0.2,0.1l-0.5,0.5v0c-0.1,0.1-0.2,0.1-0.2,0.1c-0.1,0.1-0.2,0.1-0.2,0.2c0,0,0,0.1,0,0.2L22,37.9c0,0,0,0-0.1,0
			c-0.1,0-0.2-0.1-0.3-0.2c-0.1-0.1-0.2-0.2-0.3-0.2c-0.1,0-0.2,0-0.2,0.1c0,0-0.1,0.1-0.2,0c-0.1-0.1,0-0.1,0.2-0.2
			c0.2-0.1,0.3-0.1,0.4-0.2c0.2-0.2,0.4-0.4,0.4-0.7c0-0.2-0.1-0.2-0.2-0.2l-0.1,0.1c-0.1,0.1-0.2,0.1-0.3,0.2
			c-0.1,0.1-0.2,0.2-0.2,0.2c-0.1,0-0.2,0-0.3,0h-0.3c0,0,0,0,0,0V35.4z M20.1,38.4C20.1,38.5,20.2,38.5,20.1,38.4
			c0.2,0.1,0.2,0.1,0.3,0.1c0.1,0,0.1,0,0.2,0c0,0,0,0.1,0,0.1c0,0.1,0.1,0.1,0.2,0.1c0,0,0,0,0.1,0.1c0,0,0,0,0,0
			c0,0,0,0.1,0.1,0.2c0,0,0,0,0,0c0,0,0,0,0,0c0.1,0,0.1,0,0.1,0c0,0,0.1,0,0.1,0c0,0,0,0.1,0,0.1h0c0,0,0,0.1,0,0.1
			c0,0.1,0,0.1,0,0.2v0.1c0,0,0,0,0,0c-0.1,0.1-0.1,0.2-0.1,0.3c0,0.1,0,0.1,0.1,0.1c0.1,0,0.1,0,0.2,0.1c0.1,0.1,0.1,0.1,0.1,0.3
			v0.4c0,0.1,0,0.1,0.1,0.1c0,0,0.1,0.1,0.1,0.1c0,0.1,0,0.2,0,0.3c0,0.1-0.1,0.2-0.1,0.3c0,0-0.1,0-0.2,0c-0.1,0-0.2,0-0.3,0
			c-0.1,0-0.1,0.1-0.2,0.3c-0.1,0.1-0.1,0.3-0.1,0.4c0,0.1-0.1,0.2-0.2,0.2c-0.1,0-0.1,0-0.2,0c0,0,0,0,0,0l-0.1,0.2l0,0.1
			c-0.5,0-1-0.2-1.3-0.6l0.2-0.2c0.1,0,0.3-0.1,0.4-0.1c0,0,0.1,0,0.1,0c0.2-0.1,0.2-0.3,0.3-0.5c0.1-0.1,0.3-0.3,0.1-0.4
			c0.2-0.3-0.7-0.4-0.9-0.3c-0.2,0.1-0.1,0.3-0.2,0.4c-0.1,0.1-0.1,0.1-0.2,0.1c-0.1,0.1-0.3,0.3-0.3,0.5l0,0
			c-0.1-0.1-0.1-0.2-0.1-0.3c0,0,0,0,0,0c0,0,0-0.1,0-0.1h0v0c0.1,0,0.2,0,0.2,0c0-0.1,0.1-0.2,0.1-0.2c0-0.1,0.1-0.2,0.2-0.5
			c-0.1,0-0.1-0.1-0.1-0.1c0-0.1,0-0.1-0.1,0c-0.1,0-0.1,0.1-0.1,0.1c0,0.1,0,0.1-0.1,0.2c-0.1,0.1-0.1,0.1-0.2,0.1
			c0-0.1,0-0.1-0.1-0.1c-0.1,0-0.1,0-0.2,0.1c-0.1,0-0.2,0-0.4,0c-0.2,0-0.4,0-0.4,0c-0.1-0.1,0-0.1,0.2-0.2c0-0.2,0-0.4,0.2-0.5
			c0.1,0.1,0.2,0.1,0.3,0.1l0.1-0.1h0c0.1,0,0.1,0.1,0.2,0.2c0,0.1,0.1,0.2,0.1,0.2c0.1,0,0.1,0,0.2-0.1V40c0.1-0.2,0.1-0.4,0.1-0.5
			v-0.1c0-0.1,0.1-0.2,0.1-0.2h0.1c0.1,0,0.1-0.1,0.2-0.1c0.1-0.1,0.1-0.2,0.1-0.3c0.1,0,0.2-0.1,0.5-0.2c0.2-0.1,0.3-0.2,0.3-0.3
			c0,0,0,0,0,0c0.1,0,0.2,0,0.3,0C20.1,38.4,20.1,38.4,20.1,38.4z M19.8,27.5v2c-2.7,0.1-5.1,1.2-6.9,2.9L11.5,31
			C13.7,28.9,16.6,27.6,19.8,27.5z M11,31.4l1.4,1.4c-1.7,1.8-2.8,4.2-2.9,6.9h-2C7.7,36.6,9,33.6,11,31.4z"/>
		<g>
			<path class="st0" d="M48.4,15.5h1.1c2,0,3.4,1.3,3.4,3.3c0,2.3-1.7,3.3-3.9,3.3h-0.6V15.5z M49.5,16.5V21c1.3,0,2.3-0.9,2.3-2.2
				C51.8,17.4,50.9,16.5,49.5,16.5z"/>
			<path class="st0" d="M60.3,22.1h-1.1l-0.8-2.3h-2l-0.8,2.3h-1.1l2.4-6.6h1.1L60.3,22.1z M56.7,18.8H58l-0.6-1.9L56.7,18.8z"/>
			<path class="st0" d="M67.5,19.3h-1.7v-1h2.9v0.3c0,2.4-1.6,3.6-3.4,3.6c-2,0-3.4-1.4-3.4-3.4c0-2,1.4-3.4,3.4-3.4
				c1,0,1.8,0.3,2.4,0.9L66.8,17c-0.4-0.4-1-0.6-1.6-0.6c-1.3,0-2.3,1-2.3,2.4c0,1.3,1,2.4,2.3,2.4C66.4,21.2,67.3,20.4,67.5,19.3z"
				/>
			<path class="st0" d="M77.9,19.2h-2v2.8h-1.1v-6.6h1.1v2.7h2v-2.7h1.1v6.6h-1.1V19.2z"/>
			<path class="st0" d="M86.8,22.1h-1.1l-0.8-2.3h-2l-0.8,2.3H81l2.4-6.6h1.1L86.8,22.1z M83.3,18.8h1.3L84,16.9L83.3,18.8z"/>
			<path class="st0" d="M89,15.5h1.1l1.9,2.6l1.8-2.6h1.1v6.6h-1.1v-4.7L92,19.8l-1.9-2.5v4.7H89V15.5z"/>
			<path class="st0" d="M97.6,15.5h1.1l1.9,2.6l1.8-2.6h1.1v6.6h-1.1v-4.7l-1.8,2.5l-1.9-2.5v4.7h-1.1V15.5z"/>
			<path class="st0" d="M111.5,22.1h-1.1l-0.8-2.3h-2l-0.8,2.3h-1.1l2.4-6.6h1.1L111.5,22.1z M107.9,18.8h1.3l-0.6-1.9L107.9,18.8z"
				/>
			<path class="st0" d="M113.6,15.5h2c1.2,0,2,0.7,2,1.9c0,1.1-0.7,1.7-1.7,1.8l1.8,2.9h-1.2l-1.8-3v3h-1.1V15.5z M114.7,16.5v1.8
				h0.9c0.6,0,1-0.3,1-0.9c0-0.6-0.4-0.9-1-0.9H114.7z"/>
			<path class="st0" d="M122.6,17.2c0-0.5-0.3-0.9-0.8-0.9c-0.5,0-0.9,0.3-0.9,0.8c0,0.4,0.2,0.7,0.9,0.9l0.3,0.1
				c1.1,0.3,1.9,0.7,1.9,2.1c0,1.2-0.9,2-2.2,2c-1.3,0-2.2-0.8-2.2-2.2h1c0,0.7,0.5,1.2,1.2,1.2c0.7,0,1.2-0.5,1.2-1.1
				c0-0.6-0.4-0.9-1.2-1.1l-0.3-0.1c-1.1-0.3-1.6-0.9-1.6-1.9c0-1.1,0.8-1.8,1.9-1.8c1.2,0,1.8,0.6,1.8,1.9H122.6z"/>
			<path class="st0" d="M126.4,15.5h1.1v3.1l1.4-3.1h1.2l-1.6,3.3l1.6,3.3h-1.2l-1.4-3.1v3.1h-1.1V15.5z"/>
			<path class="st0" d="M135.8,15.5v4.6c0,1.3-0.9,2.1-2.1,2.1c-1.2,0-2.1-0.8-2.1-2.1h1c0,0.7,0.5,1.1,1,1.1c0.6,0,1-0.4,1-1.1
				v-4.6H135.8z"/>
			<path class="st0" d="M141.6,15.4c2,0,3.4,1.4,3.4,3.4c0,2-1.4,3.4-3.4,3.4c-2,0-3.4-1.4-3.4-3.4
				C138.2,16.8,139.6,15.4,141.6,15.4z M141.6,21.2c1.3,0,2.3-1,2.3-2.4c0-1.3-1-2.4-2.3-2.4c-1.3,0-2.3,1-2.3,2.4
				C139.3,20.1,140.3,21.2,141.6,21.2z M140,14.3l0.7-0.7l0.7,0.7l-0.7,0.7L140,14.3z M141.9,14.3l0.7-0.7l0.7,0.7l-0.7,0.7
				L141.9,14.3z"/>
			<path class="st0" d="M147.5,15.5h1.1v5.6h2.2v1h-3.3V15.5z"/>
			<path class="st0" d="M152.9,15.5h1.1c2,0,3.4,1.3,3.4,3.3c0,2.3-1.7,3.3-3.9,3.3h-0.6V15.5z M154,16.5V21c1.3,0,2.3-0.9,2.3-2.2
				C156.3,17.4,155.3,16.5,154,16.5z"/>
		</g>
		<g>
			<path class="st1" d="M184.1,25.8c10,0,17.2,7.3,17.2,17.2s-7.3,17.2-17.2,17.2s-17.2-7.3-17.2-17.2S174.1,25.8,184.1,25.8z
				 M184.1,53.8c6,0,10.4-4.8,10.4-10.8c0-6-4.4-10.8-10.4-10.8c-6,0-10.4,4.8-10.4,10.8C173.7,49.1,178.1,53.8,184.1,53.8z"/>
			<path class="st1" d="M218.4,32.2l0,27.8l-6.9,0l0-27.8l-9.4,0l0-6.3l25.7,0l0,6.3L218.4,32.2z"/>
			<path class="st1" d="M234.5,60V25.8h18.2v6.4h-11.2v4.5h11.2V43h-11.2v10.7h11.2V60H234.5z"/>
			<path class="st1" d="M49.1,25.9h10.1c6,0,9.9,3.9,9.9,9.4c0,2.8-1.2,4.8-2.7,6c4,1,7,3.8,7,8.6c0,6.2-4.6,10.3-10.8,10.3H49.1
				V25.9z M56,32.3v7.2h2.6c2.2,0,3.4-1.3,3.4-3.6c0-2.3-1.1-3.6-3.4-3.6H56z M56,46.1v7.3h6.1c2.4,0,3.9-1.2,3.9-3.6
				c0-2.3-1.5-3.7-3.8-3.7H56z"/>
			<path class="st1" d="M128.7,25.9h6.9v27.8h11.2v6.3h-18.2V25.9z"/>
			<path class="st2" d="M127.1,25.9h2.7v31.6H142v2.6h-14.9V25.9z"/>
			<path class="st2" d="M47.9,25.9h7.5c5.8,0,9.3,3.7,9.3,8.9c0,3.3-1.4,5.7-3.7,7c4.7,0.7,7.8,3.9,7.8,8.9c0,5.7-3.9,9.3-9.7,9.3
				H47.9V25.9z M50.7,28.5v12.9h4.6c4.3,0,6.7-2.6,6.7-6.5c0-3.9-2.5-6.4-6.7-6.4H50.7z M50.7,44.1v13.3H59c4.2,0,7-2.6,7-6.7
				c0-4.1-2.8-6.6-7-6.6H50.7z"/>
			<path class="st1" d="M97.8,25.9h10.1c6,0,9.8,3.9,9.8,9.4c0,2.8-1.2,4.8-2.7,5.9c3.9,1,7,3.8,7,8.6c0,6.2-4.6,10.2-10.8,10.2
				H97.8V25.9z M104.8,32.3v7.2h2.6c2.2,0,3.4-1.3,3.4-3.6c0-2.3-1.1-3.6-3.4-3.6H104.8z M104.8,46.1v7.3h6.1c2.4,0,3.9-1.2,3.9-3.6
				c0-2.3-1.5-3.7-3.8-3.7H104.8z"/>
			<path class="st2" d="M96.7,25.9h7.5c5.8,0,9.3,3.7,9.3,8.9c0,3.3-1.4,5.7-3.7,7c4.7,0.7,7.8,3.9,7.8,8.9c0,5.7-3.9,9.3-9.7,9.3
				H96.7V25.9z M99.4,28.6v12.9h4.6c4.2,0,6.7-2.6,6.7-6.5c0-3.9-2.5-6.4-6.7-6.4H99.4z M99.4,44.1v13.3h8.3c4.2,0,7-2.6,7-6.7
				c0-4.1-2.8-6.6-7-6.6H99.4z"/>
			<g>
				<path class="st1" d="M80.6,25.9h6.9v34.2h-6.9V25.9z"/>
				<path class="st3" d="M79.5,25.9h2.7v34.2h-2.7V25.9z"/>
			</g>
			<g>
				<path class="st1" d="M153.8,25.9h6.9V60h-6.9V25.9z"/>
				<path class="st2" d="M152.7,25.9h2.7V60h-2.7V25.9z"/>
			</g>
			<path class="st2" d="M181.7,25.7c10,0,17.2,7.3,17.2,17.2s-7.3,17.2-17.2,17.2s-17.2-7.3-17.2-17.2S171.7,25.7,181.7,25.7z
				 M181.7,56.2c7.6,0,13.1-5.8,13.1-13.3s-5.5-13.3-13.1-13.3s-13.1,5.8-13.1,13.3S174.1,56.2,181.7,56.2z"/>
			<path class="st2" d="M215.2,29.7V60h-4.1V29.7h-8.9v-3.9h21.9v3.9H215.2z"/>
			<path class="st2" d="M233.9,60V25.8h16v3.9H238v8.2h11.9v3.9H238v14.5h11.9V60H233.9z"/>
			<path class="st1" d="M282.8,35.1c-1.8-1.7-4.3-2.8-7.1-2.8c-5.9,0-10.3,4.7-10.3,10.7c0,5.9,4.3,10.7,10.3,10.7
				c2.9,0,5.5-1.2,7.3-2.9l4.7,4.7c-3,2.9-7,4.6-12,4.6c-9.9,0-17.1-7.2-17.1-17.1s7.2-17.1,17.1-17.1c4.7,0,8.6,1.6,11.6,4.4
				L282.8,35.1z"/>
			<path class="st2" d="M284.6,33.1c-2.3-2.2-5.4-3.5-9-3.5c-7.5,0-13,5.7-13,13.2c0,7.5,5.5,13.2,13,13.2c3.7,0,6.9-1.4,9.2-3.7
				l2.9,2.9c-3,3-7.2,4.6-12.1,4.6c-9.9,0-17.1-7.2-17.1-17.1s7.2-17.1,17.1-17.1c4.7,0,8.8,1.6,11.8,4.4L284.6,33.1z"/>
			<path class="st1" d="M321.5,60h-7.4l-3.7-11.2h-9.3L297.2,60h-7.4l12.5-34.2h7.2L321.5,60z M305.9,35.1l-2.6,7.4h5L305.9,35.1z"
				/>
			<path class="st2" d="M317.1,60.1h-3l-4.7-13.4h-12l-4.7,13.4h-3L302,25.9h2.9L317.1,60.1z M298.3,44h10.2l-5-14.4L298.3,44z"/>
		</g>
	</g>
</g>
</svg>
