<?xml version="1.0" encoding="utf-8"?>
<!-- Generator: Adobe Illustrator 19.1.0, SVG Export Plug-In . SVG Version: 6.00 Build 0)  -->
<svg version="1.1" xmlns="http://www.w3.org/2000/svg" xmlns:xlink="http://www.w3.org/1999/xlink" x="0px" y="0px"
	 viewBox="0 0 324 62.6" style="enable-background:new 0 0 324 62.6;" xml:space="preserve">
<style type="text/css">
	.st0{fill:#3F4A74;}
	.st1{fill:#EC5F69;}
	.st2{fill:#F29A7F;}
	.st3{fill:#EFEF9F;}
	.st4{fill:#62B0C1;stroke:#62B0C1;stroke-width:0.5;stroke-miterlimit:10;}
	.st5{fill:#3F4A74;stroke:#3F4A74;stroke-width:0.9805;stroke-miterlimit:10;}
	.st6{fill:#62B0C1;}
	.st7{fill:#62B0C1;stroke:#62B0C1;stroke-width:0.9;stroke-miterlimit:10;}
</style>
<g id="Layer_1">
</g>
<g id="original_font">
	<g>
		<path class="st0" d="M8.5,37.9c0.5-0.4,1-0.8,1.6-1.4c0.2-0.2,0.4-0.4,0.6-0.5c0.1-0.1,0.3-0.3,0.4-0.5c0.1-0.2,0.2-0.4,0.3-0.7
			c0.1-0.3,0.2-0.7,0.4-1.2h0c-0.2,0.5-0.5,0.8-0.8,1.1c-0.3,0.3-0.6,0.5-1,0.7c-0.4,0.2-0.7,0.5-1.1,0.9c-0.4,0.3-0.7,0.8-1,1.3v0
			c0.3-0.7,0.4-1.4,0.6-1.9c0.1-0.5,0.2-1,0.3-1.3c0.1-0.4,0.2-0.7,0.4-1c0.2-0.3,0.4-0.6,0.7-0.8v0c-0.8,0.2-1.4,0.7-1.9,1.4
			c-0.5,0.7-0.7,1.5-0.7,2.4v3C7.7,38.7,8.1,38.3,8.5,37.9z M10.6,34.2c0.4-0.4,0.8-0.8,1.1-1.3c0.3-0.4,0.6-0.8,0.9-1.2
			c0.3-0.4,0.6-0.7,1-1l0,0c-0.3,0.2-0.6,0.4-1,0.5c-0.4,0.1-0.8,0.3-1.2,0.6c-0.4,0.3-0.8,0.7-1.2,1.2c-0.4,0.6-0.7,1.4-1,2.4
			C9.7,35,10.2,34.7,10.6,34.2z M5.8,45.4c0.3,0.4,0.6,0.8,1,1.3c0.4,0.4,0.7,0.9,1,1.5h0c0-0.2-0.1-0.5-0.1-0.7v-0.6
			c0-0.2,0.1-0.6,0.2-1.1c0.2-0.5,0.3-1.1,0.5-1.7c0.2-0.6,0.3-1.3,0.5-1.9c0.1-0.7,0.2-1.2,0.1-1.7h0c-0.1,0.4-0.2,0.7-0.5,1.1
			c-0.2,0.4-0.4,0.7-0.7,1.1c-0.2,0.4-0.4,0.8-0.6,1.2c-0.2,0.4-0.3,0.9-0.3,1.4c0,0.2,0,0.4,0.1,0.7c0.1,0.3,0.1,0.5,0.1,0.5h0
			c-0.1-0.6-0.3-1.2-0.5-1.8C6.5,44,6.3,43.5,6.1,43c-0.2-0.5-0.4-0.9-0.5-1.3c-0.1-0.4-0.2-0.7-0.2-1c0-0.3,0-0.5,0-0.7
			c0-0.2,0-0.4,0-0.6h0c-0.1,0.2-0.2,0.6-0.3,1.1c-0.1,0.5-0.2,1-0.2,1.4c0,0.9,0.1,1.5,0.3,2.1C5.3,44.5,5.5,45,5.8,45.4z
			 M13.5,56.9c0.1,0,0.3,0,0.5,0c0.2,0,0.4,0,0.6,0c0.2,0,0.5-0.1,0.8-0.1c0.3-0.1,0.7-0.1,1.2-0.3c0.5-0.1,1.2-0.3,2-0.5
			c-0.5-0.1-1-0.3-1.4-0.4c-0.4-0.1-0.8-0.4-1.2-0.7c-0.5-0.4-1-0.9-1.4-1.3c-0.4-0.4-0.8-0.7-1.2-1c-0.1-0.1-0.7-0.6-0.8-0.8l0,0
			c0.1,0.1,0.6,1.2,0.6,1.2s0.1,0.1,0.1,0.2c0.1,0.3,0.3,0.5,0.4,0.8c0.1,0.1,0.1,0.2,0.2,0.3c0.2,0.3,0.4,0.6,0.7,0.8
			c0.4,0.3,1,0.6,1.8,0.9v0c-0.4-0.1-0.7-0.1-0.9-0.1c-0.3,0-0.5-0.1-0.7-0.1c-0.2,0-0.4-0.1-0.6-0.1c-0.3,0-0.5,0-0.8-0.1
			c-0.2,0-0.4-0.1-0.6-0.1c-0.2,0-0.4,0-0.6-0.1c-0.1,0-0.2,0-0.3,0c-0.4,0-0.7-0.1-1.1-0.2c-0.3-0.1-0.6-0.2-1-0.4
			c-0.3-0.2-0.7-0.4-1-0.8l0,0c0.1,0.3,0.3,0.5,0.6,0.8c0.2,0.3,0.5,0.6,0.9,0.9c0.4,0.3,0.8,0.5,1.3,0.7c0.5,0.2,1,0.3,1.7,0.4
			C13.1,56.9,13.4,56.9,13.5,56.9z M6.9,43.6L6.9,43.6C7,43.3,7,43.1,7.1,42.9c0.1-0.2,0.2-0.4,0.3-0.7c0.2-0.3,0.4-0.6,0.7-1
			c0.3-0.4,0.7-0.9,1.1-1.6c0.3-0.4,0.5-0.9,0.7-1.5c0.2-0.6,0.3-1,0.3-1.2h0C10.1,37,10,37.1,10,37.2c-0.1,0.1-0.2,0.2-0.3,0.3
			c-0.1,0.1-0.3,0.3-0.4,0.4c-0.2,0.2-0.4,0.4-0.7,0.7c-0.6,0.5-0.9,1-1.1,1.4C7.2,40.5,7.1,41,7,41.5h0c0-0.2,0-0.4,0-0.7
			c0-0.2,0-0.5,0-0.8c0-0.4,0-0.9-0.1-1.5c-0.1-0.6-0.1-1.3-0.1-2.2c0-0.3,0.1-0.6,0.2-0.8c0.1-0.3,0.2-0.5,0.3-0.7h0
			c-0.6,0.8-1,1.5-1.2,2.2c-0.2,0.7-0.3,1.3-0.3,2c0,0.7,0.1,1.5,0.4,2.2C6.4,41.9,6.7,42.7,6.9,43.6z M11.3,54.6l1.8,0.4l0.9,0.2
			C13.7,55,13.1,54,13.1,54c-0.2-0.3-0.4-0.7-0.6-1.2c-0.2-0.5-0.4-1.1-0.7-1.9c-0.1-0.3-0.2-0.5-0.3-0.7c-0.1-0.2-0.2-0.4-0.3-0.6
			c-0.1-0.2-0.3-0.5-0.5-0.7c-0.2-0.3-0.4-0.6-0.7-1l0,0c0.1,0.3,0.2,0.8,0.4,1.5c0.2,0.7,0.3,1.4,0.4,2.1c0.1,0.5,0.3,0.9,0.6,1.3
			c0.3,0.4,0.7,0.8,1.2,1.3l0,0c-0.2-0.1-0.5-0.3-1-0.7c-0.5-0.4-1-0.7-1.5-1c-1.1-0.5-1.9-1-2.5-1.4c-0.6-0.4-1.1-1-1.4-1.7l0,0
			c0.2,0.7,0.4,1.3,0.8,1.9C7.1,52,7.5,52.5,8,53c0.5,0.4,1,0.8,1.6,1.1C10.2,54.3,10.8,54.5,11.3,54.6z M7.3,50.2l3.1,2.1
			c-0.1-0.3-0.3-0.6-0.4-0.8C10,51.3,10,51,9.9,50.7c-0.1-0.3-0.1-0.7-0.1-1c0-0.4-0.1-0.8-0.1-1.4c-0.1-0.9-0.2-1.7-0.3-2.2
			c-0.1-0.5-0.2-1.1-0.5-1.7h0c0,0.5,0,0.9-0.1,1.2c0,0.3-0.1,0.7-0.2,0.9c-0.1,0.3-0.1,0.5-0.2,0.8c0,0.2-0.1,0.5-0.1,0.8
			c0,0.3,0.1,0.7,0.3,1.2c0.2,0.5,0.4,0.9,0.5,1.2l0,0c-0.5-0.8-1-1.4-1.4-1.9c-0.5-0.5-0.9-1-1.3-1.4c-0.4-0.4-0.7-0.8-1-1.2
			c-0.3-0.4-0.4-0.9-0.5-1.5c0,0.1-0.1,0.3-0.1,0.4c0,0.1,0,0.3,0,0.4c0,0.5,0.1,1,0.3,1.5c0.2,0.5,0.4,1,0.6,1.4
			c0.3,0.4,0.5,0.8,0.8,1.1C6.8,49.8,7.1,50.1,7.3,50.2z M33.2,31.8c0.3,0.4,0.6,0.8,0.9,1.2c0.3,0.4,0.7,0.8,1.1,1.3
			c0.4,0.4,0.9,0.8,1.4,1.2c-0.3-1.1-0.6-1.9-1-2.4c-0.4-0.6-0.8-1-1.2-1.2c-0.4-0.3-0.8-0.4-1.2-0.6c-0.4-0.1-0.7-0.3-1-0.5l0,0
			C32.6,31,32.9,31.4,33.2,31.8z M36,54.8c-0.3,0.2-0.6,0.3-1,0.4c-0.3,0.1-0.7,0.1-1.1,0.2c-0.1,0-0.2,0-0.3,0
			c-0.2,0-0.4,0-0.6,0.1c-0.2,0-0.4,0.1-0.6,0.1c-0.3,0-0.5,0.1-0.8,0.1c-0.2,0-0.4,0-0.6,0.1c-0.2,0-0.4,0.1-0.7,0.1
			c-0.2,0-0.6,0.1-0.9,0.1v0c0.8-0.3,1.4-0.6,1.8-0.9c0.3-0.2,0.5-0.5,0.7-0.8c0.1-0.1,0.1-0.2,0.2-0.3c0.1-0.3,0.3-0.5,0.4-0.8
			c0-0.1,0.1-0.2,0.1-0.2s0.5-1.1,0.6-1.2l0,0c-0.2,0.2-0.7,0.7-0.8,0.8c-0.4,0.3-0.8,0.7-1.2,1c-0.5,0.5-1,0.9-1.4,1.3
			c-0.4,0.4-0.8,0.6-1.2,0.7c-0.4,0.1-0.9,0.3-1.4,0.4c0.8,0.2,1.5,0.4,2,0.5c0.5,0.1,0.9,0.2,1.2,0.3c0.3,0.1,0.6,0.1,0.8,0.1
			c0.2,0,0.4,0,0.6,0c0.2,0,0.3,0,0.5,0c0.1,0,0.4,0,0.4,0c0.6-0.1,1.2-0.2,1.7-0.4c0.5-0.2,0.9-0.4,1.3-0.7
			c0.4-0.3,0.7-0.6,0.9-0.9c0.2-0.3,0.4-0.6,0.6-0.8l0,0C36.7,54.4,36.3,54.6,36,54.8z M38.4,51.2c-0.6,0.4-1.5,0.9-2.5,1.4
			c-0.5,0.3-1.1,0.6-1.5,1c-0.5,0.4-0.8,0.6-1,0.7l0,0c0.5-0.4,0.9-0.8,1.2-1.3c0.3-0.4,0.5-0.9,0.6-1.3c0.1-0.7,0.3-1.3,0.4-2.1
			c0.2-0.7,0.3-1.3,0.4-1.5l0,0c-0.3,0.4-0.5,0.7-0.7,1c-0.2,0.3-0.3,0.5-0.5,0.7c-0.1,0.2-0.2,0.4-0.3,0.6
			c-0.1,0.2-0.2,0.4-0.3,0.7c-0.3,0.8-0.6,1.4-0.7,1.9c-0.2,0.5-0.4,0.9-0.6,1.2c0,0-0.6,0.9-0.9,1.2l0.9-0.2l1.8-0.4
			c0.6-0.1,1.1-0.3,1.7-0.6c0.6-0.3,1.1-0.6,1.6-1.1c0.5-0.4,0.9-0.9,1.3-1.5c0.4-0.6,0.6-1.2,0.8-1.9l0,0
			C39.5,50.2,39,50.8,38.4,51.2z M39.7,43c-0.2,0.5-0.4,1-0.6,1.6c-0.2,0.6-0.4,1.2-0.5,1.8h0c0-0.1,0-0.2,0.1-0.5
			c0.1-0.3,0.1-0.5,0.1-0.7c0-0.5-0.1-1-0.3-1.4c-0.2-0.4-0.4-0.9-0.6-1.2c-0.2-0.4-0.4-0.8-0.7-1.1c-0.2-0.4-0.4-0.7-0.5-1.1h0
			c-0.1,0.5,0,1.1,0.1,1.7c0.1,0.7,0.3,1.3,0.5,1.9c0.2,0.6,0.3,1.2,0.5,1.7c0.2,0.5,0.2,0.9,0.2,1.1v0.6c0,0.2,0,0.5-0.1,0.7h0
			c0.3-0.6,0.7-1.1,1-1.5c0.4-0.4,0.7-0.8,1-1.3c0.3-0.4,0.5-0.9,0.7-1.4c0.2-0.5,0.3-1.2,0.3-2.1c0-0.4-0.1-0.9-0.2-1.4
			c-0.1-0.5-0.2-0.9-0.3-1.1h0c0,0.3,0,0.5,0,0.6c0,0.2,0,0.4,0,0.7c0,0.3-0.1,0.6-0.2,1C40.1,42.1,39.9,42.6,39.7,43z M38.4,40.1
			c-0.2-0.4-0.5-0.9-1.1-1.4c-0.3-0.3-0.6-0.5-0.7-0.7c-0.2-0.2-0.3-0.3-0.4-0.4c-0.1-0.1-0.2-0.2-0.3-0.3c-0.1-0.1-0.1-0.2-0.2-0.4
			h0c0.1,0.3,0.2,0.7,0.3,1.2c0.2,0.6,0.4,1.1,0.7,1.5c0.5,0.7,0.9,1.2,1.1,1.6c0.3,0.4,0.5,0.7,0.7,1c0.2,0.3,0.3,0.5,0.3,0.7
			c0.1,0.2,0.1,0.4,0.1,0.7h0.1c0.2-0.9,0.5-1.7,0.7-2.5c0.3-0.8,0.4-1.5,0.4-2.2c0-0.7-0.1-1.3-0.3-2c-0.2-0.7-0.6-1.4-1.2-2.2h0
			c0.1,0.2,0.2,0.5,0.3,0.7c0.1,0.3,0.2,0.5,0.2,0.8c0,0.9,0,1.6-0.1,2.2c-0.1,0.6-0.1,1.1-0.1,1.5c0,0.3,0,0.6,0,0.8
			c0,0.2,0,0.4,0,0.7h0C38.7,41,38.6,40.5,38.4,40.1z M36.5,33.3c0.2,0.3,0.3,0.6,0.4,1c0.1,0.4,0.2,0.8,0.3,1.3
			c0.1,0.5,0.3,1.1,0.6,1.9v0c-0.3-0.6-0.6-1-1-1.3c-0.4-0.3-0.7-0.6-1.1-0.9c-0.4-0.2-0.7-0.5-1-0.7c-0.3-0.3-0.5-0.6-0.7-1.1h0
			c0.2,0.5,0.3,0.9,0.4,1.2c0.1,0.3,0.2,0.5,0.3,0.7c0.1,0.2,0.2,0.4,0.4,0.5c0.1,0.1,0.3,0.3,0.6,0.5c0.6,0.5,1.2,1,1.6,1.4
			c0.5,0.4,0.8,0.8,1.1,1.3v-3c0-0.9-0.2-1.7-0.7-2.4c-0.5-0.7-1.1-1.2-1.9-1.4v0C36.1,32.7,36.4,33,36.5,33.3z M31.6,57.8
			c-0.3,0-0.5,0-0.7-0.1c-0.2,0-0.5-0.1-0.8-0.1v0c-0.3-0.1-0.5-0.2-0.9-0.3c-0.3-0.1-0.7-0.3-1.2-0.4c-0.8-0.3-1.4-0.5-1.8-0.6
			C25.8,56.1,25.4,56,25,56c-0.4,0-0.8,0-1.2,0.1c-0.4,0.1-0.7,0.2-0.9,0.2c-0.2-0.1-0.5-0.1-0.9-0.2c-0.5-0.1-0.9-0.1-1.2-0.1
			c-0.4,0-0.8,0.1-1.2,0.2c-0.4,0.1-1,0.4-1.8,0.6c-0.9,0.3-1.6,0.6-2.1,0.7c-0.5,0.1-0.9,0.2-1.4,0.2c-0.2,0-0.4,0-0.6,0
			c-0.2,0-0.4-0.1-0.5-0.1c0,0-0.4-0.1-0.6-0.2c-0.2-0.1-0.5-0.2-0.8-0.4l0,0c0.5,0.5,1.5,1.1,1.5,1.1c0.8,0.5,1.6,0.7,2.4,0.7
			c0.3,0,0.6,0,0.9-0.1c0.3,0,0.5-0.1,0.8-0.2c0.3-0.1,0.6-0.3,0.9-0.4c0.3-0.2,0.7-0.4,1.2-0.7c0.5-0.3,0.9-0.6,1.2-0.7
			c0.3-0.2,0.7-0.3,1.1-0.3c0.2,0,0.3,0,0.5,0.1c-0.6,0.3-1.2,0.7-1.9,1.1c-0.7,0.4-1.4,1-2.1,1.8l0.7,0.6c0.6-0.7,1.3-1.4,2.1-2
			c0.7-0.6,1.4-1,2-1.2c0.6,0.2,1.2,0.6,2,1.2c0.8,0.6,1.5,1.3,2.1,2l0.7-0.6c-0.7-0.7-1.4-1.3-2.1-1.8c-0.7-0.4-1.4-0.8-2-1.1
			c0.2-0.1,0.4-0.1,0.6-0.1c0.4,0,0.8,0.1,1.1,0.3c0.3,0.2,0.7,0.4,1.2,0.7c0.4,0.3,0.8,0.5,1.1,0.7c0.3,0.2,0.6,0.3,0.9,0.4
			c0.3,0.1,0.5,0.2,0.8,0.2c0.3,0.1,0.5,0.1,0.8,0.1v0h0.2c0.6,0,1.2-0.1,1.9-0.4c0.7-0.3,1.3-0.8,1.9-1.4v0
			c-0.6,0.3-1.1,0.5-1.4,0.6C32.4,57.7,32,57.8,31.6,57.8z M41,45.4c0,0,0-0.1,0-0.1c0-0.1,0-0.1,0-0.2c0-0.1,0-0.3-0.1-0.4
			c-0.1,0.6-0.3,1.1-0.5,1.5c-0.3,0.4-0.6,0.8-1,1.2c0,0,0,0-0.1,0.1c-0.4,0.4-0.8,0.8-1.2,1.3c-0.5,0.5-0.9,1.1-1.4,1.9l0,0
			c0.2-0.3,0.3-0.7,0.5-1.2c0.2-0.5,0.3-0.9,0.3-1.2c0-0.3,0-0.6-0.1-0.8c0-0.2-0.1-0.5-0.1-0.8c-0.1-0.3-0.1-0.6-0.1-0.9
			c0-0.3-0.1-0.8-0.1-1.2h0c0,0,0,0,0,0c0,0,0,0,0,0h0c-0.2,0.6-0.4,1.2-0.5,1.7c-0.1,0.5-0.2,1.2-0.3,2.2c-0.1,0.5-0.1,1-0.1,1.4
			c0,0.4-0.1,0.7-0.1,1c-0.1,0.3-0.1,0.6-0.2,0.9c-0.1,0.2-0.2,0.4-0.3,0.7c0,0,0,0.1-0.1,0.1l0,0c0,0,0,0,0,0l1.1-0.7l2.1-1.4
			c0.3-0.2,0.5-0.4,0.8-0.7c0.3-0.3,0.6-0.7,0.8-1.1c0.1-0.3,0.3-0.5,0.4-0.8c0.1-0.2,0.2-0.4,0.2-0.6C40.9,46.5,41,46,41,45.4
			C41,45.5,41,45.5,41,45.4C41,45.5,41,45.5,41,45.4C41,45.5,41,45.5,41,45.4z M28.6,32.9c0.1,0,0.1,0.1,0.2,0.1
			c0.1,0.1,0.1,0.1,0.1,0.2c0,0.1,0.1,0.1,0.1,0.1c0.1,0,0.1,0,0.1-0.1c0-0.1,0-0.1,0-0.1c0,0,0,0,0-0.1c0-0.1,0-0.2-0.1-0.3
			c-0.1-0.1-0.2-0.1-0.4-0.1c0,0-0.1,0-0.1,0h0c-0.1,0-0.1,0-0.1,0.1C28.5,32.8,28.6,32.9,28.6,32.9z M24.1,31.9L24.1,31.9
			c0.3-0.1,0.5-0.1,0.6-0.1h0.6c0.1,0,0.2,0,0.3-0.1c0.1-0.1,0.1-0.1,0.1-0.2c-0.1-0.2-0.3-0.3-0.5-0.3c-0.2,0-0.3,0-0.4,0
			c-0.1,0-0.2,0.1-0.5,0.2c-0.3,0.1-0.5,0.2-0.5,0.2c-0.1,0-0.2,0-0.3,0.1c0.1,0.1,0.1,0.1,0.2,0.2C23.8,31.8,23.9,31.9,24.1,31.9z
			 M22.8,55.2c7.1,0,12.9-5.8,12.9-12.9c0-7.1-5.8-12.9-12.9-12.9c-7.1,0-12.9,5.8-12.9,12.9C10,49.4,15.7,55.2,22.8,55.2z
			 M10.6,42.7h2c0,0.9,0.2,1.7,0.4,2.5c-0.1,0-0.1,0-0.1-0.1l-0.1-0.1l-0.2-0.3l-0.4,0.1c0,0.2-0.1,0.3-0.2,0.2
			C11.9,45,11.9,45,11.8,45c-0.2,0-0.4,0.1-0.4,0.4c0,0.2-0.1,0.4-0.1,0.5l0.3,0.8c0.1,0.1,0.1,0.1,0.3,0c0.1,0.1,0.2,0.2,0.3,0.3
			c0.1,0.1,0.1,0.1,0.2,0.1c0.1,0,0.1,0,0.1-0.1h0c0.1,0.1,0.1,0.1,0.2,0.2c0.1,0.1,0.1,0.1,0.2,0.2v0c0.1,0.1,0.2,0.2,0.4,0.2
			c0.1,0.2,0.1,0.4,0.3,0.5c0.1,0.1,0.2,0.2,0.3,0.2c0.1,0,0.1,0,0.2-0.1c0.1,0.2,0.2,0.4,0.2,0.4c0.1,0,0.1,0.1,0.2,0.1
			c0.1,0.1,0.1,0.1,0.2,0.1h0.1c0,0,0,0,0,0c0,0.1,0.1,0.2,0.2,0.3c0.1,0.1,0.2,0.2,0.3,0.2c0,0,0,0,0,0c0,0,0,0,0,0c0,0,0,0,0,0
			c0,0,0.1,0.1,0.1,0.1L14,50.8C12,48.6,10.7,45.8,10.6,42.7z M20.1,39.1c0,0-0.1,0-0.1-0.1l-0.1-0.1c0.7-0.6,1.7-1,2.7-1.1v1.4
			c0,0,0,0-0.1,0c0,0,0,0,0,0c0,0,0,0,0,0c0,0,0,0-0.1,0c0,0,0,0,0,0c0,0,0,0,0,0c0,0-0.1,0-0.1,0c0,0-0.1,0-0.1,0c0,0,0,0-0.1,0
			c0,0-0.1-0.1-0.1-0.2c0,0,0,0,0,0c0,0,0,0,0,0c-0.1,0.1-0.2,0.1-0.2,0.2c0,0.1,0,0.2-0.1,0.3c0,0.1-0.1,0.2-0.2,0.2
			c-0.1,0-0.2,0.1-0.3,0.2l-0.1-0.1h-0.2c-0.1-0.1-0.1-0.1-0.1-0.1c0,0-0.1,0-0.1-0.1c0,0,0,0,0,0c-0.1,0-0.1,0-0.1,0.1l-0.1-0.1
			l0,0v-0.1C20.3,39.3,20.2,39.2,20.1,39.1z M19.4,38.4L18,37.1c1.2-1.1,2.8-1.8,4.5-1.9v1.9C21.3,37.2,20.2,37.7,19.4,38.4z
			 M20.1,44.6c0.1-0.1,0-0.2,0.1-0.3L20,44.5c0.1-0.1,0.2-0.2,0.3-0.3c0-0.1,0.1-0.2,0.1-0.2c0,0,0,0,0,0c0,0.1,0.1,0.2,0.2,0.3
			l-1.2,1.2c-0.5-0.5-0.8-1.2-1-1.9c0.1,0,0.2,0,0.3,0.1c0,0,0.3,0.2,0.3,0.2c0.1,0,0.1,0,0.2,0l0.2,0.1c0,0.1,0,0.2,0,0.2
			c0,0,0,0.1,0.1,0.1c0.1,0,0.1,0.1,0.2,0.2l0.1,0c0,0,0-0.1,0-0.2c0-0.1,0-0.1,0-0.1l0.1,0.3l0.1,0.3l0,0
			C20,44.7,20,44.7,20.1,44.6z M22.6,46c0.1,0.1,0.1,0.1,0.1,0.1c0,0.1-0.1,0.1-0.3,0.1c-0.1,0-0.1,0.1-0.2,0.2
			c0,0.2-0.1,0.3-0.1,0.4c0,0,0,0-0.1,0c0,0,0,0,0,0c-0.9-0.1-1.6-0.5-2.3-1.1l1.2-1.2c0.4,0.4,1,0.7,1.6,0.7c0,0.1,0,0.2,0,0.2
			c-0.1,0.1-0.1,0.1-0.1,0.2C22.5,45.8,22.6,45.9,22.6,46z M16.9,46c0-0.4-0.1-0.6-0.1-0.7c0-0.1-0.1-0.2-0.1-0.4
			c0-0.3-0.1-0.4-0.1-0.6c-0.1-0.1-0.2-0.3-0.4-0.5v-0.2c0,0,0-0.1-0.1-0.3v0c0-0.1,0-0.1,0.1-0.1c0,0,0.2-0.1,0.5-0.2
			c0-0.2,0-0.3,0-0.4l0.3,0.1c0.1,0,0.1-0.1,0.1-0.2c0,0,0-0.1-0.1-0.3c-0.1-0.1-0.1-0.3-0.1-0.3c0-0.1,0-0.1,0.1-0.2
			c0.1,0,0.2-0.1,0.3-0.1c0.1,0,0.2,0,0.3,0.1c0.1,0.1,0.1,0.2,0.1,0.3c0,0.1,0,0.2,0,0.2c0,0.1,0,0.1,0,0.2l0.1,0
			c-0.1,0.3-0.2,0.4-0.3,0.4c-0.1,0-0.1,0-0.2-0.1c0-0.1-0.1-0.1-0.1-0.1c0,0,0,0,0,0c0,0.1,0,0.1,0,0.2c0,0.1,0,0.1,0,0.2
			c0,0.2-0.1,0.3-0.3,0.2c-0.1,0.1,0,0.2,0.2,0.2c0.1,0.2,0.1,0.2,0.2,0.2c0,0,0.1-0.1,0.1-0.3c0-0.2,0.1-0.3,0.1-0.3l0,0l0.2,0
			c0,0,0,0,0,0.1c0,0,0,0,0.1,0c0.2,1,0.6,1.8,1.2,2.5l-1.8,1.8C17,47.6,17,47.5,17,47.4c0-0.2,0.2-0.3,0.2-0.5c0,0,0-0.3,0-0.3
			C17.1,46.3,16.9,46.1,16.9,46z M15.9,43.4c0,0.1,0,0.1,0,0.2c0,0.1,0,0.1-0.1,0.1c0,0,0,0,0,0c-0.1-0.3-0.1-0.6-0.1-1h0.4
			c0,0.1,0,0.1,0,0.2c0,0.1-0.1,0.1-0.1,0.2c0,0.1-0.1,0.1-0.1,0.2C15.9,43.3,15.9,43.3,15.9,43.4z M15.7,42
			c0.1-1.7,0.8-3.3,1.9-4.5l1.3,1.3c0,0,0,0,0,0c-0.1,0-0.2,0-0.2,0.1c-0.1,0.1-0.1,0.1-0.2,0.3c-0.2,0.1-0.3,0.2-0.4,0.2
			c-0.1,0.1-0.2,0.2-0.3,0.3c-0.2,0.1-0.3,0.1-0.3,0.2c0,0-0.1,0-0.2,0.1c0.1,0.1,0.1,0.2,0,0.2c-0.1,0-0.2,0-0.4,0.1
			c0,0-0.1,0-0.1,0l-0.1,0.1c0,0.1,0,0.1,0,0.2c0,0,0,0.1,0,0.1c-0.1,0.1-0.2,0.1-0.2,0.2c0,0.1,0,0.2,0,0.4l0.1,0.4c0,0,0,0,0,0
			c0,0,0,0.1,0,0.1H15.7z M19.4,46.3c0.6,0.6,1.4,1,2.3,1.2c-0.1,0-0.1,0-0.2,0.1c-0.1,0-0.2,0.1-0.3,0.3c0,0.2-0.1,0.3-0.2,0.3
			c-0.1,0-0.1,0.1-0.1,0.2c0.1,0.1,0.2,0.3,0.3,0.5c0.1,0.2,0.2,0.3,0.4,0.4l0.3,0.1c0.1,0,0.2,0,0.3,0.1c0.1,0,0.2,0,0.2,0
			c-1.7-0.1-3.2-0.8-4.3-1.8L19.4,46.3z M17.6,36.6l-1.3-1.3c1.6-1.5,3.8-2.5,6.2-2.6v1.8C20.6,34.7,18.9,35.4,17.6,36.6z
			 M17.1,37.1c-1.2,1.3-2,3-2,4.9h-1.8c0.1-2.4,1-4.6,2.6-6.2L17.1,37.1z M15.1,42.7c0,0.3,0,0.6,0.1,0.9c0,0,0-0.1-0.1-0.1
			c-0.1-0.1-0.2-0.2-0.3-0.2c-0.1,0-0.1,0-0.2,0.1c0,0.1-0.1,0.1-0.1,0.2c-0.2,0.1-0.4,0.2-0.5,0.2c-0.1,0.1-0.2,0.3-0.3,0.5
			c0,0.1,0,0.1,0,0.2c0,0.1,0,0.1-0.1,0.2c0.1,0.1,0.1,0.2,0,0.2c0,0.1,0,0.1,0,0.1c0,0-0.1,0-0.1,0c0,0,0,0.1-0.1,0.1
			c-0.2-0.8-0.4-1.6-0.4-2.4H15.1z M22.5,54.6c-3.1-0.1-6-1.3-8.1-3.3l1.4-1.4c1.8,1.7,4.1,2.7,6.7,2.8V54.6z M22.5,52
			c-2.4-0.1-4.6-1-6.2-2.6c0.1,0.1,0.2,0.1,0.4,0.1c0.1,0,0.2,0,0.3-0.1c0.1-0.1,0.3-0.1,0.4-0.2c0.2,0,0.3,0,0.4-0.1
			c0.1,0,0.2,0,0.3,0c0.1,0,0.2-0.1,0.2-0.2c0-0.1-0.1-0.2-0.2-0.2c-0.1-0.1-0.2-0.1-0.2-0.2c0,0,0-0.1-0.1-0.1c0,0-0.1-0.1-0.3-0.3
			l0,0c1.3,1.2,3,2,4.9,2V52z M22.9,47.2L22.9,47.2c-0.2,0-0.4,0-0.4-0.1c0,0,0-0.1,0-0.1c0,0,0.1-0.1,0.2-0.1
			c0.1-0.1,0.2-0.1,0.3-0.1l0-0.1l0.3-0.2c0.1,0,0.1,0,0.1,0c0,0,0.1,0,0.2-0.1c0,0,0.1,0,0.3,0.2c0.2,0.1,0.3,0.1,0.3,0.1l0-0.2
			c0.1,0,0.1,0.1,0.3,0.2c0.1,0,0.1,0,0.2-0.1c0-0.1,0-0.2,0-0.2c0,0,0.1,0,0.1,0c0,0,0,0,0.1,0c0,0,0,0,0.1,0h0
			c0.1,0,0.1,0,0.2-0.1c0.1-0.1,0.2-0.1,0.2-0.1c0,0,0.1,0,0.1,0c0,0,0,0.1,0,0.2c0,0.2-0.1,0.4-0.4,0.5C25,46.9,24.8,47,24.6,47
			c0,0-0.1,0.1-0.1,0.2c0,0.1-0.1,0.1-0.1,0.1c-0.1,0-0.3,0-0.5-0.1c0,0-0.1-0.1-0.1-0.3c-0.1,0-0.2,0-0.3,0L23,47.2
			C23,47.2,22.9,47.2,22.9,47.2z M24.7,45.8c0-0.1,0.1-0.2,0.2-0.3c0.1,0,0.2-0.1,0.3-0.1c0,0.1-0.1,0.2-0.2,0.3
			C24.9,45.8,24.8,45.8,24.7,45.8L24.7,45.8z M26,44.7c0.1,0.1,0.2,0.2,0.2,0.3c0,0.1-0.1,0.2-0.2,0.2c-0.1,0-0.2-0.1-0.2-0.3
			c-0.2-0.1-0.3-0.1-0.3-0.3c0-0.1,0-0.2,0-0.2c0.1,0,0.1-0.1,0.2-0.1c0.1,0,0.1,0,0,0.2C25.8,44.6,25.9,44.7,26,44.7z M30.2,37.5
			C30.2,37.5,30.2,37.6,30.2,37.5c0.2,0,0.3,0.1,0.4,0.1c0.1,0.1,0.3,0.3,0.5,0.6c0,0,0.1,0,0.1,0.1c0,0.1,0.1,0.1,0.2,0.1
			c0.1,0,0.1,0,0.2-0.1c0,0,0-0.1,0-0.1c0.5,1.1,0.8,2.4,0.9,3.7h-1.8c0,0,0,0,0,0c0-0.2,0-0.3-0.1-0.5c-0.1-0.2-0.1-0.4-0.1-0.6
			c0-0.2,0.1-0.3,0-0.4c-0.1,0-0.1,0-0.2,0c0,0-0.1,0.1-0.1,0.2c0,0.1-0.1,0.2-0.1,0.2v0c0,0,0,0.1,0,0.1c0,0,0,0,0,0.1
			c0,0.1-0.1,0.2-0.1,0.3c0,0.1,0,0.2,0,0.3c0,0,0,0,0,0c0,0,0,0.1,0,0.1H29c0.1-0.1,0.1-0.1,0.2-0.1h0l0.3-0.1
			c-0.1,0-0.1-0.1-0.1-0.1c0-0.1,0-0.1,0-0.1c0,0,0.1,0,0.2-0.1c0.1-0.1,0.1-0.2,0.2-0.4c0.1-0.2,0.3-0.6,0.3-0.8
			c0-0.1-0.1-0.2-0.1-0.2c0-0.1,0-0.1,0-0.2c0-0.3,0.1-0.8-0.2-0.9c0,0,0,0,0-0.1c0.1-0.1,0.1-0.2,0.1-0.3h-0.3c0,0,0-0.1,0.1-0.2
			c0-0.1,0.1-0.1,0.1-0.2c0-0.1,0-0.1-0.1-0.1c-0.1,0-0.2,0-0.2,0c-0.1,0-0.1,0-0.1,0c0,0,0,0-0.1,0c0,0,0-0.1-0.1-0.1
			c0-0.1-0.1-0.3-0.2-0.4c-0.1-0.1-0.2-0.2-0.3-0.3c0,0,0,0,0,0c0-0.1,0-0.1,0-0.2l0.4-0.4l0.5,0.2c0,0.1,0,0.2,0.1,0.3
			c0,0,0.1,0.1,0.2,0.1c0.1,0.1,0.1,0.1,0.2,0.2v0C30.1,37.5,30.1,37.5,30.2,37.5z M28.4,50c0,0-0.1,0-0.1,0c0,0-0.1,0-0.1-0.1
			c0-0.1,0-0.1,0.1-0.2c0.1-0.1,0.2-0.2,0.2-0.3c0.1-0.1,0.1-0.2,0.1-0.3c0-0.1,0-0.1-0.1-0.1c0,0-0.1,0-0.2-0.1
			c-0.1,0-0.1-0.1-0.2-0.1c-0.1,0-0.2-0.1-0.2-0.1c-0.1-0.1-0.1-0.1-0.1-0.2c0,0,0-0.1,0.1-0.2c0,0,0-0.1,0-0.1c0,0,0.1-0.1,0.1-0.1
			l1,1c0,0.1,0.1,0.2,0.2,0.2l0.1,0.1c-0.3,0.3-0.7,0.6-1.1,0.9c0,0,0-0.1,0.1-0.1c0,0,0,0,0.1,0C28.4,50.1,28.4,50,28.4,50z
			 M27.8,45.3c-0.1,0-0.2,0-0.3,0c-0.1,0-0.2,0.1-0.3,0.3c0,0,0,0,0,0c-0.1,0-0.1,0-0.2,0c-0.1,0-0.2,0.1-0.2,0.1
			c-0.1,0-0.1,0-0.1-0.1c0-0.1,0.1-0.1,0.4-0.2c0.1-0.1,0.2-0.2,0.2-0.3c0,0,0.1-0.1,0.2-0.1c0.1-0.1,0.2-0.2,0.3-0.3
			c0.1-0.2,0.2-0.2,0.2-0.3h0c0,0.1,0.1,0.2,0.2,0.2c0.1,0,0.2-0.1,0.2-0.3c0.2,0.1,0.3,0.1,0.4,0.1c0.1,0,0.3-0.1,0.3-0.2h0.5
			c0,0,0,0,0,0c0,0,0,0,0,0h0c-0.3,1-0.8,1.8-1.4,2.6c0,0,0-0.1,0-0.1c0,0-0.1-0.4-0.2-0.4c-0.1,0-0.1,0.1-0.2,0.3
			c-0.1,0.2-0.1,0.3-0.2,0.4l-0.4,0.1c-0.1,0-0.2,0-0.4,0c-0.1,0-0.2,0-0.4-0.1c-0.2-0.1-0.3-0.2-0.4-0.2c-0.1,0-0.2-0.1-0.4-0.1
			c-0.2,0-0.2-0.1-0.2-0.1c0-0.1,0.1-0.1,0.2-0.1c0.1,0,0.2,0,0.3,0.1c0.2,0,0.3,0.1,0.5,0.1c0.2,0,0.3,0.1,0.5,0.1
			c0.1,0,0.2,0.1,0.3,0.1l0.3-0.1c0-0.1,0-0.1,0.1-0.2c0.1-0.1,0.1-0.2,0.1-0.2c0.1-0.1,0.1-0.3,0.2-0.5c0-0.2,0.1-0.4,0.1-0.5
			C27.9,45.4,27.9,45.3,27.8,45.3z M28.9,42.7h1c0,0.4-0.1,0.8-0.2,1.3c-0.1-0.2-0.2-0.3-0.2-0.4c-0.1-0.1-0.2-0.2-0.3-0.3
			c0-0.1-0.1-0.2-0.1-0.3c0,0,0-0.1-0.1-0.1C29,42.8,29,42.7,28.9,42.7z M29.3,47.9c-0.1,0-0.1,0-0.1,0.1c0,0,0,0.1,0,0.3l-0.6-0.6
			c0.9-0.9,1.5-2.1,1.8-3.3c0,0,0,0,0,0c0.1,0.1,0.2,0.1,0.3,0c0-0.1,0.1-0.1,0.1-0.1c0-0.1-0.1-0.2-0.2-0.3h-0.1
			c0.1-0.4,0.1-0.7,0.1-1.1h1.8c-0.1,2.4-1,4.6-2.6,6.2l-0.1-0.1c0,0,0,0,0,0c0-0.2-0.1-0.4-0.1-0.6C29.6,48,29.5,47.9,29.3,47.9z
			 M28.9,38.6C28.9,38.6,28.9,38.7,28.9,38.6c0,0.1,0,0.1,0,0.2c0,0.1-0.1,0.2-0.1,0.2c0,0.1,0.1,0.2,0.3,0.3
			c0.2,0.1,0.3,0.2,0.4,0.3c0.1,0.1,0.1,0.3,0.2,0.5c0.1,0.2,0.1,0.4,0.1,0.5c0,0.1-0.1,0.2-0.1,0.3c-0.1,0.2-0.3,0.3-0.4,0.3l0,0
			c0-0.1,0-0.1,0.1-0.3c0.1-0.1,0.1-0.2,0.1-0.3c0.1-0.1,0.2-0.2,0.2-0.3c-0.1,0-0.1,0-0.1-0.1c0,0-0.1-0.1-0.2-0.2
			c0-0.1-0.1-0.1-0.3-0.1c-0.1,0-0.2,0-0.2,0.1c-0.1,0-0.1,0.1-0.2,0.1L28.4,40c0-0.1,0-0.1,0-0.2l-0.3-0.6
			c-0.1-0.1-0.2-0.1-0.5-0.1c-0.1,0-0.2,0-0.3,0c-0.1,0-0.2,0-0.3,0c-0.1,0-0.2,0-0.3,0.1c-0.1,0.1-0.2,0.2-0.3,0.3
			c0,0.1,0,0.1-0.1,0.1c0,0-0.1-0.1-0.1-0.1l1.9-1.9c0,0,0,0,0,0.1c0,0,0.1,0.1,0.2,0.2c0.1,0.1,0.1,0.1,0.2,0.2
			C28.6,38.2,28.8,38.4,28.9,38.6z M24.2,51.5c0.2,0.1,0.3,0.2,0.5,0.3c-0.5,0.1-1.1,0.2-1.6,0.2v-1.8h0c0.1,0.1,0.2,0.2,0.3,0.3
			c0.1,0,0.2,0,0.4,0.1c0.2,0,0.3,0.1,0.3,0.1c0,0.1,0,0.1-0.1,0.2c0,0.1-0.1,0.1-0.1,0.2C24,51.2,24.1,51.3,24.2,51.5z M23.2,54.6
			v-2c0.7,0,1.4-0.1,2.1-0.3c0,0,0,0,0,0c0,0,0,0,0,0.1c0.2,0.2,0.4,0.3,0.4,0.4c0.1,0.1,0.2,0.2,0.5,0.2c0.1,0,0.2,0,0.3-0.1
			c0-0.1,0.1-0.1,0.1-0.2c0.1-0.1,0.1-0.1,0.2-0.1c0.1,0,0.1-0.1,0.2-0.1c0.1-0.1,0.2-0.1,0.3-0.3c0.1-0.1,0.2-0.2,0.3-0.3
			c0.1,0,0.1,0,0.2-0.1c0.1-0.1,0.1-0.2,0.2-0.4c0,0,0,0,0.1,0c0,0,0,0,0-0.1c0.7-0.4,1.3-0.9,1.8-1.4l1.4,1.4
			C29.1,53.2,26.3,54.5,23.2,54.6z M31.7,50.8l-1.4-1.4c1.7-1.8,2.7-4.1,2.8-6.7h2C34.9,45.8,33.7,48.6,31.7,50.8z M35,42h-2
			c-0.1-2.1-0.8-4.1-2-5.7c0-0.1,0-0.1-0.1-0.2c0,0-0.1-0.1-0.1-0.1c-0.2-0.2-0.3-0.4-0.5-0.6c0,0,0-0.1-0.1-0.1l1.3-1.3
			C33.7,36.1,34.9,38.9,35,42z M23.2,30.2c3.1,0.1,5.9,1.3,8.1,3.3L30,34.7c0-0.1-0.1-0.1-0.1-0.2c-0.1-0.1-0.2-0.1-0.2-0.1
			c-0.1-0.1-0.2-0.1-0.2-0.3c0-0.1,0-0.2-0.1-0.3c-0.2-0.1-0.3-0.2-0.4-0.4c-0.1-0.2-0.2-0.3-0.3-0.3c-0.1,0-0.2,0-0.3,0
			c-0.1-0.1-0.2-0.1-0.3-0.1c-0.1,0-0.2,0-0.3,0c-0.1,0-0.2,0.1-0.3,0.1c0,0,0,0,0,0c-1.3-0.6-2.7-1-4.2-1.1c0.1-0.2,0.1-0.3,0-0.4
			c0,0-0.1,0-0.2,0.1V30.2z M23.2,32.8c1.4,0,2.8,0.4,4,1c0,0,0,0,0,0c0.1,0.1,0.1,0.1,0.2,0.2c0.1,0.1,0.1,0.1,0.1,0.2
			c0.1,0.2,0.1,0.3,0.1,0.4c0,0.1,0.1,0.1,0.1,0.2c0,0.1,0,0.2,0.1,0.4c0.1,0.1,0.1,0.2,0.2,0.4c0,0,0.1,0,0.2,0c0.1,0,0.2,0,0.2,0
			c0.1,0,0.1,0,0.2,0.1c0.1,0.1,0.1,0.2,0.2,0.3c0,0,0,0.1,0,0.1l-0.5,0.5l0,0c-0.1-0.4-0.2-0.6-0.3-0.7c-0.1-0.1-0.2-0.1-0.3-0.1
			c0,0-0.1-0.2-0.3-0.4c-0.2-0.2-0.3-0.3-0.3-0.3c-0.1,0-0.1,0-0.1,0c0,0.1,0.1,0.1,0.1,0.2c0,0,0.1,0.1,0.2,0.3
			c0,0.1,0,0.1-0.1,0.1c0,0.1,0.1,0.2,0.2,0.2l0,0.1l0.1,0.3c-1.2-0.9-2.7-1.4-4.2-1.5V32.8z M23.2,35.3c1.7,0.1,3.3,0.8,4.5,1.9
			l-1.3,1.3c-0.9-0.8-1.9-1.2-3.2-1.3V35.3z M23.2,37.8c1,0.1,1.8,0.4,2.5,1c0,0-0.1,0-0.1,0c0,0-0.1,0-0.1,0.1c0,0,0,0,0,0.1
			c0,0.1,0.1,0.1,0.2,0.1l-0.5,0.5v0c-0.1,0-0.2,0.1-0.2,0.1c-0.1,0.1-0.2,0.1-0.2,0.2c0,0,0,0.1,0,0.1l-0.2,0.2c0,0,0,0-0.1,0
			c-0.1,0-0.1-0.1-0.3-0.2c-0.1-0.1-0.2-0.2-0.3-0.2c-0.1,0-0.2,0-0.2,0.1c0,0-0.1,0-0.2,0c-0.1-0.1,0-0.1,0.2-0.2
			c0.2-0.1,0.3-0.1,0.4-0.2c0.2-0.2,0.3-0.4,0.3-0.7c0-0.1-0.1-0.2-0.2-0.2l-0.1,0.1c-0.1,0.1-0.2,0.1-0.3,0.2
			c-0.1,0.1-0.2,0.2-0.2,0.2c-0.1,0-0.1,0-0.3,0h-0.3c0,0,0,0,0,0V37.8z M22.8,40.7C22.8,40.8,22.8,40.8,22.8,40.7
			c0.2,0.1,0.2,0.1,0.3,0.1c0.1,0,0.1,0,0.2,0c0,0,0,0.1,0,0.1c0,0.1,0.1,0.1,0.2,0.1c0,0,0,0,0.1,0.1c0,0,0,0,0,0
			c0,0,0,0.1,0.1,0.2c0,0,0,0,0,0c0,0,0,0,0,0c0.1,0,0.1,0,0.1,0c0,0,0.1,0,0.1,0c0,0,0,0.1,0,0.1h0c0,0,0,0.1,0,0.1
			c0,0.1,0,0.1,0,0.2v0.1c0,0,0,0,0,0c-0.1,0.1-0.1,0.2-0.1,0.3c0,0.1,0,0.1,0.1,0.1c0.1,0,0.1,0,0.2,0.1c0.1,0.1,0.1,0.1,0.1,0.3
			v0.4c0,0.1,0,0.1,0.1,0.1c0,0,0.1,0.1,0.1,0.1c0,0.1,0,0.2,0,0.3c0,0.1-0.1,0.2-0.1,0.3c0,0-0.1,0-0.2,0c-0.1,0-0.2,0-0.3,0
			c-0.1,0-0.1,0.1-0.2,0.3c-0.1,0.1-0.1,0.3-0.1,0.4c0,0.1-0.1,0.2-0.2,0.2c-0.1,0-0.1,0-0.2,0c0,0,0,0,0,0l-0.1,0.2l0,0.1
			c-0.5,0-1-0.2-1.3-0.6l0.2-0.2c0.1,0,0.3-0.1,0.4-0.1c0,0,0.1,0,0.1,0c0.2-0.1,0.2-0.3,0.3-0.5c0.1-0.1,0.3-0.3,0.1-0.4
			c0.2-0.3-0.7-0.3-0.9-0.3c-0.2,0.1-0.1,0.3-0.2,0.4c-0.1,0.1-0.1,0.1-0.2,0.1c-0.1,0.1-0.3,0.3-0.3,0.4l0,0
			c-0.1-0.1-0.1-0.2-0.1-0.3c0,0,0,0,0,0c0,0,0-0.1,0-0.1h0v0c0.1,0,0.2,0,0.2,0c0-0.1,0-0.2,0.1-0.2c0-0.1,0.1-0.2,0.2-0.5
			c-0.1,0-0.1-0.1-0.1-0.1c0-0.1,0-0.1-0.1,0c-0.1,0-0.1,0.1-0.1,0.1c0,0.1,0,0.1-0.1,0.2c-0.1,0.1-0.1,0.1-0.2,0.1
			c0-0.1,0-0.1-0.1-0.1c-0.1,0-0.1,0-0.2,0.1c-0.1,0-0.2,0-0.4,0c-0.2,0-0.3,0-0.4,0c-0.1-0.1,0-0.1,0.2-0.2c0-0.2,0-0.3,0.2-0.5
			c0.1,0.1,0.2,0.1,0.3,0.1l0.1-0.1h0c0.1,0,0.1,0.1,0.1,0.2c0,0.1,0,0.2,0.1,0.2c0.1,0,0.1,0,0.2-0.1v-0.2c0.1-0.2,0.1-0.4,0.1-0.5
			v-0.1c0-0.1,0.1-0.2,0.1-0.2h0c0.1,0,0.1-0.1,0.2-0.1c0.1-0.1,0.1-0.2,0.1-0.3c0.1,0,0.2-0.1,0.5-0.2c0.2-0.1,0.3-0.2,0.3-0.3
			c0,0,0,0,0,0c0.1,0,0.2,0,0.3,0C22.7,40.7,22.8,40.7,22.8,40.7z M22.5,30.2v2c-2.6,0.1-4.9,1.1-6.7,2.8l-1.4-1.4
			C16.6,31.5,19.4,30.2,22.5,30.2z M14,34l1.4,1.4c-1.7,1.8-2.7,4.1-2.8,6.7h-2C10.7,38.9,12,36.1,14,34z"/>
		<g>
			<path class="st0" d="M51.8,24c0.1,0.1,0.1,0.1,0.2,0.2c0.3,0.4,0.5,0.5,0.9,0.6c0.3,0.1,1.1,0.2,1.6,0.2c0.5,0,2,0,2.4,0
				c0.7,0,0.9-0.1,1.4-0.1c-0.1,0.3-0.2,0.4-0.2,0.7c-0.9,0-1.9,0.1-3.2,0.1c-0.6,0-1.3,0-1.7-0.1c-0.4-0.1-0.7-0.2-1.1-0.4
				c-0.2-0.1-0.2-0.1-0.5-0.5c-0.1-0.1-0.2-0.1-0.3-0.1c-0.2,0-0.7,0.5-1.2,1.1l-0.4-0.5c0.4-0.4,0.7-0.7,0.9-0.9
				c0.2-0.2,0.4-0.3,0.5-0.3v-2.2h-0.6c-0.3,0-0.4,0-0.7,0v-0.6c0.2,0,0.3,0,0.7,0h0.5c0.3,0,0.4,0,0.7,0c0,0.3,0,0.5,0,0.9V24z
				 M50.6,17.9c0.6,0.6,0.9,0.9,1.4,1.6l-0.4,0.4c-0.5-0.7-0.8-1.1-1.4-1.6L50.6,17.9z M57.5,24c-0.4-0.7-0.6-1-1.6-2.2
				c-0.3-0.4-0.4-0.6-0.8-1c-0.2,0.7-0.5,1.4-0.9,1.9c-0.4,0.5-0.9,0.9-1.7,1.4c0,0,0-0.1-0.1-0.1c-0.1-0.2-0.1-0.2-0.3-0.4
				c0.9-0.4,1.5-0.9,1.9-1.6c0.4-0.6,0.5-1.2,0.6-2h-1.4c-0.3,0-0.6,0-0.9,0.1v-0.6c0.2,0,0.5,0.1,0.9,0.1h1.5c0-0.4,0-0.7,0-1
				c0-0.4,0-0.7,0-0.8h0.6c0,0.2,0,0.3,0,0.6c0,0.5,0,0.8,0,1.2h1.8c0.4,0,0.6,0,0.9-0.1V20C57.7,20,57.4,20,57,20h-1.8
				c0,0.1,0,0.1,0,0.3c1.1,1.2,2,2.3,2.7,3.4L57.5,24z"/>
			<path class="st0" d="M60.4,18.6c0-0.5,0-0.7,0-0.9H61c0,0.2,0,0.5,0,0.9v0.9h0.4c0.3,0,0.4,0,0.6,0V20c-0.2,0-0.4,0-0.6,0H61v0.4
				c0.6,0.6,0.9,1,1.1,1.3l-0.4,0.4c-0.2-0.3-0.2-0.3-0.7-1.1v3.8c0,0.5,0,0.8,0.1,1h-0.6c0-0.3,0.1-0.6,0.1-1v-2.5
				c0-0.3,0-0.8,0.1-1.4c-0.2,0.8-0.3,1.1-0.5,1.7c-0.2,0.4-0.3,0.7-0.6,1c-0.1-0.2-0.2-0.3-0.4-0.5c0.6-0.8,1.1-1.9,1.3-3.2h-0.5
				c-0.3,0-0.5,0-0.6,0v-0.6c0.1,0,0.4,0,0.7,0h0.5V18.6z M62.6,23.4c0-0.4,0-0.5,0-0.7c-0.3,0.2-0.3,0.2-0.6,0.3
				c-0.1-0.2-0.2-0.3-0.4-0.5c1.1-0.4,1.8-0.8,2.6-1.5c-0.4-0.3-0.6-0.6-1.1-1.3c-0.3,0.4-0.5,0.7-0.9,1.1c-0.1-0.2-0.2-0.3-0.4-0.4
				c0.8-0.7,1.5-1.9,1.7-2.8l0.6,0.1c0,0.1,0,0.1-0.2,0.4c0,0.1-0.1,0.3-0.1,0.3h1.5c0.5,0,0.7,0,0.8,0l0.4,0.4
				c-0.1,0.1-0.1,0.1-0.2,0.4c-0.4,0.7-0.8,1.3-1.3,1.8c0.8,0.6,1.5,1,2.6,1.3c-0.2,0.2-0.2,0.3-0.3,0.5c-0.4-0.2-0.5-0.2-0.7-0.3
				c0,0.2,0,0.3,0,0.8V25c0,0.5,0,0.7,0,0.9h-0.6v-0.5h-2.8v0.5h-0.6c0-0.2,0-0.4,0-0.9V23.4z M65.8,22.6c0.3,0,0.6,0,0.7,0
				c-0.7-0.3-1.4-0.8-1.9-1.2c-0.5,0.4-1.1,0.8-1.9,1.2c0.2,0,0.3,0,0.6,0H65.8z M63.1,24.9h2.8v-1.8h-2.8V24.9z M63.5,19
				c0,0.1,0,0.1-0.1,0.3c0.4,0.7,0.7,0.9,1.2,1.4c0.6-0.5,0.8-0.9,1.2-1.6H63.5z"/>
			<path class="st0" d="M72.9,21.8c0,0.4-0.3,0.7-0.7,0.7c-0.4,0-0.7-0.3-0.7-0.7c0-0.4,0.3-0.7,0.7-0.7
				C72.6,21,72.9,21.4,72.9,21.8z"/>
			<path class="st0" d="M79.2,24.3v-0.5h-1.2v0.9h-0.6c0-0.3,0.1-0.6,0.1-1v-4.4c0-0.4,0-0.5,0-0.7c0.2,0,0.3,0,0.6,0h1.2
				c0.2,0,0.4,0,0.6,0c0,0.2,0,0.3,0,0.7v4.3c0,0.4,0,0.5,0,0.7H79.2z M78.1,23.2h1.2v-4.1h-1.2V23.2z M83,17.9l-0.1,0.2
				c0.5,0.7,0.8,1,1.3,1.4c0.4,0.4,0.4,0.4,1.5,1c-0.2,0.2-0.3,0.3-0.4,0.5c-0.5-0.3-1-0.7-1.5-1.1c-0.4-0.4-0.7-0.8-1.2-1.3
				c-0.4,0.6-0.6,0.9-1.1,1.4c-0.4,0.5-0.8,0.8-1.3,1.2c-0.1-0.2-0.2-0.3-0.4-0.5c0.7-0.5,1-0.7,1.6-1.3c0.5-0.6,0.8-1,1.1-1.6
				L83,17.9z M81.1,25.8h-0.6c0-0.2,0-0.5,0-0.8v-2c0-0.4,0-0.6,0-0.8c0.2,0,0.4,0,0.8,0h2.8c0.4,0,0.6,0,0.8,0c0,0.2,0,0.4,0,0.8v2
				c0,0.4,0,0.6,0.1,0.9h-0.6v-0.5h-3.2V25.8z M81.1,20.5c0.2,0,0.5,0,0.8,0h1.6c0.3,0,0.6,0,0.8,0v0.6c-0.2,0-0.5,0-0.8,0H82
				c-0.3,0-0.6,0-0.8,0V20.5z M81.1,24.8h3.2v-2.1h-3.2V24.8z"/>
			<path class="st0" d="M92.5,23.9c-0.3,0-0.6-0.1-1-0.1h-4.1c-0.5,0-0.7,0-1,0.1v-0.6c0.2,0,0.5,0.1,1,0.1h4.1c0.5,0,0.7,0,1-0.1
				V23.9z M92.4,18.7H88c-0.5,0-0.7,0-1,0v-0.6c0.2,0,0.5,0.1,1,0.1l4.4,0h0c0.2,0,0.6,0,0.8,0c-0.1,0.3-0.2,0.7-0.3,0.9l-0.6,2.6
				h1.1c0.3,0,0.6,0,0.8,0c-0.1,0.4-0.1,0.5-0.2,1.7c-0.1,1.3-0.3,1.9-0.4,2.2c-0.2,0.3-0.4,0.3-1.1,0.3c-0.4,0-0.5,0-0.9,0
				c0-0.2,0-0.2-0.2-0.6c0.4,0.1,0.8,0.1,1.1,0.1c0.3,0,0.4,0,0.4-0.1c0.1-0.2,0.2-0.6,0.3-1.3c0.1-0.5,0.1-1,0.2-1.7h-5.3
				c-0.3,0-0.5,0-0.7,0c0.1-0.2,0.1-0.5,0.2-0.8l0.2-1.4c0-0.2,0-0.4,0-0.6c0,0,0-0.1,0-0.1h0.7c0,0,0,0.1,0,0.1
				c0,0.1,0,0.1-0.1,0.6l-0.2,1.6h3.5L92.4,18.7z"/>
			<path class="st0" d="M100,17.8c-0.1,0.1-0.1,0.1-0.1,0.2c0.5,0.5,0.8,0.8,1.3,1.2c0.4,0.3,0.9,0.5,1.4,0.8
				c0.5,0.2,0.7,0.3,1.1,0.4c-0.1,0.2-0.2,0.3-0.3,0.6c-0.9-0.3-1.9-0.9-2.7-1.5c-0.5-0.4-0.8-0.6-1.2-1.1c-0.4,0.4-0.8,0.8-1.3,1.2
				c-0.8,0.6-1.3,0.8-2.4,1.4c-0.1-0.2-0.2-0.4-0.3-0.5c0.8-0.3,1.6-0.6,2.3-1.2c0.8-0.5,1.3-1,1.8-1.7L100,17.8z M98.4,20.7
				c-0.4,0-0.6,0-0.9,0v-0.6c0.3,0,0.5,0,0.9,0h2.4c0.4,0,0.6,0,0.9,0v0.6c-0.3,0-0.5,0-0.9,0h-0.9v1h2.7c0.4,0,0.7,0,0.9-0.1v0.6
				c-0.3,0-0.5-0.1-0.9-0.1h-2.7v0.9h1.8c0.4,0,0.5,0,0.8,0c0,0.2,0,0.4,0,0.7v1.3c0,0.3,0,0.5,0.1,0.8h-0.6v-0.4h-4.5v0.4h-0.6
				c0-0.3,0.1-0.5,0.1-0.8v-1.3c0-0.3,0-0.5,0-0.7c0.2,0,0.4,0,0.8,0h1.8v-0.9h-2.5c-0.4,0-0.7,0-1,0.1v-0.6c0.3,0,0.5,0.1,1,0.1
				h2.5v-1H98.4z M101.8,25v-1.4h-4.5V25H101.8z"/>
			<path class="st0" d="M106.6,19.8c-0.5,0.8-0.9,1.3-1.5,2c-0.2-0.2-0.3-0.3-0.5-0.5c0.8-0.7,1.4-1.6,1.9-2.7
				c0.2-0.4,0.2-0.5,0.3-0.9l0.7,0.2c-0.1,0.1-0.1,0.2-0.2,0.4c-0.2,0.4-0.2,0.4-0.4,0.9h4.6c0.3,0,0.5,0,0.7,0l0.3,0.4
				c0,0.1-0.2,0.3-0.2,0.4c-0.3,0.5-0.5,0.8-0.9,1.2c-0.2-0.2-0.3-0.2-0.5-0.4c0.5-0.5,0.6-0.7,0.9-1.1h-2.6V25c0,0.6-0.2,0.7-1,0.7
				c-0.4,0-0.7,0-1.1-0.1c0-0.3-0.1-0.4-0.2-0.6c0.6,0.1,0.9,0.1,1.3,0.1c0.3,0,0.4,0,0.4-0.2v-5.2H106.6z M107.4,21.5
				c-0.4,1-0.5,1.3-0.8,1.8c-0.4,0.6-0.7,1-1.2,1.5c-0.2-0.2-0.2-0.3-0.5-0.5c0.5-0.5,0.8-0.8,1.2-1.4c0.4-0.6,0.5-0.9,0.7-1.6
				L107.4,21.5z M112,24.9c-0.3-0.6-0.3-0.6-1-1.8c-0.4-0.7-0.5-0.9-0.9-1.5l0.5-0.3c0.3,0.4,0.4,0.5,0.7,1.1
				c0.2,0.4,0.4,0.7,0.5,0.9c0.4,0.7,0.5,0.8,0.7,1.3L112,24.9z"/>
			<path class="st0" d="M114.7,22.6c0-0.4,0-0.6,0-1.1c-0.3,0.4-0.4,0.6-0.9,1c-0.1-0.3-0.2-0.3-0.3-0.5c0.6-0.5,1.1-1,1.5-1.7
				c0.2-0.3,0.3-0.6,0.4-0.8l0.5,0.3c-0.1,0.1-0.1,0.2-0.3,0.4c-0.1,0.2-0.3,0.5-0.5,0.7v3.8c0,0.6,0,0.8,0,1.1h-0.6
				c0-0.3,0.1-0.6,0.1-1V22.6z M116,18c-0.1,0.1-0.1,0.1-0.3,0.3c-0.5,0.6-1.1,1.1-1.8,1.6c-0.1-0.2-0.2-0.3-0.4-0.4
				c0.4-0.3,0.7-0.5,1-0.8c0.4-0.4,0.7-0.7,0.8-1L116,18z M115.6,25.1c0.5-0.6,0.7-1,0.8-1.6l0.5,0.2c-0.3,0.8-0.4,1.1-0.8,1.7
				L115.6,25.1z M116,22.4c0.3,0,0.5,0,0.9,0h4.1c0.4,0,0.6,0,0.9,0v0.6c-0.3,0-0.5,0-0.9,0h-4.2c-0.4,0-0.6,0-0.9,0V22.4z
				 M118.6,18.5c0-0.3,0.1-0.6,0.1-0.8c0,0,0-0.1,0-0.1l0.6,0c0,0.1,0,0.3-0.1,0.6c0,0.1,0,0.1,0,0.2h1.9c0.4,0,0.7,0,0.9,0V19
				c-0.3,0-0.5,0-0.9,0h-2c0,0.1,0,0.1,0,0.2c0,0.1-0.1,0.3-0.1,0.6h1.8c0.4,0,0.6,0,0.8,0c0,0.2,0,0.3,0,0.7v0.9c0,0.3,0,0.5,0,0.6
				c-0.2,0-0.4,0-0.8,0H117c-0.3,0-0.5,0-0.8,0c0-0.2,0-0.3,0-0.6v-0.9c0-0.3,0-0.4,0-0.6c0.2,0,0.4,0,0.7,0h1.4
				c0.1-0.3,0.1-0.5,0.2-0.7h-1.6c-0.4,0-0.6,0-0.9,0v-0.6c0.3,0,0.5,0,0.9,0H118.6z M116.8,21.3h1.1v-1.2h-1.1V21.3z M118,24.9
				c0,0.2,0.2,0.3,1,0.3c0.5,0,0.8,0,0.9-0.1c0.1-0.1,0.2-0.2,0.2-0.9c0.2,0.1,0.3,0.2,0.5,0.2c-0.1,0.6-0.2,1-0.4,1.1
				c-0.2,0.1-0.6,0.2-1.5,0.2c-1,0-1.3-0.1-1.3-0.6v-1c0-0.3,0-0.5-0.1-0.7h0.7c0,0.2-0.1,0.4-0.1,0.7V24.9z M119.4,24.5
				c-0.1-0.1-0.1-0.2-0.2-0.2c-0.4-0.4-0.5-0.5-0.9-0.9l0.4-0.3c0.5,0.3,0.7,0.5,1.1,1L119.4,24.5z M118.3,21.3h1v-1.2h-1V21.3z
				 M119.9,21.3h1.1v-1.2h-1.1V21.3z M121.6,25.3c-0.5-0.9-0.6-1.1-1.1-1.7l0.4-0.3c0.5,0.6,0.7,0.9,1.1,1.6L121.6,25.3z"/>
		</g>
		<g>
			<path class="st1" d="M76.4,60.7v-1.3H54.7v1.3H51c0.2-1.2,0.2-2.2,0.2-4.2V35.4c0-1.5-0.1-2.5-0.2-3.9c1.2,0.1,2.1,0.2,3.9,0.2
				h21.3c1.8,0,2.7,0,4-0.2C80,33,80,33.9,80,35.4v21.1c0,1.9,0.1,3.1,0.2,4.2H76.4z M54.7,46.5c0.2-0.1,0.2-0.1,0.9-0.2
				c2.4-0.5,5.4-1.7,7.4-2.9C62.4,43,62.4,43,60.5,41c-1,0.9-2.4,1.6-4.7,2.8c-0.6-0.9-1.1-1.6-2-2.4c3.5-1.6,6.7-4.7,7.6-7l3.7,1.2
				c-0.3,0.5-0.2,0.5-0.6,1l4.6-0.2c0.8,0,1.4-0.2,2-0.3l2,2c-0.3,0.2-0.5,0.5-0.8,1c-1.5,2.1-2.6,3.3-4.1,4.5
				c1.8,1.1,4.2,1.7,8.1,2.7V34.6H54.7V46.5z M54.7,56.5h21.7V46.3c-0.1,0.2-0.1,0.2-0.5,0.7c-0.8,1.3-0.9,1.5-1.2,2.3
				c-3.6-1.1-7.2-2.3-9.7-4.2c-0.6,0.5-1.8,0.8-2.4,1.1c2.8,0.9,5.5,1.5,7.7,2.5l-1.1,2.7c-2.1-1.1-6.9-2.3-9.9-3.2l3.6-1.7
				c-2.3,1.4-3.3,1.9-6.5,2.9c-0.3-1-0.5-1.3-1.7-2.9V56.5z M72.1,56.2c-4-1.5-11.5-2.9-16-3.6l1.4-2.4c5.7,1.1,9,1.5,15.4,3.7
				L72.1,56.2z M62.9,39.3c1.1,1.3,1.5,1.7,2.9,2.8c1.3-1.1,1.8-1.6,2.7-2.8H62.9z"/>
			<path class="st1" d="M112.4,38c-0.6-0.5-1.1-1-1.6-1.4c-0.2,0.6-0.2,0.9-0.3,1.9c0,0.2,0,0.3,0,0.5l-0.7,6.3c0.5,0,1,0,3.6-0.1
				c0.3,0,0.5,0,0.9,0c-0.1,0.8-0.1,0.8-0.3,2.9c-0.7,9.2-1.4,10.5-6.1,10.5c-0.6,0-2.1,0-4-0.1c-0.2-1.6,0-2.4-0.6-3.7
				c1.7,0.2,3.5,0.4,4.5,0.4c0.9,0,1.3-0.2,1.6-0.9c0.2-0.5,0.4-1.7,0.5-3.1c0,0,0.1-0.5,0.1-1.4l0.1-1H99.9v9.8
				c0,1-0.1,0.9,0.1,2.1h0c0,0,0,0,0,0.1l-3,0l0-0.1c0-0.1,0.1-0.9,0.1-1.4c0-0.5,0-1.1,0-1.8v-8.8h-9.8l-3.1,0.2l0-3.7
				c0.9,0.1,1.9,0.1,3.1,0.1h9.7v-5.5h-6.6c-1.5,0-2.6,0.1-3.9,0.2v-3.6c1.1,0.1,2.3,0.2,3.9,0.2h6.6v-2.8c0-1.1,0-2.4-0.2-3.3h3.2
				c-0.2,1.4-0.2,2.9-0.2,4.5v1.6h7.4c1.9,0,3.1,0,3.4,0c-1.6-1.2-2.9-2.3-4.6-3.1l2.4-2.2c3.5,2.3,3.4,2.8,5.8,4.6L112.4,38z
				 M99.9,45.3h6l0.7-5.5h-6.7V45.3z"/>
			<path class="st1" d="M144.9,33.7c1.8,0,2.9-0.3,4-0.4c-0.1,0.9-0.1,1.4-0.1,2.4V38c0,1,0,1.6,0.1,2.2h-2.9v4.9
				c0,1.7,0,1.8,0.1,2.5c-1.1-0.1-1.5-0.1-2.5-0.1h-8.2v2.1h9.3c1.3,0,1.9,0,2.6-0.1c-0.1,0.7-0.1,1.1-0.1,2.6v5.9
				c0,1.1,0,1.9,0.1,2.8h-3.2l0-1.7h-8.7l0,1.8h-3.5c0.1-0.9,0.1-1.5,0.1-2.7V41.2c0-0.6,0-0.8,0-1.1h-2c0.1-0.8,0.1-1.3,0.1-2.2
				v-0.3c0,0.1,0,0.1-0.1,0.3c0,0,0,0,0,0.1c-1.1,2.8-2.2,4.8-2.7,5.9c-1.8-1-1.3-1.2-2.1-1.5c0.5-0.8,1.5-2.7,1.8-3.6h-3.9
				c-0.8,2.4-2.5,5.4-3.7,7.2c-0.4-0.3-0.5-0.5-1-0.9c-1-1-1.1-1.3-1.8-1.7c1.1-1.5,2.6-4.2,3.4-6.4c0.8-2.2,1.1-4.6,1.2-6.7
				l3.9,0.6c0,0.1,0,0.1-0.1,0.2c-0.2,0.4-0.3,1.4-0.4,1.8c-0.3,1.9-0.4,2.4-0.6,3.1l2.5-0.1c0.8,0,1.2-0.1,1.8-0.3l1.9,1.1v-1.4
				c0-0.9,0.1-1.1,0-1.8c1.3,0.2,2.4,1.3,3,0.1h5.3c-0.5-1.3-1.8-2-2.2-2.6l2.4-1.6c0.6,1.2,1.8,2.9,2.2,4.2L144.9,33.7z M126,54.1
				c1.2-0.8,2-1.4,3.2-2.5l-0.2,3.2c-2.6,1.7-3.7,2.2-6.3,4.1l-0.8-1.6c0.8-0.5,0.4-1.5,0.5-2.3v-9.9c0-1.6,0-2.1-0.2-2.9h3.9
				c-0.1,1-0.2,2.1-0.2,2.9V54.1z M145,36.5h-11.4v2.1h9.9c0.7,0,1,0,1.4,0V36.5z M135.6,44.6h7.5v-3h-7.5V44.6z M135.6,55.9h8.7
				v-3.4h-8.7V55.9z"/>
			<g>
				<path class="st2" d="M49.7,60.7c0.2-1.1,0.2-1.8,0.2-4.2V34.7c0-1.7,0-2.7-0.2-4.3c1.3,0.1,2.2,0.2,4.3,0.2h20.9
					c2,0,2.9,0,4.1-0.2c-0.1,1.5-0.2,2.6-0.2,4.3v21.9c0,2,0,3,0.2,4.1h-2.4v-1.8H52.1v1.8H49.7z M52.1,57h24.5V32.5H52.1V57z
					 M72,36.7c-0.1,0.1-0.1,0.1-0.1,0.1c-0.2,0.2-0.2,0.3-0.6,0.7c-1.5,1.9-2.9,3.2-5.1,5c2.8,1.7,5.1,2.6,9.9,3.7
					c-0.5,0.6-0.7,1-1.2,1.9c-5.2-1.5-7.5-2.5-10.5-4.4c-3.1,2-5.4,3-10.6,4.7c-0.3-0.7-0.5-0.9-1.3-1.7c4.5-1.2,7.4-2.3,10.3-4
					c-1.6-1.2-2.2-1.7-3.9-3.6c-1.5,1.3-2.1,1.8-4,3c-0.5-0.7-0.8-0.9-1.4-1.4c2.9-1.6,5-3.3,6.3-5.5c0.4-0.6,0.6-1.1,0.9-1.8
					l2.1,0.7c-0.1,0.2-0.1,0.2-0.3,0.5c0,0-0.1,0.1-0.1,0.2c-0.1,0.2-0.3,0.5-0.6,0.9h6.7c1.2,0,1.7,0,2.4-0.1L72,36.7z M71.1,55.4
					c-5.3-1.7-9-2.6-15-3.3l0.9-1.7c5.5,0.8,9.1,1.5,14.7,3.2L71.1,55.4z M60.7,37.2c0,0.1-0.1,0.1-0.1,0.2
					c-0.1,0.1-0.1,0.2-0.2,0.3c1.7,1.9,2.4,2.5,4.3,3.8c2.1-1.5,3-2.3,4.5-4.3H60.7z M68.8,50.5c-3-1.3-4.6-1.8-8.3-2.7l0.9-1.6
					c3.6,0.9,5.2,1.5,8.1,2.6L68.8,50.5z"/>
				<path class="st2" d="M85.5,44.2c1.2,0.1,2.1,0.2,3.3,0.2h8.9v-6.5h-6.5c-1.1,0-2.2,0.1-3.3,0.2v-2.4c1.1,0.1,2,0.2,3.3,0.2h6.5
					v-2.4c0-0.7-0.1-2.7-0.2-3.9h2.7c-0.1,0.8-0.2,2.7-0.2,4v2.3h8.1c1.7,0,2.5,0,3.3-0.1c-0.2,0.9-0.3,1.4-0.5,2.7l-0.9,6
					c2,0,3.7,0,4.5-0.1c-0.1,0.7-0.2,1.4-0.2,2c-0.1,2.5-0.7,6.8-1.1,7.9c-0.6,1.8-1.7,2.4-4.5,2.4c-1.1,0-2.1-0.1-3.7-0.2
					c-0.1-1-0.2-1.4-0.7-2.4c2.1,0.3,3.4,0.5,4.8,0.5c1.3,0,1.7-0.3,2-1.5c0.3-1.3,0.6-3.3,0.8-6.6h-12v10.3c0,2.1,0,2.7,0.2,3.9
					h-2.7c0.2-1.3,0.2-2.1,0.2-3.9V46.4h-8.9c-0.8,0-1.5,0-3.3,0.2V44.2z M99.9,44.4h7.7l0.9-6.5h-8.6V44.4z M113.4,36.3
					c-2.2-2.4-3.2-3.2-5.3-4.6l1.6-1.5c2.2,1.6,3.5,2.7,5.2,4.3L113.4,36.3z"/>
				<path class="st2" d="M123.8,37c-1,3-1.7,4.4-3.5,7.1c-0.7-0.8-1.2-1.2-1.7-1.5c2-2.6,3.1-5.3,4.1-9.4c0.4-1.8,0.6-2.9,0.6-3.9
					l2.5,0.3c-0.2,0.5-0.2,0.5-0.5,2.1c-0.2,0.9-0.6,2.2-0.9,3.4h2.9c1.6,0,2.5,0,3.2-0.2l1.2,1.3c-0.2,0.4-0.2,0.4-1.1,3
					c-0.3,1-0.8,1.9-1.6,3.6c-0.7-0.5-1.2-0.7-2-0.9c1-1.6,1.4-2.4,2.2-5H123.8z M126.1,56c2.4-1.6,3.1-2.2,4.4-3.4l0.2,2.4
					c-2,1.4-3,2.1-4.2,2.9c-1.3,0.8-1.5,0.9-2.2,1.5l-1-2c0.6-0.4,0.6-0.6,0.7-1.3V45c0-1.8,0-2.8-0.2-3.7h2.6
					c-0.1,0.8-0.2,1.8-0.2,3.7V56z M134.5,37.8c0.1,0,0.1,0,0.2,0c0.5,0.1,1.6,0.1,2.8,0.1h7.2c1.6,0,2.4,0,3.1-0.1
					c-0.1,0.8-0.1,1.5-0.1,2.7V44c0,1.3,0,2,0.1,2.5c-0.7-0.1-1.6-0.1-3-0.1h-8.2v3.2h9.6c1.4,0,2.3,0,3-0.1
					c-0.1,0.9-0.1,1.7-0.1,2.9v5c0,1.5,0,2.5,0.1,3.3h-2.2v-1.9h-10.4v2h-2.2c0.1-1.3,0.1-2.1,0.1-4V41.3c0-1.3,0-2.4,0-2.9h-2.2
					c0.1-0.6,0.1-1.3,0.1-2.1v-1.6c0-0.9,0-1.5-0.1-2.2c1,0.1,1.8,0.1,3.4,0.1h4.7c-0.9-1.4-1-1.7-1.7-2.6l1.6-1.1
					c1.3,1.5,1.6,2.1,2.4,3.7h3.9c1.6,0,2.8,0,4-0.2c-0.1,0.7-0.1,1.4-0.1,2.4v1.5c0,0.9,0,1.6,0.1,2.1h-2.2v-3.9h-13.8V37.8z
					 M136.5,44.6h9v-4.7h-9V44.6z M136.5,56.8h10.4v-5.3h-10.4V56.8z"/>
			</g>
		</g>
	</g>
</g>
</svg>
