<?xml version="1.0" encoding="utf-8"?>
<!-- Generator: Adobe Illustrator 19.1.0, SVG Export Plug-In . SVG Version: 6.00 Build 0)  -->
<svg version="1.1" xmlns="http://www.w3.org/2000/svg" xmlns:xlink="http://www.w3.org/1999/xlink" x="0px" y="0px"
	 viewBox="0 0 324 62.6" style="enable-background:new 0 0 324 62.6;" xml:space="preserve">
<style type="text/css">
	.st0{fill:#3F4A74;}
	.st1{fill:#EC5F69;}
	.st2{fill:#F29A7F;}
	.st3{fill:#EFEF9F;}
	.st4{fill:#62B0C1;stroke:#62B0C1;stroke-width:0.5;stroke-miterlimit:10;}
	.st5{fill:#3F4A74;stroke:#3F4A74;stroke-width:0.9805;stroke-miterlimit:10;}
	.st6{fill:#62B0C1;}
	.st7{fill:#62B0C1;stroke:#62B0C1;stroke-width:0.9;stroke-miterlimit:10;}
</style>
<g id="Layer_1">
</g>
<g id="original_font">
	<g>
		<path class="st0" d="M6.2,37.9c0.4-0.4,0.9-0.8,1.5-1.3c0.2-0.2,0.4-0.4,0.5-0.5c0.1-0.1,0.3-0.3,0.3-0.5c0.1-0.2,0.2-0.4,0.3-0.7
			c0.1-0.3,0.2-0.7,0.4-1.2h0c-0.2,0.4-0.4,0.8-0.7,1C8.3,35,8,35.2,7.7,35.5c-0.3,0.2-0.7,0.5-1,0.8C6.3,36.6,6,37,5.7,37.5v0
			c0.2-0.7,0.4-1.3,0.5-1.8c0.1-0.5,0.2-0.9,0.3-1.3c0.1-0.4,0.2-0.7,0.4-0.9c0.1-0.3,0.4-0.5,0.7-0.8v0c-0.7,0.2-1.3,0.6-1.8,1.3
			c-0.5,0.7-0.7,1.4-0.7,2.3v2.8C5.5,38.6,5.8,38.2,6.2,37.9z M8.2,34.4c0.4-0.4,0.7-0.8,1-1.2c0.3-0.4,0.6-0.8,0.9-1.2
			c0.3-0.4,0.6-0.7,1-1l0,0c-0.2,0.2-0.5,0.4-0.9,0.5c-0.4,0.1-0.7,0.3-1.2,0.5c-0.4,0.2-0.8,0.6-1.2,1.2c-0.4,0.5-0.7,1.3-1,2.3
			C7.3,35.2,7.8,34.8,8.2,34.4z M3.6,45c0.3,0.4,0.6,0.8,0.9,1.2c0.3,0.4,0.7,0.9,1,1.4h0c0-0.2-0.1-0.4-0.1-0.6v-0.6
			c0-0.2,0.1-0.6,0.2-1.1c0.2-0.5,0.3-1,0.5-1.7c0.2-0.6,0.3-1.2,0.4-1.8c0.1-0.6,0.2-1.2,0.1-1.7h0c-0.1,0.4-0.2,0.7-0.4,1
			c-0.2,0.3-0.4,0.7-0.6,1.1c-0.2,0.4-0.4,0.8-0.6,1.2c-0.2,0.4-0.2,0.9-0.2,1.4c0,0.2,0,0.4,0.1,0.7C5,45.7,5,45.9,5,45.9h0
			c-0.1-0.6-0.3-1.2-0.5-1.7c-0.2-0.5-0.4-1-0.6-1.5c-0.2-0.5-0.4-0.9-0.5-1.3c-0.1-0.4-0.2-0.7-0.2-0.9c0-0.3,0-0.5,0-0.6
			c0-0.2,0-0.4,0-0.6h0c-0.1,0.2-0.2,0.6-0.3,1.1c-0.1,0.5-0.2,0.9-0.2,1.3c0,0.8,0.1,1.5,0.2,2C3.1,44.1,3.4,44.6,3.6,45z M11,55.9
			c0.1,0,0.3,0,0.4,0c0.2,0,0.4,0,0.6,0c0.2,0,0.4-0.1,0.7-0.1c0.3-0.1,0.7-0.1,1.2-0.3c0.5-0.1,1.1-0.3,1.9-0.5
			c-0.5-0.1-1-0.3-1.3-0.4c-0.4-0.1-0.8-0.4-1.1-0.7c-0.5-0.4-0.9-0.8-1.4-1.2c-0.4-0.3-0.7-0.6-1.1-1c-0.1-0.1-0.6-0.6-0.8-0.7l0,0
			c0.1,0.1,0.6,1.1,0.6,1.1s0.1,0.1,0.1,0.2c0.1,0.2,0.3,0.5,0.4,0.7c0.1,0.1,0.1,0.2,0.2,0.3c0.2,0.3,0.4,0.6,0.7,0.8
			c0.3,0.3,0.9,0.6,1.7,0.8v0c-0.3-0.1-0.6-0.1-0.9-0.1c-0.2,0-0.5-0.1-0.7-0.1c-0.2,0-0.4,0-0.6-0.1c-0.2,0-0.5,0-0.7-0.1
			c-0.2,0-0.4-0.1-0.6-0.1c-0.2,0-0.4,0-0.6-0.1c-0.1,0-0.2,0-0.3,0c-0.4,0-0.7-0.1-1-0.2c-0.3-0.1-0.6-0.2-0.9-0.4
			c-0.3-0.2-0.6-0.4-1-0.7l0,0C6.6,53.4,6.7,53.7,7,54c0.2,0.3,0.5,0.5,0.9,0.8c0.3,0.3,0.7,0.5,1.2,0.7c0.5,0.2,1,0.3,1.6,0.4
			C10.6,55.9,10.9,55.9,11,55.9z M4.7,43.3L4.7,43.3c0.1-0.2,0.1-0.5,0.2-0.6c0.1-0.2,0.2-0.4,0.3-0.7c0.1-0.3,0.4-0.6,0.6-1
			c0.3-0.4,0.6-0.9,1.1-1.5C7.1,39,7.3,38.6,7.5,38c0.2-0.5,0.3-0.9,0.3-1.2h0c-0.1,0.1-0.1,0.2-0.2,0.3c-0.1,0.1-0.2,0.2-0.3,0.3
			c-0.1,0.1-0.2,0.3-0.4,0.4c-0.2,0.2-0.4,0.4-0.7,0.6c-0.5,0.5-0.9,0.9-1,1.3c-0.2,0.4-0.3,0.8-0.4,1.3h0c0-0.2,0-0.4,0-0.6
			c0-0.2,0-0.5,0-0.8c0-0.4,0-0.9-0.1-1.4c-0.1-0.5-0.1-1.2-0.1-2.1c0-0.3,0.1-0.5,0.2-0.8c0.1-0.2,0.2-0.5,0.3-0.7h0
			c-0.6,0.7-1,1.4-1.2,2c-0.2,0.6-0.3,1.3-0.3,1.9c0,0.7,0.1,1.4,0.4,2.1C4.3,41.6,4.5,42.4,4.7,43.3z M8.9,53.7l1.7,0.4l0.9,0.2
			c-0.3-0.3-0.9-1.1-0.9-1.1c-0.2-0.3-0.4-0.7-0.5-1.1c-0.2-0.4-0.4-1-0.7-1.8c-0.1-0.2-0.2-0.5-0.3-0.6c-0.1-0.2-0.2-0.4-0.3-0.6
			c-0.1-0.2-0.3-0.4-0.4-0.7c-0.2-0.3-0.4-0.6-0.7-1l0,0c0.1,0.3,0.2,0.8,0.3,1.5c0.1,0.7,0.3,1.4,0.4,2c0.1,0.5,0.3,0.9,0.5,1.3
			c0.3,0.4,0.7,0.8,1.1,1.2l0,0c-0.2-0.1-0.5-0.3-1-0.6c-0.5-0.4-0.9-0.7-1.5-0.9c-1-0.5-1.8-1-2.4-1.4c-0.6-0.4-1-0.9-1.3-1.6l0,0
			c0.2,0.7,0.4,1.3,0.8,1.8c0.3,0.5,0.7,1,1.2,1.4c0.5,0.4,1,0.7,1.5,1C7.8,53.4,8.3,53.6,8.9,53.7z M5.1,49.6l3,2
			C8,51.3,7.9,51,7.8,50.8c-0.1-0.2-0.2-0.5-0.2-0.8c-0.1-0.3-0.1-0.6-0.1-1c0-0.4-0.1-0.8-0.1-1.3c-0.1-0.9-0.2-1.6-0.3-2.1
			c-0.1-0.5-0.2-1-0.4-1.6h0c0,0.5,0,0.8-0.1,1.2c0,0.3-0.1,0.6-0.2,0.9c-0.1,0.3-0.1,0.5-0.2,0.7c0,0.2-0.1,0.5-0.1,0.8
			c0,0.3,0.1,0.7,0.3,1.2c0.2,0.5,0.3,0.9,0.5,1.2l0,0c-0.5-0.7-0.9-1.3-1.4-1.8c-0.4-0.5-0.8-0.9-1.2-1.3c-0.4-0.4-0.7-0.8-0.9-1.2
			c-0.3-0.4-0.4-0.8-0.5-1.4c0,0.1-0.1,0.3-0.1,0.4c0,0.1,0,0.2,0,0.4c0,0.5,0.1,0.9,0.2,1.4c0.2,0.5,0.4,0.9,0.6,1.3
			c0.2,0.4,0.5,0.8,0.8,1.1C4.6,49.2,4.9,49.4,5.1,49.6z M29.7,32.1c0.3,0.4,0.6,0.7,0.9,1.2c0.3,0.4,0.7,0.8,1,1.2
			c0.4,0.4,0.8,0.8,1.4,1.1c-0.3-1-0.6-1.8-1-2.3c-0.4-0.5-0.8-0.9-1.2-1.2c-0.4-0.2-0.8-0.4-1.2-0.5c-0.4-0.1-0.7-0.3-0.9-0.5l0,0
			C29.1,31.4,29.4,31.7,29.7,32.1z M32.3,53.9c-0.3,0.2-0.6,0.3-0.9,0.4c-0.3,0.1-0.7,0.1-1,0.2c-0.1,0-0.2,0-0.3,0
			c-0.2,0-0.4,0-0.6,0.1c-0.2,0-0.4,0.1-0.6,0.1c-0.2,0-0.5,0-0.7,0.1c-0.2,0-0.4,0-0.6,0.1c-0.2,0-0.4,0.1-0.7,0.1
			c-0.2,0-0.5,0.1-0.9,0.1v0c0.8-0.2,1.4-0.5,1.7-0.8c0.3-0.2,0.5-0.5,0.7-0.8c0-0.1,0.1-0.2,0.2-0.3c0.1-0.2,0.3-0.5,0.4-0.7
			c0-0.1,0.1-0.2,0.1-0.2s0.5-1,0.6-1.1l0,0c-0.2,0.2-0.7,0.6-0.8,0.7c-0.4,0.3-0.7,0.6-1.1,1c-0.5,0.4-0.9,0.8-1.4,1.2
			c-0.4,0.3-0.8,0.6-1.1,0.7c-0.4,0.1-0.8,0.2-1.3,0.4c0.8,0.2,1.4,0.3,1.9,0.5c0.5,0.1,0.9,0.2,1.2,0.3c0.3,0.1,0.5,0.1,0.7,0.1
			c0.2,0,0.4,0,0.6,0c0.2,0,0.3,0,0.4,0c0.1,0,0.4,0,0.4,0c0.6-0.1,1.1-0.2,1.6-0.4c0.5-0.2,0.9-0.4,1.2-0.7
			c0.3-0.3,0.6-0.5,0.9-0.8c0.2-0.3,0.4-0.5,0.5-0.8l0,0C32.9,53.5,32.6,53.7,32.3,53.9z M34.6,50.5c-0.6,0.4-1.4,0.8-2.4,1.4
			c-0.5,0.2-1,0.6-1.5,0.9c-0.5,0.4-0.8,0.6-1,0.6l0,0c0.5-0.4,0.8-0.8,1.1-1.2c0.3-0.4,0.5-0.8,0.5-1.3c0.1-0.6,0.3-1.3,0.4-2
			c0.1-0.7,0.3-1.2,0.3-1.5l0,0c-0.3,0.4-0.5,0.7-0.7,0.9c-0.2,0.3-0.3,0.5-0.4,0.7c-0.1,0.2-0.2,0.4-0.3,0.6
			c-0.1,0.2-0.2,0.4-0.3,0.6c-0.3,0.7-0.5,1.3-0.7,1.8c-0.2,0.4-0.3,0.8-0.5,1.1c0,0-0.5,0.9-0.9,1.1l0.9-0.2l1.7-0.4
			c0.5-0.1,1.1-0.3,1.6-0.6c0.5-0.3,1-0.6,1.5-1c0.5-0.4,0.9-0.9,1.2-1.4c0.3-0.5,0.6-1.1,0.8-1.8l0,0
			C35.6,49.6,35.2,50.1,34.6,50.5z M35.8,42.8c-0.2,0.5-0.4,1-0.6,1.5c-0.2,0.5-0.3,1.1-0.5,1.7h0c0-0.1,0-0.2,0.1-0.5
			c0.1-0.3,0.1-0.5,0.1-0.7c0-0.5-0.1-0.9-0.2-1.4c-0.2-0.4-0.4-0.8-0.6-1.2c-0.2-0.4-0.4-0.7-0.6-1.1c-0.2-0.3-0.3-0.7-0.4-1h0
			c-0.1,0.5,0,1,0.1,1.7c0.1,0.6,0.3,1.2,0.4,1.8c0.2,0.6,0.3,1.2,0.5,1.7c0.2,0.5,0.2,0.9,0.2,1.1V47c0,0.2,0,0.4-0.1,0.6h0
			c0.3-0.6,0.7-1,1-1.4c0.3-0.4,0.6-0.8,0.9-1.2c0.3-0.4,0.5-0.9,0.6-1.4c0.2-0.5,0.2-1.2,0.2-2c0-0.4-0.1-0.8-0.2-1.3
			c-0.1-0.5-0.2-0.8-0.3-1h0c0,0.2,0,0.4,0,0.6c0,0.2,0,0.4,0,0.6c0,0.2-0.1,0.6-0.2,0.9C36.2,41.9,36,42.3,35.8,42.8z M34.6,39.9
			c-0.2-0.4-0.5-0.8-1-1.3c-0.3-0.3-0.5-0.5-0.7-0.6c-0.2-0.2-0.3-0.3-0.4-0.4c-0.1-0.1-0.2-0.2-0.3-0.3C32.1,37.1,32,37,32,36.9h0
			c0.1,0.2,0.2,0.6,0.3,1.2c0.2,0.5,0.4,1,0.6,1.4c0.5,0.6,0.8,1.2,1.1,1.5c0.3,0.4,0.5,0.7,0.6,1c0.1,0.3,0.2,0.5,0.3,0.7
			c0.1,0.2,0.1,0.4,0.1,0.6h0.1c0.2-0.9,0.4-1.6,0.7-2.4c0.3-0.7,0.4-1.4,0.4-2.1c0-0.6-0.1-1.2-0.3-1.9c-0.2-0.6-0.6-1.3-1.2-2h0
			c0.1,0.2,0.2,0.4,0.3,0.7c0.1,0.2,0.2,0.5,0.2,0.8c0,0.9,0,1.6-0.1,2.1C35,39,35,39.4,35,39.9c0,0.3,0,0.6,0,0.8
			c0,0.2,0,0.4,0,0.6h0C34.9,40.8,34.7,40.3,34.6,39.9z M32.8,33.5c0.1,0.3,0.3,0.6,0.4,0.9c0.1,0.4,0.2,0.8,0.3,1.3
			c0.1,0.5,0.3,1.1,0.5,1.8v0c-0.3-0.5-0.6-1-0.9-1.3c-0.3-0.3-0.7-0.6-1-0.8c-0.3-0.2-0.7-0.5-0.9-0.7c-0.3-0.2-0.5-0.6-0.7-1h0
			c0.2,0.5,0.3,0.9,0.4,1.2c0.1,0.3,0.2,0.5,0.3,0.7c0.1,0.2,0.2,0.4,0.3,0.5c0.1,0.1,0.3,0.3,0.5,0.5c0.6,0.5,1.1,0.9,1.5,1.3
			c0.4,0.4,0.8,0.8,1.1,1.2v-2.8c0-0.8-0.2-1.6-0.7-2.3c-0.5-0.7-1.1-1.1-1.8-1.3v0C32.4,33,32.6,33.2,32.8,33.5z M28.1,56.8
			c-0.2,0-0.5,0-0.7-0.1c-0.2,0-0.5-0.1-0.7-0.1v0c-0.2-0.1-0.5-0.2-0.8-0.3c-0.3-0.1-0.7-0.2-1.1-0.4c-0.8-0.3-1.3-0.5-1.7-0.6
			c-0.4-0.1-0.8-0.2-1.2-0.2c-0.4,0-0.7,0-1.2,0.1c-0.4,0.1-0.7,0.2-0.9,0.2c-0.2-0.1-0.5-0.1-0.8-0.2c-0.4-0.1-0.8-0.1-1.2-0.1
			c-0.4,0-0.8,0.1-1.2,0.2c-0.4,0.1-1,0.3-1.7,0.6c-0.9,0.3-1.5,0.5-2,0.7c-0.4,0.1-0.9,0.2-1.3,0.2c-0.2,0-0.4,0-0.6,0
			c-0.2,0-0.3-0.1-0.5-0.1c0,0-0.4-0.1-0.6-0.2c-0.2-0.1-0.5-0.2-0.8-0.3l0,0c0.4,0.5,1.4,1.1,1.4,1.1c0.7,0.4,1.5,0.6,2.2,0.6
			c0.3,0,0.6,0,0.9-0.1c0.3,0,0.5-0.1,0.8-0.2c0.3-0.1,0.5-0.2,0.8-0.4c0.3-0.2,0.7-0.4,1.1-0.6c0.5-0.3,0.8-0.5,1.1-0.7
			c0.3-0.2,0.7-0.3,1.1-0.3c0.2,0,0.3,0,0.5,0.1c-0.5,0.3-1.2,0.6-1.8,1.1c-0.7,0.4-1.4,1-2,1.7l0.7,0.6c0.6-0.7,1.3-1.3,2-1.9
			c0.7-0.6,1.3-1,1.9-1.2c0.5,0.2,1.2,0.6,1.9,1.2c0.7,0.6,1.4,1.2,2,1.9l0.7-0.6c-0.6-0.7-1.3-1.2-2-1.7c-0.7-0.4-1.3-0.8-1.9-1.1
			c0.2-0.1,0.4-0.1,0.5-0.1c0.4,0,0.8,0.1,1.1,0.3c0.3,0.2,0.7,0.4,1.2,0.7c0.4,0.2,0.8,0.4,1.1,0.6c0.3,0.2,0.6,0.3,0.8,0.4
			c0.3,0.1,0.5,0.2,0.8,0.2c0.2,0.1,0.5,0.1,0.8,0.1v0h0.2c0.6,0,1.2-0.1,1.8-0.4c0.7-0.3,1.3-0.7,1.8-1.3v0c-0.6,0.3-1,0.4-1.3,0.5
			C28.8,56.7,28.5,56.8,28.1,56.8z M37.1,45c0,0,0-0.1,0-0.1c0-0.1,0-0.1,0-0.2c0-0.1,0-0.2-0.1-0.4c-0.1,0.6-0.2,1-0.5,1.4
			c-0.3,0.4-0.6,0.8-0.9,1.2c0,0,0,0-0.1,0.1c-0.3,0.4-0.7,0.8-1.1,1.2c-0.4,0.5-0.9,1.1-1.3,1.8l0,0c0.2-0.3,0.3-0.7,0.5-1.2
			c0.2-0.5,0.2-0.9,0.2-1.2c0-0.3,0-0.6-0.1-0.8c0-0.2-0.1-0.5-0.1-0.7c-0.1-0.3-0.1-0.6-0.1-0.9c0-0.3-0.1-0.7-0.1-1.2h0
			c0,0,0,0,0,0c0,0,0,0,0,0h0c-0.2,0.6-0.4,1.1-0.4,1.6c-0.1,0.5-0.2,1.2-0.3,2.1c-0.1,0.5-0.1,0.9-0.1,1.3c0,0.4-0.1,0.7-0.1,1
			c-0.1,0.3-0.1,0.6-0.2,0.8c-0.1,0.2-0.2,0.4-0.3,0.7c0,0,0,0.1-0.1,0.1l0,0c0,0,0,0,0,0l1-0.7l2-1.3c0.2-0.2,0.5-0.4,0.8-0.7
			c0.3-0.3,0.5-0.7,0.8-1.1c0.1-0.2,0.3-0.5,0.4-0.8c0.1-0.2,0.1-0.3,0.2-0.5C37,46,37.1,45.6,37.1,45C37.1,45.1,37.1,45.1,37.1,45
			C37.1,45.1,37.1,45.1,37.1,45C37.1,45.1,37.1,45.1,37.1,45z M25.3,33.1c0.1,0,0.1,0.1,0.2,0.1c0.1,0.1,0.1,0.1,0.1,0.2
			c0,0.1,0.1,0.1,0.1,0.1c0.1,0,0.1,0,0.1-0.1c0-0.1,0-0.1,0-0.1c0,0,0,0,0-0.1c0-0.1,0-0.2-0.1-0.2c-0.1-0.1-0.2-0.1-0.4-0.1
			c0,0-0.1,0-0.1,0h0c-0.1,0-0.1,0-0.1,0.1C25.2,33.1,25.2,33.1,25.3,33.1z M21,32.2L21,32.2c0.3-0.1,0.5-0.1,0.6-0.1h0.6
			c0.1,0,0.2,0,0.2-0.1c0.1-0.1,0.1-0.1,0.1-0.2c-0.1-0.2-0.3-0.3-0.5-0.3c-0.2,0-0.3,0-0.4,0c-0.1,0-0.2,0-0.5,0.1
			c-0.3,0.1-0.4,0.2-0.5,0.2c-0.1,0-0.2,0-0.2,0.1c0.1,0.1,0.1,0.1,0.2,0.2C20.7,32.1,20.9,32.2,21,32.2z M19.8,54.3
			c6.7,0,12.2-5.5,12.2-12.2c0-6.7-5.5-12.2-12.2-12.2c-6.7,0-12.2,5.5-12.2,12.2C7.6,48.8,13.1,54.3,19.8,54.3z M8.2,42.4h1.9
			c0,0.8,0.2,1.6,0.4,2.4c-0.1,0-0.1,0-0.1-0.1l-0.1-0.1l-0.2-0.3l-0.3,0.1c0,0.2-0.1,0.3-0.2,0.2c-0.1-0.1-0.1-0.1-0.2-0.1
			C9.1,44.6,9,44.7,9,45c0,0.2-0.1,0.4-0.1,0.5l0.3,0.7c0.1,0.1,0.1,0.1,0.2,0c0.1,0.1,0.2,0.2,0.2,0.3c0.1,0.1,0.1,0.1,0.2,0.1
			c0.1,0,0.1,0,0.1-0.1h0c0.1,0.1,0.1,0.1,0.2,0.2c0.1,0.1,0.1,0.1,0.2,0.2v0c0.1,0.1,0.2,0.1,0.3,0.1c0.1,0.2,0.1,0.3,0.2,0.5
			c0.1,0.1,0.2,0.2,0.3,0.2c0.1,0,0.1,0,0.2-0.1c0.1,0.2,0.1,0.4,0.2,0.4c0.1,0,0.1,0.1,0.2,0.1c0.1,0.1,0.1,0.1,0.2,0.1h0.1
			c0,0,0,0,0,0c0,0.1,0.1,0.2,0.2,0.3c0.1,0.1,0.2,0.1,0.2,0.2c0,0,0,0,0,0c0,0,0,0,0,0c0,0,0,0,0,0c0,0,0.1,0.1,0.1,0.1l-1.3,1.3
			C9.5,48.1,8.3,45.4,8.2,42.4z M17.2,39c0,0-0.1,0-0.1-0.1l-0.1-0.1c0.7-0.6,1.6-1,2.6-1.1V39c0,0,0,0-0.1,0c0,0,0,0,0,0
			c0,0,0,0,0,0c0,0,0,0-0.1,0c0,0,0,0,0,0c0,0,0,0,0,0c0,0-0.1,0-0.1,0c0,0-0.1,0-0.1,0c0,0,0,0,0,0c0,0-0.1-0.1-0.1-0.2
			c0,0,0,0,0,0c0,0,0,0,0,0c-0.1,0.1-0.2,0.1-0.2,0.2c0,0.1,0,0.1-0.1,0.3c0,0.1-0.1,0.2-0.2,0.2c-0.1,0-0.2,0.1-0.2,0.1l-0.1-0.1
			h-0.2c-0.1-0.1-0.1-0.1-0.1-0.1c0,0-0.1,0-0.1-0.1c0,0,0,0,0,0c-0.1,0-0.1,0-0.1,0.1l-0.1-0.1l0,0v-0.1
			C17.4,39.2,17.3,39.1,17.2,39z M16.5,38.4l-1.2-1.2c1.1-1,2.6-1.7,4.2-1.8v1.8C18.3,37.2,17.3,37.7,16.5,38.4z M17.2,44.2
			c0.1-0.1,0-0.2,0.1-0.3l-0.1,0.1c0.1-0.1,0.2-0.2,0.2-0.3c0-0.1,0.1-0.1,0.1-0.2c0,0,0,0,0,0c0,0.1,0.1,0.2,0.1,0.3L16.5,45
			c-0.5-0.5-0.8-1.1-0.9-1.8c0.1,0,0.2,0,0.3,0.1c0,0,0.3,0.2,0.3,0.2c0.1,0,0.1,0,0.2,0l0.2,0.1c0,0.1,0,0.2,0,0.2
			c0,0,0,0.1,0.1,0.1c0.1,0,0.1,0.1,0.2,0.1l0.1,0c0,0,0-0.1,0-0.2c0-0.1,0-0.1,0-0.1l0.1,0.3l0.1,0.3l0,0
			C17.1,44.3,17.1,44.3,17.2,44.2z M19.6,45.5c0.1,0.1,0.1,0.1,0.1,0.1c0,0.1-0.1,0.1-0.3,0.1c-0.1,0-0.1,0.1-0.2,0.2
			c0,0.2-0.1,0.3-0.1,0.4c0,0,0,0-0.1,0c0,0,0,0,0,0c-0.8-0.1-1.6-0.5-2.2-1l1.1-1.1c0.4,0.4,0.9,0.6,1.5,0.7c0,0.1,0,0.1,0,0.2
			c-0.1,0.1-0.1,0.1-0.1,0.2C19.5,45.4,19.6,45.5,19.6,45.5z M14.2,45.6c0-0.4-0.1-0.6-0.1-0.7c0-0.1-0.1-0.2-0.1-0.4
			c0-0.2-0.1-0.4-0.1-0.5c-0.1-0.1-0.2-0.3-0.4-0.5v-0.2c0,0,0-0.1-0.1-0.2v0c0-0.1,0-0.1,0.1-0.1c0,0,0.2-0.1,0.4-0.1
			c0-0.2,0-0.3,0-0.4l0.3,0.1c0.1,0,0.1-0.1,0.1-0.2c0,0,0-0.1-0.1-0.3c-0.1-0.1-0.1-0.2-0.1-0.3c0-0.1,0-0.1,0.1-0.1
			c0.1,0,0.2-0.1,0.2-0.1c0.1,0,0.2,0,0.3,0.1c0.1,0.1,0.1,0.2,0.1,0.3c0,0.1,0,0.2,0,0.2c0,0.1,0,0.1,0,0.2l0.1,0
			c-0.1,0.3-0.2,0.4-0.3,0.4c-0.1,0-0.1,0-0.2-0.1c0-0.1-0.1-0.1-0.1-0.1c0,0,0,0,0,0c0,0.1,0,0.1,0,0.2c0,0.1,0,0.1,0,0.2
			c0,0.2-0.1,0.3-0.3,0.2c-0.1,0.1,0,0.2,0.2,0.2c0.1,0.2,0.1,0.2,0.2,0.2c0,0,0.1-0.1,0.1-0.3c0-0.2,0.1-0.3,0.1-0.3l0,0l0.2,0
			c0,0,0,0,0,0.1c0,0,0,0,0,0c0.2,0.9,0.6,1.7,1.2,2.4l-1.7,1.7c-0.1-0.1-0.1-0.2-0.1-0.3c0-0.2,0.2-0.3,0.2-0.4c0,0,0-0.3,0-0.3
			C14.3,45.8,14.2,45.7,14.2,45.6z M13.2,43.1c0,0.1,0,0.1,0,0.2c0,0.1,0,0.1-0.1,0.1c0,0,0,0,0,0c-0.1-0.3-0.1-0.6-0.1-0.9h0.3
			c0,0.1,0,0.1,0,0.2c0,0.1-0.1,0.1-0.1,0.2c0,0.1-0.1,0.1-0.1,0.2C13.2,43,13.2,43,13.2,43.1z M13.1,41.8c0.1-1.6,0.7-3.1,1.8-4.2
			l1.2,1.2c0,0,0,0,0,0c-0.1,0-0.1,0-0.2,0.1c-0.1,0.1-0.1,0.1-0.2,0.2c-0.2,0.1-0.3,0.1-0.4,0.2c-0.1,0.1-0.2,0.2-0.3,0.3
			c-0.2,0.1-0.3,0.1-0.3,0.1c0,0-0.1,0-0.1,0.1c0.1,0.1,0.1,0.2,0,0.2c-0.1,0-0.2,0-0.4,0.1c0,0-0.1,0-0.1,0l-0.1,0.1
			c0,0.1,0,0.1,0,0.1c0,0,0,0.1,0,0.1c-0.1,0.1-0.1,0.1-0.2,0.2c0,0.1,0,0.2,0,0.4l0.1,0.4c0,0,0,0,0,0c0,0,0,0.1,0,0.1H13.1z
			 M16.5,45.8c0.6,0.5,1.3,0.9,2.2,1.1c-0.1,0-0.1,0-0.2,0.1c-0.1,0-0.2,0.1-0.2,0.3c0,0.2-0.1,0.3-0.2,0.3c-0.1,0-0.1,0.1-0.1,0.2
			c0.1,0.1,0.2,0.3,0.3,0.5c0.1,0.2,0.2,0.3,0.4,0.4l0.2,0.1c0.1,0,0.2,0,0.2,0.1c0.1,0,0.1,0,0.2,0c-1.6-0.1-3-0.7-4.1-1.7
			L16.5,45.8z M14.8,36.7l-1.2-1.2c1.6-1.5,3.6-2.4,5.9-2.4v1.7C17.7,34.8,16.1,35.6,14.8,36.7z M14.4,37.1
			c-1.1,1.2-1.9,2.9-1.9,4.7h-1.7c0.1-2.3,1-4.3,2.5-5.9L14.4,37.1z M12.4,42.4c0,0.3,0,0.6,0.1,0.9c0,0,0-0.1-0.1-0.1
			c-0.1-0.1-0.2-0.2-0.2-0.2c-0.1,0-0.1,0-0.2,0.1c0,0.1-0.1,0.1-0.1,0.2c-0.2,0.1-0.4,0.2-0.5,0.2c-0.1,0.1-0.2,0.3-0.2,0.5
			c0,0.1,0,0.1,0,0.2c0,0.1,0,0.1-0.1,0.2c0.1,0.1,0.1,0.2,0,0.2c0,0.1,0,0.1,0,0.1c0,0-0.1,0-0.1,0c0,0,0,0.1-0.1,0.1
			c-0.2-0.7-0.3-1.5-0.4-2.3H12.4z M19.5,53.7c-3-0.1-5.6-1.3-7.6-3.2l1.3-1.3c1.7,1.6,3.9,2.6,6.3,2.6V53.7z M19.5,51.2
			c-2.3-0.1-4.3-1-5.9-2.4c0.1,0.1,0.2,0.1,0.3,0.1c0.1,0,0.2,0,0.3-0.1c0.1-0.1,0.3-0.1,0.4-0.2c0.2,0,0.3,0,0.4-0.1
			c0.1,0,0.2,0,0.3,0c0.1,0,0.1-0.1,0.1-0.2c0-0.1,0-0.2-0.1-0.2c-0.1-0.1-0.1-0.1-0.1-0.2c0,0,0-0.1-0.1-0.1c0,0-0.1-0.1-0.3-0.3
			l0,0c1.2,1.1,2.9,1.9,4.7,1.9V51.2z M19.8,46.7L19.8,46.7c-0.2,0-0.3,0-0.4-0.1c0,0,0-0.1,0-0.1c0,0,0.1-0.1,0.2-0.1
			c0.1-0.1,0.2-0.1,0.3-0.1l0-0.1l0.3-0.2c0.1,0,0.1,0,0.1,0c0,0,0.1,0,0.2-0.1c0,0,0.1,0,0.3,0.1c0.2,0.1,0.3,0.1,0.3,0.1l0-0.2
			c0.1,0,0.1,0.1,0.2,0.2c0.1,0,0.1,0,0.2-0.1c0-0.1,0-0.1,0-0.2c0,0,0.1,0,0.1,0c0,0,0,0,0.1,0c0,0,0,0,0.1,0h0
			c0.1,0,0.1,0,0.2-0.1c0.1-0.1,0.2-0.1,0.2-0.1c0,0,0.1,0,0.1,0c0,0,0,0.1,0,0.2c0,0.2-0.1,0.4-0.3,0.5c-0.2,0.1-0.4,0.2-0.6,0.2
			c0,0-0.1,0.1-0.1,0.2c0,0.1-0.1,0.1-0.1,0.1c-0.1,0-0.3,0-0.5-0.1c0,0-0.1-0.1-0.1-0.2c-0.1,0-0.2,0-0.3,0L20,46.7
			C19.9,46.7,19.9,46.7,19.8,46.7z M21.6,45.3c0-0.1,0.1-0.2,0.2-0.3c0.1,0,0.2-0.1,0.3-0.1c0,0.1-0.1,0.2-0.2,0.2
			C21.7,45.3,21.6,45.4,21.6,45.3L21.6,45.3z M22.8,44.4c0.1,0.1,0.2,0.2,0.2,0.3c0,0.1-0.1,0.2-0.2,0.2c-0.1,0-0.1-0.1-0.2-0.3
			c-0.2-0.1-0.3-0.1-0.3-0.3c0-0.1,0-0.2,0-0.2c0.1,0,0.1,0,0.2-0.1c0.1,0,0.1,0,0,0.2C22.6,44.2,22.7,44.3,22.8,44.4z M26.7,37.5
			C26.8,37.5,26.8,37.6,26.7,37.5c0.2,0,0.3,0.1,0.4,0.1c0.1,0.1,0.2,0.3,0.5,0.6c0,0,0.1,0,0.1,0.1c0,0.1,0.1,0.1,0.1,0.1
			c0,0,0.1,0,0.2-0.1c0,0,0-0.1,0-0.1c0.5,1.1,0.8,2.2,0.8,3.5h-1.7c0,0,0,0,0,0c0-0.2,0-0.3-0.1-0.5C27,41.1,27,41,27,40.7
			c0-0.2,0-0.3,0-0.3c-0.1,0-0.1,0-0.2,0c0,0-0.1,0.1-0.1,0.2c0,0.1-0.1,0.2-0.1,0.2v0c0,0,0,0.1,0,0.1c0,0,0,0,0,0.1
			c0,0.1-0.1,0.2-0.1,0.3c0,0.1,0,0.2,0,0.3c0,0,0,0,0,0c0,0,0,0.1,0,0.1h-0.9c0.1-0.1,0.1-0.1,0.2-0.1h0l0.2-0.1
			c-0.1,0-0.1-0.1-0.1-0.1c0-0.1,0-0.1,0-0.1c0,0,0.1,0,0.2-0.1c0.1-0.1,0.1-0.2,0.2-0.4c0.1-0.2,0.3-0.6,0.3-0.8
			c0-0.1-0.1-0.1-0.1-0.2c0-0.1,0-0.1,0-0.2c0-0.3,0.1-0.8-0.2-0.9c0,0,0,0,0-0.1c0.1-0.1,0.1-0.2,0.1-0.3h-0.2c0,0,0-0.1,0.1-0.1
			c0-0.1,0.1-0.1,0.1-0.2c0-0.1,0-0.1-0.1-0.1c-0.1,0-0.2,0-0.2,0c-0.1,0-0.1,0-0.1,0c0,0,0,0-0.1,0c0,0,0-0.1-0.1-0.1
			c0-0.1-0.1-0.3-0.2-0.4c-0.1-0.1-0.2-0.2-0.3-0.2c0,0,0,0,0,0c0-0.1,0-0.1,0-0.2l0.3-0.3l0.5,0.2c0,0.1,0,0.2,0.1,0.3
			c0,0,0.1,0.1,0.2,0.1c0.1,0,0.1,0.1,0.2,0.1v0C26.7,37.5,26.7,37.5,26.7,37.5z M25.1,49.3c0,0-0.1,0-0.1,0c0,0-0.1,0-0.1-0.1
			c0-0.1,0-0.1,0.1-0.2c0.1-0.1,0.2-0.1,0.2-0.3c0.1-0.1,0.1-0.2,0.1-0.2c0-0.1,0-0.1-0.1-0.1c0,0-0.1,0-0.1-0.1
			c-0.1,0-0.1-0.1-0.2-0.1c-0.1,0-0.1-0.1-0.2-0.1c-0.1-0.1-0.1-0.1-0.1-0.2c0,0,0-0.1,0.1-0.2c0,0,0-0.1,0-0.1c0,0,0.1-0.1,0.1-0.1
			l0.9,0.9c0,0.1,0.1,0.2,0.2,0.2l0.1,0.1c-0.3,0.3-0.7,0.6-1,0.8c0,0,0-0.1,0.1-0.1c0,0,0,0,0,0C25.1,49.4,25.1,49.4,25.1,49.3z
			 M24.5,44.9c-0.1,0-0.2,0-0.2,0c-0.1,0-0.2,0.1-0.2,0.2c0,0,0,0,0,0c-0.1,0-0.1,0-0.2,0c-0.1,0-0.1,0.1-0.2,0.1
			c-0.1,0-0.1,0-0.1-0.1c0-0.1,0.1-0.1,0.4-0.2c0.1-0.1,0.2-0.2,0.2-0.2c0,0,0.1-0.1,0.2-0.1c0.1-0.1,0.2-0.2,0.3-0.3
			c0.1-0.1,0.2-0.2,0.2-0.3h0c0,0.1,0.1,0.2,0.2,0.2c0.1,0,0.2-0.1,0.2-0.3c0.2,0.1,0.3,0.1,0.3,0.1c0.1,0,0.2-0.1,0.3-0.2h0.5
			c0,0,0,0,0,0c0,0,0,0,0,0h0c-0.3,0.9-0.8,1.7-1.4,2.4c0,0,0-0.1,0-0.1c0,0-0.1-0.4-0.1-0.4c-0.1,0-0.1,0.1-0.2,0.3
			c-0.1,0.2-0.1,0.3-0.2,0.4L24,46.8c-0.1,0-0.2,0-0.4,0c-0.1,0-0.2,0-0.3-0.1c-0.2-0.1-0.3-0.1-0.3-0.1c-0.1,0-0.2-0.1-0.3-0.1
			c-0.1,0-0.2-0.1-0.2-0.1c0-0.1,0.1-0.1,0.2-0.1c0.1,0,0.2,0,0.3,0.1c0.2,0,0.3,0.1,0.5,0.1c0.2,0,0.3,0.1,0.4,0.1
			c0.1,0,0.2,0.1,0.2,0.1l0.2-0.1c0-0.1,0-0.1,0.1-0.2c0.1-0.1,0.1-0.2,0.1-0.2c0.1-0.1,0.1-0.3,0.2-0.4c0-0.2,0.1-0.4,0.1-0.5
			C24.6,45,24.6,44.9,24.5,44.9z M25.6,42.4h1c0,0.4-0.1,0.8-0.2,1.2c-0.1-0.2-0.2-0.3-0.2-0.4c-0.1-0.1-0.2-0.2-0.3-0.3
			c0-0.1,0-0.2-0.1-0.3c0,0,0-0.1-0.1-0.1C25.7,42.5,25.6,42.5,25.6,42.4z M26,47.4c-0.1,0-0.1,0-0.1,0.1c0,0,0,0.1,0,0.3l-0.6-0.6
			c0.8-0.9,1.4-2,1.7-3.2c0,0,0,0,0,0c0.1,0.1,0.2,0.1,0.3,0c0-0.1,0.1-0.1,0.1-0.1c0-0.1-0.1-0.2-0.2-0.3H27
			c0.1-0.3,0.1-0.7,0.1-1.1h1.7c-0.1,2.3-1,4.3-2.4,5.9l-0.1-0.1c0,0,0,0,0,0c0-0.2-0.1-0.4-0.1-0.5C26.2,47.5,26.1,47.4,26,47.4z
			 M25.5,38.6C25.5,38.6,25.5,38.6,25.5,38.6c0,0.1,0,0.1,0,0.2c0,0.1-0.1,0.1-0.1,0.2c0,0.1,0.1,0.1,0.3,0.3
			c0.2,0.1,0.3,0.2,0.4,0.3c0.1,0.1,0.1,0.2,0.2,0.5c0.1,0.2,0.1,0.4,0.1,0.4c0,0.1-0.1,0.2-0.1,0.3C26.2,40.9,26,41,25.9,41l0,0
			c0-0.1,0-0.1,0.1-0.2c0.1-0.1,0.1-0.2,0.1-0.2c0.1-0.1,0.2-0.2,0.2-0.2c-0.1,0-0.1,0-0.1-0.1c0,0-0.1-0.1-0.2-0.2
			c0-0.1-0.1-0.1-0.2-0.1c-0.1,0-0.1,0-0.2,0.1c-0.1,0-0.1,0.1-0.2,0.1l-0.1-0.2c0-0.1,0-0.1,0-0.2l-0.3-0.5
			c-0.1-0.1-0.2-0.1-0.4-0.1c-0.1,0-0.2,0-0.3,0c-0.1,0-0.2,0-0.3,0c-0.1,0-0.2,0-0.3,0.1c-0.1,0.1-0.2,0.2-0.3,0.3
			c0,0,0,0.1-0.1,0.1c0,0-0.1-0.1-0.1-0.1l1.8-1.8c0,0,0,0,0,0.1c0,0,0.1,0.1,0.2,0.2c0.1,0.1,0.1,0.1,0.2,0.2
			C25.3,38.2,25.4,38.4,25.5,38.6z M21.1,50.8c0.2,0.1,0.3,0.2,0.5,0.3c-0.5,0.1-1,0.2-1.5,0.2v-1.7h0c0.1,0.1,0.2,0.2,0.3,0.3
			c0.1,0,0.2,0,0.4,0.1c0.2,0,0.3,0,0.3,0.1c0,0.1,0,0.1-0.1,0.2c0,0.1-0.1,0.1-0.1,0.2C20.9,50.5,21,50.6,21.1,50.8z M20.1,53.7
			v-1.9c0.7,0,1.4-0.1,2-0.3c0,0,0,0,0,0c0,0,0,0,0,0.1c0.2,0.2,0.4,0.3,0.4,0.4c0.1,0.1,0.2,0.2,0.4,0.2c0.1,0,0.2,0,0.3-0.1
			c0-0.1,0.1-0.1,0.1-0.2c0.1-0.1,0.1-0.1,0.2-0.1c0.1,0,0.1-0.1,0.2-0.1c0.1-0.1,0.2-0.1,0.3-0.2c0.1-0.1,0.2-0.2,0.2-0.3
			c0.1,0,0.1,0,0.2-0.1c0.1-0.1,0.1-0.2,0.2-0.4c0,0,0,0,0.1,0c0,0,0,0,0-0.1c0.6-0.4,1.2-0.8,1.7-1.3l1.3,1.3
			C25.7,52.4,23.1,53.6,20.1,53.7z M28.2,50.1l-1.3-1.3c1.6-1.7,2.6-3.9,2.6-6.3h1.9C31.3,45.4,30.1,48.1,28.2,50.1z M31.4,41.8
			h-1.9c-0.1-2-0.7-3.9-1.9-5.4c0-0.1,0-0.1-0.1-0.2c0,0-0.1-0.1-0.1-0.1c-0.2-0.2-0.3-0.4-0.5-0.6c0,0,0-0.1,0-0.1l1.3-1.3
			C30.1,36.2,31.3,38.8,31.4,41.8z M20.1,30.5c3,0.1,5.6,1.3,7.6,3.2l-1.1,1.1c0-0.1,0-0.1-0.1-0.2c-0.1-0.1-0.1-0.1-0.2-0.1
			c-0.1-0.1-0.2-0.1-0.2-0.3c0-0.1,0-0.2-0.1-0.3c-0.2-0.1-0.3-0.2-0.4-0.4c-0.1-0.2-0.2-0.3-0.3-0.3c-0.1,0-0.1,0-0.3,0
			c-0.1,0-0.2-0.1-0.3-0.1c-0.1,0-0.2,0-0.3,0c-0.1,0-0.2,0.1-0.3,0.1c0,0,0,0,0,0c-1.2-0.6-2.5-1-4-1c0.1-0.2,0.1-0.3,0-0.3
			c0,0-0.1,0-0.2,0.1V30.5z M20.1,33c1.4,0,2.6,0.4,3.8,1c0,0,0,0,0,0c0,0,0.1,0.1,0.2,0.2c0.1,0.1,0.1,0.1,0.1,0.2
			c0.1,0.2,0.1,0.3,0.1,0.4c0,0.1,0.1,0.1,0.1,0.2c0,0.1,0,0.2,0.1,0.3c0.1,0.1,0.1,0.2,0.2,0.3c0,0,0.1,0,0.2,0c0.1,0,0.1,0,0.2,0
			c0.1,0,0.1,0,0.2,0.1c0.1,0.1,0.1,0.2,0.1,0.2c0,0,0,0.1,0,0.1l-0.5,0.5l0,0c-0.1-0.4-0.2-0.6-0.2-0.7c-0.1-0.1-0.2-0.1-0.3-0.1
			c0,0-0.1-0.1-0.3-0.4c-0.2-0.2-0.3-0.3-0.3-0.3c-0.1,0-0.1,0-0.1,0c0,0.1,0.1,0.1,0.1,0.1c0,0,0.1,0.1,0.2,0.3
			c0,0.1,0,0.1-0.1,0.1c0,0.1,0.1,0.2,0.2,0.2l0,0.1l0.1,0.2c-1.1-0.8-2.5-1.3-4-1.4V33z M20.1,35.4c1.6,0.1,3.1,0.7,4.2,1.8
			l-1.2,1.2c-0.8-0.7-1.8-1.2-3-1.2V35.4z M20.1,37.8c0.9,0.1,1.7,0.4,2.4,0.9c0,0-0.1,0-0.1,0c0,0-0.1,0-0.1,0.1c0,0,0,0,0,0.1
			c0,0.1,0.1,0.1,0.2,0.1L22,39.5v0c-0.1,0-0.1,0.1-0.2,0.1c-0.1,0.1-0.2,0.1-0.2,0.1c0,0,0,0.1,0,0.1l-0.2,0.2c0,0,0,0-0.1,0
			c-0.1,0-0.1-0.1-0.2-0.2c-0.1-0.1-0.2-0.2-0.2-0.2c-0.1,0-0.1,0-0.2,0.1c0,0-0.1,0-0.1,0c-0.1-0.1,0-0.1,0.2-0.2
			c0.2-0.1,0.3-0.1,0.4-0.1c0.2-0.2,0.3-0.4,0.3-0.7c0-0.1-0.1-0.2-0.2-0.2l-0.1,0.1c-0.1,0.1-0.2,0.1-0.3,0.2
			c-0.1,0.1-0.2,0.1-0.2,0.2c-0.1,0-0.1,0-0.2,0h-0.2c0,0,0,0,0,0V37.8z M19.7,40.5C19.8,40.6,19.8,40.6,19.7,40.5
			c0.2,0.1,0.2,0.1,0.3,0.1c0,0,0.1,0,0.2,0c0,0,0,0.1,0,0.1c0,0.1,0.1,0.1,0.2,0.1c0,0,0,0,0,0.1c0,0,0,0,0,0c0,0,0,0.1,0.1,0.1
			c0,0,0,0,0,0c0,0,0,0,0,0c0.1,0,0.1,0,0.1,0c0,0,0.1,0,0.1,0c0,0,0,0.1,0,0.1h0c0,0,0,0.1,0,0.1c0,0.1,0,0.1,0,0.2v0.1
			c0,0,0,0,0,0c-0.1,0.1-0.1,0.2-0.1,0.2c0,0.1,0,0.1,0.1,0.1c0.1,0,0.1,0,0.2,0.1c0.1,0.1,0.1,0.1,0.1,0.2v0.4c0,0.1,0,0.1,0.1,0.1
			c0,0,0.1,0.1,0.1,0.1c0,0.1,0,0.2,0,0.3c0,0.1-0.1,0.2-0.1,0.3c0,0-0.1,0-0.2,0c-0.1,0-0.2,0-0.3,0c-0.1,0-0.1,0.1-0.2,0.2
			c-0.1,0.1-0.1,0.3-0.1,0.4c0,0.1-0.1,0.2-0.2,0.2c-0.1,0-0.1,0-0.2,0c0,0,0,0,0,0l-0.1,0.2l0,0.1c-0.5,0-0.9-0.2-1.2-0.5l0.2-0.2
			c0.1,0,0.3-0.1,0.4-0.1c0,0,0,0,0.1,0c0.2-0.1,0.2-0.3,0.3-0.5c0.1-0.1,0.3-0.3,0.1-0.4c0.2-0.3-0.7-0.3-0.8-0.3
			c-0.2,0.1-0.1,0.3-0.2,0.4c0,0.1-0.1,0.1-0.2,0.1c-0.1,0.1-0.3,0.3-0.3,0.4l0,0c-0.1-0.1-0.1-0.2-0.1-0.3c0,0,0,0,0,0
			c0,0,0-0.1,0-0.1h0v0c0.1,0,0.2,0,0.2,0c0-0.1,0-0.2,0.1-0.2c0-0.1,0.1-0.2,0.2-0.5c-0.1,0-0.1-0.1-0.1-0.1c0-0.1,0-0.1-0.1,0
			c-0.1,0-0.1,0.1-0.1,0.1c0,0.1,0,0.1-0.1,0.2c-0.1,0.1-0.1,0.1-0.2,0.1c0-0.1,0-0.1-0.1-0.1c-0.1,0-0.1,0-0.2,0.1
			c-0.1,0-0.2,0-0.4,0c-0.2,0-0.3,0-0.4,0c-0.1-0.1,0-0.1,0.2-0.2c0-0.2,0-0.3,0.2-0.5c0.1,0.1,0.2,0.1,0.2,0.1l0.1-0.1h0
			c0.1,0,0.1,0.1,0.1,0.2c0,0.1,0,0.2,0.1,0.2c0.1,0,0.1,0,0.2-0.1V42c0.1-0.2,0.1-0.4,0.1-0.5v-0.1c0-0.1,0.1-0.1,0.1-0.2h0
			c0.1,0,0.1-0.1,0.2-0.1c0.1-0.1,0.1-0.2,0.1-0.2c0.1,0,0.2-0.1,0.4-0.2c0.2-0.1,0.3-0.2,0.3-0.2c0,0,0,0,0,0
			C19.5,40.5,19.6,40.5,19.7,40.5C19.7,40.5,19.7,40.5,19.7,40.5z M19.5,30.5v1.9c-2.4,0.1-4.7,1.1-6.3,2.6l-1.3-1.3
			C13.8,31.8,16.5,30.6,19.5,30.5z M11.4,34.2l1.3,1.3c-1.6,1.7-2.6,3.9-2.6,6.3H8.2C8.3,38.8,9.5,36.2,11.4,34.2z"/>
		<g>
			<path class="st5" d="M49.8,21.3v4.3c0,0.1,0,0.1-0.1,0.1h-0.1c-0.1,0-0.1,0-0.1-0.1l0-3.7l-3.1,3.8c0,0.1-0.1,0.1-0.2,0.1h0
				c-0.1,0-0.1,0-0.1-0.1v-4.3c0-0.1,0-0.1,0.1-0.1h0.1c0.1,0,0.1,0,0.1,0.1l0,3.7l3.1-3.8c0,0,0.1-0.1,0.2-0.1h0
				C49.7,21.1,49.8,21.2,49.8,21.3z"/>
			<path class="st5" d="M55.5,21.3v4.3c0,0.1,0,0.1-0.1,0.1h-0.1c-0.1,0-0.1,0-0.1-0.1l0-3.7l-1.5,1.9c-0.1,0.1-0.2,0.2-0.3,0.2h0h0
				c-0.1,0-0.2-0.1-0.3-0.2l-1.5-1.9l0,3.7c0,0.1,0,0.1-0.1,0.1h-0.1c-0.1,0-0.1,0-0.1-0.1v-4.3c0-0.1,0-0.1,0.1-0.1h0
				c0.1,0,0.1,0,0.2,0.1l1.9,2.3l1.9-2.3c0-0.1,0.1-0.1,0.2-0.1h0C55.4,21.1,55.5,21.2,55.5,21.3z"/>
			<path class="st5" d="M56.4,25.5c0-0.2,0.1-0.3,0.3-0.3s0.3,0.1,0.3,0.3c0,0.2-0.1,0.3-0.3,0.3S56.4,25.8,56.4,25.5z"/>
			<path class="st5" d="M65.9,25.7v1.1c0,0.1,0,0.1-0.1,0.1h-0.1c-0.1,0-0.1,0-0.1-0.1v-1.1c0,0,0,0-0.1,0H61v1.1
				c0,0.1,0,0.1-0.1,0.1h-0.1c-0.1,0-0.1,0-0.1-0.1v-1.1c0-0.2,0.1-0.3,0.2-0.3h0.1c1.3-2.1,1.5-4.2,1.5-6.2c0-0.1,0-0.1,0.1-0.1
				h2.9c0.1,0,0.1,0,0.1,0.1v6.2h0.1C65.8,25.4,65.9,25.4,65.9,25.7z M61.3,25.4h3.8v-6h-2.4C62.8,21.4,62.6,23.4,61.3,25.4z"/>
			<path class="st5" d="M71.9,25.7h-0.2c-0.1,0-0.1,0-0.2-0.1l-0.6-1.8h-3.1l-0.6,1.8c0,0.1-0.1,0.1-0.2,0.1h-0.2
				c-0.1,0-0.2-0.1-0.1-0.2l2.3-6.5c0-0.1,0.1-0.1,0.2-0.1h0.3c0.1,0,0.1,0,0.2,0.1l2.3,6.5C72,25.7,72,25.7,71.9,25.7z M70.8,23.5
				l-1.4-4.1L68,23.5H70.8z"/>
			<path class="st5" d="M76.4,19.1v0.1c0,0.1,0,0.1-0.1,0.1h-2.6v6.2c0,0.1,0,0.1-0.1,0.1h-0.1c-0.1,0-0.1,0-0.1-0.1v-6.5
				c0-0.1,0-0.1,0.1-0.1h2.9C76.3,19,76.4,19,76.4,19.1z"/>
			<path class="st5" d="M81.2,25.7H81c-0.1,0-0.1,0-0.2-0.1l-0.6-1.8h-3.1l-0.6,1.8c0,0.1-0.1,0.1-0.2,0.1h-0.2
				c-0.1,0-0.2-0.1-0.1-0.2l2.3-6.5c0-0.1,0.1-0.1,0.2-0.1h0.3c0.1,0,0.1,0,0.2,0.1l2.3,6.5C81.3,25.7,81.3,25.7,81.2,25.7z
				 M80.1,23.5l-1.4-4.1l-1.4,4.1H80.1z"/>
			<path class="st5" d="M89.5,25.7h-0.2c-0.1,0-0.1,0-0.2-0.1l-2-2.9l-2,2.9c0,0.1-0.1,0.1-0.2,0.1h-0.2c-0.1,0-0.2-0.1-0.1-0.2
				l2.2-3.2l-2.2-3.2c-0.1-0.1,0-0.2,0.1-0.2H85c0.1,0,0.1,0,0.2,0.1l2.1,3l2-3c0-0.1,0.1-0.1,0.2-0.1h0.2c0.1,0,0.2,0.1,0.1,0.2
				l-2.2,3.3l2.2,3.2C89.7,25.7,89.7,25.7,89.5,25.7z"/>
			<path class="st5" d="M95.3,25.7h-0.2c-0.1,0-0.1,0-0.2-0.1l-0.6-1.8h-3.1l-0.6,1.8c0,0.1-0.1,0.1-0.2,0.1h-0.2
				c-0.1,0-0.2-0.1-0.1-0.2l2.3-6.5c0-0.1,0.1-0.1,0.2-0.1H93c0.1,0,0.1,0,0.2,0.1l2.3,6.5C95.5,25.7,95.4,25.7,95.3,25.7z
				 M94.3,23.5l-1.4-4.1l-1.4,4.1H94.3z"/>
			<path class="st5" d="M102.2,19.1v6.5c0,0.1,0,0.1-0.1,0.1h-0.1c-0.1,0-0.1,0-0.1-0.1l0-5.8l-2.1,3.3c0,0.1-0.1,0.2-0.3,0.2h0h0
				c0,0,0,0,0,0c-0.2,0-0.2-0.1-0.3-0.2l-2.1-3.3l0,5.8c0,0.1,0,0.1-0.1,0.1h-0.1c-0.1,0-0.1,0-0.1-0.1v-6.5c0-0.1,0-0.1,0.1-0.1
				h0.1c0.1,0,0.1,0,0.2,0.1l2.4,3.8l2.4-3.8c0-0.1,0.1-0.1,0.2-0.1h0.1C102.2,19,102.2,19,102.2,19.1z"/>
			<path class="st5" d="M109.6,19.1v6.5c0,0.1,0,0.1-0.1,0.1h-0.1c-0.1,0-0.1,0-0.1-0.1l0-5.8l-2.1,3.3c0,0.1-0.1,0.2-0.3,0.2h0h0
				c0,0,0,0,0,0c-0.2,0-0.2-0.1-0.3-0.2l-2.1-3.3l0,5.8c0,0.1,0,0.1-0.1,0.1h-0.1c-0.1,0-0.1,0-0.1-0.1v-6.5c0-0.1,0-0.1,0.1-0.1
				h0.1c0.1,0,0.1,0,0.2,0.1l2.4,3.8l2.4-3.8c0-0.1,0.1-0.1,0.2-0.1h0.1C109.6,19,109.6,19,109.6,19.1z"/>
			<path class="st5" d="M115.9,25.7h-0.2c-0.1,0-0.1,0-0.2-0.1l-0.6-1.8h-3.1l-0.6,1.8c0,0.1-0.1,0.1-0.2,0.1H111
				c-0.1,0-0.2-0.1-0.1-0.2l2.3-6.5c0-0.1,0.1-0.1,0.2-0.1h0.3c0.1,0,0.1,0,0.2,0.1l2.3,6.5C116.1,25.7,116,25.7,115.9,25.7z
				 M114.8,23.5l-1.4-4.1l-1.4,4.1H114.8z"/>
			<path class="st5" d="M120.9,20.8c0,1.4-1.1,2-2.2,2c-0.5,0-0.8,0-1,0v2.8c0,0.1,0,0.1-0.1,0.1h-0.2c-0.1,0-0.1,0-0.1-0.1v-6.5
				c0-0.1,0-0.1,0.1-0.1c0.6-0.1,0.9-0.1,1.4-0.1C120.2,18.9,120.9,19.6,120.9,20.8z M120.5,20.8c0-0.8-0.4-1.6-1.7-1.6
				c-0.4,0-0.7,0-1.1,0.1v3.1c0.2,0,0.5,0,1,0C120.1,22.4,120.5,21.5,120.5,20.8z"/>
			<path class="st5" d="M129.1,19.1v6.5c0,0.1,0,0.1-0.1,0.1h-6.5c-0.1,0-0.1,0-0.1-0.1v-6.5c0-0.1,0-0.1,0.1-0.1h0.1
				c0.1,0,0.1,0,0.1,0.1v6.2h2.8v-6.2c0-0.1,0-0.1,0.1-0.1h0.1c0.1,0,0.1,0,0.1,0.1v6.2h2.8v-6.2c0-0.1,0-0.1,0.1-0.1h0.1
				C129,19,129.1,19,129.1,19.1z"/>
			<path class="st5" d="M134.1,25.5v0.1c0,0.1,0,0.1-0.1,0.1h-2.9c-0.1,0-0.1,0-0.1-0.1v-6.5c0-0.1,0-0.1,0.1-0.1h2.8
				c0.1,0,0.1,0,0.1,0.1v0.1c0,0.1,0,0.1-0.1,0.1h-2.5V22h2.2c0.1,0,0.1,0,0.1,0.1v0.1c0,0.1,0,0.1-0.1,0.1h-2.2v2.9h2.6
				C134.1,25.4,134.1,25.4,134.1,25.5z"/>
			<path class="st5" d="M140.1,19.1v6.5c0,0.1,0,0.1-0.1,0.1h-0.1c-0.1,0-0.1,0-0.1-0.1v-6.2h-2.7c0,2.1-0.2,4.2-1.3,6.2
				c-0.1,0.1-0.1,0.1-0.2,0.1h-0.1c-0.1,0-0.2,0-0.1-0.1c1.2-2.2,1.3-4.3,1.3-6.5c0-0.1,0-0.1,0.1-0.1h3.2
				C140.1,19,140.1,19,140.1,19.1z"/>
			<path class="st5" d="M145.7,23.9c0,1.2-0.7,2-2.1,2c-0.5,0-0.8,0-1.4-0.1c-0.1,0-0.1,0-0.1-0.1v-6.5c0-0.1,0-0.1,0.1-0.1h0.2
				c0.1,0,0.1,0,0.1,0.1v2.8c0.2,0,0.5,0,1,0C144.5,21.9,145.7,22.5,145.7,23.9z M145.2,23.9c0-0.7-0.4-1.6-1.8-1.6
				c-0.5,0-0.8,0-1,0v3.1c0.4,0,0.7,0.1,1.1,0.1C144.8,25.4,145.2,24.6,145.2,23.9z"/>
			<path class="st5" d="M151.8,25.7v1.1c0,0.1,0,0.1-0.1,0.1h-0.1c-0.1,0-0.1,0-0.1-0.1v-1.1c0,0,0,0-0.1,0h-4.5v1.1
				c0,0.1,0,0.1-0.1,0.1h-0.1c-0.1,0-0.1,0-0.1-0.1v-1.1c0-0.2,0.1-0.3,0.2-0.3h0.1c1.3-2.1,1.5-4.2,1.5-6.2c0-0.1,0-0.1,0.1-0.1
				h2.9c0.1,0,0.1,0,0.1,0.1v6.2h0.1C151.6,25.4,151.8,25.4,151.8,25.7z M147.2,25.4h3.8v-6h-2.4C148.6,21.4,148.4,23.4,147.2,25.4z
				"/>
			<path class="st5" d="M157.7,25.7h-0.2c-0.1,0-0.1,0-0.2-0.1l-0.6-1.8h-3.1l-0.6,1.8c0,0.1-0.1,0.1-0.2,0.1h-0.2
				c-0.1,0-0.2-0.1-0.1-0.2l2.3-6.5c0-0.1,0.1-0.1,0.2-0.1h0.3c0.1,0,0.1,0,0.2,0.1l2.3,6.5C157.9,25.7,157.8,25.7,157.7,25.7z
				 M156.6,23.5l-1.4-4.1l-1.4,4.1H156.6z"/>
		</g>
		<g>
			<path class="st1" d="M202.2,29.2c8.9,0,15.4,6.5,15.4,15.4S211.1,60,202.2,60c-8.9,0-15.4-6.5-15.4-15.4S193.3,29.2,202.2,29.2z
				 M202.2,54.2c5.4,0,9.3-4.3,9.3-9.6c0-5.4-3.9-9.6-9.3-9.6c-5.4,0-9.3,4.3-9.3,9.6C192.9,49.9,196.8,54.2,202.2,54.2z"/>
			<path class="st2" d="M200.8,29.1c8.9,0,15.4,6.5,15.4,15.4s-6.5,15.4-15.4,15.4c-8.9,0-15.4-6.5-15.4-15.4S191.9,29.1,200.8,29.1
				z M200.8,56.3c6.7,0,11.7-5.1,11.7-11.9s-4.9-11.9-11.7-11.9s-11.7,5.1-11.7,11.9S194,56.3,200.8,56.3z"/>
			<path class="st1" d="M233.3,34.7l0,25l-6.2,0l0-25l-8.4,0l0-5.7l23.1,0l0,5.7L233.3,34.7z"/>
			<path class="st2" d="M230.4,32.5v27.3h-3.7V32.5h-8V29h19.7v3.5H230.4z"/>
			<path class="st1" d="M246.8,59.7V29.1h16.3v5.7H253v4h10.1v5.7H253V54h10.1v5.7H246.8z"/>
			<path class="st2" d="M246.2,59.7V29.1h14.4v3.5h-10.6v7.3h10.6v3.5h-10.6v13h10.6v3.5H246.2z"/>
			<rect x="69.7" y="29.2" class="st3" width="5.5" height="31.3"/>
			<path class="st1" d="M128.1,29.1c-0.6,0-0.8,0.1-0.8,1c0,9.2-0.4,17.7-4.8,28.4c0,0,0,0,0,0l-0.5,1.2h0.3h0.4h6.3l0.5-1.5
				c2.8-7.6,3.8-14.3,3.9-21.3h11l0,22.1c0,0.6,0.3,0.8,0.9,0.8h1.5v0h4.1V29.1L128.1,29.1z"/>
			<path class="st1" d="M64.3,48.5c-0.8-6-6.6-7.6-10.6-7.6c-1.2,0-1.4,0-2,0.1l0-7h11v-4.8H46.1c-0.5,0-0.6,0-0.6,0.7l0,29.1
				c0,0.3,0.1,0.4,0.4,0.5c1.4,0.1,3.1,0.3,4.7,0.3h0.2c1.3,0,2.4,0.1,3.3,0.1C64.2,59.8,64.9,53.1,64.3,48.5z M54.8,54.5
				c-1,0-2.1,0-3.2-0.1l0-8.2c0.5,0,1.2,0,2.1,0c2.6,0,4.5,0.6,4.9,3.5C58.9,52.3,57.3,54.5,54.8,54.5z"/>
			<path class="st1" d="M320.6,59.7H314l-3.3-10h-8.3l-3.4,10h-6.6l11.2-30.5h6.5L320.6,59.7z M306.6,37.4l-2.3,6.6h4.5L306.6,37.4z
				"/>
			<path class="st2" d="M316.7,59.8H314l-4.2-12H299l-4.2,12h-2.7l11-30.6h2.6L316.7,59.8z M299.9,45.4h9.1l-4.5-12.9L299.9,45.4z"
				/>
			<path class="st1" d="M270.1,29.1h6.2v14.2l5.6-14.2h6.3L281,44.4l8.5,15.3h-7.7l-5.6-14.3v14.3h-6.2V29.1z"/>
			<g>
				<path class="st2" d="M270.1,29.1h3.7v14.5l7.6-14.5h4.2l-8.2,15.3l8.2,15.3h-4.2l-7.6-14.6v14.6h-3.7V29.1z"/>
			</g>
			<g>
				<path class="st1" d="M88.7,29.2h6.3V60h-6.3V40.1L76.7,60h-6.3V29.2h6.3V49L88.7,29.2z"/>
			</g>
			<path class="st2" d="M88.9,29.2h2.5V60h-2.5V33.4L72.2,60h-2.5V29.2h2.5v26.4L88.9,29.2z"/>
			<g>
				<g>
					<path class="st1" d="M174.6,29.2h6.3V60h-6.3V40.1L162.7,60h-6.3V29.2h6.3V49L174.6,29.2z"/>
				</g>
				<path class="st2" d="M175.6,29.2h2.5V60h-2.5V33.4L158.9,60h-2.5V29.2h2.5v26.4L175.6,29.2z"/>
			</g>
			<path class="st2" d="M51.5,42c-2.1,0-3.5,0-4.4,0.1V30.8l12.8,0v-1.8v0h-14c-0.4,0-0.6,0.2-0.6,0.6v28.9c0,0.4,0.2,0.6,0.6,0.6
				c2.6,0.3,4.1,0.4,6.2,0.4c6.3,0,9.5-3.4,9.5-8.8C61.5,44.7,56.4,42,51.5,42z M52,57.9c-1.9,0-3.1-0.1-4.9-0.3V43.9
				c0.8,0,2.3-0.1,4.4-0.1c6,0,8,4.1,8,7.2C59.5,54.3,57.6,57.9,52,57.9z"/>
			<path class="st1" d="M118.9,48.5c-0.8-6-6.6-7.6-10.6-7.6c-1.2,0-1.4,0-2,0.1l0-7h11v-4.8h-16.5c-0.5,0-0.6,0-0.6,0.7l0,29.1
				c0,0.3,0.1,0.4,0.4,0.5c1.4,0.1,3.1,0.3,4.7,0.3h0.2c1.3,0,2.4,0.1,3.3,0.1C118.8,59.8,119.5,53.1,118.9,48.5z M109.4,54.5
				c-1,0-2.1,0-3.2-0.1l0-8.2c0.5,0,1.2,0,2.1,0c2.6,0,4.5,0.6,4.9,3.5C113.5,52.3,111.9,54.5,109.4,54.5z"/>
			<path class="st2" d="M106.1,42c-2.1,0-3.5,0-4.4,0.1V30.8l12.8,0v-1.8v0h-14.1c-0.4,0-0.6,0.2-0.6,0.6v28.9
				c0,0.4,0.2,0.6,0.6,0.6c2.6,0.3,4.1,0.4,6.2,0.4c6.3,0,9.5-3.4,9.5-8.8C116.1,44.7,111,42,106.1,42z M106.6,57.9
				c-1.9,0-3.1-0.1-4.9-0.3V43.9c0.8,0,2.3-0.1,4.4-0.1c6,0,8,4.1,8,7.2C114.2,54.3,112.2,57.9,106.6,57.9z"/>
			<path class="st2" d="M151.3,58.3l0-29.2l-19.8,0v1.3h0c0,9.6-0.7,17.7-5.2,28.3l-0.4,1h2.4h0.3c0,0,0.4-1,0.4-1.1l0,0l0,0
				c4.3-10.2,5.1-18,5.2-27.2h14.4v27.3c0,0,0,0,0,0v1h2.7L151.3,58.3L151.3,58.3z"/>
		</g>
	</g>
</g>
</svg>
